%TF.GenerationSoftware,KiCad,Pcbnew,6.0.0-rc1-unknown-f2ccad3~66~ubuntu18.04.1*%
%TF.CreationDate,2018-11-07T22:10:34+01:00*%
%TF.ProjectId,clasicOverdrive,636c6173-6963-44f7-9665-726472697665,rev?*%
%TF.SameCoordinates,PX5f67d40PY8f46778*%
%TF.FileFunction,Legend,Bot*%
%TF.FilePolarity,Positive*%
%FSLAX46Y46*%
G04 Gerber Fmt 4.6, Leading zero omitted, Abs format (unit mm)*
G04 Created by KiCad (PCBNEW 6.0.0-rc1-unknown-f2ccad3~66~ubuntu18.04.1) date Mi 07 Nov 2018 22:10:34 CET*
%MOMM*%
%LPD*%
G01*
G04 APERTURE LIST*
%ADD10C,0.120000*%
%ADD11C,0.150000*%
G04 APERTURE END LIST*
D10*
%TO.C,TP2*%
X4200000Y44000000D02*
G75*
G03X4200000Y44000000I-1200000J0D01*
G01*
%TO.C,TP1*%
X4200000Y38000000D02*
G75*
G03X4200000Y38000000I-1200000J0D01*
G01*
%TO.C,TP2*%
D11*
X4261904Y42549620D02*
X3690476Y42549620D01*
X3976190Y41549620D02*
X3976190Y42549620D01*
X3357142Y41549620D02*
X3357142Y42549620D01*
X2976190Y42549620D01*
X2880952Y42502000D01*
X2833333Y42454381D01*
X2785714Y42359143D01*
X2785714Y42216286D01*
X2833333Y42121048D01*
X2880952Y42073429D01*
X2976190Y42025810D01*
X3357142Y42025810D01*
X2404761Y42454381D02*
X2357142Y42502000D01*
X2261904Y42549620D01*
X2023809Y42549620D01*
X1928571Y42502000D01*
X1880952Y42454381D01*
X1833333Y42359143D01*
X1833333Y42263905D01*
X1880952Y42121048D01*
X2452380Y41549620D01*
X1833333Y41549620D01*
%TO.C,TP1*%
X4261904Y36549620D02*
X3690476Y36549620D01*
X3976190Y35549620D02*
X3976190Y36549620D01*
X3357142Y35549620D02*
X3357142Y36549620D01*
X2976190Y36549620D01*
X2880952Y36502000D01*
X2833333Y36454381D01*
X2785714Y36359143D01*
X2785714Y36216286D01*
X2833333Y36121048D01*
X2880952Y36073429D01*
X2976190Y36025810D01*
X3357142Y36025810D01*
X1833333Y35549620D02*
X2404761Y35549620D01*
X2119047Y35549620D02*
X2119047Y36549620D01*
X2214285Y36406762D01*
X2309523Y36311524D01*
X2404761Y36263905D01*
%TD*%
M02*
