%TF.GenerationSoftware,KiCad,Pcbnew,5.1.5-52549c5~84~ubuntu18.04.1*%
%TF.CreationDate,2019-11-30T23:42:48+01:00*%
%TF.ProjectId,clasicOverdrive,636c6173-6963-44f7-9665-726472697665,A*%
%TF.SameCoordinates,PX6708f40PY898d9f8*%
%TF.FileFunction,Soldermask,Top*%
%TF.FilePolarity,Negative*%
%FSLAX46Y46*%
G04 Gerber Fmt 4.6, Leading zero omitted, Abs format (unit mm)*
G04 Created by KiCad (PCBNEW 5.1.5-52549c5~84~ubuntu18.04.1) date 2019-11-30 23:42:48*
%MOMM*%
%LPD*%
G04 APERTURE LIST*
%ADD10C,0.150000*%
%ADD11C,1.000000*%
%ADD12C,0.300000*%
%ADD13C,0.100000*%
G04 APERTURE END LIST*
D10*
X20407023Y2197620D02*
X20073690Y2673810D01*
X19835595Y2197620D02*
X19835595Y3197620D01*
X20216547Y3197620D01*
X20311785Y3150000D01*
X20359404Y3102381D01*
X20407023Y3007143D01*
X20407023Y2864286D01*
X20359404Y2769048D01*
X20311785Y2721429D01*
X20216547Y2673810D01*
X19835595Y2673810D01*
X21216547Y2245239D02*
X21121309Y2197620D01*
X20930833Y2197620D01*
X20835595Y2245239D01*
X20787976Y2340477D01*
X20787976Y2721429D01*
X20835595Y2816667D01*
X20930833Y2864286D01*
X21121309Y2864286D01*
X21216547Y2816667D01*
X21264166Y2721429D01*
X21264166Y2626191D01*
X20787976Y2530953D01*
X21597500Y2864286D02*
X21835595Y2197620D01*
X22073690Y2864286D01*
X22454642Y2292858D02*
X22502261Y2245239D01*
X22454642Y2197620D01*
X22407023Y2245239D01*
X22454642Y2292858D01*
X22454642Y2197620D01*
X22454642Y2816667D02*
X22502261Y2769048D01*
X22454642Y2721429D01*
X22407023Y2769048D01*
X22454642Y2816667D01*
X22454642Y2721429D01*
X23645119Y2483334D02*
X24121309Y2483334D01*
X23549880Y2197620D02*
X23883214Y3197620D01*
X24216547Y2197620D01*
X19787976Y1452381D02*
X19835595Y1500000D01*
X19930833Y1547620D01*
X20168928Y1547620D01*
X20264166Y1500000D01*
X20311785Y1452381D01*
X20359404Y1357143D01*
X20359404Y1261905D01*
X20311785Y1119048D01*
X19740357Y547620D01*
X20359404Y547620D01*
X20978452Y1547620D02*
X21073690Y1547620D01*
X21168928Y1500000D01*
X21216547Y1452381D01*
X21264166Y1357143D01*
X21311785Y1166667D01*
X21311785Y928572D01*
X21264166Y738096D01*
X21216547Y642858D01*
X21168928Y595239D01*
X21073690Y547620D01*
X20978452Y547620D01*
X20883214Y595239D01*
X20835595Y642858D01*
X20787976Y738096D01*
X20740357Y928572D01*
X20740357Y1166667D01*
X20787976Y1357143D01*
X20835595Y1452381D01*
X20883214Y1500000D01*
X20978452Y1547620D01*
X22264166Y547620D02*
X21692738Y547620D01*
X21978452Y547620D02*
X21978452Y1547620D01*
X21883214Y1404762D01*
X21787976Y1309524D01*
X21692738Y1261905D01*
X22740357Y547620D02*
X22930833Y547620D01*
X23026071Y595239D01*
X23073690Y642858D01*
X23168928Y785715D01*
X23216547Y976191D01*
X23216547Y1357143D01*
X23168928Y1452381D01*
X23121309Y1500000D01*
X23026071Y1547620D01*
X22835595Y1547620D01*
X22740357Y1500000D01*
X22692738Y1452381D01*
X22645119Y1357143D01*
X22645119Y1119048D01*
X22692738Y1023810D01*
X22740357Y976191D01*
X22835595Y928572D01*
X23026071Y928572D01*
X23121309Y976191D01*
X23168928Y1023810D01*
X23216547Y1119048D01*
X24359404Y1595239D02*
X23502261Y309524D01*
X25216547Y547620D02*
X24645119Y547620D01*
X24930833Y547620D02*
X24930833Y1547620D01*
X24835595Y1404762D01*
X24740357Y1309524D01*
X24645119Y1261905D01*
X26168928Y547620D02*
X25597500Y547620D01*
X25883214Y547620D02*
X25883214Y1547620D01*
X25787976Y1404762D01*
X25692738Y1309524D01*
X25597500Y1261905D01*
X27311785Y1595239D02*
X26454642Y309524D01*
X27549880Y1547620D02*
X28168928Y1547620D01*
X27835595Y1166667D01*
X27978452Y1166667D01*
X28073690Y1119048D01*
X28121309Y1071429D01*
X28168928Y976191D01*
X28168928Y738096D01*
X28121309Y642858D01*
X28073690Y595239D01*
X27978452Y547620D01*
X27692738Y547620D01*
X27597500Y595239D01*
X27549880Y642858D01*
X28787976Y1547620D02*
X28883214Y1547620D01*
X28978452Y1500000D01*
X29026071Y1452381D01*
X29073690Y1357143D01*
X29121309Y1166667D01*
X29121309Y928572D01*
X29073690Y738096D01*
X29026071Y642858D01*
X28978452Y595239D01*
X28883214Y547620D01*
X28787976Y547620D01*
X28692738Y595239D01*
X28645119Y642858D01*
X28597500Y738096D01*
X28549880Y928572D01*
X28549880Y1166667D01*
X28597500Y1357143D01*
X28645119Y1452381D01*
X28692738Y1500000D01*
X28787976Y1547620D01*
X20264166Y-1054761D02*
X20168928Y-1102380D01*
X19978452Y-1102380D01*
X19883214Y-1054761D01*
X19835595Y-1007142D01*
X19787976Y-911904D01*
X19787976Y-626190D01*
X19835595Y-530952D01*
X19883214Y-483333D01*
X19978452Y-435714D01*
X20168928Y-435714D01*
X20264166Y-483333D01*
X20835595Y-1102380D02*
X20740357Y-1054761D01*
X20692738Y-959523D01*
X20692738Y-102380D01*
X21645119Y-1102380D02*
X21645119Y-578571D01*
X21597500Y-483333D01*
X21502261Y-435714D01*
X21311785Y-435714D01*
X21216547Y-483333D01*
X21645119Y-1054761D02*
X21549880Y-1102380D01*
X21311785Y-1102380D01*
X21216547Y-1054761D01*
X21168928Y-959523D01*
X21168928Y-864285D01*
X21216547Y-769047D01*
X21311785Y-721428D01*
X21549880Y-721428D01*
X21645119Y-673809D01*
X22073690Y-1054761D02*
X22168928Y-1102380D01*
X22359404Y-1102380D01*
X22454642Y-1054761D01*
X22502261Y-959523D01*
X22502261Y-911904D01*
X22454642Y-816666D01*
X22359404Y-769047D01*
X22216547Y-769047D01*
X22121309Y-721428D01*
X22073690Y-626190D01*
X22073690Y-578571D01*
X22121309Y-483333D01*
X22216547Y-435714D01*
X22359404Y-435714D01*
X22454642Y-483333D01*
X22930833Y-1102380D02*
X22930833Y-435714D01*
X22930833Y-102380D02*
X22883214Y-150000D01*
X22930833Y-197619D01*
X22978452Y-150000D01*
X22930833Y-102380D01*
X22930833Y-197619D01*
X23835595Y-1054761D02*
X23740357Y-1102380D01*
X23549880Y-1102380D01*
X23454642Y-1054761D01*
X23407023Y-1007142D01*
X23359404Y-911904D01*
X23359404Y-626190D01*
X23407023Y-530952D01*
X23454642Y-483333D01*
X23549880Y-435714D01*
X23740357Y-435714D01*
X23835595Y-483333D01*
X24454642Y-102380D02*
X24645119Y-102380D01*
X24740357Y-150000D01*
X24835595Y-245238D01*
X24883214Y-435714D01*
X24883214Y-769047D01*
X24835595Y-959523D01*
X24740357Y-1054761D01*
X24645119Y-1102380D01*
X24454642Y-1102380D01*
X24359404Y-1054761D01*
X24264166Y-959523D01*
X24216547Y-769047D01*
X24216547Y-435714D01*
X24264166Y-245238D01*
X24359404Y-150000D01*
X24454642Y-102380D01*
X25216547Y-435714D02*
X25454642Y-1102380D01*
X25692738Y-435714D01*
X26454642Y-1054761D02*
X26359404Y-1102380D01*
X26168928Y-1102380D01*
X26073690Y-1054761D01*
X26026071Y-959523D01*
X26026071Y-578571D01*
X26073690Y-483333D01*
X26168928Y-435714D01*
X26359404Y-435714D01*
X26454642Y-483333D01*
X26502261Y-578571D01*
X26502261Y-673809D01*
X26026071Y-769047D01*
X26930833Y-1102380D02*
X26930833Y-435714D01*
X26930833Y-626190D02*
X26978452Y-530952D01*
X27026071Y-483333D01*
X27121309Y-435714D01*
X27216547Y-435714D01*
X27978452Y-1102380D02*
X27978452Y-102380D01*
X27978452Y-1054761D02*
X27883214Y-1102380D01*
X27692738Y-1102380D01*
X27597500Y-1054761D01*
X27549880Y-1007142D01*
X27502261Y-911904D01*
X27502261Y-626190D01*
X27549880Y-530952D01*
X27597500Y-483333D01*
X27692738Y-435714D01*
X27883214Y-435714D01*
X27978452Y-483333D01*
X28454642Y-1102380D02*
X28454642Y-435714D01*
X28454642Y-626190D02*
X28502261Y-530952D01*
X28549880Y-483333D01*
X28645119Y-435714D01*
X28740357Y-435714D01*
X29073690Y-1102380D02*
X29073690Y-435714D01*
X29073690Y-102380D02*
X29026071Y-150000D01*
X29073690Y-197619D01*
X29121309Y-150000D01*
X29073690Y-102380D01*
X29073690Y-197619D01*
X29454642Y-435714D02*
X29692738Y-1102380D01*
X29930833Y-435714D01*
X30692738Y-1054761D02*
X30597500Y-1102380D01*
X30407023Y-1102380D01*
X30311785Y-1054761D01*
X30264166Y-959523D01*
X30264166Y-578571D01*
X30311785Y-483333D01*
X30407023Y-435714D01*
X30597500Y-435714D01*
X30692738Y-483333D01*
X30740357Y-578571D01*
X30740357Y-673809D01*
X30264166Y-769047D01*
D11*
X-2000000Y-1000000D02*
X-2000000Y28000000D01*
X-1000000Y-2000000D02*
X-2000000Y-1000000D01*
X-2000000Y28000000D02*
X-2000000Y42500000D01*
X36000000Y-2000000D02*
X-1000000Y-2000000D01*
X37000000Y-1000000D02*
X36000000Y-2000000D01*
X37000000Y2000000D02*
X37000000Y-1000000D01*
X37000000Y57000000D02*
X37000000Y2000000D01*
X37000000Y72000000D02*
X37000000Y64000000D01*
X36000000Y73000000D02*
X37000000Y72000000D01*
X8000000Y73000000D02*
X36000000Y73000000D01*
X-1000000Y73000000D02*
X8000000Y73000000D01*
X-2000000Y72000000D02*
X-2000000Y64500000D01*
X-1000000Y73000000D02*
X-2000000Y72000000D01*
X37000000Y59000000D02*
X37000000Y57000000D01*
X-2000000Y48500000D02*
X-2000000Y58500000D01*
D12*
%TO.C,T1*%
X18500000Y0D02*
X18800000Y-300000D01*
X16900000Y400000D02*
X17100000Y600000D01*
X13500000Y-1000000D02*
X12500000Y0D01*
X14500000Y0D02*
X13500000Y-1000000D01*
X15500000Y-1000000D02*
X14500000Y0D01*
X16500000Y0D02*
X15500000Y-1000000D01*
X17500000Y-1000000D02*
X16500000Y0D01*
X18500000Y0D02*
X17500000Y-1000000D01*
X15500000Y3000000D02*
X18500000Y0D01*
X15500000Y3000000D02*
X12500000Y0D01*
D13*
G36*
X35787559Y2596241D02*
G01*
X35787562Y2596240D01*
X35787561Y2596240D01*
X36278930Y2392709D01*
X36721150Y2097227D01*
X37097227Y1721150D01*
X37392709Y1278930D01*
X37508245Y1000000D01*
X37596241Y787559D01*
X37700000Y265928D01*
X37700000Y-265928D01*
X37596241Y-787559D01*
X37596240Y-787561D01*
X37392709Y-1278930D01*
X37097227Y-1721150D01*
X36721150Y-2097227D01*
X36278930Y-2392709D01*
X35871866Y-2561320D01*
X35787559Y-2596241D01*
X35265928Y-2700000D01*
X34734072Y-2700000D01*
X34212441Y-2596241D01*
X34128134Y-2561320D01*
X33721070Y-2392709D01*
X33278850Y-2097227D01*
X32902773Y-1721150D01*
X32607291Y-1278930D01*
X32403760Y-787561D01*
X32403759Y-787559D01*
X32300000Y-265928D01*
X32300000Y265928D01*
X32403759Y787559D01*
X32491755Y1000000D01*
X32607291Y1278930D01*
X32902773Y1721150D01*
X33278850Y2097227D01*
X33721070Y2392709D01*
X34212439Y2596240D01*
X34212438Y2596240D01*
X34212441Y2596241D01*
X34734072Y2700000D01*
X35265928Y2700000D01*
X35787559Y2596241D01*
G37*
G36*
X787559Y2596241D02*
G01*
X787562Y2596240D01*
X787561Y2596240D01*
X1278930Y2392709D01*
X1721150Y2097227D01*
X2097227Y1721150D01*
X2392709Y1278930D01*
X2508245Y1000000D01*
X2596241Y787559D01*
X2700000Y265928D01*
X2700000Y-265928D01*
X2596241Y-787559D01*
X2596240Y-787561D01*
X2392709Y-1278930D01*
X2097227Y-1721150D01*
X1721150Y-2097227D01*
X1278930Y-2392709D01*
X871866Y-2561320D01*
X787559Y-2596241D01*
X265928Y-2700000D01*
X-265928Y-2700000D01*
X-787559Y-2596241D01*
X-871866Y-2561320D01*
X-1278930Y-2392709D01*
X-1721150Y-2097227D01*
X-2097227Y-1721150D01*
X-2392709Y-1278930D01*
X-2596240Y-787561D01*
X-2596241Y-787559D01*
X-2700000Y-265928D01*
X-2700000Y265928D01*
X-2596241Y787559D01*
X-2508245Y1000000D01*
X-2392709Y1278930D01*
X-2097227Y1721150D01*
X-1721150Y2097227D01*
X-1278930Y2392709D01*
X-787561Y2596240D01*
X-787562Y2596240D01*
X-787559Y2596241D01*
X-265928Y2700000D01*
X265928Y2700000D01*
X787559Y2596241D01*
G37*
G36*
X5195090Y980785D02*
G01*
X5291689Y961571D01*
X5473678Y886189D01*
X5637463Y776751D01*
X5776751Y637463D01*
X5886189Y473678D01*
X5961571Y291689D01*
X6000000Y98491D01*
X6000000Y-98491D01*
X5961571Y-291689D01*
X5886189Y-473678D01*
X5776751Y-637463D01*
X5637463Y-776751D01*
X5473678Y-886189D01*
X5291689Y-961571D01*
X5195090Y-980786D01*
X5098493Y-1000000D01*
X4901507Y-1000000D01*
X4804910Y-980786D01*
X4708311Y-961571D01*
X4526322Y-886189D01*
X4362537Y-776751D01*
X4223249Y-637463D01*
X4113811Y-473678D01*
X4038429Y-291689D01*
X4000000Y-98491D01*
X4000000Y98491D01*
X4038429Y291689D01*
X4113811Y473678D01*
X4223249Y637463D01*
X4362537Y776751D01*
X4526322Y886189D01*
X4708311Y961571D01*
X4804910Y980785D01*
X4901507Y1000000D01*
X5098493Y1000000D01*
X5195090Y980785D01*
G37*
G36*
X20774354Y6797903D02*
G01*
X20885443Y6775806D01*
X21008039Y6725024D01*
X21094728Y6689117D01*
X21283081Y6563264D01*
X21443264Y6403081D01*
X21569117Y6214728D01*
X21605024Y6128039D01*
X21655806Y6005443D01*
X21655806Y6005441D01*
X21700000Y5783267D01*
X21700000Y5556733D01*
X21684630Y5479464D01*
X21655806Y5334557D01*
X21605024Y5211961D01*
X21569117Y5125272D01*
X21443264Y4936919D01*
X21283081Y4776736D01*
X21094728Y4650883D01*
X21008039Y4614976D01*
X20885443Y4564194D01*
X20774354Y4542097D01*
X20663267Y4520000D01*
X20436733Y4520000D01*
X20325646Y4542097D01*
X20214557Y4564194D01*
X20091961Y4614976D01*
X20005272Y4650883D01*
X19816919Y4776736D01*
X19656736Y4936919D01*
X19530883Y5125272D01*
X19494976Y5211961D01*
X19444194Y5334557D01*
X19415370Y5479464D01*
X19400000Y5556733D01*
X19400000Y5783267D01*
X19444194Y6005441D01*
X19444194Y6005443D01*
X19494976Y6128039D01*
X19530883Y6214728D01*
X19656736Y6403081D01*
X19816919Y6563264D01*
X20005272Y6689117D01*
X20091961Y6725024D01*
X20214557Y6775806D01*
X20325646Y6797903D01*
X20436733Y6820000D01*
X20663267Y6820000D01*
X20774354Y6797903D01*
G37*
G36*
X27124354Y6797903D02*
G01*
X27235443Y6775806D01*
X27358039Y6725024D01*
X27444728Y6689117D01*
X27633081Y6563264D01*
X27793264Y6403081D01*
X27919117Y6214728D01*
X27955024Y6128039D01*
X28005806Y6005443D01*
X28005806Y6005441D01*
X28050000Y5783267D01*
X28050000Y5556733D01*
X28034630Y5479464D01*
X28005806Y5334557D01*
X27955024Y5211961D01*
X27919117Y5125272D01*
X27793264Y4936919D01*
X27633081Y4776736D01*
X27444728Y4650883D01*
X27358039Y4614976D01*
X27235443Y4564194D01*
X27124354Y4542097D01*
X27013267Y4520000D01*
X26786733Y4520000D01*
X26675646Y4542097D01*
X26564557Y4564194D01*
X26441961Y4614976D01*
X26355272Y4650883D01*
X26166919Y4776736D01*
X26006736Y4936919D01*
X25880883Y5125272D01*
X25844976Y5211961D01*
X25794194Y5334557D01*
X25765370Y5479464D01*
X25750000Y5556733D01*
X25750000Y5783267D01*
X25794194Y6005441D01*
X25794194Y6005443D01*
X25844976Y6128039D01*
X25880883Y6214728D01*
X26006736Y6403081D01*
X26166919Y6563264D01*
X26355272Y6689117D01*
X26441961Y6725024D01*
X26564557Y6775806D01*
X26675646Y6797903D01*
X26786733Y6820000D01*
X27013267Y6820000D01*
X27124354Y6797903D01*
G37*
G36*
X33474354Y6797903D02*
G01*
X33585443Y6775806D01*
X33708039Y6725024D01*
X33794728Y6689117D01*
X33983081Y6563264D01*
X34143264Y6403081D01*
X34269117Y6214728D01*
X34305024Y6128039D01*
X34355806Y6005443D01*
X34355806Y6005441D01*
X34400000Y5783267D01*
X34400000Y5556733D01*
X34384630Y5479464D01*
X34355806Y5334557D01*
X34305024Y5211961D01*
X34269117Y5125272D01*
X34143264Y4936919D01*
X33983081Y4776736D01*
X33794728Y4650883D01*
X33708039Y4614976D01*
X33585443Y4564194D01*
X33474354Y4542097D01*
X33363267Y4520000D01*
X33136733Y4520000D01*
X33025646Y4542097D01*
X32914557Y4564194D01*
X32791961Y4614976D01*
X32705272Y4650883D01*
X32516919Y4776736D01*
X32356736Y4936919D01*
X32230883Y5125272D01*
X32194976Y5211961D01*
X32144194Y5334557D01*
X32115370Y5479464D01*
X32100000Y5556733D01*
X32100000Y5783267D01*
X32144194Y6005441D01*
X32144194Y6005443D01*
X32194976Y6128039D01*
X32230883Y6214728D01*
X32356736Y6403081D01*
X32516919Y6563264D01*
X32705272Y6689117D01*
X32791961Y6725024D01*
X32914557Y6775806D01*
X33025646Y6797903D01*
X33136733Y6820000D01*
X33363267Y6820000D01*
X33474354Y6797903D01*
G37*
G36*
X11904561Y7176943D02*
G01*
X11962520Y7165414D01*
X12126310Y7097570D01*
X12273717Y6999076D01*
X12399076Y6873717D01*
X12399077Y6873715D01*
X12497571Y6726308D01*
X12505995Y6705970D01*
X12565414Y6562520D01*
X12600000Y6388642D01*
X12600000Y6211358D01*
X12565414Y6037480D01*
X12497570Y5873690D01*
X12399076Y5726283D01*
X12273717Y5600924D01*
X12126310Y5502430D01*
X11962520Y5434586D01*
X11904561Y5423057D01*
X11788644Y5400000D01*
X11611356Y5400000D01*
X11495439Y5423057D01*
X11437480Y5434586D01*
X11273690Y5502430D01*
X11126283Y5600924D01*
X11000924Y5726283D01*
X10902430Y5873690D01*
X10834586Y6037480D01*
X10800000Y6211358D01*
X10800000Y6388642D01*
X10834586Y6562520D01*
X10894005Y6705970D01*
X10902429Y6726308D01*
X11000923Y6873715D01*
X11000924Y6873717D01*
X11126283Y6999076D01*
X11273690Y7097570D01*
X11437480Y7165414D01*
X11495439Y7176943D01*
X11611356Y7200000D01*
X11788644Y7200000D01*
X11904561Y7176943D01*
G37*
G36*
X7104561Y7176943D02*
G01*
X7162520Y7165414D01*
X7326310Y7097570D01*
X7473717Y6999076D01*
X7599076Y6873717D01*
X7599077Y6873715D01*
X7697571Y6726308D01*
X7705995Y6705970D01*
X7765414Y6562520D01*
X7800000Y6388642D01*
X7800000Y6211358D01*
X7765414Y6037480D01*
X7697570Y5873690D01*
X7599076Y5726283D01*
X7473717Y5600924D01*
X7326310Y5502430D01*
X7162520Y5434586D01*
X7104561Y5423057D01*
X6988644Y5400000D01*
X6811356Y5400000D01*
X6695439Y5423057D01*
X6637480Y5434586D01*
X6473690Y5502430D01*
X6326283Y5600924D01*
X6200924Y5726283D01*
X6102430Y5873690D01*
X6034586Y6037480D01*
X6000000Y6211358D01*
X6000000Y6388642D01*
X6034586Y6562520D01*
X6094005Y6705970D01*
X6102429Y6726308D01*
X6200923Y6873715D01*
X6200924Y6873717D01*
X6326283Y6999076D01*
X6473690Y7097570D01*
X6637480Y7165414D01*
X6695439Y7176943D01*
X6811356Y7200000D01*
X6988644Y7200000D01*
X7104561Y7176943D01*
G37*
G36*
X2304561Y7176943D02*
G01*
X2362520Y7165414D01*
X2526310Y7097570D01*
X2673717Y6999076D01*
X2799076Y6873717D01*
X2799077Y6873715D01*
X2897571Y6726308D01*
X2905995Y6705970D01*
X2965414Y6562520D01*
X3000000Y6388642D01*
X3000000Y6211358D01*
X2965414Y6037480D01*
X2897570Y5873690D01*
X2799076Y5726283D01*
X2673717Y5600924D01*
X2526310Y5502430D01*
X2362520Y5434586D01*
X2304561Y5423057D01*
X2188644Y5400000D01*
X2011356Y5400000D01*
X1895439Y5423057D01*
X1837480Y5434586D01*
X1673690Y5502430D01*
X1526283Y5600924D01*
X1400924Y5726283D01*
X1302430Y5873690D01*
X1234586Y6037480D01*
X1200000Y6211358D01*
X1200000Y6388642D01*
X1234586Y6562520D01*
X1294005Y6705970D01*
X1302429Y6726308D01*
X1400923Y6873715D01*
X1400924Y6873717D01*
X1526283Y6999076D01*
X1673690Y7097570D01*
X1837480Y7165414D01*
X1895439Y7176943D01*
X2011356Y7200000D01*
X2188644Y7200000D01*
X2304561Y7176943D01*
G37*
G36*
X16697872Y6720536D02*
G01*
X16739097Y6708031D01*
X16777090Y6687722D01*
X16810392Y6660392D01*
X16837722Y6627090D01*
X16858031Y6589097D01*
X16870536Y6547872D01*
X16875000Y6502546D01*
X16875000Y5697454D01*
X16870536Y5652128D01*
X16858031Y5610903D01*
X16837722Y5572910D01*
X16810392Y5539608D01*
X16777090Y5512278D01*
X16739097Y5491969D01*
X16697872Y5479464D01*
X16652546Y5475000D01*
X15347454Y5475000D01*
X15302128Y5479464D01*
X15260903Y5491969D01*
X15222910Y5512278D01*
X15189608Y5539608D01*
X15162278Y5572910D01*
X15141969Y5610903D01*
X15129464Y5652128D01*
X15125000Y5697454D01*
X15125000Y6502546D01*
X15129464Y6547872D01*
X15141969Y6589097D01*
X15162278Y6627090D01*
X15189608Y6660392D01*
X15222910Y6687722D01*
X15260903Y6708031D01*
X15302128Y6720536D01*
X15347454Y6725000D01*
X16652546Y6725000D01*
X16697872Y6720536D01*
G37*
G36*
X16697872Y9520536D02*
G01*
X16739097Y9508031D01*
X16777090Y9487722D01*
X16810392Y9460392D01*
X16837722Y9427090D01*
X16858031Y9389097D01*
X16870536Y9347872D01*
X16875000Y9302546D01*
X16875000Y8497454D01*
X16870536Y8452128D01*
X16858031Y8410903D01*
X16837722Y8372910D01*
X16810392Y8339608D01*
X16777090Y8312278D01*
X16739097Y8291969D01*
X16697872Y8279464D01*
X16652546Y8275000D01*
X15347454Y8275000D01*
X15302128Y8279464D01*
X15260903Y8291969D01*
X15222910Y8312278D01*
X15189608Y8339608D01*
X15162278Y8372910D01*
X15141969Y8410903D01*
X15129464Y8452128D01*
X15125000Y8497454D01*
X15125000Y9302546D01*
X15129464Y9347872D01*
X15141969Y9389097D01*
X15162278Y9427090D01*
X15189608Y9460392D01*
X15222910Y9487722D01*
X15260903Y9508031D01*
X15302128Y9520536D01*
X15347454Y9525000D01*
X16652546Y9525000D01*
X16697872Y9520536D01*
G37*
G36*
X16319002Y11146040D02*
G01*
X16355301Y11135029D01*
X16388757Y11117146D01*
X16418081Y11093081D01*
X16442146Y11063757D01*
X16460029Y11030301D01*
X16471040Y10994002D01*
X16475000Y10953796D01*
X16475000Y10471204D01*
X16471040Y10430998D01*
X16460029Y10394699D01*
X16442146Y10361243D01*
X16418081Y10331919D01*
X16388757Y10307854D01*
X16355301Y10289971D01*
X16319002Y10278960D01*
X16278796Y10275000D01*
X15721204Y10275000D01*
X15680998Y10278960D01*
X15644699Y10289971D01*
X15611243Y10307854D01*
X15581919Y10331919D01*
X15557854Y10361243D01*
X15539971Y10394699D01*
X15528960Y10430998D01*
X15525000Y10471204D01*
X15525000Y10953796D01*
X15528960Y10994002D01*
X15539971Y11030301D01*
X15557854Y11063757D01*
X15581919Y11093081D01*
X15611243Y11117146D01*
X15644699Y11135029D01*
X15680998Y11146040D01*
X15721204Y11150000D01*
X16278796Y11150000D01*
X16319002Y11146040D01*
G37*
G36*
X2304561Y12476943D02*
G01*
X2362520Y12465414D01*
X2526310Y12397570D01*
X2673717Y12299076D01*
X2799076Y12173717D01*
X2897570Y12026310D01*
X2965414Y11862520D01*
X3000000Y11688642D01*
X3000000Y11511358D01*
X2965414Y11337480D01*
X2897570Y11173690D01*
X2799076Y11026283D01*
X2673717Y10900924D01*
X2526310Y10802430D01*
X2362520Y10734586D01*
X2304561Y10723057D01*
X2188644Y10700000D01*
X2011356Y10700000D01*
X1895439Y10723057D01*
X1837480Y10734586D01*
X1673690Y10802430D01*
X1526283Y10900924D01*
X1400924Y11026283D01*
X1302430Y11173690D01*
X1234586Y11337480D01*
X1200000Y11511358D01*
X1200000Y11688642D01*
X1234586Y11862520D01*
X1302430Y12026310D01*
X1400924Y12173717D01*
X1526283Y12299076D01*
X1673690Y12397570D01*
X1837480Y12465414D01*
X1895439Y12476943D01*
X2011356Y12500000D01*
X2188644Y12500000D01*
X2304561Y12476943D01*
G37*
G36*
X7104561Y12476943D02*
G01*
X7162520Y12465414D01*
X7326310Y12397570D01*
X7473717Y12299076D01*
X7599076Y12173717D01*
X7697570Y12026310D01*
X7765414Y11862520D01*
X7800000Y11688642D01*
X7800000Y11511358D01*
X7765414Y11337480D01*
X7697570Y11173690D01*
X7599076Y11026283D01*
X7473717Y10900924D01*
X7326310Y10802430D01*
X7162520Y10734586D01*
X7104561Y10723057D01*
X6988644Y10700000D01*
X6811356Y10700000D01*
X6695439Y10723057D01*
X6637480Y10734586D01*
X6473690Y10802430D01*
X6326283Y10900924D01*
X6200924Y11026283D01*
X6102430Y11173690D01*
X6034586Y11337480D01*
X6000000Y11511358D01*
X6000000Y11688642D01*
X6034586Y11862520D01*
X6102430Y12026310D01*
X6200924Y12173717D01*
X6326283Y12299076D01*
X6473690Y12397570D01*
X6637480Y12465414D01*
X6695439Y12476943D01*
X6811356Y12500000D01*
X6988644Y12500000D01*
X7104561Y12476943D01*
G37*
G36*
X11904561Y12476943D02*
G01*
X11962520Y12465414D01*
X12126310Y12397570D01*
X12273717Y12299076D01*
X12399076Y12173717D01*
X12497570Y12026310D01*
X12565414Y11862520D01*
X12600000Y11688642D01*
X12600000Y11511358D01*
X12565414Y11337480D01*
X12497570Y11173690D01*
X12399076Y11026283D01*
X12273717Y10900924D01*
X12126310Y10802430D01*
X11962520Y10734586D01*
X11904561Y10723057D01*
X11788644Y10700000D01*
X11611356Y10700000D01*
X11495439Y10723057D01*
X11437480Y10734586D01*
X11273690Y10802430D01*
X11126283Y10900924D01*
X11000924Y11026283D01*
X10902430Y11173690D01*
X10834586Y11337480D01*
X10800000Y11511358D01*
X10800000Y11688642D01*
X10834586Y11862520D01*
X10902430Y12026310D01*
X11000924Y12173717D01*
X11126283Y12299076D01*
X11273690Y12397570D01*
X11437480Y12465414D01*
X11495439Y12476943D01*
X11611356Y12500000D01*
X11788644Y12500000D01*
X11904561Y12476943D01*
G37*
G36*
X18968765Y12471179D02*
G01*
X19105257Y12414642D01*
X19228096Y12332564D01*
X19332564Y12228096D01*
X19414642Y12105257D01*
X19471179Y11968765D01*
X19500000Y11823870D01*
X19500000Y11676130D01*
X19471179Y11531235D01*
X19414642Y11394743D01*
X19332564Y11271904D01*
X19228096Y11167436D01*
X19105257Y11085358D01*
X18968765Y11028821D01*
X18823870Y11000000D01*
X18676130Y11000000D01*
X18531235Y11028821D01*
X18394743Y11085358D01*
X18271904Y11167436D01*
X18167436Y11271904D01*
X18085358Y11394743D01*
X18028821Y11531235D01*
X18000000Y11676130D01*
X18000000Y11823870D01*
X18028821Y11968765D01*
X18085358Y12105257D01*
X18167436Y12228096D01*
X18271904Y12332564D01*
X18394743Y12414642D01*
X18531235Y12471179D01*
X18676130Y12500000D01*
X18823870Y12500000D01*
X18968765Y12471179D01*
G37*
G36*
X16319002Y12721040D02*
G01*
X16355301Y12710029D01*
X16388757Y12692146D01*
X16418081Y12668081D01*
X16442146Y12638757D01*
X16460029Y12605301D01*
X16471040Y12569002D01*
X16475000Y12528796D01*
X16475000Y12046204D01*
X16471040Y12005998D01*
X16460029Y11969699D01*
X16442146Y11936243D01*
X16418081Y11906919D01*
X16388757Y11882854D01*
X16355301Y11864971D01*
X16319002Y11853960D01*
X16278796Y11850000D01*
X15721204Y11850000D01*
X15680998Y11853960D01*
X15644699Y11864971D01*
X15611243Y11882854D01*
X15581919Y11906919D01*
X15557854Y11936243D01*
X15539971Y11969699D01*
X15528960Y12005998D01*
X15525000Y12046204D01*
X15525000Y12528796D01*
X15528960Y12569002D01*
X15539971Y12605301D01*
X15557854Y12638757D01*
X15581919Y12668081D01*
X15611243Y12692146D01*
X15644699Y12710029D01*
X15680998Y12721040D01*
X15721204Y12725000D01*
X16278796Y12725000D01*
X16319002Y12721040D01*
G37*
G36*
X17919002Y14558540D02*
G01*
X17955301Y14547529D01*
X17988757Y14529646D01*
X18018081Y14505581D01*
X18042146Y14476257D01*
X18060029Y14442801D01*
X18071040Y14406502D01*
X18075000Y14366296D01*
X18075000Y13883704D01*
X18071040Y13843498D01*
X18060029Y13807199D01*
X18042146Y13773743D01*
X18018081Y13744419D01*
X17988757Y13720354D01*
X17955301Y13702471D01*
X17919002Y13691460D01*
X17878796Y13687500D01*
X17321204Y13687500D01*
X17280998Y13691460D01*
X17244699Y13702471D01*
X17211243Y13720354D01*
X17181919Y13744419D01*
X17157854Y13773743D01*
X17139971Y13807199D01*
X17128960Y13843498D01*
X17125000Y13883704D01*
X17125000Y14366296D01*
X17128960Y14406502D01*
X17139971Y14442801D01*
X17157854Y14476257D01*
X17181919Y14505581D01*
X17211243Y14529646D01*
X17244699Y14547529D01*
X17280998Y14558540D01*
X17321204Y14562500D01*
X17878796Y14562500D01*
X17919002Y14558540D01*
G37*
G36*
X17919002Y16133540D02*
G01*
X17955301Y16122529D01*
X17988757Y16104646D01*
X18018081Y16080581D01*
X18042146Y16051257D01*
X18060029Y16017801D01*
X18071040Y15981502D01*
X18075000Y15941296D01*
X18075000Y15458704D01*
X18071040Y15418498D01*
X18060029Y15382199D01*
X18042146Y15348743D01*
X18018081Y15319419D01*
X17988757Y15295354D01*
X17955301Y15277471D01*
X17919002Y15266460D01*
X17878796Y15262500D01*
X17321204Y15262500D01*
X17280998Y15266460D01*
X17244699Y15277471D01*
X17211243Y15295354D01*
X17181919Y15319419D01*
X17157854Y15348743D01*
X17139971Y15382199D01*
X17128960Y15418498D01*
X17125000Y15458704D01*
X17125000Y15941296D01*
X17128960Y15981502D01*
X17139971Y16017801D01*
X17157854Y16051257D01*
X17181919Y16080581D01*
X17211243Y16104646D01*
X17244699Y16122529D01*
X17280998Y16133540D01*
X17321204Y16137500D01*
X17878796Y16137500D01*
X17919002Y16133540D01*
G37*
G36*
X20774354Y18227903D02*
G01*
X20885443Y18205806D01*
X21008039Y18155024D01*
X21094728Y18119117D01*
X21283081Y17993264D01*
X21443264Y17833081D01*
X21569117Y17644728D01*
X21598463Y17573879D01*
X21655806Y17435443D01*
X21655806Y17435441D01*
X21700000Y17213267D01*
X21700000Y16986733D01*
X21692916Y16951121D01*
X21655806Y16764557D01*
X21605024Y16641961D01*
X21569117Y16555272D01*
X21443264Y16366919D01*
X21283081Y16206736D01*
X21094728Y16080883D01*
X21023204Y16051257D01*
X20885443Y15994194D01*
X20774354Y15972097D01*
X20663267Y15950000D01*
X20436733Y15950000D01*
X20325646Y15972097D01*
X20214557Y15994194D01*
X20076796Y16051257D01*
X20005272Y16080883D01*
X19816919Y16206736D01*
X19656736Y16366919D01*
X19530883Y16555272D01*
X19494976Y16641961D01*
X19444194Y16764557D01*
X19407084Y16951121D01*
X19400000Y16986733D01*
X19400000Y17213267D01*
X19444194Y17435441D01*
X19444194Y17435443D01*
X19501537Y17573879D01*
X19530883Y17644728D01*
X19656736Y17833081D01*
X19816919Y17993264D01*
X20005272Y18119117D01*
X20091961Y18155024D01*
X20214557Y18205806D01*
X20325646Y18227903D01*
X20436733Y18250000D01*
X20663267Y18250000D01*
X20774354Y18227903D01*
G37*
G36*
X33474354Y18227903D02*
G01*
X33585443Y18205806D01*
X33708039Y18155024D01*
X33794728Y18119117D01*
X33983081Y17993264D01*
X34143264Y17833081D01*
X34269117Y17644728D01*
X34298463Y17573879D01*
X34355806Y17435443D01*
X34355806Y17435441D01*
X34400000Y17213267D01*
X34400000Y16986733D01*
X34392916Y16951121D01*
X34355806Y16764557D01*
X34305024Y16641961D01*
X34269117Y16555272D01*
X34143264Y16366919D01*
X33983081Y16206736D01*
X33794728Y16080883D01*
X33723204Y16051257D01*
X33585443Y15994194D01*
X33474354Y15972097D01*
X33363267Y15950000D01*
X33136733Y15950000D01*
X33025646Y15972097D01*
X32914557Y15994194D01*
X32776796Y16051257D01*
X32705272Y16080883D01*
X32516919Y16206736D01*
X32356736Y16366919D01*
X32230883Y16555272D01*
X32194976Y16641961D01*
X32144194Y16764557D01*
X32107084Y16951121D01*
X32100000Y16986733D01*
X32100000Y17213267D01*
X32144194Y17435441D01*
X32144194Y17435443D01*
X32201537Y17573879D01*
X32230883Y17644728D01*
X32356736Y17833081D01*
X32516919Y17993264D01*
X32705272Y18119117D01*
X32791961Y18155024D01*
X32914557Y18205806D01*
X33025646Y18227903D01*
X33136733Y18250000D01*
X33363267Y18250000D01*
X33474354Y18227903D01*
G37*
G36*
X27124354Y18227903D02*
G01*
X27235443Y18205806D01*
X27358039Y18155024D01*
X27444728Y18119117D01*
X27633081Y17993264D01*
X27793264Y17833081D01*
X27919117Y17644728D01*
X27948463Y17573879D01*
X28005806Y17435443D01*
X28005806Y17435441D01*
X28050000Y17213267D01*
X28050000Y16986733D01*
X28042916Y16951121D01*
X28005806Y16764557D01*
X27955024Y16641961D01*
X27919117Y16555272D01*
X27793264Y16366919D01*
X27633081Y16206736D01*
X27444728Y16080883D01*
X27373204Y16051257D01*
X27235443Y15994194D01*
X27124354Y15972097D01*
X27013267Y15950000D01*
X26786733Y15950000D01*
X26675646Y15972097D01*
X26564557Y15994194D01*
X26426796Y16051257D01*
X26355272Y16080883D01*
X26166919Y16206736D01*
X26006736Y16366919D01*
X25880883Y16555272D01*
X25844976Y16641961D01*
X25794194Y16764557D01*
X25757084Y16951121D01*
X25750000Y16986733D01*
X25750000Y17213267D01*
X25794194Y17435441D01*
X25794194Y17435443D01*
X25851537Y17573879D01*
X25880883Y17644728D01*
X26006736Y17833081D01*
X26166919Y17993264D01*
X26355272Y18119117D01*
X26441961Y18155024D01*
X26564557Y18205806D01*
X26675646Y18227903D01*
X26786733Y18250000D01*
X27013267Y18250000D01*
X27124354Y18227903D01*
G37*
G36*
X2304561Y17776943D02*
G01*
X2362520Y17765414D01*
X2526310Y17697570D01*
X2673717Y17599076D01*
X2799076Y17473717D01*
X2824651Y17435441D01*
X2897571Y17326308D01*
X2965414Y17162519D01*
X3000000Y16988644D01*
X3000000Y16811356D01*
X2993700Y16779684D01*
X2965414Y16637480D01*
X2897570Y16473690D01*
X2799076Y16326283D01*
X2673717Y16200924D01*
X2526310Y16102430D01*
X2362520Y16034586D01*
X2304561Y16023057D01*
X2188644Y16000000D01*
X2011356Y16000000D01*
X1895439Y16023057D01*
X1837480Y16034586D01*
X1673690Y16102430D01*
X1526283Y16200924D01*
X1400924Y16326283D01*
X1302430Y16473690D01*
X1234586Y16637480D01*
X1206300Y16779684D01*
X1200000Y16811356D01*
X1200000Y16988644D01*
X1234586Y17162519D01*
X1302429Y17326308D01*
X1375349Y17435441D01*
X1400924Y17473717D01*
X1526283Y17599076D01*
X1673690Y17697570D01*
X1837480Y17765414D01*
X1895439Y17776943D01*
X2011356Y17800000D01*
X2188644Y17800000D01*
X2304561Y17776943D01*
G37*
G36*
X7104561Y17776943D02*
G01*
X7162520Y17765414D01*
X7326310Y17697570D01*
X7473717Y17599076D01*
X7599076Y17473717D01*
X7624651Y17435441D01*
X7697571Y17326308D01*
X7765414Y17162519D01*
X7800000Y16988644D01*
X7800000Y16811356D01*
X7793700Y16779684D01*
X7765414Y16637480D01*
X7697570Y16473690D01*
X7599076Y16326283D01*
X7473717Y16200924D01*
X7326310Y16102430D01*
X7162520Y16034586D01*
X7104561Y16023057D01*
X6988644Y16000000D01*
X6811356Y16000000D01*
X6695439Y16023057D01*
X6637480Y16034586D01*
X6473690Y16102430D01*
X6326283Y16200924D01*
X6200924Y16326283D01*
X6102430Y16473690D01*
X6034586Y16637480D01*
X6006300Y16779684D01*
X6000000Y16811356D01*
X6000000Y16988644D01*
X6034586Y17162519D01*
X6102429Y17326308D01*
X6175349Y17435441D01*
X6200924Y17473717D01*
X6326283Y17599076D01*
X6473690Y17697570D01*
X6637480Y17765414D01*
X6695439Y17776943D01*
X6811356Y17800000D01*
X6988644Y17800000D01*
X7104561Y17776943D01*
G37*
G36*
X11904561Y17776943D02*
G01*
X11962520Y17765414D01*
X12126310Y17697570D01*
X12273717Y17599076D01*
X12399076Y17473717D01*
X12424651Y17435441D01*
X12497571Y17326308D01*
X12565414Y17162519D01*
X12600000Y16988644D01*
X12600000Y16811356D01*
X12593700Y16779684D01*
X12565414Y16637480D01*
X12497570Y16473690D01*
X12399076Y16326283D01*
X12273717Y16200924D01*
X12126310Y16102430D01*
X11962520Y16034586D01*
X11904561Y16023057D01*
X11788644Y16000000D01*
X11611356Y16000000D01*
X11495439Y16023057D01*
X11437480Y16034586D01*
X11273690Y16102430D01*
X11126283Y16200924D01*
X11000924Y16326283D01*
X10902430Y16473690D01*
X10834586Y16637480D01*
X10806300Y16779684D01*
X10800000Y16811356D01*
X10800000Y16988644D01*
X10834586Y17162519D01*
X10902429Y17326308D01*
X10975349Y17435441D01*
X11000924Y17473717D01*
X11126283Y17599076D01*
X11273690Y17697570D01*
X11437480Y17765414D01*
X11495439Y17776943D01*
X11611356Y17800000D01*
X11788644Y17800000D01*
X11904561Y17776943D01*
G37*
G36*
X18123879Y17745560D02*
G01*
X18164870Y17733126D01*
X18202645Y17712935D01*
X18235758Y17685758D01*
X18262935Y17652645D01*
X18283126Y17614870D01*
X18295560Y17573879D01*
X18300000Y17528796D01*
X18300000Y16996204D01*
X18295560Y16951121D01*
X18283126Y16910130D01*
X18262935Y16872355D01*
X18235758Y16839242D01*
X18202645Y16812065D01*
X18164870Y16791874D01*
X18123879Y16779440D01*
X18078796Y16775000D01*
X17121204Y16775000D01*
X17076121Y16779440D01*
X17035130Y16791874D01*
X16997355Y16812065D01*
X16964242Y16839242D01*
X16937065Y16872355D01*
X16916874Y16910130D01*
X16904440Y16951121D01*
X16900000Y16996204D01*
X16900000Y17528796D01*
X16904440Y17573879D01*
X16916874Y17614870D01*
X16937065Y17652645D01*
X16964242Y17685758D01*
X16997355Y17712935D01*
X17035130Y17733126D01*
X17076121Y17745560D01*
X17121204Y17750000D01*
X18078796Y17750000D01*
X18123879Y17745560D01*
G37*
G36*
X18123879Y19620560D02*
G01*
X18164870Y19608126D01*
X18202645Y19587935D01*
X18235758Y19560758D01*
X18262935Y19527645D01*
X18283126Y19489870D01*
X18295560Y19448879D01*
X18300000Y19403796D01*
X18300000Y18871204D01*
X18295560Y18826121D01*
X18283126Y18785130D01*
X18262935Y18747355D01*
X18235758Y18714242D01*
X18202645Y18687065D01*
X18164870Y18666874D01*
X18123879Y18654440D01*
X18078796Y18650000D01*
X17121204Y18650000D01*
X17076121Y18654440D01*
X17035130Y18666874D01*
X16997355Y18687065D01*
X16964242Y18714242D01*
X16937065Y18747355D01*
X16916874Y18785130D01*
X16904440Y18826121D01*
X16900000Y18871204D01*
X16900000Y19403796D01*
X16904440Y19448879D01*
X16916874Y19489870D01*
X16937065Y19527645D01*
X16964242Y19560758D01*
X16997355Y19587935D01*
X17035130Y19608126D01*
X17076121Y19620560D01*
X17121204Y19625000D01*
X18078796Y19625000D01*
X18123879Y19620560D01*
G37*
G36*
X22119002Y21346040D02*
G01*
X22155301Y21335029D01*
X22188757Y21317146D01*
X22218081Y21293081D01*
X22242146Y21263757D01*
X22260029Y21230301D01*
X22271040Y21194002D01*
X22275000Y21153796D01*
X22275000Y20671204D01*
X22271040Y20630998D01*
X22260029Y20594699D01*
X22242146Y20561243D01*
X22218081Y20531919D01*
X22188757Y20507854D01*
X22155301Y20489971D01*
X22119002Y20478960D01*
X22078796Y20475000D01*
X21521204Y20475000D01*
X21480998Y20478960D01*
X21444699Y20489971D01*
X21411243Y20507854D01*
X21381919Y20531919D01*
X21357854Y20561243D01*
X21339971Y20594699D01*
X21328960Y20630998D01*
X21325000Y20671204D01*
X21325000Y21153796D01*
X21328960Y21194002D01*
X21339971Y21230301D01*
X21357854Y21263757D01*
X21381919Y21293081D01*
X21411243Y21317146D01*
X21444699Y21335029D01*
X21480998Y21346040D01*
X21521204Y21350000D01*
X22078796Y21350000D01*
X22119002Y21346040D01*
G37*
G36*
X14674354Y23427903D02*
G01*
X14785443Y23405806D01*
X14908039Y23355024D01*
X14994728Y23319117D01*
X15183081Y23193264D01*
X15343264Y23033081D01*
X15469117Y22844728D01*
X15502576Y22763950D01*
X15555806Y22635443D01*
X15575399Y22536943D01*
X15600000Y22413267D01*
X15600000Y22186733D01*
X15594690Y22160038D01*
X15555806Y21964557D01*
X15505024Y21841961D01*
X15469117Y21755272D01*
X15343264Y21566919D01*
X15183081Y21406736D01*
X14994728Y21280883D01*
X14926883Y21252781D01*
X14785443Y21194194D01*
X14683549Y21173926D01*
X14563267Y21150000D01*
X14336733Y21150000D01*
X14216451Y21173926D01*
X14114557Y21194194D01*
X13973117Y21252781D01*
X13905272Y21280883D01*
X13716919Y21406736D01*
X13556736Y21566919D01*
X13430883Y21755272D01*
X13394976Y21841961D01*
X13344194Y21964557D01*
X13305310Y22160038D01*
X13300000Y22186733D01*
X13300000Y22413267D01*
X13324601Y22536943D01*
X13344194Y22635443D01*
X13397424Y22763950D01*
X13430883Y22844728D01*
X13556736Y23033081D01*
X13716919Y23193264D01*
X13905272Y23319117D01*
X13991961Y23355024D01*
X14114557Y23405806D01*
X14225646Y23427903D01*
X14336733Y23450000D01*
X14563267Y23450000D01*
X14674354Y23427903D01*
G37*
G36*
X1974354Y23427903D02*
G01*
X2085443Y23405806D01*
X2208039Y23355024D01*
X2294728Y23319117D01*
X2483081Y23193264D01*
X2643264Y23033081D01*
X2769117Y22844728D01*
X2802576Y22763950D01*
X2855806Y22635443D01*
X2875399Y22536943D01*
X2900000Y22413267D01*
X2900000Y22186733D01*
X2894690Y22160038D01*
X2855806Y21964557D01*
X2805024Y21841961D01*
X2769117Y21755272D01*
X2643264Y21566919D01*
X2483081Y21406736D01*
X2294728Y21280883D01*
X2226883Y21252781D01*
X2085443Y21194194D01*
X1983549Y21173926D01*
X1863267Y21150000D01*
X1636733Y21150000D01*
X1516451Y21173926D01*
X1414557Y21194194D01*
X1273117Y21252781D01*
X1205272Y21280883D01*
X1016919Y21406736D01*
X856736Y21566919D01*
X730883Y21755272D01*
X694976Y21841961D01*
X644194Y21964557D01*
X605310Y22160038D01*
X600000Y22186733D01*
X600000Y22413267D01*
X624601Y22536943D01*
X644194Y22635443D01*
X697424Y22763950D01*
X730883Y22844728D01*
X856736Y23033081D01*
X1016919Y23193264D01*
X1205272Y23319117D01*
X1291961Y23355024D01*
X1414557Y23405806D01*
X1525646Y23427903D01*
X1636733Y23450000D01*
X1863267Y23450000D01*
X1974354Y23427903D01*
G37*
G36*
X8324354Y23427903D02*
G01*
X8435443Y23405806D01*
X8558039Y23355024D01*
X8644728Y23319117D01*
X8833081Y23193264D01*
X8993264Y23033081D01*
X9119117Y22844728D01*
X9152576Y22763950D01*
X9205806Y22635443D01*
X9225399Y22536943D01*
X9250000Y22413267D01*
X9250000Y22186733D01*
X9244690Y22160038D01*
X9205806Y21964557D01*
X9155024Y21841961D01*
X9119117Y21755272D01*
X8993264Y21566919D01*
X8833081Y21406736D01*
X8644728Y21280883D01*
X8576883Y21252781D01*
X8435443Y21194194D01*
X8333549Y21173926D01*
X8213267Y21150000D01*
X7986733Y21150000D01*
X7866451Y21173926D01*
X7764557Y21194194D01*
X7623117Y21252781D01*
X7555272Y21280883D01*
X7366919Y21406736D01*
X7206736Y21566919D01*
X7080883Y21755272D01*
X7044976Y21841961D01*
X6994194Y21964557D01*
X6955310Y22160038D01*
X6950000Y22186733D01*
X6950000Y22413267D01*
X6974601Y22536943D01*
X6994194Y22635443D01*
X7047424Y22763950D01*
X7080883Y22844728D01*
X7206736Y23033081D01*
X7366919Y23193264D01*
X7555272Y23319117D01*
X7641961Y23355024D01*
X7764557Y23405806D01*
X7875646Y23427903D01*
X7986733Y23450000D01*
X8213267Y23450000D01*
X8324354Y23427903D01*
G37*
G36*
X26175012Y22536943D02*
G01*
X26175015Y22536942D01*
X26175014Y22536942D01*
X26284207Y22491713D01*
X26382478Y22426050D01*
X26466050Y22342478D01*
X26531713Y22244207D01*
X26531714Y22244205D01*
X26576943Y22135012D01*
X26600000Y22019096D01*
X26600000Y21900904D01*
X26576943Y21784988D01*
X26576942Y21784986D01*
X26531713Y21675793D01*
X26466050Y21577522D01*
X26382478Y21493950D01*
X26284207Y21428287D01*
X26284206Y21428286D01*
X26284205Y21428286D01*
X26175012Y21383057D01*
X26059096Y21360000D01*
X25940904Y21360000D01*
X25824988Y21383057D01*
X25715795Y21428286D01*
X25715794Y21428286D01*
X25715793Y21428287D01*
X25617522Y21493950D01*
X25533950Y21577522D01*
X25468287Y21675793D01*
X25423058Y21784986D01*
X25423057Y21784988D01*
X25400000Y21900904D01*
X25400000Y22019096D01*
X25423057Y22135012D01*
X25468286Y22244205D01*
X25468287Y22244207D01*
X25533950Y22342478D01*
X25617522Y22426050D01*
X25715793Y22491713D01*
X25824986Y22536942D01*
X25824985Y22536942D01*
X25824988Y22536943D01*
X25940904Y22560000D01*
X26059096Y22560000D01*
X26175012Y22536943D01*
G37*
G36*
X18994002Y22971040D02*
G01*
X19030301Y22960029D01*
X19063757Y22942146D01*
X19093081Y22918081D01*
X19117146Y22888757D01*
X19135029Y22855301D01*
X19146040Y22819002D01*
X19150000Y22778796D01*
X19150000Y22221204D01*
X19146040Y22180998D01*
X19135029Y22144699D01*
X19117146Y22111243D01*
X19093081Y22081919D01*
X19063757Y22057854D01*
X19030301Y22039971D01*
X18994002Y22028960D01*
X18953796Y22025000D01*
X18471204Y22025000D01*
X18430998Y22028960D01*
X18394699Y22039971D01*
X18361243Y22057854D01*
X18331919Y22081919D01*
X18307854Y22111243D01*
X18289971Y22144699D01*
X18278960Y22180998D01*
X18275000Y22221204D01*
X18275000Y22778796D01*
X18278960Y22819002D01*
X18289971Y22855301D01*
X18307854Y22888757D01*
X18331919Y22918081D01*
X18361243Y22942146D01*
X18394699Y22960029D01*
X18430998Y22971040D01*
X18471204Y22975000D01*
X18953796Y22975000D01*
X18994002Y22971040D01*
G37*
G36*
X20569002Y22971040D02*
G01*
X20605301Y22960029D01*
X20638757Y22942146D01*
X20668081Y22918081D01*
X20692146Y22888757D01*
X20710029Y22855301D01*
X20721040Y22819002D01*
X20725000Y22778796D01*
X20725000Y22221204D01*
X20721040Y22180998D01*
X20710029Y22144699D01*
X20692146Y22111243D01*
X20668081Y22081919D01*
X20638757Y22057854D01*
X20605301Y22039971D01*
X20569002Y22028960D01*
X20528796Y22025000D01*
X20046204Y22025000D01*
X20005998Y22028960D01*
X19969699Y22039971D01*
X19936243Y22057854D01*
X19906919Y22081919D01*
X19882854Y22111243D01*
X19864971Y22144699D01*
X19853960Y22180998D01*
X19850000Y22221204D01*
X19850000Y22778796D01*
X19853960Y22819002D01*
X19864971Y22855301D01*
X19882854Y22888757D01*
X19906919Y22918081D01*
X19936243Y22942146D01*
X19969699Y22960029D01*
X20005998Y22971040D01*
X20046204Y22975000D01*
X20528796Y22975000D01*
X20569002Y22971040D01*
G37*
G36*
X22119002Y22921040D02*
G01*
X22155301Y22910029D01*
X22188757Y22892146D01*
X22218081Y22868081D01*
X22242146Y22838757D01*
X22260029Y22805301D01*
X22271040Y22769002D01*
X22275000Y22728796D01*
X22275000Y22246204D01*
X22271040Y22205998D01*
X22260029Y22169699D01*
X22242146Y22136243D01*
X22218081Y22106919D01*
X22188757Y22082854D01*
X22155301Y22064971D01*
X22119002Y22053960D01*
X22078796Y22050000D01*
X21521204Y22050000D01*
X21480998Y22053960D01*
X21444699Y22064971D01*
X21411243Y22082854D01*
X21381919Y22106919D01*
X21357854Y22136243D01*
X21339971Y22169699D01*
X21328960Y22205998D01*
X21325000Y22246204D01*
X21325000Y22728796D01*
X21328960Y22769002D01*
X21339971Y22805301D01*
X21357854Y22838757D01*
X21381919Y22868081D01*
X21411243Y22892146D01*
X21444699Y22910029D01*
X21480998Y22921040D01*
X21521204Y22925000D01*
X22078796Y22925000D01*
X22119002Y22921040D01*
G37*
G36*
X24905012Y23806943D02*
G01*
X24924905Y23798703D01*
X25014207Y23761713D01*
X25112478Y23696050D01*
X25196050Y23612478D01*
X25261713Y23514207D01*
X25261714Y23514205D01*
X25306943Y23405012D01*
X25330000Y23289096D01*
X25330000Y23170904D01*
X25306943Y23054988D01*
X25306942Y23054986D01*
X25261713Y22945793D01*
X25196050Y22847522D01*
X25112478Y22763950D01*
X25014207Y22698287D01*
X25014206Y22698286D01*
X25014205Y22698286D01*
X24905012Y22653057D01*
X24789096Y22630000D01*
X24670904Y22630000D01*
X24554988Y22653057D01*
X24445795Y22698286D01*
X24445794Y22698286D01*
X24445793Y22698287D01*
X24347522Y22763950D01*
X24263950Y22847522D01*
X24198287Y22945793D01*
X24153058Y23054986D01*
X24153057Y23054988D01*
X24130000Y23170904D01*
X24130000Y23289096D01*
X24153057Y23405012D01*
X24198286Y23514205D01*
X24198287Y23514207D01*
X24263950Y23612478D01*
X24347522Y23696050D01*
X24445793Y23761713D01*
X24535095Y23798703D01*
X24554988Y23806943D01*
X24670904Y23830000D01*
X24789096Y23830000D01*
X24905012Y23806943D01*
G37*
G36*
X19873879Y24995560D02*
G01*
X19914870Y24983126D01*
X19952645Y24962935D01*
X19985758Y24935758D01*
X20012935Y24902645D01*
X20033126Y24864870D01*
X20045560Y24823879D01*
X20050000Y24778796D01*
X20050000Y23821204D01*
X20045560Y23776121D01*
X20033126Y23735130D01*
X20012935Y23697355D01*
X19985758Y23664242D01*
X19952645Y23637065D01*
X19914870Y23616874D01*
X19873879Y23604440D01*
X19828796Y23600000D01*
X19296204Y23600000D01*
X19251121Y23604440D01*
X19210130Y23616874D01*
X19172355Y23637065D01*
X19139242Y23664242D01*
X19112065Y23697355D01*
X19091874Y23735130D01*
X19079440Y23776121D01*
X19075000Y23821204D01*
X19075000Y24778796D01*
X19079440Y24823879D01*
X19091874Y24864870D01*
X19112065Y24902645D01*
X19139242Y24935758D01*
X19172355Y24962935D01*
X19210130Y24983126D01*
X19251121Y24995560D01*
X19296204Y25000000D01*
X19828796Y25000000D01*
X19873879Y24995560D01*
G37*
G36*
X21748879Y24995560D02*
G01*
X21789870Y24983126D01*
X21827645Y24962935D01*
X21860758Y24935758D01*
X21887935Y24902645D01*
X21908126Y24864870D01*
X21920560Y24823879D01*
X21925000Y24778796D01*
X21925000Y23821204D01*
X21920560Y23776121D01*
X21908126Y23735130D01*
X21887935Y23697355D01*
X21860758Y23664242D01*
X21827645Y23637065D01*
X21789870Y23616874D01*
X21748879Y23604440D01*
X21703796Y23600000D01*
X21171204Y23600000D01*
X21126121Y23604440D01*
X21085130Y23616874D01*
X21047355Y23637065D01*
X21014242Y23664242D01*
X20987065Y23697355D01*
X20966874Y23735130D01*
X20954440Y23776121D01*
X20950000Y23821204D01*
X20950000Y24778796D01*
X20954440Y24823879D01*
X20966874Y24864870D01*
X20987065Y24902645D01*
X21014242Y24935758D01*
X21047355Y24962935D01*
X21085130Y24983126D01*
X21126121Y24995560D01*
X21171204Y25000000D01*
X21703796Y25000000D01*
X21748879Y24995560D01*
G37*
G36*
X26117620Y25291319D02*
G01*
X26174171Y25274164D01*
X26230721Y25257010D01*
X26334955Y25201296D01*
X26426317Y25126317D01*
X26501296Y25034955D01*
X26557010Y24930721D01*
X26568856Y24891670D01*
X26591319Y24817620D01*
X26600000Y24729477D01*
X26600000Y24270522D01*
X26591319Y24182380D01*
X26574164Y24125829D01*
X26557010Y24069279D01*
X26501296Y23965045D01*
X26457713Y23911939D01*
X26426315Y23873680D01*
X26373089Y23830000D01*
X26334954Y23798704D01*
X26230720Y23742990D01*
X26174170Y23725836D01*
X26117619Y23708681D01*
X26000000Y23697097D01*
X25882380Y23708681D01*
X25825829Y23725836D01*
X25769279Y23742990D01*
X25665045Y23798704D01*
X25610156Y23843750D01*
X25573680Y23873685D01*
X25498705Y23965045D01*
X25498704Y23965046D01*
X25442990Y24069280D01*
X25408682Y24182379D01*
X25408681Y24182381D01*
X25400000Y24270523D01*
X25400000Y24729478D01*
X25408681Y24817620D01*
X25431144Y24891670D01*
X25442990Y24930721D01*
X25477517Y24995316D01*
X25498703Y25034953D01*
X25573684Y25126317D01*
X25665046Y25201296D01*
X25769280Y25257010D01*
X25825830Y25274164D01*
X25882381Y25291319D01*
X26000000Y25302903D01*
X26117620Y25291319D01*
G37*
G36*
X21018765Y27321179D02*
G01*
X21155257Y27264642D01*
X21278096Y27182564D01*
X21382564Y27078096D01*
X21464642Y26955257D01*
X21521179Y26818765D01*
X21550000Y26673870D01*
X21550000Y26526130D01*
X21521179Y26381235D01*
X21464642Y26244743D01*
X21382564Y26121904D01*
X21278096Y26017436D01*
X21155257Y25935358D01*
X21018765Y25878821D01*
X20873870Y25850000D01*
X20726130Y25850000D01*
X20581235Y25878821D01*
X20444743Y25935358D01*
X20321904Y26017436D01*
X20217436Y26121904D01*
X20135358Y26244743D01*
X20078821Y26381235D01*
X20050000Y26526130D01*
X20050000Y26673870D01*
X20078821Y26818765D01*
X20135358Y26955257D01*
X20217436Y27078096D01*
X20321904Y27182564D01*
X20444743Y27264642D01*
X20581235Y27321179D01*
X20726130Y27350000D01*
X20873870Y27350000D01*
X21018765Y27321179D01*
G37*
G36*
X34695090Y29480786D02*
G01*
X34791689Y29461571D01*
X34973678Y29386189D01*
X35137463Y29276751D01*
X35276751Y29137463D01*
X35386189Y28973678D01*
X35461571Y28791689D01*
X35500000Y28598491D01*
X35500000Y28401509D01*
X35461571Y28208311D01*
X35386189Y28026322D01*
X35276751Y27862537D01*
X35137463Y27723249D01*
X34973678Y27613811D01*
X34791689Y27538429D01*
X34695090Y27519215D01*
X34598493Y27500000D01*
X34401507Y27500000D01*
X34304910Y27519215D01*
X34208311Y27538429D01*
X34026322Y27613811D01*
X33862537Y27723249D01*
X33723249Y27862537D01*
X33613811Y28026322D01*
X33538429Y28208311D01*
X33500000Y28401509D01*
X33500000Y28598491D01*
X33538429Y28791689D01*
X33613811Y28973678D01*
X33723249Y29137463D01*
X33862537Y29276751D01*
X34026322Y29386189D01*
X34208311Y29461571D01*
X34304910Y29480786D01*
X34401507Y29500000D01*
X34598493Y29500000D01*
X34695090Y29480786D01*
G37*
G36*
X22423879Y29395560D02*
G01*
X22464870Y29383126D01*
X22502645Y29362935D01*
X22535758Y29335758D01*
X22562935Y29302645D01*
X22583126Y29264870D01*
X22595560Y29223879D01*
X22600000Y29178796D01*
X22600000Y28221204D01*
X22595560Y28176121D01*
X22583126Y28135130D01*
X22562935Y28097355D01*
X22535758Y28064242D01*
X22502645Y28037065D01*
X22464870Y28016874D01*
X22423879Y28004440D01*
X22378796Y28000000D01*
X21846204Y28000000D01*
X21801121Y28004440D01*
X21760130Y28016874D01*
X21722355Y28037065D01*
X21689242Y28064242D01*
X21662065Y28097355D01*
X21641874Y28135130D01*
X21629440Y28176121D01*
X21625000Y28221204D01*
X21625000Y29178796D01*
X21629440Y29223879D01*
X21641874Y29264870D01*
X21662065Y29302645D01*
X21689242Y29335758D01*
X21722355Y29362935D01*
X21760130Y29383126D01*
X21801121Y29395560D01*
X21846204Y29400000D01*
X22378796Y29400000D01*
X22423879Y29395560D01*
G37*
G36*
X24298879Y29395560D02*
G01*
X24339870Y29383126D01*
X24377645Y29362935D01*
X24410758Y29335758D01*
X24437935Y29302645D01*
X24458126Y29264870D01*
X24470560Y29223879D01*
X24475000Y29178796D01*
X24475000Y28221204D01*
X24470560Y28176121D01*
X24458126Y28135130D01*
X24437935Y28097355D01*
X24410758Y28064242D01*
X24377645Y28037065D01*
X24339870Y28016874D01*
X24298879Y28004440D01*
X24253796Y28000000D01*
X23721204Y28000000D01*
X23676121Y28004440D01*
X23635130Y28016874D01*
X23597355Y28037065D01*
X23564242Y28064242D01*
X23537065Y28097355D01*
X23516874Y28135130D01*
X23504440Y28176121D01*
X23500000Y28221204D01*
X23500000Y29178796D01*
X23504440Y29223879D01*
X23516874Y29264870D01*
X23537065Y29302645D01*
X23564242Y29335758D01*
X23597355Y29362935D01*
X23635130Y29383126D01*
X23676121Y29395560D01*
X23721204Y29400000D01*
X24253796Y29400000D01*
X24298879Y29395560D01*
G37*
G36*
X28244002Y28971040D02*
G01*
X28280301Y28960029D01*
X28313757Y28942146D01*
X28343081Y28918081D01*
X28367146Y28888757D01*
X28385029Y28855301D01*
X28396040Y28819002D01*
X28400000Y28778796D01*
X28400000Y28221204D01*
X28396040Y28180998D01*
X28385029Y28144699D01*
X28367146Y28111243D01*
X28343081Y28081919D01*
X28313757Y28057854D01*
X28280301Y28039971D01*
X28244002Y28028960D01*
X28203796Y28025000D01*
X27721204Y28025000D01*
X27680998Y28028960D01*
X27644699Y28039971D01*
X27611243Y28057854D01*
X27581919Y28081919D01*
X27557854Y28111243D01*
X27539971Y28144699D01*
X27528960Y28180998D01*
X27525000Y28221204D01*
X27525000Y28778796D01*
X27528960Y28819002D01*
X27539971Y28855301D01*
X27557854Y28888757D01*
X27581919Y28918081D01*
X27611243Y28942146D01*
X27644699Y28960029D01*
X27680998Y28971040D01*
X27721204Y28975000D01*
X28203796Y28975000D01*
X28244002Y28971040D01*
G37*
G36*
X29819002Y28971040D02*
G01*
X29855301Y28960029D01*
X29888757Y28942146D01*
X29918081Y28918081D01*
X29942146Y28888757D01*
X29960029Y28855301D01*
X29971040Y28819002D01*
X29975000Y28778796D01*
X29975000Y28221204D01*
X29971040Y28180998D01*
X29960029Y28144699D01*
X29942146Y28111243D01*
X29918081Y28081919D01*
X29888757Y28057854D01*
X29855301Y28039971D01*
X29819002Y28028960D01*
X29778796Y28025000D01*
X29296204Y28025000D01*
X29255998Y28028960D01*
X29219699Y28039971D01*
X29186243Y28057854D01*
X29156919Y28081919D01*
X29132854Y28111243D01*
X29114971Y28144699D01*
X29103960Y28180998D01*
X29100000Y28221204D01*
X29100000Y28778796D01*
X29103960Y28819002D01*
X29114971Y28855301D01*
X29132854Y28888757D01*
X29156919Y28918081D01*
X29186243Y28942146D01*
X29219699Y28960029D01*
X29255998Y28971040D01*
X29296204Y28975000D01*
X29778796Y28975000D01*
X29819002Y28971040D01*
G37*
G36*
X26523879Y29045560D02*
G01*
X26564870Y29033126D01*
X26602645Y29012935D01*
X26635758Y28985758D01*
X26662935Y28952645D01*
X26683126Y28914870D01*
X26695560Y28873879D01*
X26700000Y28828796D01*
X26700000Y28296204D01*
X26695560Y28251121D01*
X26683126Y28210130D01*
X26662935Y28172355D01*
X26635758Y28139242D01*
X26602645Y28112065D01*
X26564870Y28091874D01*
X26523879Y28079440D01*
X26478796Y28075000D01*
X25521204Y28075000D01*
X25476121Y28079440D01*
X25435130Y28091874D01*
X25397355Y28112065D01*
X25364242Y28139242D01*
X25337065Y28172355D01*
X25316874Y28210130D01*
X25304440Y28251121D01*
X25300000Y28296204D01*
X25300000Y28828796D01*
X25304440Y28873879D01*
X25316874Y28914870D01*
X25337065Y28952645D01*
X25364242Y28985758D01*
X25397355Y29012935D01*
X25435130Y29033126D01*
X25476121Y29045560D01*
X25521204Y29050000D01*
X26478796Y29050000D01*
X26523879Y29045560D01*
G37*
G36*
X26523879Y30920560D02*
G01*
X26564870Y30908126D01*
X26602645Y30887935D01*
X26635758Y30860758D01*
X26662935Y30827645D01*
X26683126Y30789870D01*
X26695560Y30748879D01*
X26700000Y30703796D01*
X26700000Y30171204D01*
X26695560Y30126121D01*
X26683126Y30085130D01*
X26662935Y30047355D01*
X26635758Y30014242D01*
X26602645Y29987065D01*
X26564870Y29966874D01*
X26523879Y29954440D01*
X26478796Y29950000D01*
X25521204Y29950000D01*
X25476121Y29954440D01*
X25435130Y29966874D01*
X25397355Y29987065D01*
X25364242Y30014242D01*
X25337065Y30047355D01*
X25316874Y30085130D01*
X25304440Y30126121D01*
X25300000Y30171204D01*
X25300000Y30703796D01*
X25304440Y30748879D01*
X25316874Y30789870D01*
X25337065Y30827645D01*
X25364242Y30860758D01*
X25397355Y30887935D01*
X25435130Y30908126D01*
X25476121Y30920560D01*
X25521204Y30925000D01*
X26478796Y30925000D01*
X26523879Y30920560D01*
G37*
G36*
X22744002Y30971040D02*
G01*
X22780301Y30960029D01*
X22813757Y30942146D01*
X22843081Y30918081D01*
X22867146Y30888757D01*
X22885029Y30855301D01*
X22896040Y30819002D01*
X22900000Y30778796D01*
X22900000Y30221204D01*
X22896040Y30180998D01*
X22885029Y30144699D01*
X22867146Y30111243D01*
X22843081Y30081919D01*
X22813757Y30057854D01*
X22780301Y30039971D01*
X22744002Y30028960D01*
X22703796Y30025000D01*
X22221204Y30025000D01*
X22180998Y30028960D01*
X22144699Y30039971D01*
X22111243Y30057854D01*
X22081919Y30081919D01*
X22057854Y30111243D01*
X22039971Y30144699D01*
X22028960Y30180998D01*
X22025000Y30221204D01*
X22025000Y30778796D01*
X22028960Y30819002D01*
X22039971Y30855301D01*
X22057854Y30888757D01*
X22081919Y30918081D01*
X22111243Y30942146D01*
X22144699Y30960029D01*
X22180998Y30971040D01*
X22221204Y30975000D01*
X22703796Y30975000D01*
X22744002Y30971040D01*
G37*
G36*
X24319002Y30971040D02*
G01*
X24355301Y30960029D01*
X24388757Y30942146D01*
X24418081Y30918081D01*
X24442146Y30888757D01*
X24460029Y30855301D01*
X24471040Y30819002D01*
X24475000Y30778796D01*
X24475000Y30221204D01*
X24471040Y30180998D01*
X24460029Y30144699D01*
X24442146Y30111243D01*
X24418081Y30081919D01*
X24388757Y30057854D01*
X24355301Y30039971D01*
X24319002Y30028960D01*
X24278796Y30025000D01*
X23796204Y30025000D01*
X23755998Y30028960D01*
X23719699Y30039971D01*
X23686243Y30057854D01*
X23656919Y30081919D01*
X23632854Y30111243D01*
X23614971Y30144699D01*
X23603960Y30180998D01*
X23600000Y30221204D01*
X23600000Y30778796D01*
X23603960Y30819002D01*
X23614971Y30855301D01*
X23632854Y30888757D01*
X23656919Y30918081D01*
X23686243Y30942146D01*
X23719699Y30960029D01*
X23755998Y30971040D01*
X23796204Y30975000D01*
X24278796Y30975000D01*
X24319002Y30971040D01*
G37*
G36*
X14674354Y34857903D02*
G01*
X14785443Y34835806D01*
X14908039Y34785024D01*
X14994728Y34749117D01*
X15183081Y34623264D01*
X15343264Y34463081D01*
X15469117Y34274728D01*
X15505024Y34188039D01*
X15555806Y34065443D01*
X15573573Y33976121D01*
X15595828Y33864242D01*
X15600000Y33843265D01*
X15600000Y33616735D01*
X15555806Y33394557D01*
X15505024Y33271961D01*
X15469117Y33185272D01*
X15343264Y32996919D01*
X15183081Y32836736D01*
X14994728Y32710883D01*
X14908039Y32674976D01*
X14785443Y32624194D01*
X14674354Y32602097D01*
X14563267Y32580000D01*
X14336733Y32580000D01*
X14225646Y32602097D01*
X14114557Y32624194D01*
X13991961Y32674976D01*
X13905272Y32710883D01*
X13716919Y32836736D01*
X13556736Y32996919D01*
X13430883Y33185272D01*
X13394976Y33271961D01*
X13344194Y33394557D01*
X13300000Y33616735D01*
X13300000Y33843265D01*
X13304173Y33864242D01*
X13326427Y33976121D01*
X13344194Y34065443D01*
X13394976Y34188039D01*
X13430883Y34274728D01*
X13556736Y34463081D01*
X13716919Y34623264D01*
X13905272Y34749117D01*
X13991961Y34785024D01*
X14114557Y34835806D01*
X14225646Y34857903D01*
X14336733Y34880000D01*
X14563267Y34880000D01*
X14674354Y34857903D01*
G37*
G36*
X8324354Y34857903D02*
G01*
X8435443Y34835806D01*
X8558039Y34785024D01*
X8644728Y34749117D01*
X8833081Y34623264D01*
X8993264Y34463081D01*
X9119117Y34274728D01*
X9155024Y34188039D01*
X9205806Y34065443D01*
X9223573Y33976121D01*
X9245828Y33864242D01*
X9250000Y33843265D01*
X9250000Y33616735D01*
X9205806Y33394557D01*
X9155024Y33271961D01*
X9119117Y33185272D01*
X8993264Y32996919D01*
X8833081Y32836736D01*
X8644728Y32710883D01*
X8558039Y32674976D01*
X8435443Y32624194D01*
X8324354Y32602097D01*
X8213267Y32580000D01*
X7986733Y32580000D01*
X7875646Y32602097D01*
X7764557Y32624194D01*
X7641961Y32674976D01*
X7555272Y32710883D01*
X7366919Y32836736D01*
X7206736Y32996919D01*
X7080883Y33185272D01*
X7044976Y33271961D01*
X6994194Y33394557D01*
X6950000Y33616735D01*
X6950000Y33843265D01*
X6954173Y33864242D01*
X6976427Y33976121D01*
X6994194Y34065443D01*
X7044976Y34188039D01*
X7080883Y34274728D01*
X7206736Y34463081D01*
X7366919Y34623264D01*
X7555272Y34749117D01*
X7641961Y34785024D01*
X7764557Y34835806D01*
X7875646Y34857903D01*
X7986733Y34880000D01*
X8213267Y34880000D01*
X8324354Y34857903D01*
G37*
G36*
X1974354Y34857903D02*
G01*
X2085443Y34835806D01*
X2208039Y34785024D01*
X2294728Y34749117D01*
X2483081Y34623264D01*
X2643264Y34463081D01*
X2769117Y34274728D01*
X2805024Y34188039D01*
X2855806Y34065443D01*
X2873573Y33976121D01*
X2895828Y33864242D01*
X2900000Y33843265D01*
X2900000Y33616735D01*
X2855806Y33394557D01*
X2805024Y33271961D01*
X2769117Y33185272D01*
X2643264Y32996919D01*
X2483081Y32836736D01*
X2294728Y32710883D01*
X2208039Y32674976D01*
X2085443Y32624194D01*
X1974354Y32602097D01*
X1863267Y32580000D01*
X1636733Y32580000D01*
X1525646Y32602097D01*
X1414557Y32624194D01*
X1291961Y32674976D01*
X1205272Y32710883D01*
X1016919Y32836736D01*
X856736Y32996919D01*
X730883Y33185272D01*
X694976Y33271961D01*
X644194Y33394557D01*
X600000Y33616735D01*
X600000Y33843265D01*
X604173Y33864242D01*
X626427Y33976121D01*
X644194Y34065443D01*
X694976Y34188039D01*
X730883Y34274728D01*
X856736Y34463081D01*
X1016919Y34623264D01*
X1205272Y34749117D01*
X1291961Y34785024D01*
X1414557Y34835806D01*
X1525646Y34857903D01*
X1636733Y34880000D01*
X1863267Y34880000D01*
X1974354Y34857903D01*
G37*
G36*
X24069002Y34721040D02*
G01*
X24105301Y34710029D01*
X24138757Y34692146D01*
X24168081Y34668081D01*
X24192146Y34638757D01*
X24210029Y34605301D01*
X24221040Y34569002D01*
X24225000Y34528796D01*
X24225000Y33971204D01*
X24221040Y33930998D01*
X24210029Y33894699D01*
X24192146Y33861243D01*
X24168081Y33831919D01*
X24138757Y33807854D01*
X24105301Y33789971D01*
X24069002Y33778960D01*
X24028796Y33775000D01*
X23546204Y33775000D01*
X23505998Y33778960D01*
X23469699Y33789971D01*
X23436243Y33807854D01*
X23406919Y33831919D01*
X23382854Y33861243D01*
X23364971Y33894699D01*
X23353960Y33930998D01*
X23350000Y33971204D01*
X23350000Y34528796D01*
X23353960Y34569002D01*
X23364971Y34605301D01*
X23382854Y34638757D01*
X23406919Y34668081D01*
X23436243Y34692146D01*
X23469699Y34710029D01*
X23505998Y34721040D01*
X23546204Y34725000D01*
X24028796Y34725000D01*
X24069002Y34721040D01*
G37*
G36*
X22494002Y34721040D02*
G01*
X22530301Y34710029D01*
X22563757Y34692146D01*
X22593081Y34668081D01*
X22617146Y34638757D01*
X22635029Y34605301D01*
X22646040Y34569002D01*
X22650000Y34528796D01*
X22650000Y33971204D01*
X22646040Y33930998D01*
X22635029Y33894699D01*
X22617146Y33861243D01*
X22593081Y33831919D01*
X22563757Y33807854D01*
X22530301Y33789971D01*
X22494002Y33778960D01*
X22453796Y33775000D01*
X21971204Y33775000D01*
X21930998Y33778960D01*
X21894699Y33789971D01*
X21861243Y33807854D01*
X21831919Y33831919D01*
X21807854Y33861243D01*
X21789971Y33894699D01*
X21778960Y33930998D01*
X21775000Y33971204D01*
X21775000Y34528796D01*
X21778960Y34569002D01*
X21789971Y34605301D01*
X21807854Y34638757D01*
X21831919Y34668081D01*
X21861243Y34692146D01*
X21894699Y34710029D01*
X21930998Y34721040D01*
X21971204Y34725000D01*
X22453796Y34725000D01*
X22494002Y34721040D01*
G37*
G36*
X31248879Y35195560D02*
G01*
X31289870Y35183126D01*
X31327645Y35162935D01*
X31360758Y35135758D01*
X31387935Y35102645D01*
X31408126Y35064870D01*
X31420560Y35023879D01*
X31425000Y34978796D01*
X31425000Y34021204D01*
X31420560Y33976121D01*
X31408126Y33935130D01*
X31387935Y33897355D01*
X31360758Y33864242D01*
X31327645Y33837065D01*
X31289870Y33816874D01*
X31248879Y33804440D01*
X31203796Y33800000D01*
X30671204Y33800000D01*
X30626121Y33804440D01*
X30585130Y33816874D01*
X30547355Y33837065D01*
X30514242Y33864242D01*
X30487065Y33897355D01*
X30466874Y33935130D01*
X30454440Y33976121D01*
X30450000Y34021204D01*
X30450000Y34978796D01*
X30454440Y35023879D01*
X30466874Y35064870D01*
X30487065Y35102645D01*
X30514242Y35135758D01*
X30547355Y35162935D01*
X30585130Y35183126D01*
X30626121Y35195560D01*
X30671204Y35200000D01*
X31203796Y35200000D01*
X31248879Y35195560D01*
G37*
G36*
X29373879Y35195560D02*
G01*
X29414870Y35183126D01*
X29452645Y35162935D01*
X29485758Y35135758D01*
X29512935Y35102645D01*
X29533126Y35064870D01*
X29545560Y35023879D01*
X29550000Y34978796D01*
X29550000Y34021204D01*
X29545560Y33976121D01*
X29533126Y33935130D01*
X29512935Y33897355D01*
X29485758Y33864242D01*
X29452645Y33837065D01*
X29414870Y33816874D01*
X29373879Y33804440D01*
X29328796Y33800000D01*
X28796204Y33800000D01*
X28751121Y33804440D01*
X28710130Y33816874D01*
X28672355Y33837065D01*
X28639242Y33864242D01*
X28612065Y33897355D01*
X28591874Y33935130D01*
X28579440Y33976121D01*
X28575000Y34021204D01*
X28575000Y34978796D01*
X28579440Y35023879D01*
X28591874Y35064870D01*
X28612065Y35102645D01*
X28639242Y35135758D01*
X28672355Y35162935D01*
X28710130Y35183126D01*
X28751121Y35195560D01*
X28796204Y35200000D01*
X29328796Y35200000D01*
X29373879Y35195560D01*
G37*
G36*
X1494002Y36721040D02*
G01*
X1530301Y36710029D01*
X1563757Y36692146D01*
X1593081Y36668081D01*
X1617146Y36638757D01*
X1635029Y36605301D01*
X1646040Y36569002D01*
X1650000Y36528796D01*
X1650000Y35971204D01*
X1646040Y35930998D01*
X1635029Y35894699D01*
X1617146Y35861243D01*
X1593081Y35831919D01*
X1563757Y35807854D01*
X1530301Y35789971D01*
X1494002Y35778960D01*
X1453796Y35775000D01*
X971204Y35775000D01*
X930998Y35778960D01*
X894699Y35789971D01*
X861243Y35807854D01*
X831919Y35831919D01*
X807854Y35861243D01*
X789971Y35894699D01*
X778960Y35930998D01*
X775000Y35971204D01*
X775000Y36528796D01*
X778960Y36569002D01*
X789971Y36605301D01*
X807854Y36638757D01*
X831919Y36668081D01*
X861243Y36692146D01*
X894699Y36710029D01*
X930998Y36721040D01*
X971204Y36725000D01*
X1453796Y36725000D01*
X1494002Y36721040D01*
G37*
G36*
X3069002Y36721040D02*
G01*
X3105301Y36710029D01*
X3138757Y36692146D01*
X3168081Y36668081D01*
X3192146Y36638757D01*
X3210029Y36605301D01*
X3221040Y36569002D01*
X3225000Y36528796D01*
X3225000Y35971204D01*
X3221040Y35930998D01*
X3210029Y35894699D01*
X3192146Y35861243D01*
X3168081Y35831919D01*
X3138757Y35807854D01*
X3105301Y35789971D01*
X3069002Y35778960D01*
X3028796Y35775000D01*
X2546204Y35775000D01*
X2505998Y35778960D01*
X2469699Y35789971D01*
X2436243Y35807854D01*
X2406919Y35831919D01*
X2382854Y35861243D01*
X2364971Y35894699D01*
X2353960Y35930998D01*
X2350000Y35971204D01*
X2350000Y36528796D01*
X2353960Y36569002D01*
X2364971Y36605301D01*
X2382854Y36638757D01*
X2406919Y36668081D01*
X2436243Y36692146D01*
X2469699Y36710029D01*
X2505998Y36721040D01*
X2546204Y36725000D01*
X3028796Y36725000D01*
X3069002Y36721040D01*
G37*
G36*
X27769806Y36845463D02*
G01*
X27811746Y36832741D01*
X27850399Y36812080D01*
X27884276Y36784276D01*
X27912080Y36750399D01*
X27932741Y36711746D01*
X27945463Y36669806D01*
X27950000Y36623737D01*
X27950000Y36026263D01*
X27945463Y35980194D01*
X27932741Y35938254D01*
X27912080Y35899601D01*
X27884276Y35865724D01*
X27850399Y35837920D01*
X27811746Y35817259D01*
X27769806Y35804537D01*
X27723737Y35800000D01*
X27051263Y35800000D01*
X27005194Y35804537D01*
X26963254Y35817259D01*
X26924601Y35837920D01*
X26890724Y35865724D01*
X26862920Y35899601D01*
X26842259Y35938254D01*
X26829537Y35980194D01*
X26825000Y36026263D01*
X26825000Y36623737D01*
X26829537Y36669806D01*
X26842259Y36711746D01*
X26862920Y36750399D01*
X26890724Y36784276D01*
X26924601Y36812080D01*
X26963254Y36832741D01*
X27005194Y36845463D01*
X27051263Y36850000D01*
X27723737Y36850000D01*
X27769806Y36845463D01*
G37*
G36*
X25994806Y36845463D02*
G01*
X26036746Y36832741D01*
X26075399Y36812080D01*
X26109276Y36784276D01*
X26137080Y36750399D01*
X26157741Y36711746D01*
X26170463Y36669806D01*
X26175000Y36623737D01*
X26175000Y36026263D01*
X26170463Y35980194D01*
X26157741Y35938254D01*
X26137080Y35899601D01*
X26109276Y35865724D01*
X26075399Y35837920D01*
X26036746Y35817259D01*
X25994806Y35804537D01*
X25948737Y35800000D01*
X25276263Y35800000D01*
X25230194Y35804537D01*
X25188254Y35817259D01*
X25149601Y35837920D01*
X25115724Y35865724D01*
X25087920Y35899601D01*
X25067259Y35938254D01*
X25054537Y35980194D01*
X25050000Y36026263D01*
X25050000Y36623737D01*
X25054537Y36669806D01*
X25067259Y36711746D01*
X25087920Y36750399D01*
X25115724Y36784276D01*
X25149601Y36812080D01*
X25188254Y36832741D01*
X25230194Y36845463D01*
X25276263Y36850000D01*
X25948737Y36850000D01*
X25994806Y36845463D01*
G37*
G36*
X29394002Y36971040D02*
G01*
X29430301Y36960029D01*
X29463757Y36942146D01*
X29493081Y36918081D01*
X29517146Y36888757D01*
X29535029Y36855301D01*
X29546040Y36819002D01*
X29550000Y36778796D01*
X29550000Y36221204D01*
X29546040Y36180998D01*
X29535029Y36144699D01*
X29517146Y36111243D01*
X29493081Y36081919D01*
X29463757Y36057854D01*
X29430301Y36039971D01*
X29394002Y36028960D01*
X29353796Y36025000D01*
X28871204Y36025000D01*
X28830998Y36028960D01*
X28794699Y36039971D01*
X28761243Y36057854D01*
X28731919Y36081919D01*
X28707854Y36111243D01*
X28689971Y36144699D01*
X28678960Y36180998D01*
X28675000Y36221204D01*
X28675000Y36778796D01*
X28678960Y36819002D01*
X28689971Y36855301D01*
X28707854Y36888757D01*
X28731919Y36918081D01*
X28761243Y36942146D01*
X28794699Y36960029D01*
X28830998Y36971040D01*
X28871204Y36975000D01*
X29353796Y36975000D01*
X29394002Y36971040D01*
G37*
G36*
X30969002Y36971040D02*
G01*
X31005301Y36960029D01*
X31038757Y36942146D01*
X31068081Y36918081D01*
X31092146Y36888757D01*
X31110029Y36855301D01*
X31121040Y36819002D01*
X31125000Y36778796D01*
X31125000Y36221204D01*
X31121040Y36180998D01*
X31110029Y36144699D01*
X31092146Y36111243D01*
X31068081Y36081919D01*
X31038757Y36057854D01*
X31005301Y36039971D01*
X30969002Y36028960D01*
X30928796Y36025000D01*
X30446204Y36025000D01*
X30405998Y36028960D01*
X30369699Y36039971D01*
X30336243Y36057854D01*
X30306919Y36081919D01*
X30282854Y36111243D01*
X30264971Y36144699D01*
X30253960Y36180998D01*
X30250000Y36221204D01*
X30250000Y36778796D01*
X30253960Y36819002D01*
X30264971Y36855301D01*
X30282854Y36888757D01*
X30306919Y36918081D01*
X30336243Y36942146D01*
X30369699Y36960029D01*
X30405998Y36971040D01*
X30446204Y36975000D01*
X30928796Y36975000D01*
X30969002Y36971040D01*
G37*
G36*
X22947872Y37470536D02*
G01*
X22989097Y37458031D01*
X23027090Y37437722D01*
X23060392Y37410392D01*
X23087722Y37377090D01*
X23108031Y37339097D01*
X23120536Y37297872D01*
X23125000Y37252546D01*
X23125000Y36447454D01*
X23120536Y36402128D01*
X23108031Y36360903D01*
X23087722Y36322910D01*
X23060392Y36289608D01*
X23027090Y36262278D01*
X22989097Y36241969D01*
X22947872Y36229464D01*
X22902546Y36225000D01*
X21597454Y36225000D01*
X21552128Y36229464D01*
X21510903Y36241969D01*
X21472910Y36262278D01*
X21439608Y36289608D01*
X21412278Y36322910D01*
X21391969Y36360903D01*
X21379464Y36402128D01*
X21375000Y36447454D01*
X21375000Y37252546D01*
X21379464Y37297872D01*
X21391969Y37339097D01*
X21412278Y37377090D01*
X21439608Y37410392D01*
X21472910Y37437722D01*
X21510903Y37458031D01*
X21552128Y37470536D01*
X21597454Y37475000D01*
X22902546Y37475000D01*
X22947872Y37470536D01*
G37*
G36*
X36223879Y37445560D02*
G01*
X36264870Y37433126D01*
X36302645Y37412935D01*
X36335758Y37385758D01*
X36362935Y37352645D01*
X36383126Y37314870D01*
X36395560Y37273879D01*
X36400000Y37228796D01*
X36400000Y36696204D01*
X36395560Y36651121D01*
X36383126Y36610130D01*
X36362935Y36572355D01*
X36335758Y36539242D01*
X36302645Y36512065D01*
X36264870Y36491874D01*
X36223879Y36479440D01*
X36178796Y36475000D01*
X35221204Y36475000D01*
X35176121Y36479440D01*
X35135130Y36491874D01*
X35097355Y36512065D01*
X35064242Y36539242D01*
X35037065Y36572355D01*
X35016874Y36610130D01*
X35004440Y36651121D01*
X35000000Y36696204D01*
X35000000Y37228796D01*
X35004440Y37273879D01*
X35016874Y37314870D01*
X35037065Y37352645D01*
X35064242Y37385758D01*
X35097355Y37412935D01*
X35135130Y37433126D01*
X35176121Y37445560D01*
X35221204Y37450000D01*
X36178796Y37450000D01*
X36223879Y37445560D01*
G37*
G36*
X34223879Y37445560D02*
G01*
X34264870Y37433126D01*
X34302645Y37412935D01*
X34335758Y37385758D01*
X34362935Y37352645D01*
X34383126Y37314870D01*
X34395560Y37273879D01*
X34400000Y37228796D01*
X34400000Y36696204D01*
X34395560Y36651121D01*
X34383126Y36610130D01*
X34362935Y36572355D01*
X34335758Y36539242D01*
X34302645Y36512065D01*
X34264870Y36491874D01*
X34223879Y36479440D01*
X34178796Y36475000D01*
X33221204Y36475000D01*
X33176121Y36479440D01*
X33135130Y36491874D01*
X33097355Y36512065D01*
X33064242Y36539242D01*
X33037065Y36572355D01*
X33016874Y36610130D01*
X33004440Y36651121D01*
X33000000Y36696204D01*
X33000000Y37228796D01*
X33004440Y37273879D01*
X33016874Y37314870D01*
X33037065Y37352645D01*
X33064242Y37385758D01*
X33097355Y37412935D01*
X33135130Y37433126D01*
X33176121Y37445560D01*
X33221204Y37450000D01*
X34178796Y37450000D01*
X34223879Y37445560D01*
G37*
G36*
X6504561Y39676943D02*
G01*
X6562520Y39665414D01*
X6726310Y39597570D01*
X6873717Y39499076D01*
X6999076Y39373717D01*
X7083442Y39247454D01*
X7097571Y39226308D01*
X7101563Y39216670D01*
X7165414Y39062520D01*
X7200000Y38888642D01*
X7200000Y38711358D01*
X7165414Y38537480D01*
X7097570Y38373690D01*
X6999076Y38226283D01*
X6873717Y38100924D01*
X6726310Y38002430D01*
X6562520Y37934586D01*
X6504561Y37923057D01*
X6388644Y37900000D01*
X6211356Y37900000D01*
X6095439Y37923057D01*
X6037480Y37934586D01*
X5873690Y38002430D01*
X5726283Y38100924D01*
X5600924Y38226283D01*
X5502430Y38373690D01*
X5434586Y38537480D01*
X5400000Y38711358D01*
X5400000Y38888642D01*
X5434586Y39062520D01*
X5498437Y39216670D01*
X5502429Y39226308D01*
X5516558Y39247454D01*
X5600924Y39373717D01*
X5726283Y39499076D01*
X5873690Y39597570D01*
X6037480Y39665414D01*
X6095439Y39676943D01*
X6211356Y39700000D01*
X6388644Y39700000D01*
X6504561Y39676943D01*
G37*
G36*
X4004561Y39676943D02*
G01*
X4062520Y39665414D01*
X4226310Y39597570D01*
X4373717Y39499076D01*
X4499076Y39373717D01*
X4583442Y39247454D01*
X4597571Y39226308D01*
X4601563Y39216670D01*
X4665414Y39062520D01*
X4700000Y38888642D01*
X4700000Y38711358D01*
X4665414Y38537480D01*
X4597570Y38373690D01*
X4499076Y38226283D01*
X4373717Y38100924D01*
X4226310Y38002430D01*
X4062520Y37934586D01*
X4004561Y37923057D01*
X3888644Y37900000D01*
X3711356Y37900000D01*
X3595439Y37923057D01*
X3537480Y37934586D01*
X3373690Y38002430D01*
X3226283Y38100924D01*
X3100924Y38226283D01*
X3002430Y38373690D01*
X2934586Y38537480D01*
X2900000Y38711358D01*
X2900000Y38888642D01*
X2934586Y39062520D01*
X2998437Y39216670D01*
X3002429Y39226308D01*
X3016558Y39247454D01*
X3100924Y39373717D01*
X3226283Y39499076D01*
X3373690Y39597570D01*
X3537480Y39665414D01*
X3595439Y39676943D01*
X3711356Y39700000D01*
X3888644Y39700000D01*
X4004561Y39676943D01*
G37*
G36*
X1504561Y39676943D02*
G01*
X1562520Y39665414D01*
X1726310Y39597570D01*
X1873717Y39499076D01*
X1999076Y39373717D01*
X2083442Y39247454D01*
X2097571Y39226308D01*
X2101563Y39216670D01*
X2165414Y39062520D01*
X2200000Y38888642D01*
X2200000Y38711358D01*
X2165414Y38537480D01*
X2097570Y38373690D01*
X1999076Y38226283D01*
X1873717Y38100924D01*
X1726310Y38002430D01*
X1562520Y37934586D01*
X1504561Y37923057D01*
X1388644Y37900000D01*
X1211356Y37900000D01*
X1095439Y37923057D01*
X1037480Y37934586D01*
X873690Y38002430D01*
X726283Y38100924D01*
X600924Y38226283D01*
X502430Y38373690D01*
X434586Y38537480D01*
X400000Y38711358D01*
X400000Y38888642D01*
X434586Y39062520D01*
X498437Y39216670D01*
X502429Y39226308D01*
X516558Y39247454D01*
X600924Y39373717D01*
X726283Y39499076D01*
X873690Y39597570D01*
X1037480Y39665414D01*
X1095439Y39676943D01*
X1211356Y39700000D01*
X1388644Y39700000D01*
X1504561Y39676943D01*
G37*
G36*
X28145000Y37975000D02*
G01*
X27545000Y37975000D01*
X27545000Y39525000D01*
X28145000Y39525000D01*
X28145000Y37975000D01*
G37*
G36*
X31955000Y37975000D02*
G01*
X31355000Y37975000D01*
X31355000Y39525000D01*
X31955000Y39525000D01*
X31955000Y37975000D01*
G37*
G36*
X30685000Y37975000D02*
G01*
X30085000Y37975000D01*
X30085000Y39525000D01*
X30685000Y39525000D01*
X30685000Y37975000D01*
G37*
G36*
X29415000Y37975000D02*
G01*
X28815000Y37975000D01*
X28815000Y39525000D01*
X29415000Y39525000D01*
X29415000Y37975000D01*
G37*
G36*
X26319002Y39146040D02*
G01*
X26355301Y39135029D01*
X26388757Y39117146D01*
X26418081Y39093081D01*
X26442146Y39063757D01*
X26460029Y39030301D01*
X26471040Y38994002D01*
X26475000Y38953796D01*
X26475000Y38471204D01*
X26471040Y38430998D01*
X26460029Y38394699D01*
X26442146Y38361243D01*
X26418081Y38331919D01*
X26388757Y38307854D01*
X26355301Y38289971D01*
X26319002Y38278960D01*
X26278796Y38275000D01*
X25721204Y38275000D01*
X25680998Y38278960D01*
X25644699Y38289971D01*
X25611243Y38307854D01*
X25581919Y38331919D01*
X25557854Y38361243D01*
X25539971Y38394699D01*
X25528960Y38430998D01*
X25525000Y38471204D01*
X25525000Y38953796D01*
X25528960Y38994002D01*
X25539971Y39030301D01*
X25557854Y39063757D01*
X25581919Y39093081D01*
X25611243Y39117146D01*
X25644699Y39135029D01*
X25680998Y39146040D01*
X25721204Y39150000D01*
X26278796Y39150000D01*
X26319002Y39146040D01*
G37*
G36*
X36223879Y39320560D02*
G01*
X36264870Y39308126D01*
X36302645Y39287935D01*
X36335758Y39260758D01*
X36362935Y39227645D01*
X36383126Y39189870D01*
X36395560Y39148879D01*
X36400000Y39103796D01*
X36400000Y38571204D01*
X36395560Y38526121D01*
X36383126Y38485130D01*
X36362935Y38447355D01*
X36335758Y38414242D01*
X36302645Y38387065D01*
X36264870Y38366874D01*
X36223879Y38354440D01*
X36178796Y38350000D01*
X35221204Y38350000D01*
X35176121Y38354440D01*
X35135130Y38366874D01*
X35097355Y38387065D01*
X35064242Y38414242D01*
X35037065Y38447355D01*
X35016874Y38485130D01*
X35004440Y38526121D01*
X35000000Y38571204D01*
X35000000Y39103796D01*
X35004440Y39148879D01*
X35016874Y39189870D01*
X35037065Y39227645D01*
X35064242Y39260758D01*
X35097355Y39287935D01*
X35135130Y39308126D01*
X35176121Y39320560D01*
X35221204Y39325000D01*
X36178796Y39325000D01*
X36223879Y39320560D01*
G37*
G36*
X34223879Y39320560D02*
G01*
X34264870Y39308126D01*
X34302645Y39287935D01*
X34335758Y39260758D01*
X34362935Y39227645D01*
X34383126Y39189870D01*
X34395560Y39148879D01*
X34400000Y39103796D01*
X34400000Y38571204D01*
X34395560Y38526121D01*
X34383126Y38485130D01*
X34362935Y38447355D01*
X34335758Y38414242D01*
X34302645Y38387065D01*
X34264870Y38366874D01*
X34223879Y38354440D01*
X34178796Y38350000D01*
X33221204Y38350000D01*
X33176121Y38354440D01*
X33135130Y38366874D01*
X33097355Y38387065D01*
X33064242Y38414242D01*
X33037065Y38447355D01*
X33016874Y38485130D01*
X33004440Y38526121D01*
X33000000Y38571204D01*
X33000000Y39103796D01*
X33004440Y39148879D01*
X33016874Y39189870D01*
X33037065Y39227645D01*
X33064242Y39260758D01*
X33097355Y39287935D01*
X33135130Y39308126D01*
X33176121Y39320560D01*
X33221204Y39325000D01*
X34178796Y39325000D01*
X34223879Y39320560D01*
G37*
G36*
X22947872Y40270536D02*
G01*
X22989097Y40258031D01*
X23027090Y40237722D01*
X23060392Y40210392D01*
X23087722Y40177090D01*
X23108031Y40139097D01*
X23120536Y40097872D01*
X23125000Y40052546D01*
X23125000Y39247454D01*
X23120536Y39202128D01*
X23108031Y39160903D01*
X23087722Y39122910D01*
X23060392Y39089608D01*
X23027090Y39062278D01*
X22989097Y39041969D01*
X22947872Y39029464D01*
X22902546Y39025000D01*
X21597454Y39025000D01*
X21552128Y39029464D01*
X21510903Y39041969D01*
X21472910Y39062278D01*
X21439608Y39089608D01*
X21412278Y39122910D01*
X21391969Y39160903D01*
X21379464Y39202128D01*
X21375000Y39247454D01*
X21375000Y40052546D01*
X21379464Y40097872D01*
X21391969Y40139097D01*
X21412278Y40177090D01*
X21439608Y40210392D01*
X21472910Y40237722D01*
X21510903Y40258031D01*
X21552128Y40270536D01*
X21597454Y40275000D01*
X22902546Y40275000D01*
X22947872Y40270536D01*
G37*
G36*
X26319002Y40721040D02*
G01*
X26355301Y40710029D01*
X26388757Y40692146D01*
X26418081Y40668081D01*
X26442146Y40638757D01*
X26460029Y40605301D01*
X26471040Y40569002D01*
X26475000Y40528796D01*
X26475000Y40046204D01*
X26471040Y40005998D01*
X26460029Y39969699D01*
X26442146Y39936243D01*
X26418081Y39906919D01*
X26388757Y39882854D01*
X26355301Y39864971D01*
X26319002Y39853960D01*
X26278796Y39850000D01*
X25721204Y39850000D01*
X25680998Y39853960D01*
X25644699Y39864971D01*
X25611243Y39882854D01*
X25581919Y39906919D01*
X25557854Y39936243D01*
X25539971Y39969699D01*
X25528960Y40005998D01*
X25525000Y40046204D01*
X25525000Y40528796D01*
X25528960Y40569002D01*
X25539971Y40605301D01*
X25557854Y40638757D01*
X25581919Y40668081D01*
X25611243Y40692146D01*
X25644699Y40710029D01*
X25680998Y40721040D01*
X25721204Y40725000D01*
X26278796Y40725000D01*
X26319002Y40721040D01*
G37*
G36*
X33819002Y41146040D02*
G01*
X33855301Y41135029D01*
X33888757Y41117146D01*
X33918081Y41093081D01*
X33942146Y41063757D01*
X33960029Y41030301D01*
X33971040Y40994002D01*
X33975000Y40953796D01*
X33975000Y40471204D01*
X33971040Y40430998D01*
X33960029Y40394699D01*
X33942146Y40361243D01*
X33918081Y40331919D01*
X33888757Y40307854D01*
X33855301Y40289971D01*
X33819002Y40278960D01*
X33778796Y40275000D01*
X33221204Y40275000D01*
X33180998Y40278960D01*
X33144699Y40289971D01*
X33111243Y40307854D01*
X33081919Y40331919D01*
X33057854Y40361243D01*
X33039971Y40394699D01*
X33028960Y40430998D01*
X33025000Y40471204D01*
X33025000Y40953796D01*
X33028960Y40994002D01*
X33039971Y41030301D01*
X33057854Y41063757D01*
X33081919Y41093081D01*
X33111243Y41117146D01*
X33144699Y41135029D01*
X33180998Y41146040D01*
X33221204Y41150000D01*
X33778796Y41150000D01*
X33819002Y41146040D01*
G37*
G36*
X17675012Y41536943D02*
G01*
X17675015Y41536942D01*
X17675014Y41536942D01*
X17784207Y41491713D01*
X17882478Y41426050D01*
X17966050Y41342478D01*
X17966051Y41342476D01*
X18031714Y41244205D01*
X18076943Y41135012D01*
X18100000Y41019096D01*
X18100000Y40900904D01*
X18076943Y40784988D01*
X18076942Y40784986D01*
X18031713Y40675793D01*
X17966050Y40577522D01*
X17882478Y40493950D01*
X17784207Y40428287D01*
X17784206Y40428286D01*
X17784205Y40428286D01*
X17675012Y40383057D01*
X17559096Y40360000D01*
X17440904Y40360000D01*
X17324988Y40383057D01*
X17215795Y40428286D01*
X17215794Y40428286D01*
X17215793Y40428287D01*
X17117522Y40493950D01*
X17033950Y40577522D01*
X16968287Y40675793D01*
X16923058Y40784986D01*
X16923057Y40784988D01*
X16900000Y40900904D01*
X16900000Y41019096D01*
X16923057Y41135012D01*
X16968286Y41244205D01*
X17033949Y41342476D01*
X17033950Y41342478D01*
X17117522Y41426050D01*
X17215793Y41491713D01*
X17324986Y41536942D01*
X17324985Y41536942D01*
X17324988Y41536943D01*
X17440904Y41560000D01*
X17559096Y41560000D01*
X17675012Y41536943D01*
G37*
G36*
X11623879Y42945560D02*
G01*
X11664870Y42933126D01*
X11702645Y42912935D01*
X11735758Y42885758D01*
X11762935Y42852645D01*
X11783126Y42814870D01*
X11795560Y42773879D01*
X11800000Y42728796D01*
X11800000Y41771204D01*
X11795560Y41726121D01*
X11783126Y41685130D01*
X11762935Y41647355D01*
X11735758Y41614242D01*
X11702645Y41587065D01*
X11664870Y41566874D01*
X11623879Y41554440D01*
X11578796Y41550000D01*
X11046204Y41550000D01*
X11001121Y41554440D01*
X10960130Y41566874D01*
X10922355Y41587065D01*
X10889242Y41614242D01*
X10862065Y41647355D01*
X10841874Y41685130D01*
X10829440Y41726121D01*
X10825000Y41771204D01*
X10825000Y42728796D01*
X10829440Y42773879D01*
X10841874Y42814870D01*
X10862065Y42852645D01*
X10889242Y42885758D01*
X10922355Y42912935D01*
X10960130Y42933126D01*
X11001121Y42945560D01*
X11046204Y42950000D01*
X11578796Y42950000D01*
X11623879Y42945560D01*
G37*
G36*
X13498879Y42945560D02*
G01*
X13539870Y42933126D01*
X13577645Y42912935D01*
X13610758Y42885758D01*
X13637935Y42852645D01*
X13658126Y42814870D01*
X13670560Y42773879D01*
X13675000Y42728796D01*
X13675000Y41771204D01*
X13670560Y41726121D01*
X13658126Y41685130D01*
X13637935Y41647355D01*
X13610758Y41614242D01*
X13577645Y41587065D01*
X13539870Y41566874D01*
X13498879Y41554440D01*
X13453796Y41550000D01*
X12921204Y41550000D01*
X12876121Y41554440D01*
X12835130Y41566874D01*
X12797355Y41587065D01*
X12764242Y41614242D01*
X12737065Y41647355D01*
X12716874Y41685130D01*
X12704440Y41726121D01*
X12700000Y41771204D01*
X12700000Y42728796D01*
X12704440Y42773879D01*
X12716874Y42814870D01*
X12737065Y42852645D01*
X12764242Y42885758D01*
X12797355Y42912935D01*
X12835130Y42933126D01*
X12876121Y42945560D01*
X12921204Y42950000D01*
X13453796Y42950000D01*
X13498879Y42945560D01*
G37*
G36*
X16405012Y42806943D02*
G01*
X16424905Y42798703D01*
X16514207Y42761713D01*
X16612478Y42696050D01*
X16696050Y42612478D01*
X16761713Y42514207D01*
X16761714Y42514205D01*
X16806943Y42405012D01*
X16830000Y42289096D01*
X16830000Y42170904D01*
X16806943Y42054988D01*
X16762304Y41947219D01*
X16761713Y41945793D01*
X16696050Y41847522D01*
X16612478Y41763950D01*
X16514207Y41698287D01*
X16514206Y41698286D01*
X16514205Y41698286D01*
X16405012Y41653057D01*
X16289096Y41630000D01*
X16170904Y41630000D01*
X16054988Y41653057D01*
X15945795Y41698286D01*
X15945794Y41698286D01*
X15945793Y41698287D01*
X15847522Y41763950D01*
X15763950Y41847522D01*
X15698287Y41945793D01*
X15697696Y41947219D01*
X15653057Y42054988D01*
X15630000Y42170904D01*
X15630000Y42289096D01*
X15653057Y42405012D01*
X15698286Y42514205D01*
X15698287Y42514207D01*
X15763950Y42612478D01*
X15847522Y42696050D01*
X15945793Y42761713D01*
X16035095Y42798703D01*
X16054988Y42806943D01*
X16170904Y42830000D01*
X16289096Y42830000D01*
X16405012Y42806943D01*
G37*
G36*
X22319002Y42646040D02*
G01*
X22355301Y42635029D01*
X22388757Y42617146D01*
X22418081Y42593081D01*
X22442146Y42563757D01*
X22460029Y42530301D01*
X22471040Y42494002D01*
X22475000Y42453796D01*
X22475000Y41971204D01*
X22471040Y41930998D01*
X22460029Y41894699D01*
X22442146Y41861243D01*
X22418081Y41831919D01*
X22388757Y41807854D01*
X22355301Y41789971D01*
X22319002Y41778960D01*
X22278796Y41775000D01*
X21721204Y41775000D01*
X21680998Y41778960D01*
X21644699Y41789971D01*
X21611243Y41807854D01*
X21581919Y41831919D01*
X21557854Y41861243D01*
X21539971Y41894699D01*
X21528960Y41930998D01*
X21525000Y41971204D01*
X21525000Y42453796D01*
X21528960Y42494002D01*
X21539971Y42530301D01*
X21557854Y42563757D01*
X21581919Y42593081D01*
X21611243Y42617146D01*
X21644699Y42635029D01*
X21680998Y42646040D01*
X21721204Y42650000D01*
X22278796Y42650000D01*
X22319002Y42646040D01*
G37*
G36*
X33819002Y42721040D02*
G01*
X33855301Y42710029D01*
X33888757Y42692146D01*
X33918081Y42668081D01*
X33942146Y42638757D01*
X33960029Y42605301D01*
X33971040Y42569002D01*
X33975000Y42528796D01*
X33975000Y42046204D01*
X33971040Y42005998D01*
X33960029Y41969699D01*
X33942146Y41936243D01*
X33918081Y41906919D01*
X33888757Y41882854D01*
X33855301Y41864971D01*
X33819002Y41853960D01*
X33778796Y41850000D01*
X33221204Y41850000D01*
X33180998Y41853960D01*
X33144699Y41864971D01*
X33111243Y41882854D01*
X33081919Y41906919D01*
X33057854Y41936243D01*
X33039971Y41969699D01*
X33028960Y42005998D01*
X33025000Y42046204D01*
X33025000Y42528796D01*
X33028960Y42569002D01*
X33039971Y42605301D01*
X33057854Y42638757D01*
X33081919Y42668081D01*
X33111243Y42692146D01*
X33144699Y42710029D01*
X33180998Y42721040D01*
X33221204Y42725000D01*
X33778796Y42725000D01*
X33819002Y42721040D01*
G37*
G36*
X17617620Y44291319D02*
G01*
X17674171Y44274164D01*
X17730721Y44257010D01*
X17834955Y44201296D01*
X17926317Y44126317D01*
X18001296Y44034955D01*
X18057010Y43930721D01*
X18068225Y43893750D01*
X18091319Y43817620D01*
X18100000Y43729477D01*
X18100000Y43270522D01*
X18091319Y43182380D01*
X18074164Y43125829D01*
X18057010Y43069279D01*
X18001296Y42965045D01*
X17973722Y42931446D01*
X17926315Y42873680D01*
X17873089Y42830000D01*
X17834954Y42798704D01*
X17730720Y42742990D01*
X17683928Y42728796D01*
X17617619Y42708681D01*
X17500000Y42697097D01*
X17382380Y42708681D01*
X17316071Y42728796D01*
X17269279Y42742990D01*
X17165045Y42798704D01*
X17099318Y42852645D01*
X17073680Y42873685D01*
X16998705Y42965045D01*
X16998704Y42965046D01*
X16942990Y43069280D01*
X16908682Y43182379D01*
X16908681Y43182381D01*
X16900000Y43270523D01*
X16900000Y43729478D01*
X16908681Y43817620D01*
X16931775Y43893750D01*
X16942990Y43930721D01*
X16961562Y43965466D01*
X16998703Y44034953D01*
X17073684Y44126317D01*
X17115860Y44160930D01*
X17165046Y44201296D01*
X17269280Y44257010D01*
X17325830Y44274164D01*
X17382381Y44291319D01*
X17500000Y44302903D01*
X17617620Y44291319D01*
G37*
G36*
X25569002Y44221040D02*
G01*
X25605301Y44210029D01*
X25638757Y44192146D01*
X25668081Y44168081D01*
X25692146Y44138757D01*
X25710029Y44105301D01*
X25721040Y44069002D01*
X25725000Y44028796D01*
X25725000Y43471204D01*
X25721040Y43430998D01*
X25710029Y43394699D01*
X25692146Y43361243D01*
X25668081Y43331919D01*
X25638757Y43307854D01*
X25605301Y43289971D01*
X25569002Y43278960D01*
X25528796Y43275000D01*
X25046204Y43275000D01*
X25005998Y43278960D01*
X24969699Y43289971D01*
X24936243Y43307854D01*
X24906919Y43331919D01*
X24882854Y43361243D01*
X24864971Y43394699D01*
X24853960Y43430998D01*
X24850000Y43471204D01*
X24850000Y44028796D01*
X24853960Y44069002D01*
X24864971Y44105301D01*
X24882854Y44138757D01*
X24906919Y44168081D01*
X24936243Y44192146D01*
X24969699Y44210029D01*
X25005998Y44221040D01*
X25046204Y44225000D01*
X25528796Y44225000D01*
X25569002Y44221040D01*
G37*
G36*
X23994002Y44221040D02*
G01*
X24030301Y44210029D01*
X24063757Y44192146D01*
X24093081Y44168081D01*
X24117146Y44138757D01*
X24135029Y44105301D01*
X24146040Y44069002D01*
X24150000Y44028796D01*
X24150000Y43471204D01*
X24146040Y43430998D01*
X24135029Y43394699D01*
X24117146Y43361243D01*
X24093081Y43331919D01*
X24063757Y43307854D01*
X24030301Y43289971D01*
X23994002Y43278960D01*
X23953796Y43275000D01*
X23471204Y43275000D01*
X23430998Y43278960D01*
X23394699Y43289971D01*
X23361243Y43307854D01*
X23331919Y43331919D01*
X23307854Y43361243D01*
X23289971Y43394699D01*
X23278960Y43430998D01*
X23275000Y43471204D01*
X23275000Y44028796D01*
X23278960Y44069002D01*
X23289971Y44105301D01*
X23307854Y44138757D01*
X23331919Y44168081D01*
X23361243Y44192146D01*
X23394699Y44210029D01*
X23430998Y44221040D01*
X23471204Y44225000D01*
X23953796Y44225000D01*
X23994002Y44221040D01*
G37*
G36*
X22319002Y44221040D02*
G01*
X22355301Y44210029D01*
X22388757Y44192146D01*
X22418081Y44168081D01*
X22442146Y44138757D01*
X22460029Y44105301D01*
X22471040Y44069002D01*
X22475000Y44028796D01*
X22475000Y43546204D01*
X22471040Y43505998D01*
X22460029Y43469699D01*
X22442146Y43436243D01*
X22418081Y43406919D01*
X22388757Y43382854D01*
X22355301Y43364971D01*
X22319002Y43353960D01*
X22278796Y43350000D01*
X21721204Y43350000D01*
X21680998Y43353960D01*
X21644699Y43364971D01*
X21611243Y43382854D01*
X21581919Y43406919D01*
X21557854Y43436243D01*
X21539971Y43469699D01*
X21528960Y43505998D01*
X21525000Y43546204D01*
X21525000Y44028796D01*
X21528960Y44069002D01*
X21539971Y44105301D01*
X21557854Y44138757D01*
X21581919Y44168081D01*
X21611243Y44192146D01*
X21644699Y44210029D01*
X21680998Y44221040D01*
X21721204Y44225000D01*
X22278796Y44225000D01*
X22319002Y44221040D01*
G37*
G36*
X31955000Y43375000D02*
G01*
X31355000Y43375000D01*
X31355000Y44925000D01*
X31955000Y44925000D01*
X31955000Y43375000D01*
G37*
G36*
X30685000Y43375000D02*
G01*
X30085000Y43375000D01*
X30085000Y44925000D01*
X30685000Y44925000D01*
X30685000Y43375000D01*
G37*
G36*
X29415000Y43375000D02*
G01*
X28815000Y43375000D01*
X28815000Y44925000D01*
X29415000Y44925000D01*
X29415000Y43375000D01*
G37*
G36*
X28145000Y43375000D02*
G01*
X27545000Y43375000D01*
X27545000Y44925000D01*
X28145000Y44925000D01*
X28145000Y43375000D01*
G37*
G36*
X13569002Y44546040D02*
G01*
X13605301Y44535029D01*
X13638757Y44517146D01*
X13668081Y44493081D01*
X13692146Y44463757D01*
X13710029Y44430301D01*
X13721040Y44394002D01*
X13725000Y44353796D01*
X13725000Y43871204D01*
X13721040Y43830998D01*
X13710029Y43794699D01*
X13692146Y43761243D01*
X13668081Y43731919D01*
X13638757Y43707854D01*
X13605301Y43689971D01*
X13569002Y43678960D01*
X13528796Y43675000D01*
X12971204Y43675000D01*
X12930998Y43678960D01*
X12894699Y43689971D01*
X12861243Y43707854D01*
X12831919Y43731919D01*
X12807854Y43761243D01*
X12789971Y43794699D01*
X12778960Y43830998D01*
X12775000Y43871204D01*
X12775000Y44353796D01*
X12778960Y44394002D01*
X12789971Y44430301D01*
X12807854Y44463757D01*
X12831919Y44493081D01*
X12861243Y44517146D01*
X12894699Y44535029D01*
X12930998Y44546040D01*
X12971204Y44550000D01*
X13528796Y44550000D01*
X13569002Y44546040D01*
G37*
G36*
X8783377Y47723142D02*
G01*
X8996590Y47634826D01*
X9147355Y47572377D01*
X9474926Y47353501D01*
X9753501Y47074926D01*
X9972377Y46747355D01*
X10018862Y46635130D01*
X10123142Y46383377D01*
X10200000Y45996984D01*
X10200000Y45603016D01*
X10123142Y45216623D01*
X10034826Y45003410D01*
X9972377Y44852645D01*
X9753501Y44525074D01*
X9474926Y44246499D01*
X9147355Y44027623D01*
X8996590Y43965174D01*
X8783377Y43876858D01*
X8396984Y43800000D01*
X8003016Y43800000D01*
X7616623Y43876858D01*
X7403410Y43965174D01*
X7252645Y44027623D01*
X6925074Y44246499D01*
X6646499Y44525074D01*
X6427623Y44852645D01*
X6365174Y45003410D01*
X6276858Y45216623D01*
X6200000Y45603016D01*
X6200000Y45996984D01*
X6276858Y46383377D01*
X6381138Y46635130D01*
X6427623Y46747355D01*
X6646499Y47074926D01*
X6925074Y47353501D01*
X7252645Y47572377D01*
X7403410Y47634826D01*
X7616623Y47723142D01*
X8003016Y47800000D01*
X8396984Y47800000D01*
X8783377Y47723142D01*
G37*
G36*
X-16623Y47723142D02*
G01*
X196590Y47634826D01*
X347355Y47572377D01*
X674926Y47353501D01*
X953501Y47074926D01*
X1172377Y46747355D01*
X1218862Y46635130D01*
X1323142Y46383377D01*
X1400000Y45996984D01*
X1400000Y45603016D01*
X1323142Y45216623D01*
X1234826Y45003410D01*
X1172377Y44852645D01*
X953501Y44525074D01*
X674926Y44246499D01*
X347355Y44027623D01*
X196590Y43965174D01*
X-16623Y43876858D01*
X-403016Y43800000D01*
X-796984Y43800000D01*
X-1183377Y43876858D01*
X-1396590Y43965174D01*
X-1547355Y44027623D01*
X-1874926Y44246499D01*
X-2153501Y44525074D01*
X-2372377Y44852645D01*
X-2434826Y45003410D01*
X-2523142Y45216623D01*
X-2600000Y45603016D01*
X-2600000Y45996984D01*
X-2523142Y46383377D01*
X-2418862Y46635130D01*
X-2372377Y46747355D01*
X-2153501Y47074926D01*
X-1874926Y47353501D01*
X-1547355Y47572377D01*
X-1396590Y47634826D01*
X-1183377Y47723142D01*
X-796984Y47800000D01*
X-403016Y47800000D01*
X-16623Y47723142D01*
G37*
G36*
X13569002Y46121040D02*
G01*
X13605301Y46110029D01*
X13638757Y46092146D01*
X13668081Y46068081D01*
X13692146Y46038757D01*
X13710029Y46005301D01*
X13721040Y45969002D01*
X13725000Y45928796D01*
X13725000Y45446204D01*
X13721040Y45405998D01*
X13710029Y45369699D01*
X13692146Y45336243D01*
X13668081Y45306919D01*
X13638757Y45282854D01*
X13605301Y45264971D01*
X13569002Y45253960D01*
X13528796Y45250000D01*
X12971204Y45250000D01*
X12930998Y45253960D01*
X12894699Y45264971D01*
X12861243Y45282854D01*
X12831919Y45306919D01*
X12807854Y45336243D01*
X12789971Y45369699D01*
X12778960Y45405998D01*
X12775000Y45446204D01*
X12775000Y45928796D01*
X12778960Y45969002D01*
X12789971Y46005301D01*
X12807854Y46038757D01*
X12831919Y46068081D01*
X12861243Y46092146D01*
X12894699Y46110029D01*
X12930998Y46121040D01*
X12971204Y46125000D01*
X13528796Y46125000D01*
X13569002Y46121040D01*
G37*
G36*
X30623879Y47045560D02*
G01*
X30664870Y47033126D01*
X30702645Y47012935D01*
X30735758Y46985758D01*
X30762935Y46952645D01*
X30783126Y46914870D01*
X30795560Y46873879D01*
X30800000Y46828796D01*
X30800000Y45871204D01*
X30795560Y45826121D01*
X30783126Y45785130D01*
X30762935Y45747355D01*
X30735758Y45714242D01*
X30702645Y45687065D01*
X30664870Y45666874D01*
X30623879Y45654440D01*
X30578796Y45650000D01*
X30046204Y45650000D01*
X30001121Y45654440D01*
X29960130Y45666874D01*
X29922355Y45687065D01*
X29889242Y45714242D01*
X29862065Y45747355D01*
X29841874Y45785130D01*
X29829440Y45826121D01*
X29825000Y45871204D01*
X29825000Y46828796D01*
X29829440Y46873879D01*
X29841874Y46914870D01*
X29862065Y46952645D01*
X29889242Y46985758D01*
X29922355Y47012935D01*
X29960130Y47033126D01*
X30001121Y47045560D01*
X30046204Y47050000D01*
X30578796Y47050000D01*
X30623879Y47045560D01*
G37*
G36*
X32498879Y47045560D02*
G01*
X32539870Y47033126D01*
X32577645Y47012935D01*
X32610758Y46985758D01*
X32637935Y46952645D01*
X32658126Y46914870D01*
X32670560Y46873879D01*
X32675000Y46828796D01*
X32675000Y45871204D01*
X32670560Y45826121D01*
X32658126Y45785130D01*
X32637935Y45747355D01*
X32610758Y45714242D01*
X32577645Y45687065D01*
X32539870Y45666874D01*
X32498879Y45654440D01*
X32453796Y45650000D01*
X31921204Y45650000D01*
X31876121Y45654440D01*
X31835130Y45666874D01*
X31797355Y45687065D01*
X31764242Y45714242D01*
X31737065Y45747355D01*
X31716874Y45785130D01*
X31704440Y45826121D01*
X31700000Y45871204D01*
X31700000Y46828796D01*
X31704440Y46873879D01*
X31716874Y46914870D01*
X31737065Y46952645D01*
X31764242Y46985758D01*
X31797355Y47012935D01*
X31835130Y47033126D01*
X31876121Y47045560D01*
X31921204Y47050000D01*
X32453796Y47050000D01*
X32498879Y47045560D01*
G37*
G36*
X22494002Y46971040D02*
G01*
X22530301Y46960029D01*
X22563757Y46942146D01*
X22593081Y46918081D01*
X22617146Y46888757D01*
X22635029Y46855301D01*
X22646040Y46819002D01*
X22650000Y46778796D01*
X22650000Y46221204D01*
X22646040Y46180998D01*
X22635029Y46144699D01*
X22617146Y46111243D01*
X22593081Y46081919D01*
X22563757Y46057854D01*
X22530301Y46039971D01*
X22494002Y46028960D01*
X22453796Y46025000D01*
X21971204Y46025000D01*
X21930998Y46028960D01*
X21894699Y46039971D01*
X21861243Y46057854D01*
X21831919Y46081919D01*
X21807854Y46111243D01*
X21789971Y46144699D01*
X21778960Y46180998D01*
X21775000Y46221204D01*
X21775000Y46778796D01*
X21778960Y46819002D01*
X21789971Y46855301D01*
X21807854Y46888757D01*
X21831919Y46918081D01*
X21861243Y46942146D01*
X21894699Y46960029D01*
X21930998Y46971040D01*
X21971204Y46975000D01*
X22453796Y46975000D01*
X22494002Y46971040D01*
G37*
G36*
X24069002Y46971040D02*
G01*
X24105301Y46960029D01*
X24138757Y46942146D01*
X24168081Y46918081D01*
X24192146Y46888757D01*
X24210029Y46855301D01*
X24221040Y46819002D01*
X24225000Y46778796D01*
X24225000Y46221204D01*
X24221040Y46180998D01*
X24210029Y46144699D01*
X24192146Y46111243D01*
X24168081Y46081919D01*
X24138757Y46057854D01*
X24105301Y46039971D01*
X24069002Y46028960D01*
X24028796Y46025000D01*
X23546204Y46025000D01*
X23505998Y46028960D01*
X23469699Y46039971D01*
X23436243Y46057854D01*
X23406919Y46081919D01*
X23382854Y46111243D01*
X23364971Y46144699D01*
X23353960Y46180998D01*
X23350000Y46221204D01*
X23350000Y46778796D01*
X23353960Y46819002D01*
X23364971Y46855301D01*
X23382854Y46888757D01*
X23406919Y46918081D01*
X23436243Y46942146D01*
X23469699Y46960029D01*
X23505998Y46971040D01*
X23546204Y46975000D01*
X24028796Y46975000D01*
X24069002Y46971040D01*
G37*
G36*
X17994002Y47221040D02*
G01*
X18030301Y47210029D01*
X18063757Y47192146D01*
X18093081Y47168081D01*
X18117146Y47138757D01*
X18135029Y47105301D01*
X18146040Y47069002D01*
X18150000Y47028796D01*
X18150000Y46471204D01*
X18146040Y46430998D01*
X18135029Y46394699D01*
X18117146Y46361243D01*
X18093081Y46331919D01*
X18063757Y46307854D01*
X18030301Y46289971D01*
X17994002Y46278960D01*
X17953796Y46275000D01*
X17471204Y46275000D01*
X17430998Y46278960D01*
X17394699Y46289971D01*
X17361243Y46307854D01*
X17331919Y46331919D01*
X17307854Y46361243D01*
X17289971Y46394699D01*
X17278960Y46430998D01*
X17275000Y46471204D01*
X17275000Y47028796D01*
X17278960Y47069002D01*
X17289971Y47105301D01*
X17307854Y47138757D01*
X17331919Y47168081D01*
X17361243Y47192146D01*
X17394699Y47210029D01*
X17430998Y47221040D01*
X17471204Y47225000D01*
X17953796Y47225000D01*
X17994002Y47221040D01*
G37*
G36*
X19569002Y47221040D02*
G01*
X19605301Y47210029D01*
X19638757Y47192146D01*
X19668081Y47168081D01*
X19692146Y47138757D01*
X19710029Y47105301D01*
X19721040Y47069002D01*
X19725000Y47028796D01*
X19725000Y46471204D01*
X19721040Y46430998D01*
X19710029Y46394699D01*
X19692146Y46361243D01*
X19668081Y46331919D01*
X19638757Y46307854D01*
X19605301Y46289971D01*
X19569002Y46278960D01*
X19528796Y46275000D01*
X19046204Y46275000D01*
X19005998Y46278960D01*
X18969699Y46289971D01*
X18936243Y46307854D01*
X18906919Y46331919D01*
X18882854Y46361243D01*
X18864971Y46394699D01*
X18853960Y46430998D01*
X18850000Y46471204D01*
X18850000Y47028796D01*
X18853960Y47069002D01*
X18864971Y47105301D01*
X18882854Y47138757D01*
X18906919Y47168081D01*
X18936243Y47192146D01*
X18969699Y47210029D01*
X19005998Y47221040D01*
X19046204Y47225000D01*
X19528796Y47225000D01*
X19569002Y47221040D01*
G37*
G36*
X27886379Y47895560D02*
G01*
X27927370Y47883126D01*
X27965145Y47862935D01*
X27998258Y47835758D01*
X28025435Y47802645D01*
X28045626Y47764870D01*
X28058060Y47723879D01*
X28062500Y47678796D01*
X28062500Y46721204D01*
X28058060Y46676121D01*
X28045626Y46635130D01*
X28025435Y46597355D01*
X27998258Y46564242D01*
X27965145Y46537065D01*
X27927370Y46516874D01*
X27886379Y46504440D01*
X27841296Y46500000D01*
X27308704Y46500000D01*
X27263621Y46504440D01*
X27222630Y46516874D01*
X27184855Y46537065D01*
X27151742Y46564242D01*
X27124565Y46597355D01*
X27104374Y46635130D01*
X27091940Y46676121D01*
X27087500Y46721204D01*
X27087500Y47678796D01*
X27091940Y47723879D01*
X27104374Y47764870D01*
X27124565Y47802645D01*
X27151742Y47835758D01*
X27184855Y47862935D01*
X27222630Y47883126D01*
X27263621Y47895560D01*
X27308704Y47900000D01*
X27841296Y47900000D01*
X27886379Y47895560D01*
G37*
G36*
X26011379Y47895560D02*
G01*
X26052370Y47883126D01*
X26090145Y47862935D01*
X26123258Y47835758D01*
X26150435Y47802645D01*
X26170626Y47764870D01*
X26183060Y47723879D01*
X26187500Y47678796D01*
X26187500Y46721204D01*
X26183060Y46676121D01*
X26170626Y46635130D01*
X26150435Y46597355D01*
X26123258Y46564242D01*
X26090145Y46537065D01*
X26052370Y46516874D01*
X26011379Y46504440D01*
X25966296Y46500000D01*
X25433704Y46500000D01*
X25388621Y46504440D01*
X25347630Y46516874D01*
X25309855Y46537065D01*
X25276742Y46564242D01*
X25249565Y46597355D01*
X25229374Y46635130D01*
X25216940Y46676121D01*
X25212500Y46721204D01*
X25212500Y47678796D01*
X25216940Y47723879D01*
X25229374Y47764870D01*
X25249565Y47802645D01*
X25276742Y47835758D01*
X25309855Y47862935D01*
X25347630Y47883126D01*
X25388621Y47895560D01*
X25433704Y47900000D01*
X25966296Y47900000D01*
X26011379Y47895560D01*
G37*
G36*
X14648879Y48095560D02*
G01*
X14689870Y48083126D01*
X14727645Y48062935D01*
X14760758Y48035758D01*
X14787935Y48002645D01*
X14808126Y47964870D01*
X14820560Y47923879D01*
X14825000Y47878796D01*
X14825000Y46921204D01*
X14820560Y46876121D01*
X14808126Y46835130D01*
X14787935Y46797355D01*
X14760758Y46764242D01*
X14727645Y46737065D01*
X14689870Y46716874D01*
X14648879Y46704440D01*
X14603796Y46700000D01*
X14071204Y46700000D01*
X14026121Y46704440D01*
X13985130Y46716874D01*
X13947355Y46737065D01*
X13914242Y46764242D01*
X13887065Y46797355D01*
X13866874Y46835130D01*
X13854440Y46876121D01*
X13850000Y46921204D01*
X13850000Y47878796D01*
X13854440Y47923879D01*
X13866874Y47964870D01*
X13887065Y48002645D01*
X13914242Y48035758D01*
X13947355Y48062935D01*
X13985130Y48083126D01*
X14026121Y48095560D01*
X14071204Y48100000D01*
X14603796Y48100000D01*
X14648879Y48095560D01*
G37*
G36*
X12773879Y48095560D02*
G01*
X12814870Y48083126D01*
X12852645Y48062935D01*
X12885758Y48035758D01*
X12912935Y48002645D01*
X12933126Y47964870D01*
X12945560Y47923879D01*
X12950000Y47878796D01*
X12950000Y46921204D01*
X12945560Y46876121D01*
X12933126Y46835130D01*
X12912935Y46797355D01*
X12885758Y46764242D01*
X12852645Y46737065D01*
X12814870Y46716874D01*
X12773879Y46704440D01*
X12728796Y46700000D01*
X12196204Y46700000D01*
X12151121Y46704440D01*
X12110130Y46716874D01*
X12072355Y46737065D01*
X12039242Y46764242D01*
X12012065Y46797355D01*
X11991874Y46835130D01*
X11979440Y46876121D01*
X11975000Y46921204D01*
X11975000Y47878796D01*
X11979440Y47923879D01*
X11991874Y47964870D01*
X12012065Y48002645D01*
X12039242Y48035758D01*
X12072355Y48062935D01*
X12110130Y48083126D01*
X12151121Y48095560D01*
X12196204Y48100000D01*
X12728796Y48100000D01*
X12773879Y48095560D01*
G37*
G36*
X33000000Y47850000D02*
G01*
X32000000Y47850000D01*
X32000000Y48850000D01*
X33000000Y48850000D01*
X33000000Y47850000D01*
G37*
G36*
X30500000Y47850000D02*
G01*
X29500000Y47850000D01*
X29500000Y48850000D01*
X30500000Y48850000D01*
X30500000Y47850000D01*
G37*
G36*
X17749063Y49345565D02*
G01*
X17790015Y49333141D01*
X17827751Y49312972D01*
X17860827Y49285827D01*
X17887972Y49252751D01*
X17908141Y49215015D01*
X17920565Y49174063D01*
X17925000Y49129029D01*
X17925000Y48170971D01*
X17920565Y48125937D01*
X17908141Y48084985D01*
X17887972Y48047249D01*
X17860827Y48014173D01*
X17827751Y47987028D01*
X17790015Y47966859D01*
X17749063Y47954435D01*
X17704029Y47950000D01*
X16795971Y47950000D01*
X16750937Y47954435D01*
X16709985Y47966859D01*
X16672249Y47987028D01*
X16639173Y48014173D01*
X16612028Y48047249D01*
X16591859Y48084985D01*
X16579435Y48125937D01*
X16575000Y48170971D01*
X16575000Y49129029D01*
X16579435Y49174063D01*
X16591859Y49215015D01*
X16612028Y49252751D01*
X16639173Y49285827D01*
X16672249Y49312972D01*
X16709985Y49333141D01*
X16750937Y49345565D01*
X16795971Y49350000D01*
X17704029Y49350000D01*
X17749063Y49345565D01*
G37*
G36*
X19819002Y48896040D02*
G01*
X19855301Y48885029D01*
X19888757Y48867146D01*
X19918081Y48843081D01*
X19942146Y48813757D01*
X19960029Y48780301D01*
X19971040Y48744002D01*
X19975000Y48703796D01*
X19975000Y48221204D01*
X19971040Y48180998D01*
X19960029Y48144699D01*
X19942146Y48111243D01*
X19918081Y48081919D01*
X19888757Y48057854D01*
X19855301Y48039971D01*
X19819002Y48028960D01*
X19778796Y48025000D01*
X19221204Y48025000D01*
X19180998Y48028960D01*
X19144699Y48039971D01*
X19111243Y48057854D01*
X19081919Y48081919D01*
X19057854Y48111243D01*
X19039971Y48144699D01*
X19028960Y48180998D01*
X19025000Y48221204D01*
X19025000Y48703796D01*
X19028960Y48744002D01*
X19039971Y48780301D01*
X19057854Y48813757D01*
X19081919Y48843081D01*
X19111243Y48867146D01*
X19144699Y48885029D01*
X19180998Y48896040D01*
X19221204Y48900000D01*
X19778796Y48900000D01*
X19819002Y48896040D01*
G37*
G36*
X14719002Y50146040D02*
G01*
X14755301Y50135029D01*
X14788757Y50117146D01*
X14818081Y50093081D01*
X14842146Y50063757D01*
X14860029Y50030301D01*
X14871040Y49994002D01*
X14875000Y49953796D01*
X14875000Y49471204D01*
X14871040Y49430998D01*
X14860029Y49394699D01*
X14842146Y49361243D01*
X14818081Y49331919D01*
X14788757Y49307854D01*
X14755301Y49289971D01*
X14719002Y49278960D01*
X14678796Y49275000D01*
X14121204Y49275000D01*
X14080998Y49278960D01*
X14044699Y49289971D01*
X14011243Y49307854D01*
X13981919Y49331919D01*
X13957854Y49361243D01*
X13939971Y49394699D01*
X13928960Y49430998D01*
X13925000Y49471204D01*
X13925000Y49953796D01*
X13928960Y49994002D01*
X13939971Y50030301D01*
X13957854Y50063757D01*
X13981919Y50093081D01*
X14011243Y50117146D01*
X14044699Y50135029D01*
X14080998Y50146040D01*
X14121204Y50150000D01*
X14678796Y50150000D01*
X14719002Y50146040D01*
G37*
G36*
X12844806Y50420463D02*
G01*
X12886746Y50407741D01*
X12925399Y50387080D01*
X12959276Y50359276D01*
X12987080Y50325399D01*
X13007741Y50286746D01*
X13020463Y50244806D01*
X13025000Y50198737D01*
X13025000Y49526263D01*
X13020463Y49480194D01*
X13007741Y49438254D01*
X12987080Y49399601D01*
X12959276Y49365724D01*
X12925399Y49337920D01*
X12886746Y49317259D01*
X12844806Y49304537D01*
X12798737Y49300000D01*
X12201263Y49300000D01*
X12155194Y49304537D01*
X12113254Y49317259D01*
X12074601Y49337920D01*
X12040724Y49365724D01*
X12012920Y49399601D01*
X11992259Y49438254D01*
X11979537Y49480194D01*
X11975000Y49526263D01*
X11975000Y50198737D01*
X11979537Y50244806D01*
X11992259Y50286746D01*
X12012920Y50325399D01*
X12040724Y50359276D01*
X12074601Y50387080D01*
X12113254Y50407741D01*
X12155194Y50420463D01*
X12201263Y50425000D01*
X12798737Y50425000D01*
X12844806Y50420463D01*
G37*
G36*
X19819002Y50471040D02*
G01*
X19855301Y50460029D01*
X19888757Y50442146D01*
X19918081Y50418081D01*
X19942146Y50388757D01*
X19960029Y50355301D01*
X19971040Y50319002D01*
X19975000Y50278796D01*
X19975000Y49796204D01*
X19971040Y49755998D01*
X19960029Y49719699D01*
X19942146Y49686243D01*
X19918081Y49656919D01*
X19888757Y49632854D01*
X19855301Y49614971D01*
X19819002Y49603960D01*
X19778796Y49600000D01*
X19221204Y49600000D01*
X19180998Y49603960D01*
X19144699Y49614971D01*
X19111243Y49632854D01*
X19081919Y49656919D01*
X19057854Y49686243D01*
X19039971Y49719699D01*
X19028960Y49755998D01*
X19025000Y49796204D01*
X19025000Y50278796D01*
X19028960Y50319002D01*
X19039971Y50355301D01*
X19057854Y50388757D01*
X19081919Y50418081D01*
X19111243Y50442146D01*
X19144699Y50460029D01*
X19180998Y50471040D01*
X19221204Y50475000D01*
X19778796Y50475000D01*
X19819002Y50471040D01*
G37*
G36*
X33000000Y49850000D02*
G01*
X32000000Y49850000D01*
X32000000Y50850000D01*
X33000000Y50850000D01*
X33000000Y49850000D01*
G37*
G36*
X30500000Y49850000D02*
G01*
X29500000Y49850000D01*
X29500000Y50850000D01*
X30500000Y50850000D01*
X30500000Y49850000D01*
G37*
G36*
X17749063Y52045565D02*
G01*
X17790015Y52033141D01*
X17827751Y52012972D01*
X17860827Y51985827D01*
X17887972Y51952751D01*
X17908141Y51915015D01*
X17920565Y51874063D01*
X17925000Y51829029D01*
X17925000Y50870971D01*
X17920565Y50825937D01*
X17908141Y50784985D01*
X17887972Y50747249D01*
X17860827Y50714173D01*
X17827751Y50687028D01*
X17790015Y50666859D01*
X17749063Y50654435D01*
X17704029Y50650000D01*
X16795971Y50650000D01*
X16750937Y50654435D01*
X16709985Y50666859D01*
X16672249Y50687028D01*
X16639173Y50714173D01*
X16612028Y50747249D01*
X16591859Y50784985D01*
X16579435Y50825937D01*
X16575000Y50870971D01*
X16575000Y51829029D01*
X16579435Y51874063D01*
X16591859Y51915015D01*
X16612028Y51952751D01*
X16639173Y51985827D01*
X16672249Y52012972D01*
X16709985Y52033141D01*
X16750937Y52045565D01*
X16795971Y52050000D01*
X17704029Y52050000D01*
X17749063Y52045565D01*
G37*
G36*
X14719002Y51721040D02*
G01*
X14755301Y51710029D01*
X14788757Y51692146D01*
X14818081Y51668081D01*
X14842146Y51638757D01*
X14860029Y51605301D01*
X14871040Y51569002D01*
X14875000Y51528796D01*
X14875000Y51046204D01*
X14871040Y51005998D01*
X14860029Y50969699D01*
X14842146Y50936243D01*
X14818081Y50906919D01*
X14788757Y50882854D01*
X14755301Y50864971D01*
X14719002Y50853960D01*
X14678796Y50850000D01*
X14121204Y50850000D01*
X14080998Y50853960D01*
X14044699Y50864971D01*
X14011243Y50882854D01*
X13981919Y50906919D01*
X13957854Y50936243D01*
X13939971Y50969699D01*
X13928960Y51005998D01*
X13925000Y51046204D01*
X13925000Y51528796D01*
X13928960Y51569002D01*
X13939971Y51605301D01*
X13957854Y51638757D01*
X13981919Y51668081D01*
X14011243Y51692146D01*
X14044699Y51710029D01*
X14080998Y51721040D01*
X14121204Y51725000D01*
X14678796Y51725000D01*
X14719002Y51721040D01*
G37*
G36*
X12844806Y52195463D02*
G01*
X12886746Y52182741D01*
X12925399Y52162080D01*
X12959276Y52134276D01*
X12987080Y52100399D01*
X13007741Y52061746D01*
X13020463Y52019806D01*
X13025000Y51973737D01*
X13025000Y51301263D01*
X13020463Y51255194D01*
X13007741Y51213254D01*
X12987080Y51174601D01*
X12959276Y51140724D01*
X12925399Y51112920D01*
X12886746Y51092259D01*
X12844806Y51079537D01*
X12798737Y51075000D01*
X12201263Y51075000D01*
X12155194Y51079537D01*
X12113254Y51092259D01*
X12074601Y51112920D01*
X12040724Y51140724D01*
X12012920Y51174601D01*
X11992259Y51213254D01*
X11979537Y51255194D01*
X11975000Y51301263D01*
X11975000Y51973737D01*
X11979537Y52019806D01*
X11992259Y52061746D01*
X12012920Y52100399D01*
X12040724Y52134276D01*
X12074601Y52162080D01*
X12113254Y52182741D01*
X12155194Y52195463D01*
X12201263Y52200000D01*
X12798737Y52200000D01*
X12844806Y52195463D01*
G37*
G36*
X30319002Y52721040D02*
G01*
X30355301Y52710029D01*
X30388757Y52692146D01*
X30418081Y52668081D01*
X30442146Y52638757D01*
X30460029Y52605301D01*
X30471040Y52569002D01*
X30475000Y52528796D01*
X30475000Y51971204D01*
X30471040Y51930998D01*
X30460029Y51894699D01*
X30442146Y51861243D01*
X30418081Y51831919D01*
X30388757Y51807854D01*
X30355301Y51789971D01*
X30319002Y51778960D01*
X30278796Y51775000D01*
X29796204Y51775000D01*
X29755998Y51778960D01*
X29719699Y51789971D01*
X29686243Y51807854D01*
X29656919Y51831919D01*
X29632854Y51861243D01*
X29614971Y51894699D01*
X29603960Y51930998D01*
X29600000Y51971204D01*
X29600000Y52528796D01*
X29603960Y52569002D01*
X29614971Y52605301D01*
X29632854Y52638757D01*
X29656919Y52668081D01*
X29686243Y52692146D01*
X29719699Y52710029D01*
X29755998Y52721040D01*
X29796204Y52725000D01*
X30278796Y52725000D01*
X30319002Y52721040D01*
G37*
G36*
X28744002Y52721040D02*
G01*
X28780301Y52710029D01*
X28813757Y52692146D01*
X28843081Y52668081D01*
X28867146Y52638757D01*
X28885029Y52605301D01*
X28896040Y52569002D01*
X28900000Y52528796D01*
X28900000Y51971204D01*
X28896040Y51930998D01*
X28885029Y51894699D01*
X28867146Y51861243D01*
X28843081Y51831919D01*
X28813757Y51807854D01*
X28780301Y51789971D01*
X28744002Y51778960D01*
X28703796Y51775000D01*
X28221204Y51775000D01*
X28180998Y51778960D01*
X28144699Y51789971D01*
X28111243Y51807854D01*
X28081919Y51831919D01*
X28057854Y51861243D01*
X28039971Y51894699D01*
X28028960Y51930998D01*
X28025000Y51971204D01*
X28025000Y52528796D01*
X28028960Y52569002D01*
X28039971Y52605301D01*
X28057854Y52638757D01*
X28081919Y52668081D01*
X28111243Y52692146D01*
X28144699Y52710029D01*
X28180998Y52721040D01*
X28221204Y52725000D01*
X28703796Y52725000D01*
X28744002Y52721040D01*
G37*
G36*
X33204561Y55376943D02*
G01*
X33262520Y55365414D01*
X33426310Y55297570D01*
X33573717Y55199076D01*
X33699076Y55073717D01*
X33797570Y54926310D01*
X33865414Y54762520D01*
X33900000Y54588642D01*
X33900000Y54411358D01*
X33865414Y54237480D01*
X33797570Y54073690D01*
X33699076Y53926283D01*
X33573717Y53800924D01*
X33426310Y53702430D01*
X33262520Y53634586D01*
X33204561Y53623057D01*
X33088644Y53600000D01*
X32911356Y53600000D01*
X32795439Y53623057D01*
X32737480Y53634586D01*
X32573690Y53702430D01*
X32426283Y53800924D01*
X32300924Y53926283D01*
X32202430Y54073690D01*
X32134586Y54237480D01*
X32100000Y54411358D01*
X32100000Y54588642D01*
X32134586Y54762520D01*
X32202430Y54926310D01*
X32300924Y55073717D01*
X32426283Y55199076D01*
X32573690Y55297570D01*
X32737480Y55365414D01*
X32795439Y55376943D01*
X32911356Y55400000D01*
X33088644Y55400000D01*
X33204561Y55376943D01*
G37*
G36*
X6504561Y55376943D02*
G01*
X6562520Y55365414D01*
X6726310Y55297570D01*
X6873717Y55199076D01*
X6999076Y55073717D01*
X7097570Y54926310D01*
X7165414Y54762520D01*
X7200000Y54588642D01*
X7200000Y54411358D01*
X7165414Y54237480D01*
X7097570Y54073690D01*
X6999076Y53926283D01*
X6873717Y53800924D01*
X6726310Y53702430D01*
X6562520Y53634586D01*
X6504561Y53623057D01*
X6388644Y53600000D01*
X6211356Y53600000D01*
X6095439Y53623057D01*
X6037480Y53634586D01*
X5873690Y53702430D01*
X5726283Y53800924D01*
X5600924Y53926283D01*
X5502430Y54073690D01*
X5434586Y54237480D01*
X5400000Y54411358D01*
X5400000Y54588642D01*
X5434586Y54762520D01*
X5502430Y54926310D01*
X5600924Y55073717D01*
X5726283Y55199076D01*
X5873690Y55297570D01*
X6037480Y55365414D01*
X6095439Y55376943D01*
X6211356Y55400000D01*
X6388644Y55400000D01*
X6504561Y55376943D01*
G37*
G36*
X4004561Y55376943D02*
G01*
X4062520Y55365414D01*
X4226310Y55297570D01*
X4373717Y55199076D01*
X4499076Y55073717D01*
X4597570Y54926310D01*
X4665414Y54762520D01*
X4700000Y54588642D01*
X4700000Y54411358D01*
X4665414Y54237480D01*
X4597570Y54073690D01*
X4499076Y53926283D01*
X4373717Y53800924D01*
X4226310Y53702430D01*
X4062520Y53634586D01*
X4004561Y53623057D01*
X3888644Y53600000D01*
X3711356Y53600000D01*
X3595439Y53623057D01*
X3537480Y53634586D01*
X3373690Y53702430D01*
X3226283Y53800924D01*
X3100924Y53926283D01*
X3002430Y54073690D01*
X2934586Y54237480D01*
X2900000Y54411358D01*
X2900000Y54588642D01*
X2934586Y54762520D01*
X3002430Y54926310D01*
X3100924Y55073717D01*
X3226283Y55199076D01*
X3373690Y55297570D01*
X3537480Y55365414D01*
X3595439Y55376943D01*
X3711356Y55400000D01*
X3888644Y55400000D01*
X4004561Y55376943D01*
G37*
G36*
X1504561Y55376943D02*
G01*
X1562520Y55365414D01*
X1726310Y55297570D01*
X1873717Y55199076D01*
X1999076Y55073717D01*
X2097570Y54926310D01*
X2165414Y54762520D01*
X2200000Y54588642D01*
X2200000Y54411358D01*
X2165414Y54237480D01*
X2097570Y54073690D01*
X1999076Y53926283D01*
X1873717Y53800924D01*
X1726310Y53702430D01*
X1562520Y53634586D01*
X1504561Y53623057D01*
X1388644Y53600000D01*
X1211356Y53600000D01*
X1095439Y53623057D01*
X1037480Y53634586D01*
X873690Y53702430D01*
X726283Y53800924D01*
X600924Y53926283D01*
X502430Y54073690D01*
X434586Y54237480D01*
X400000Y54411358D01*
X400000Y54588642D01*
X434586Y54762520D01*
X502430Y54926310D01*
X600924Y55073717D01*
X726283Y55199076D01*
X873690Y55297570D01*
X1037480Y55365414D01*
X1095439Y55376943D01*
X1211356Y55400000D01*
X1388644Y55400000D01*
X1504561Y55376943D01*
G37*
G36*
X28204561Y55376943D02*
G01*
X28262520Y55365414D01*
X28426310Y55297570D01*
X28573717Y55199076D01*
X28699076Y55073717D01*
X28797570Y54926310D01*
X28865414Y54762520D01*
X28900000Y54588642D01*
X28900000Y54411358D01*
X28865414Y54237480D01*
X28797570Y54073690D01*
X28699076Y53926283D01*
X28573717Y53800924D01*
X28426310Y53702430D01*
X28262520Y53634586D01*
X28204561Y53623057D01*
X28088644Y53600000D01*
X27911356Y53600000D01*
X27795439Y53623057D01*
X27737480Y53634586D01*
X27573690Y53702430D01*
X27426283Y53800924D01*
X27300924Y53926283D01*
X27202430Y54073690D01*
X27134586Y54237480D01*
X27100000Y54411358D01*
X27100000Y54588642D01*
X27134586Y54762520D01*
X27202430Y54926310D01*
X27300924Y55073717D01*
X27426283Y55199076D01*
X27573690Y55297570D01*
X27737480Y55365414D01*
X27795439Y55376943D01*
X27911356Y55400000D01*
X28088644Y55400000D01*
X28204561Y55376943D01*
G37*
G36*
X30704561Y55376943D02*
G01*
X30762520Y55365414D01*
X30926310Y55297570D01*
X31073717Y55199076D01*
X31199076Y55073717D01*
X31297570Y54926310D01*
X31365414Y54762520D01*
X31400000Y54588642D01*
X31400000Y54411358D01*
X31365414Y54237480D01*
X31297570Y54073690D01*
X31199076Y53926283D01*
X31073717Y53800924D01*
X30926310Y53702430D01*
X30762520Y53634586D01*
X30704561Y53623057D01*
X30588644Y53600000D01*
X30411356Y53600000D01*
X30295439Y53623057D01*
X30237480Y53634586D01*
X30073690Y53702430D01*
X29926283Y53800924D01*
X29800924Y53926283D01*
X29702430Y54073690D01*
X29634586Y54237480D01*
X29600000Y54411358D01*
X29600000Y54588642D01*
X29634586Y54762520D01*
X29702430Y54926310D01*
X29800924Y55073717D01*
X29926283Y55199076D01*
X30073690Y55297570D01*
X30237480Y55365414D01*
X30295439Y55376943D01*
X30411356Y55400000D01*
X30588644Y55400000D01*
X30704561Y55376943D01*
G37*
G36*
X18224272Y57000689D02*
G01*
X18264007Y56988635D01*
X18300623Y56969064D01*
X18332721Y56942721D01*
X18359064Y56910623D01*
X18378635Y56874007D01*
X18390689Y56834272D01*
X18395000Y56790497D01*
X18395000Y54869503D01*
X18390689Y54825728D01*
X18378635Y54785993D01*
X18359064Y54749377D01*
X18332721Y54717279D01*
X18300623Y54690936D01*
X18264007Y54671365D01*
X18224272Y54659311D01*
X18180497Y54655000D01*
X16534503Y54655000D01*
X16490728Y54659311D01*
X16450993Y54671365D01*
X16414377Y54690936D01*
X16382279Y54717279D01*
X16355936Y54749377D01*
X16336365Y54785993D01*
X16324311Y54825728D01*
X16320000Y54869503D01*
X16320000Y56790497D01*
X16324311Y56834272D01*
X16336365Y56874007D01*
X16355936Y56910623D01*
X16382279Y56942721D01*
X16414377Y56969064D01*
X16450993Y56988635D01*
X16490728Y57000689D01*
X16534503Y57005000D01*
X18180497Y57005000D01*
X18224272Y57000689D01*
G37*
G36*
X23149272Y57000689D02*
G01*
X23189007Y56988635D01*
X23225623Y56969064D01*
X23257721Y56942721D01*
X23284064Y56910623D01*
X23303635Y56874007D01*
X23315689Y56834272D01*
X23320000Y56790497D01*
X23320000Y54869503D01*
X23315689Y54825728D01*
X23303635Y54785993D01*
X23284064Y54749377D01*
X23257721Y54717279D01*
X23225623Y54690936D01*
X23189007Y54671365D01*
X23149272Y54659311D01*
X23105497Y54655000D01*
X21459503Y54655000D01*
X21415728Y54659311D01*
X21375993Y54671365D01*
X21339377Y54690936D01*
X21307279Y54717279D01*
X21280936Y54749377D01*
X21261365Y54785993D01*
X21249311Y54825728D01*
X21245000Y54869503D01*
X21245000Y56790497D01*
X21249311Y56834272D01*
X21261365Y56874007D01*
X21280936Y56910623D01*
X21307279Y56942721D01*
X21339377Y56969064D01*
X21375993Y56988635D01*
X21415728Y57000689D01*
X21459503Y57005000D01*
X23105497Y57005000D01*
X23149272Y57000689D01*
G37*
G36*
X19750000Y58250000D02*
G01*
X16250000Y58250000D01*
X16250000Y61750000D01*
X19750000Y61750000D01*
X19750000Y58250000D01*
G37*
G36*
X-16623Y63423142D02*
G01*
X196590Y63334826D01*
X347355Y63272377D01*
X674926Y63053501D01*
X953501Y62774926D01*
X1172377Y62447355D01*
X1172377Y62447354D01*
X1323142Y62083377D01*
X1400000Y61696984D01*
X1400000Y61303016D01*
X1323142Y60916623D01*
X1234826Y60703410D01*
X1172377Y60552645D01*
X953501Y60225074D01*
X674926Y59946499D01*
X347355Y59727623D01*
X196590Y59665174D01*
X-16623Y59576858D01*
X-403016Y59500000D01*
X-796984Y59500000D01*
X-1183377Y59576858D01*
X-1396590Y59665174D01*
X-1547355Y59727623D01*
X-1874926Y59946499D01*
X-2153501Y60225074D01*
X-2372377Y60552645D01*
X-2434826Y60703410D01*
X-2523142Y60916623D01*
X-2600000Y61303016D01*
X-2600000Y61696984D01*
X-2523142Y62083377D01*
X-2372377Y62447354D01*
X-2372377Y62447355D01*
X-2153501Y62774926D01*
X-1874926Y63053501D01*
X-1547355Y63272377D01*
X-1396590Y63334826D01*
X-1183377Y63423142D01*
X-796984Y63500000D01*
X-403016Y63500000D01*
X-16623Y63423142D01*
G37*
G36*
X35483377Y63423142D02*
G01*
X35696590Y63334826D01*
X35847355Y63272377D01*
X36174926Y63053501D01*
X36453501Y62774926D01*
X36672377Y62447355D01*
X36672377Y62447354D01*
X36823142Y62083377D01*
X36900000Y61696984D01*
X36900000Y61303016D01*
X36823142Y60916623D01*
X36734826Y60703410D01*
X36672377Y60552645D01*
X36453501Y60225074D01*
X36174926Y59946499D01*
X35847355Y59727623D01*
X35696590Y59665174D01*
X35483377Y59576858D01*
X35096984Y59500000D01*
X34703016Y59500000D01*
X34316623Y59576858D01*
X34103410Y59665174D01*
X33952645Y59727623D01*
X33625074Y59946499D01*
X33346499Y60225074D01*
X33127623Y60552645D01*
X33065174Y60703410D01*
X32976858Y60916623D01*
X32900000Y61303016D01*
X32900000Y61696984D01*
X32976858Y62083377D01*
X33127623Y62447354D01*
X33127623Y62447355D01*
X33346499Y62774926D01*
X33625074Y63053501D01*
X33952645Y63272377D01*
X34103410Y63334826D01*
X34316623Y63423142D01*
X34703016Y63500000D01*
X35096984Y63500000D01*
X35483377Y63423142D01*
G37*
G36*
X8783377Y63423142D02*
G01*
X8996590Y63334826D01*
X9147355Y63272377D01*
X9474926Y63053501D01*
X9753501Y62774926D01*
X9972377Y62447355D01*
X9972377Y62447354D01*
X10123142Y62083377D01*
X10200000Y61696984D01*
X10200000Y61303016D01*
X10123142Y60916623D01*
X10034826Y60703410D01*
X9972377Y60552645D01*
X9753501Y60225074D01*
X9474926Y59946499D01*
X9147355Y59727623D01*
X8996590Y59665174D01*
X8783377Y59576858D01*
X8396984Y59500000D01*
X8003016Y59500000D01*
X7616623Y59576858D01*
X7403410Y59665174D01*
X7252645Y59727623D01*
X6925074Y59946499D01*
X6646499Y60225074D01*
X6427623Y60552645D01*
X6365174Y60703410D01*
X6276858Y60916623D01*
X6200000Y61303016D01*
X6200000Y61696984D01*
X6276858Y62083377D01*
X6427623Y62447354D01*
X6427623Y62447355D01*
X6646499Y62774926D01*
X6925074Y63053501D01*
X7252645Y63272377D01*
X7403410Y63334826D01*
X7616623Y63423142D01*
X8003016Y63500000D01*
X8396984Y63500000D01*
X8783377Y63423142D01*
G37*
G36*
X26683377Y63423142D02*
G01*
X26896590Y63334826D01*
X27047355Y63272377D01*
X27374926Y63053501D01*
X27653501Y62774926D01*
X27872377Y62447355D01*
X27872377Y62447354D01*
X28023142Y62083377D01*
X28100000Y61696984D01*
X28100000Y61303016D01*
X28023142Y60916623D01*
X27934826Y60703410D01*
X27872377Y60552645D01*
X27653501Y60225074D01*
X27374926Y59946499D01*
X27047355Y59727623D01*
X26896590Y59665174D01*
X26683377Y59576858D01*
X26296984Y59500000D01*
X25903016Y59500000D01*
X25516623Y59576858D01*
X25303410Y59665174D01*
X25152645Y59727623D01*
X24825074Y59946499D01*
X24546499Y60225074D01*
X24327623Y60552645D01*
X24265174Y60703410D01*
X24176858Y60916623D01*
X24100000Y61303016D01*
X24100000Y61696984D01*
X24176858Y62083377D01*
X24327623Y62447354D01*
X24327623Y62447355D01*
X24546499Y62774926D01*
X24825074Y63053501D01*
X25152645Y63272377D01*
X25303410Y63334826D01*
X25516623Y63423142D01*
X25903016Y63500000D01*
X26296984Y63500000D01*
X26683377Y63423142D01*
G37*
G36*
X14365779Y64733431D02*
G01*
X14525190Y64685074D01*
X14672098Y64606550D01*
X14800869Y64500869D01*
X14906550Y64372098D01*
X14985074Y64225190D01*
X15033431Y64065779D01*
X15050000Y63897546D01*
X15050000Y62102454D01*
X15033431Y61934221D01*
X14985074Y61774810D01*
X14906550Y61627902D01*
X14800869Y61499131D01*
X14672098Y61393450D01*
X14525190Y61314926D01*
X14365779Y61266569D01*
X14197546Y61250000D01*
X12402454Y61250000D01*
X12234221Y61266569D01*
X12074810Y61314926D01*
X11927902Y61393450D01*
X11799131Y61499131D01*
X11693450Y61627902D01*
X11614926Y61774810D01*
X11566569Y61934221D01*
X11550000Y62102454D01*
X11550000Y63897546D01*
X11566569Y64065779D01*
X11614926Y64225190D01*
X11693450Y64372098D01*
X11799131Y64500869D01*
X11927902Y64606550D01*
X12074810Y64685074D01*
X12234221Y64733431D01*
X12402454Y64750000D01*
X14197546Y64750000D01*
X14365779Y64733431D01*
G37*
G36*
X19166393Y67485833D02*
G01*
X19302354Y67444589D01*
X19427652Y67377616D01*
X19537481Y67287481D01*
X19627616Y67177652D01*
X19694589Y67052354D01*
X19735833Y66916393D01*
X19750000Y66772546D01*
X19750000Y65227454D01*
X19735833Y65083607D01*
X19694589Y64947646D01*
X19627616Y64822348D01*
X19537481Y64712519D01*
X19427652Y64622384D01*
X19302354Y64555411D01*
X19166393Y64514167D01*
X19022546Y64500000D01*
X16977454Y64500000D01*
X16833607Y64514167D01*
X16697646Y64555411D01*
X16572348Y64622384D01*
X16462519Y64712519D01*
X16372384Y64822348D01*
X16305411Y64947646D01*
X16264167Y65083607D01*
X16250000Y65227454D01*
X16250000Y66772546D01*
X16264167Y66916393D01*
X16305411Y67052354D01*
X16372384Y67177652D01*
X16462519Y67287481D01*
X16572348Y67377616D01*
X16697646Y67444589D01*
X16833607Y67485833D01*
X16977454Y67500000D01*
X19022546Y67500000D01*
X19166393Y67485833D01*
G37*
G36*
X787559Y73596241D02*
G01*
X787562Y73596240D01*
X787561Y73596240D01*
X1278930Y73392709D01*
X1721150Y73097227D01*
X2097227Y72721150D01*
X2392709Y72278930D01*
X2561320Y71871866D01*
X2596241Y71787559D01*
X2700000Y71265928D01*
X2700000Y70734072D01*
X2596241Y70212441D01*
X2596240Y70212439D01*
X2392709Y69721070D01*
X2097227Y69278850D01*
X1721150Y68902773D01*
X1278930Y68607291D01*
X871866Y68438680D01*
X787559Y68403759D01*
X265928Y68300000D01*
X-265928Y68300000D01*
X-787559Y68403759D01*
X-871866Y68438680D01*
X-1278930Y68607291D01*
X-1721150Y68902773D01*
X-2097227Y69278850D01*
X-2392709Y69721070D01*
X-2596240Y70212439D01*
X-2596241Y70212441D01*
X-2700000Y70734072D01*
X-2700000Y71265928D01*
X-2596241Y71787559D01*
X-2561320Y71871866D01*
X-2392709Y72278930D01*
X-2097227Y72721150D01*
X-1721150Y73097227D01*
X-1278930Y73392709D01*
X-787561Y73596240D01*
X-787562Y73596240D01*
X-787559Y73596241D01*
X-265928Y73700000D01*
X265928Y73700000D01*
X787559Y73596241D01*
G37*
G36*
X35787559Y73596241D02*
G01*
X35787562Y73596240D01*
X35787561Y73596240D01*
X36278930Y73392709D01*
X36721150Y73097227D01*
X37097227Y72721150D01*
X37392709Y72278930D01*
X37561320Y71871866D01*
X37596241Y71787559D01*
X37700000Y71265928D01*
X37700000Y70734072D01*
X37596241Y70212441D01*
X37596240Y70212439D01*
X37392709Y69721070D01*
X37097227Y69278850D01*
X36721150Y68902773D01*
X36278930Y68607291D01*
X35871866Y68438680D01*
X35787559Y68403759D01*
X35265928Y68300000D01*
X34734072Y68300000D01*
X34212441Y68403759D01*
X34128134Y68438680D01*
X33721070Y68607291D01*
X33278850Y68902773D01*
X32902773Y69278850D01*
X32607291Y69721070D01*
X32403760Y70212439D01*
X32403759Y70212441D01*
X32300000Y70734072D01*
X32300000Y71265928D01*
X32403759Y71787559D01*
X32438680Y71871866D01*
X32607291Y72278930D01*
X32902773Y72721150D01*
X33278850Y73097227D01*
X33721070Y73392709D01*
X34212439Y73596240D01*
X34212438Y73596240D01*
X34212441Y73596241D01*
X34734072Y73700000D01*
X35265928Y73700000D01*
X35787559Y73596241D01*
G37*
G36*
X5195090Y70980786D02*
G01*
X5291689Y70961571D01*
X5473678Y70886189D01*
X5637463Y70776751D01*
X5776751Y70637463D01*
X5886189Y70473678D01*
X5961571Y70291689D01*
X5961571Y70291687D01*
X6000000Y70098493D01*
X6000000Y69901507D01*
X5980785Y69804910D01*
X5961571Y69708311D01*
X5886189Y69526322D01*
X5776751Y69362537D01*
X5637463Y69223249D01*
X5473678Y69113811D01*
X5291689Y69038429D01*
X5195090Y69019215D01*
X5098493Y69000000D01*
X4901507Y69000000D01*
X4804910Y69019215D01*
X4708311Y69038429D01*
X4526322Y69113811D01*
X4362537Y69223249D01*
X4223249Y69362537D01*
X4113811Y69526322D01*
X4038429Y69708311D01*
X4019215Y69804910D01*
X4000000Y69901507D01*
X4000000Y70098493D01*
X4038429Y70291687D01*
X4038429Y70291689D01*
X4113811Y70473678D01*
X4223249Y70637463D01*
X4362537Y70776751D01*
X4526322Y70886189D01*
X4708311Y70961571D01*
X4804910Y70980786D01*
X4901507Y71000000D01*
X5098493Y71000000D01*
X5195090Y70980786D01*
G37*
M02*
