%FSLAX45Y45*%
G04 Gerber Fmt 4.5, Leading zero omitted, Abs format (unit mm)*
G04 Created by KiCad (PCBNEW 6.0.0-rc1-unknown-f2ccad3~66~ubuntu18.04.1) date Mi 07 Nov 2018 22:10:33 CET*
%MOMM*%
%LPD*%
G01*
G04 APERTURE LIST*
%ADD10C,0.150000*%
%ADD11C,0.200000*%
%ADD12C,0.300000*%
G04 APERTURE END LIST*
D10*
X5000000Y0D02*
X5000000Y8300000D01*
X0Y8300000D02*
X0Y0D01*
X5000000Y8300000D02*
X0Y8300000D01*
X0Y0D02*
X5000000Y0D01*
D11*
X182500Y6067500D02*
X217500Y6032500D01*
X217500Y6067500D02*
X182500Y6032500D01*
X182500Y5967500D02*
X217500Y5932500D01*
X217500Y5967500D02*
X182500Y5932500D01*
X182500Y5967500D02*
X217500Y5932500D01*
X217500Y5967500D02*
X182500Y5932500D01*
X182500Y5967500D02*
X217500Y5932500D01*
X217500Y5967500D02*
X182500Y5932500D01*
X182500Y5867500D02*
X217500Y5832500D01*
X217500Y5867500D02*
X182500Y5832500D01*
X282500Y6067500D02*
X317500Y6032500D01*
X317500Y6067500D02*
X282500Y6032500D01*
X282500Y5967500D02*
X317500Y5932500D01*
X317500Y5967500D02*
X282500Y5932500D01*
X282500Y5867500D02*
X317500Y5832500D01*
X317500Y5867500D02*
X282500Y5832500D01*
X394380Y2533280D02*
X429380Y2498280D01*
X429380Y2533280D02*
X394380Y2498280D01*
X407500Y2692500D02*
X442500Y2657500D01*
X442500Y2692500D02*
X407500Y2657500D01*
X534020Y4417500D02*
X569020Y4382500D01*
X569020Y4417500D02*
X534020Y4382500D01*
X582500Y2067500D02*
X617500Y2032500D01*
X617500Y2067500D02*
X582500Y2032500D01*
X582500Y1967500D02*
X617500Y1932500D01*
X617500Y1967500D02*
X582500Y1932500D01*
X582500Y1867500D02*
X617500Y1832500D01*
X617500Y1867500D02*
X582500Y1832500D01*
X732500Y8217500D02*
X767500Y8182500D01*
X767500Y8217500D02*
X732500Y8182500D01*
X782500Y7267500D02*
X817500Y7232500D01*
X817500Y7267500D02*
X782500Y7232500D01*
X832500Y8217500D02*
X867500Y8182500D01*
X867500Y8217500D02*
X832500Y8182500D01*
X882500Y7267500D02*
X917500Y7232500D01*
X917500Y7267500D02*
X882500Y7232500D01*
X932500Y8217500D02*
X967500Y8182500D01*
X967500Y8217500D02*
X932500Y8182500D01*
X982500Y7267500D02*
X1017500Y7232500D01*
X1017500Y7267500D02*
X982500Y7232500D01*
X982500Y2067500D02*
X1017500Y2032500D01*
X1017500Y2067500D02*
X982500Y2032500D01*
X982500Y1967500D02*
X1017500Y1932500D01*
X1017500Y1967500D02*
X982500Y1932500D01*
X982500Y1867500D02*
X1017500Y1832500D01*
X1017500Y1867500D02*
X982500Y1832500D01*
X1132500Y4767500D02*
X1167500Y4732500D01*
X1167500Y4767500D02*
X1132500Y4732500D01*
X1132500Y4667500D02*
X1167500Y4632500D01*
X1167500Y4667500D02*
X1132500Y4632500D01*
X1232500Y4767500D02*
X1267500Y4732500D01*
X1267500Y4767500D02*
X1232500Y4732500D01*
X1232500Y4667500D02*
X1267500Y4632500D01*
X1267500Y4667500D02*
X1232500Y4632500D01*
X1332500Y4767500D02*
X1367500Y4732500D01*
X1367500Y4767500D02*
X1332500Y4732500D01*
X1332500Y4667500D02*
X1367500Y4632500D01*
X1367500Y4667500D02*
X1332500Y4632500D01*
X1546500Y7488610D02*
X1581500Y7453610D01*
X1581500Y7488610D02*
X1546500Y7453610D01*
X1782500Y8217500D02*
X1817500Y8182500D01*
X1817500Y8217500D02*
X1782500Y8182500D01*
X1782500Y2867500D02*
X1817500Y2832500D01*
X1817500Y2867500D02*
X1782500Y2832500D01*
X1782500Y2767500D02*
X1817500Y2732500D01*
X1817500Y2767500D02*
X1782500Y2732500D01*
X1882500Y8217500D02*
X1917500Y8182500D01*
X1917500Y8217500D02*
X1882500Y8182500D01*
X1882500Y2867500D02*
X1917500Y2832500D01*
X1917500Y2867500D02*
X1882500Y2832500D01*
X1882500Y2767500D02*
X1917500Y2732500D01*
X1917500Y2767500D02*
X1882500Y2732500D01*
X1982500Y8217500D02*
X2017500Y8182500D01*
X2017500Y8217500D02*
X1982500Y8182500D01*
X2137300Y7791700D02*
X2172300Y7756700D01*
X2172300Y7791700D02*
X2137300Y7756700D01*
X2182500Y3017500D02*
X2217500Y2982500D01*
X2217500Y3017500D02*
X2182500Y2982500D01*
X2282500Y3117500D02*
X2317500Y3082500D01*
X2317500Y3117500D02*
X2282500Y3082500D01*
X2332500Y6017500D02*
X2367500Y5982500D01*
X2367500Y6017500D02*
X2332500Y5982500D01*
X2332500Y5917500D02*
X2367500Y5882500D01*
X2367500Y5917500D02*
X2332500Y5882500D01*
X2382500Y7367500D02*
X2417500Y7332500D01*
X2417500Y7367500D02*
X2382500Y7332500D01*
X2382500Y7267500D02*
X2417500Y7232500D01*
X2417500Y7267500D02*
X2382500Y7232500D01*
X2382500Y7167500D02*
X2417500Y7132500D01*
X2417500Y7167500D02*
X2382500Y7132500D01*
X2432500Y6017500D02*
X2467500Y5982500D01*
X2467500Y6017500D02*
X2432500Y5982500D01*
X2432500Y5917500D02*
X2467500Y5882500D01*
X2467500Y5917500D02*
X2432500Y5882500D01*
X2510100Y7879400D02*
X2545100Y7844400D01*
X2545100Y7879400D02*
X2510100Y7844400D01*
X2682500Y2517500D02*
X2717500Y2482500D01*
X2717500Y2517500D02*
X2682500Y2482500D01*
X2732500Y7017500D02*
X2767500Y6982500D01*
X2767500Y7017500D02*
X2732500Y6982500D01*
X2732500Y6917500D02*
X2767500Y6882500D01*
X2767500Y6917500D02*
X2732500Y6882500D01*
X2732500Y6567500D02*
X2767500Y6532500D01*
X2767500Y6567500D02*
X2732500Y6532500D01*
X2732500Y6467500D02*
X2767500Y6432500D01*
X2767500Y6467500D02*
X2732500Y6432500D01*
X2732500Y6367500D02*
X2767500Y6332500D01*
X2767500Y6367500D02*
X2732500Y6332500D01*
X2732500Y5267500D02*
X2767500Y5232500D01*
X2767500Y5267500D02*
X2732500Y5232500D01*
X2782500Y2617500D02*
X2817500Y2582500D01*
X2817500Y2617500D02*
X2782500Y2582500D01*
X2982500Y8217500D02*
X3017500Y8182500D01*
X3017500Y8217500D02*
X2982500Y8182500D01*
X3013410Y7663610D02*
X3048410Y7628610D01*
X3048410Y7663610D02*
X3013410Y7628610D01*
X3045370Y7304230D02*
X3080370Y7269230D01*
X3080370Y7304230D02*
X3045370Y7269230D01*
X3082500Y8217500D02*
X3117500Y8182500D01*
X3117500Y8217500D02*
X3082500Y8182500D01*
X3107500Y7942500D02*
X3142500Y7907500D01*
X3142500Y7942500D02*
X3107500Y7907500D01*
X3182500Y8217500D02*
X3217500Y8182500D01*
X3217500Y8217500D02*
X3182500Y8182500D01*
X3182500Y5817500D02*
X3217500Y5782500D01*
X3217500Y5817500D02*
X3182500Y5782500D01*
X3182500Y5717500D02*
X3217500Y5682500D01*
X3217500Y5717500D02*
X3182500Y5682500D01*
X3232500Y6717500D02*
X3267500Y6682500D01*
X3267500Y6717500D02*
X3232500Y6682500D01*
X3232500Y6617500D02*
X3267500Y6582500D01*
X3267500Y6617500D02*
X3232500Y6582500D01*
X3232500Y6517500D02*
X3267500Y6482500D01*
X3267500Y6517500D02*
X3232500Y6482500D01*
X3282500Y5817500D02*
X3317500Y5782500D01*
X3317500Y5817500D02*
X3282500Y5782500D01*
X3282500Y5717500D02*
X3317500Y5682500D01*
X3317500Y5717500D02*
X3282500Y5682500D01*
X3282500Y4767500D02*
X3317500Y4732500D01*
X3317500Y4767500D02*
X3282500Y4732500D01*
X3282500Y4667500D02*
X3317500Y4632500D01*
X3317500Y4667500D02*
X3282500Y4632500D01*
X3382500Y4767500D02*
X3417500Y4732500D01*
X3417500Y4767500D02*
X3382500Y4732500D01*
X3382500Y4667500D02*
X3417500Y4632500D01*
X3417500Y4667500D02*
X3382500Y4632500D01*
X3632500Y2317500D02*
X3667500Y2282500D01*
X3667500Y2317500D02*
X3632500Y2282500D01*
X3632500Y2217500D02*
X3667500Y2182500D01*
X3667500Y2217500D02*
X3632500Y2182500D01*
X3632500Y267500D02*
X3667500Y232500D01*
X3667500Y267500D02*
X3632500Y232500D01*
X3732500Y2317500D02*
X3767500Y2282500D01*
X3767500Y2317500D02*
X3732500Y2282500D01*
X3732500Y2217500D02*
X3767500Y2182500D01*
X3767500Y2217500D02*
X3732500Y2182500D01*
X3732500Y267500D02*
X3767500Y232500D01*
X3767500Y267500D02*
X3732500Y232500D01*
X3758280Y7287680D02*
X3793280Y7252680D01*
X3793280Y7287680D02*
X3758280Y7252680D01*
X3782500Y6167500D02*
X3817500Y6132500D01*
X3817500Y6167500D02*
X3782500Y6132500D01*
X3832500Y2317500D02*
X3867500Y2282500D01*
X3867500Y2317500D02*
X3832500Y2282500D01*
X3832500Y2217500D02*
X3867500Y2182500D01*
X3867500Y2217500D02*
X3832500Y2182500D01*
X3832500Y267500D02*
X3867500Y232500D01*
X3867500Y267500D02*
X3832500Y232500D01*
X3882500Y6167500D02*
X3917500Y6132500D01*
X3917500Y6167500D02*
X3882500Y6132500D01*
X3882500Y4767500D02*
X3917500Y4732500D01*
X3917500Y4767500D02*
X3882500Y4732500D01*
X3882500Y4667500D02*
X3917500Y4632500D01*
X3917500Y4667500D02*
X3882500Y4632500D01*
X3932500Y6967500D02*
X3967500Y6932500D01*
X3967500Y6967500D02*
X3932500Y6932500D01*
X3932500Y6867500D02*
X3967500Y6832500D01*
X3967500Y6867500D02*
X3932500Y6832500D01*
X3932500Y6767500D02*
X3967500Y6732500D01*
X3967500Y6767500D02*
X3932500Y6732500D01*
X3982500Y6167500D02*
X4017500Y6132500D01*
X4017500Y6167500D02*
X3982500Y6132500D01*
X4032500Y8217500D02*
X4067500Y8182500D01*
X4067500Y8217500D02*
X4032500Y8182500D01*
X4032500Y5317500D02*
X4067500Y5282500D01*
X4067500Y5317500D02*
X4032500Y5282500D01*
X4032500Y5217500D02*
X4067500Y5182500D01*
X4067500Y5217500D02*
X4032500Y5182500D01*
X4132500Y8217500D02*
X4167500Y8182500D01*
X4167500Y8217500D02*
X4132500Y8182500D01*
X4232500Y8217500D02*
X4267500Y8182500D01*
X4267500Y8217500D02*
X4232500Y8182500D01*
X4382500Y4967500D02*
X4417500Y4932500D01*
X4417500Y4967500D02*
X4382500Y4932500D01*
X4382500Y4867500D02*
X4417500Y4832500D01*
X4417500Y4867500D02*
X4382500Y4832500D01*
X4569670Y4546880D02*
X4604670Y4511880D01*
X4604670Y4546880D02*
X4569670Y4511880D01*
X4782500Y1217500D02*
X4817500Y1182500D01*
X4817500Y1217500D02*
X4782500Y1182500D01*
X4782500Y1117500D02*
X4817500Y1082500D01*
X4817500Y1117500D02*
X4782500Y1082500D01*
X4782500Y1017500D02*
X4817500Y982500D01*
X4817500Y1017500D02*
X4782500Y982500D01*
X325000Y3600000D02*
G75*
G03X325000Y3600000I-25000J0D01*
G01*
X2540360Y7596320D02*
G75*
G03X2540360Y7596320I-25000J0D01*
G01*
X673000Y2358000D02*
X673000Y2288000D01*
X638000Y2323000D02*
X708000Y2323000D01*
X800000Y2485000D02*
X800000Y2415000D01*
X765000Y2450000D02*
X835000Y2450000D01*
X800000Y2231000D02*
X800000Y2161000D01*
X765000Y2196000D02*
X835000Y2196000D01*
X4046000Y4135000D02*
X4046000Y4065000D01*
X4011000Y4100000D02*
X4081000Y4100000D01*
X4173000Y4262000D02*
X4173000Y4192000D01*
X4138000Y4227000D02*
X4208000Y4227000D01*
X4300000Y4135000D02*
X4300000Y4065000D01*
X4265000Y4100000D02*
X4335000Y4100000D01*
X842063Y1447437D02*
X842063Y1519563D01*
X769937Y1519563D01*
X769937Y1447437D01*
X842063Y1447437D01*
X765000Y1559500D02*
X765000Y1407500D01*
X847000Y1559500D02*
X847000Y1407500D01*
X765000Y1407500D02*
G75*
G03X847000Y1407500I41000J0D01*
G01*
X847000Y1559500D02*
G75*
G03X765000Y1559500I-41000J0D01*
G01*
X1071063Y939437D02*
X1071063Y1011563D01*
X998937Y1011563D01*
X998937Y939437D01*
X1071063Y939437D01*
X959000Y934500D02*
X1111000Y934500D01*
X959000Y1016500D02*
X1111000Y1016500D01*
X1111000Y934500D02*
G75*
G03X1111000Y1016500I0J41000D01*
G01*
X959000Y1016500D02*
G75*
G03X959000Y934500I0J-41000D01*
G01*
X1452063Y1447437D02*
X1452063Y1519563D01*
X1379937Y1519563D01*
X1379937Y1447437D01*
X1452063Y1447437D01*
X1375000Y1559500D02*
X1375000Y1407500D01*
X1457000Y1559500D02*
X1457000Y1407500D01*
X1375000Y1407500D02*
G75*
G03X1457000Y1407500I41000J0D01*
G01*
X1457000Y1559500D02*
G75*
G03X1375000Y1559500I-41000J0D01*
G01*
X3550000Y6545000D02*
X3605000Y6600000D01*
X3550000Y6655000D01*
X3495000Y6600000D01*
X3550000Y6545000D01*
X3505000Y6645000D02*
X3505000Y6555000D01*
X3595000Y6645000D02*
X3595000Y6555000D01*
X3505000Y6555000D02*
G75*
G03X3595000Y6555000I45000J0D01*
G01*
X3595000Y6645000D02*
G75*
G03X3505000Y6645000I-45000J0D01*
G01*
X4650000Y6545000D02*
X4705000Y6600000D01*
X4650000Y6655000D01*
X4595000Y6600000D01*
X4650000Y6545000D01*
X4605000Y6645000D02*
X4605000Y6555000D01*
X4695000Y6645000D02*
X4695000Y6555000D01*
X4605000Y6555000D02*
G75*
G03X4695000Y6555000I45000J0D01*
G01*
X4695000Y6645000D02*
G75*
G03X4605000Y6645000I-45000J0D01*
G01*
X1950000Y6545000D02*
X2005000Y6600000D01*
X1950000Y6655000D01*
X1895000Y6600000D01*
X1950000Y6545000D01*
X1905000Y6645000D02*
X1905000Y6555000D01*
X1995000Y6645000D02*
X1995000Y6555000D01*
X1905000Y6555000D02*
G75*
G03X1995000Y6555000I45000J0D01*
G01*
X1995000Y6645000D02*
G75*
G03X1905000Y6645000I-45000J0D01*
G01*
X3050000Y6545000D02*
X3105000Y6600000D01*
X3050000Y6655000D01*
X2995000Y6600000D01*
X3050000Y6545000D01*
X3005000Y6645000D02*
X3005000Y6555000D01*
X3095000Y6645000D02*
X3095000Y6555000D01*
X3005000Y6555000D02*
G75*
G03X3095000Y6555000I45000J0D01*
G01*
X3095000Y6645000D02*
G75*
G03X3005000Y6645000I-45000J0D01*
G01*
X350000Y6545000D02*
X405000Y6600000D01*
X350000Y6655000D01*
X295000Y6600000D01*
X350000Y6545000D01*
X305000Y6645000D02*
X305000Y6555000D01*
X395000Y6645000D02*
X395000Y6555000D01*
X305000Y6555000D02*
G75*
G03X395000Y6555000I45000J0D01*
G01*
X395000Y6645000D02*
G75*
G03X305000Y6645000I-45000J0D01*
G01*
X1450000Y6545000D02*
X1505000Y6600000D01*
X1450000Y6655000D01*
X1395000Y6600000D01*
X1450000Y6545000D01*
X1405000Y6645000D02*
X1405000Y6555000D01*
X1495000Y6645000D02*
X1495000Y6555000D01*
X1405000Y6555000D02*
G75*
G03X1495000Y6555000I45000J0D01*
G01*
X1495000Y6645000D02*
G75*
G03X1405000Y6645000I-45000J0D01*
G01*
X1910000Y1590000D02*
X2030000Y1470000D01*
X2030000Y1590000D02*
X1910000Y1470000D01*
X2030000Y1530000D02*
G75*
G03X2030000Y1530000I-60000J0D01*
G01*
X1910000Y1110000D02*
X2030000Y990000D01*
X2030000Y1110000D02*
X1910000Y990000D01*
X2030000Y1050000D02*
G75*
G03X2030000Y1050000I-60000J0D01*
G01*
X1910000Y630000D02*
X2030000Y510000D01*
X2030000Y630000D02*
X1910000Y510000D01*
X2030000Y570000D02*
G75*
G03X2030000Y570000I-60000J0D01*
G01*
X2440000Y1590000D02*
X2560000Y1470000D01*
X2560000Y1590000D02*
X2440000Y1470000D01*
X2560000Y1530000D02*
G75*
G03X2560000Y1530000I-60000J0D01*
G01*
X2440000Y1110000D02*
X2560000Y990000D01*
X2560000Y1110000D02*
X2440000Y990000D01*
X2560000Y1050000D02*
G75*
G03X2560000Y1050000I-60000J0D01*
G01*
X2440000Y630000D02*
X2560000Y510000D01*
X2560000Y630000D02*
X2440000Y510000D01*
X2560000Y570000D02*
G75*
G03X2560000Y570000I-60000J0D01*
G01*
X2970000Y1590000D02*
X3090000Y1470000D01*
X3090000Y1590000D02*
X2970000Y1470000D01*
X3090000Y1530000D02*
G75*
G03X3090000Y1530000I-60000J0D01*
G01*
X2970000Y1110000D02*
X3090000Y990000D01*
X3090000Y1110000D02*
X2970000Y990000D01*
X3090000Y1050000D02*
G75*
G03X3090000Y1050000I-60000J0D01*
G01*
X2970000Y630000D02*
X3090000Y510000D01*
X3090000Y630000D02*
X2970000Y510000D01*
X3090000Y570000D02*
G75*
G03X3090000Y570000I-60000J0D01*
G01*
X3660000Y5665000D02*
X3790000Y5535000D01*
X3790000Y5665000D02*
X3660000Y5535000D01*
X3725000Y5665000D02*
X3725000Y5535000D01*
X3660000Y5600000D02*
X3790000Y5600000D01*
X4035000Y5665000D02*
X4165000Y5535000D01*
X4165000Y5665000D02*
X4035000Y5535000D01*
X4100000Y5665000D02*
X4100000Y5535000D01*
X4035000Y5600000D02*
X4165000Y5600000D01*
X4410000Y5665000D02*
X4540000Y5535000D01*
X4540000Y5665000D02*
X4410000Y5535000D01*
X4475000Y5665000D02*
X4475000Y5535000D01*
X4410000Y5600000D02*
X4540000Y5600000D01*
X2060000Y5665000D02*
X2190000Y5535000D01*
X2190000Y5665000D02*
X2060000Y5535000D01*
X2125000Y5665000D02*
X2125000Y5535000D01*
X2060000Y5600000D02*
X2190000Y5600000D01*
X2435000Y5665000D02*
X2565000Y5535000D01*
X2565000Y5665000D02*
X2435000Y5535000D01*
X2500000Y5665000D02*
X2500000Y5535000D01*
X2435000Y5600000D02*
X2565000Y5600000D01*
X2810000Y5665000D02*
X2940000Y5535000D01*
X2940000Y5665000D02*
X2810000Y5535000D01*
X2875000Y5665000D02*
X2875000Y5535000D01*
X2810000Y5600000D02*
X2940000Y5600000D01*
X460000Y5665000D02*
X590000Y5535000D01*
X590000Y5665000D02*
X460000Y5535000D01*
X525000Y5665000D02*
X525000Y5535000D01*
X460000Y5600000D02*
X590000Y5600000D01*
X835000Y5665000D02*
X965000Y5535000D01*
X965000Y5665000D02*
X835000Y5535000D01*
X900000Y5665000D02*
X900000Y5535000D01*
X835000Y5600000D02*
X965000Y5600000D01*
X1210000Y5665000D02*
X1340000Y5535000D01*
X1340000Y5665000D02*
X1210000Y5535000D01*
X1275000Y5665000D02*
X1275000Y5535000D01*
X1210000Y5600000D02*
X1340000Y5600000D01*
X1888000Y3399500D02*
X2096000Y3191500D01*
X2096000Y3399500D02*
X1888000Y3191500D01*
X2065540Y3221960D02*
X2065540Y3369040D01*
X1918460Y3369040D01*
X1918460Y3221960D01*
X2065540Y3221960D01*
X1888000Y2408500D02*
X2096000Y2200500D01*
X2096000Y2408500D02*
X1888000Y2200500D01*
X2065540Y2230960D02*
X2065540Y2378040D01*
X1918460Y2378040D01*
X1918460Y2230960D01*
X2065540Y2230960D01*
X2904000Y3399500D02*
X3112000Y3191500D01*
X3112000Y3399500D02*
X2904000Y3191500D01*
X3081540Y3221960D02*
X3081540Y3369040D01*
X2934460Y3369040D01*
X2934460Y3221960D01*
X3081540Y3221960D01*
X2904000Y2408500D02*
X3112000Y2200500D01*
X3112000Y2408500D02*
X2904000Y2200500D01*
X3081540Y2230960D02*
X3081540Y2378040D01*
X2934460Y2378040D01*
X2934460Y2230960D01*
X3081540Y2230960D01*
X3666000Y3399500D02*
X3874000Y3191500D01*
X3874000Y3399500D02*
X3666000Y3191500D01*
X3843540Y3221960D02*
X3843540Y3369040D01*
X3696460Y3369040D01*
X3696460Y3221960D01*
X3843540Y3221960D01*
X1126000Y4108500D02*
X1334000Y3900500D01*
X1334000Y4108500D02*
X1126000Y3900500D01*
X1303540Y3930960D02*
X1303540Y4078040D01*
X1156460Y4078040D01*
X1156460Y3930960D01*
X1303540Y3930960D01*
X1888000Y5099500D02*
X2096000Y4891500D01*
X2096000Y5099500D02*
X1888000Y4891500D01*
X2065540Y4921960D02*
X2065540Y5069040D01*
X1918460Y5069040D01*
X1918460Y4921960D01*
X2065540Y4921960D01*
X1888000Y4108500D02*
X2096000Y3900500D01*
X2096000Y4108500D02*
X1888000Y3900500D01*
X2065540Y3930960D02*
X2065540Y4078040D01*
X1918460Y4078040D01*
X1918460Y3930960D01*
X2065540Y3930960D01*
X2904000Y5099500D02*
X3112000Y4891500D01*
X3112000Y5099500D02*
X2904000Y4891500D01*
X3081540Y4921960D02*
X3081540Y5069040D01*
X2934460Y5069040D01*
X2934460Y4921960D01*
X3081540Y4921960D01*
X2904000Y4108500D02*
X3112000Y3900500D01*
X3112000Y4108500D02*
X2904000Y3900500D01*
X3081540Y3930960D02*
X3081540Y4078040D01*
X2934460Y4078040D01*
X2934460Y3930960D01*
X3081540Y3930960D01*
D12*
X278928Y-473214D02*
X278928Y-173214D01*
X350357Y-173214D01*
X393214Y-187500D01*
X421786Y-216071D01*
X436071Y-244643D01*
X450357Y-301786D01*
X450357Y-344643D01*
X436071Y-401786D01*
X421786Y-430357D01*
X393214Y-458929D01*
X350357Y-473214D01*
X278928Y-473214D01*
X578928Y-473214D02*
X578928Y-273214D01*
X578928Y-330357D02*
X593214Y-301786D01*
X607500Y-287500D01*
X636071Y-273214D01*
X664643Y-273214D01*
X764643Y-473214D02*
X764643Y-273214D01*
X764643Y-173214D02*
X750357Y-187500D01*
X764643Y-201786D01*
X778928Y-187500D01*
X764643Y-173214D01*
X764643Y-201786D01*
X950357Y-473214D02*
X921786Y-458929D01*
X907500Y-430357D01*
X907500Y-173214D01*
X1107500Y-473214D02*
X1078928Y-458929D01*
X1064643Y-430357D01*
X1064643Y-173214D01*
X1450357Y-473214D02*
X1450357Y-173214D01*
X1550357Y-387500D01*
X1650357Y-173214D01*
X1650357Y-473214D01*
X1921786Y-473214D02*
X1921786Y-316072D01*
X1907500Y-287500D01*
X1878928Y-273214D01*
X1821786Y-273214D01*
X1793214Y-287500D01*
X1921786Y-458929D02*
X1893214Y-473214D01*
X1821786Y-473214D01*
X1793214Y-458929D01*
X1778928Y-430357D01*
X1778928Y-401786D01*
X1793214Y-373214D01*
X1821786Y-358929D01*
X1893214Y-358929D01*
X1921786Y-344643D01*
X2064643Y-273214D02*
X2064643Y-573214D01*
X2064643Y-287500D02*
X2093214Y-273214D01*
X2150357Y-273214D01*
X2178928Y-287500D01*
X2193214Y-301786D01*
X2207500Y-330357D01*
X2207500Y-416071D01*
X2193214Y-444643D01*
X2178928Y-458929D01*
X2150357Y-473214D01*
X2093214Y-473214D01*
X2064643Y-458929D01*
X2336071Y-444643D02*
X2350357Y-458929D01*
X2336071Y-473214D01*
X2321786Y-458929D01*
X2336071Y-444643D01*
X2336071Y-473214D01*
X2336071Y-287500D02*
X2350357Y-301786D01*
X2336071Y-316072D01*
X2321786Y-301786D01*
X2336071Y-287500D01*
X2336071Y-316072D01*
X-42500Y-950000D02*
X-7500Y-985000D01*
X-7500Y-950000D02*
X-42500Y-985000D01*
X336071Y-803214D02*
X364643Y-803214D01*
X393214Y-817500D01*
X407500Y-831786D01*
X421786Y-860357D01*
X436071Y-917500D01*
X436071Y-988929D01*
X421786Y-1046071D01*
X407500Y-1074643D01*
X393214Y-1088929D01*
X364643Y-1103214D01*
X336071Y-1103214D01*
X307500Y-1088929D01*
X293214Y-1074643D01*
X278928Y-1046071D01*
X264643Y-988929D01*
X264643Y-917500D01*
X278928Y-860357D01*
X293214Y-831786D01*
X307500Y-817500D01*
X336071Y-803214D01*
X564643Y-1074643D02*
X578928Y-1088929D01*
X564643Y-1103214D01*
X550357Y-1088929D01*
X564643Y-1074643D01*
X564643Y-1103214D01*
X678928Y-803214D02*
X864643Y-803214D01*
X764643Y-917500D01*
X807500Y-917500D01*
X836071Y-931786D01*
X850357Y-946071D01*
X864643Y-974643D01*
X864643Y-1046071D01*
X850357Y-1074643D01*
X836071Y-1088929D01*
X807500Y-1103214D01*
X721786Y-1103214D01*
X693214Y-1088929D01*
X678928Y-1074643D01*
X1136071Y-803214D02*
X993214Y-803214D01*
X978928Y-946071D01*
X993214Y-931786D01*
X1021786Y-917500D01*
X1093214Y-917500D01*
X1121786Y-931786D01*
X1136071Y-946071D01*
X1150357Y-974643D01*
X1150357Y-1046071D01*
X1136071Y-1074643D01*
X1121786Y-1088929D01*
X1093214Y-1103214D01*
X1021786Y-1103214D01*
X993214Y-1088929D01*
X978928Y-1074643D01*
X1278928Y-1103214D02*
X1278928Y-903214D01*
X1278928Y-931786D02*
X1293214Y-917500D01*
X1321786Y-903214D01*
X1364643Y-903214D01*
X1393214Y-917500D01*
X1407500Y-946071D01*
X1407500Y-1103214D01*
X1407500Y-946071D02*
X1421786Y-917500D01*
X1450357Y-903214D01*
X1493214Y-903214D01*
X1521786Y-917500D01*
X1536071Y-946071D01*
X1536071Y-1103214D01*
X1678928Y-1103214D02*
X1678928Y-903214D01*
X1678928Y-931786D02*
X1693214Y-917500D01*
X1721786Y-903214D01*
X1764643Y-903214D01*
X1793214Y-917500D01*
X1807500Y-946071D01*
X1807500Y-1103214D01*
X1807500Y-946071D02*
X1821786Y-917500D01*
X1850357Y-903214D01*
X1893214Y-903214D01*
X1921786Y-917500D01*
X1936071Y-946071D01*
X1936071Y-1103214D01*
X2521786Y-788929D02*
X2264643Y-1174643D01*
X2907500Y-803214D02*
X2936071Y-803214D01*
X2964643Y-817500D01*
X2978928Y-831786D01*
X2993214Y-860357D01*
X3007500Y-917500D01*
X3007500Y-988929D01*
X2993214Y-1046071D01*
X2978928Y-1074643D01*
X2964643Y-1088929D01*
X2936071Y-1103214D01*
X2907500Y-1103214D01*
X2878928Y-1088929D01*
X2864643Y-1074643D01*
X2850357Y-1046071D01*
X2836071Y-988929D01*
X2836071Y-917500D01*
X2850357Y-860357D01*
X2864643Y-831786D01*
X2878928Y-817500D01*
X2907500Y-803214D01*
X3136071Y-1074643D02*
X3150357Y-1088929D01*
X3136071Y-1103214D01*
X3121786Y-1088929D01*
X3136071Y-1074643D01*
X3136071Y-1103214D01*
X3336071Y-803214D02*
X3364643Y-803214D01*
X3393214Y-817500D01*
X3407500Y-831786D01*
X3421786Y-860357D01*
X3436071Y-917500D01*
X3436071Y-988929D01*
X3421786Y-1046071D01*
X3407500Y-1074643D01*
X3393214Y-1088929D01*
X3364643Y-1103214D01*
X3336071Y-1103214D01*
X3307500Y-1088929D01*
X3293214Y-1074643D01*
X3278928Y-1046071D01*
X3264643Y-988929D01*
X3264643Y-917500D01*
X3278928Y-860357D01*
X3293214Y-831786D01*
X3307500Y-817500D01*
X3336071Y-803214D01*
X3721786Y-1103214D02*
X3550357Y-1103214D01*
X3636071Y-1103214D02*
X3636071Y-803214D01*
X3607500Y-846071D01*
X3578928Y-874643D01*
X3550357Y-888929D01*
X3978928Y-903214D02*
X3978928Y-1103214D01*
X3907500Y-788929D02*
X3836071Y-1003214D01*
X4021786Y-1003214D01*
X4121786Y-803214D02*
X4121786Y-860357D01*
X4236071Y-803214D02*
X4236071Y-860357D01*
X4678928Y-1217500D02*
X4664643Y-1203214D01*
X4636071Y-1160357D01*
X4621786Y-1131786D01*
X4607500Y-1088929D01*
X4593214Y-1017500D01*
X4593214Y-960357D01*
X4607500Y-888929D01*
X4621786Y-846071D01*
X4636071Y-817500D01*
X4664643Y-774643D01*
X4678928Y-760357D01*
X4950357Y-1103214D02*
X4778928Y-1103214D01*
X4864643Y-1103214D02*
X4864643Y-803214D01*
X4836071Y-846071D01*
X4807500Y-874643D01*
X4778928Y-888929D01*
X5136071Y-803214D02*
X5164643Y-803214D01*
X5193214Y-817500D01*
X5207500Y-831786D01*
X5221786Y-860357D01*
X5236071Y-917500D01*
X5236071Y-988929D01*
X5221786Y-1046071D01*
X5207500Y-1074643D01*
X5193214Y-1088929D01*
X5164643Y-1103214D01*
X5136071Y-1103214D01*
X5107500Y-1088929D01*
X5093214Y-1074643D01*
X5078928Y-1046071D01*
X5064643Y-988929D01*
X5064643Y-917500D01*
X5078928Y-860357D01*
X5093214Y-831786D01*
X5107500Y-817500D01*
X5136071Y-803214D01*
X5350357Y-831786D02*
X5364643Y-817500D01*
X5393214Y-803214D01*
X5464643Y-803214D01*
X5493214Y-817500D01*
X5507500Y-831786D01*
X5521786Y-860357D01*
X5521786Y-888929D01*
X5507500Y-931786D01*
X5336071Y-1103214D01*
X5521786Y-1103214D01*
X5878928Y-1103214D02*
X5878928Y-803214D01*
X6007500Y-1103214D02*
X6007500Y-946071D01*
X5993214Y-917500D01*
X5964643Y-903214D01*
X5921786Y-903214D01*
X5893214Y-917500D01*
X5878928Y-931786D01*
X6193214Y-1103214D02*
X6164643Y-1088929D01*
X6150357Y-1074643D01*
X6136071Y-1046071D01*
X6136071Y-960357D01*
X6150357Y-931786D01*
X6164643Y-917500D01*
X6193214Y-903214D01*
X6236071Y-903214D01*
X6264643Y-917500D01*
X6278928Y-931786D01*
X6293214Y-960357D01*
X6293214Y-1046071D01*
X6278928Y-1074643D01*
X6264643Y-1088929D01*
X6236071Y-1103214D01*
X6193214Y-1103214D01*
X6464643Y-1103214D02*
X6436071Y-1088929D01*
X6421786Y-1060357D01*
X6421786Y-803214D01*
X6693214Y-1088929D02*
X6664643Y-1103214D01*
X6607500Y-1103214D01*
X6578928Y-1088929D01*
X6564643Y-1060357D01*
X6564643Y-946071D01*
X6578928Y-917500D01*
X6607500Y-903214D01*
X6664643Y-903214D01*
X6693214Y-917500D01*
X6707500Y-946071D01*
X6707500Y-974643D01*
X6564643Y-1003214D01*
X6821786Y-1088929D02*
X6850357Y-1103214D01*
X6907500Y-1103214D01*
X6936071Y-1088929D01*
X6950357Y-1060357D01*
X6950357Y-1046071D01*
X6936071Y-1017500D01*
X6907500Y-1003214D01*
X6864643Y-1003214D01*
X6836071Y-988929D01*
X6821786Y-960357D01*
X6821786Y-946071D01*
X6836071Y-917500D01*
X6864643Y-903214D01*
X6907500Y-903214D01*
X6936071Y-917500D01*
X7050357Y-1217500D02*
X7064643Y-1203214D01*
X7093214Y-1160357D01*
X7107500Y-1131786D01*
X7121786Y-1088929D01*
X7136071Y-1017500D01*
X7136071Y-960357D01*
X7121786Y-888929D01*
X7107500Y-846071D01*
X7093214Y-817500D01*
X7064643Y-774643D01*
X7050357Y-760357D01*
X-7500Y-1363500D02*
G75*
G03X-7500Y-1363500I-25000J0D01*
G01*
X336071Y-1199214D02*
X364643Y-1199214D01*
X393214Y-1213500D01*
X407500Y-1227786D01*
X421786Y-1256357D01*
X436071Y-1313500D01*
X436071Y-1384929D01*
X421786Y-1442071D01*
X407500Y-1470643D01*
X393214Y-1484929D01*
X364643Y-1499214D01*
X336071Y-1499214D01*
X307500Y-1484929D01*
X293214Y-1470643D01*
X278928Y-1442071D01*
X264643Y-1384929D01*
X264643Y-1313500D01*
X278928Y-1256357D01*
X293214Y-1227786D01*
X307500Y-1213500D01*
X336071Y-1199214D01*
X564643Y-1470643D02*
X578928Y-1484929D01*
X564643Y-1499214D01*
X550357Y-1484929D01*
X564643Y-1470643D01*
X564643Y-1499214D01*
X850357Y-1199214D02*
X707500Y-1199214D01*
X693214Y-1342072D01*
X707500Y-1327786D01*
X736071Y-1313500D01*
X807500Y-1313500D01*
X836071Y-1327786D01*
X850357Y-1342072D01*
X864643Y-1370643D01*
X864643Y-1442071D01*
X850357Y-1470643D01*
X836071Y-1484929D01*
X807500Y-1499214D01*
X736071Y-1499214D01*
X707500Y-1484929D01*
X693214Y-1470643D01*
X1050357Y-1199214D02*
X1078928Y-1199214D01*
X1107500Y-1213500D01*
X1121786Y-1227786D01*
X1136071Y-1256357D01*
X1150357Y-1313500D01*
X1150357Y-1384929D01*
X1136071Y-1442071D01*
X1121786Y-1470643D01*
X1107500Y-1484929D01*
X1078928Y-1499214D01*
X1050357Y-1499214D01*
X1021786Y-1484929D01*
X1007500Y-1470643D01*
X993214Y-1442071D01*
X978928Y-1384929D01*
X978928Y-1313500D01*
X993214Y-1256357D01*
X1007500Y-1227786D01*
X1021786Y-1213500D01*
X1050357Y-1199214D01*
X1278928Y-1499214D02*
X1278928Y-1299214D01*
X1278928Y-1327786D02*
X1293214Y-1313500D01*
X1321786Y-1299214D01*
X1364643Y-1299214D01*
X1393214Y-1313500D01*
X1407500Y-1342072D01*
X1407500Y-1499214D01*
X1407500Y-1342072D02*
X1421786Y-1313500D01*
X1450357Y-1299214D01*
X1493214Y-1299214D01*
X1521786Y-1313500D01*
X1536071Y-1342072D01*
X1536071Y-1499214D01*
X1678928Y-1499214D02*
X1678928Y-1299214D01*
X1678928Y-1327786D02*
X1693214Y-1313500D01*
X1721786Y-1299214D01*
X1764643Y-1299214D01*
X1793214Y-1313500D01*
X1807500Y-1342072D01*
X1807500Y-1499214D01*
X1807500Y-1342072D02*
X1821786Y-1313500D01*
X1850357Y-1299214D01*
X1893214Y-1299214D01*
X1921786Y-1313500D01*
X1936071Y-1342072D01*
X1936071Y-1499214D01*
X2521786Y-1184929D02*
X2264643Y-1570643D01*
X2907500Y-1199214D02*
X2936071Y-1199214D01*
X2964643Y-1213500D01*
X2978928Y-1227786D01*
X2993214Y-1256357D01*
X3007500Y-1313500D01*
X3007500Y-1384929D01*
X2993214Y-1442071D01*
X2978928Y-1470643D01*
X2964643Y-1484929D01*
X2936071Y-1499214D01*
X2907500Y-1499214D01*
X2878928Y-1484929D01*
X2864643Y-1470643D01*
X2850357Y-1442071D01*
X2836071Y-1384929D01*
X2836071Y-1313500D01*
X2850357Y-1256357D01*
X2864643Y-1227786D01*
X2878928Y-1213500D01*
X2907500Y-1199214D01*
X3136071Y-1470643D02*
X3150357Y-1484929D01*
X3136071Y-1499214D01*
X3121786Y-1484929D01*
X3136071Y-1470643D01*
X3136071Y-1499214D01*
X3336071Y-1199214D02*
X3364643Y-1199214D01*
X3393214Y-1213500D01*
X3407500Y-1227786D01*
X3421786Y-1256357D01*
X3436071Y-1313500D01*
X3436071Y-1384929D01*
X3421786Y-1442071D01*
X3407500Y-1470643D01*
X3393214Y-1484929D01*
X3364643Y-1499214D01*
X3336071Y-1499214D01*
X3307500Y-1484929D01*
X3293214Y-1470643D01*
X3278928Y-1442071D01*
X3264643Y-1384929D01*
X3264643Y-1313500D01*
X3278928Y-1256357D01*
X3293214Y-1227786D01*
X3307500Y-1213500D01*
X3336071Y-1199214D01*
X3550357Y-1227786D02*
X3564643Y-1213500D01*
X3593214Y-1199214D01*
X3664643Y-1199214D01*
X3693214Y-1213500D01*
X3707500Y-1227786D01*
X3721786Y-1256357D01*
X3721786Y-1284929D01*
X3707500Y-1327786D01*
X3536071Y-1499214D01*
X3721786Y-1499214D01*
X3907500Y-1199214D02*
X3936071Y-1199214D01*
X3964643Y-1213500D01*
X3978928Y-1227786D01*
X3993214Y-1256357D01*
X4007500Y-1313500D01*
X4007500Y-1384929D01*
X3993214Y-1442071D01*
X3978928Y-1470643D01*
X3964643Y-1484929D01*
X3936071Y-1499214D01*
X3907500Y-1499214D01*
X3878928Y-1484929D01*
X3864643Y-1470643D01*
X3850357Y-1442071D01*
X3836071Y-1384929D01*
X3836071Y-1313500D01*
X3850357Y-1256357D01*
X3864643Y-1227786D01*
X3878928Y-1213500D01*
X3907500Y-1199214D01*
X4121786Y-1199214D02*
X4121786Y-1256357D01*
X4236071Y-1199214D02*
X4236071Y-1256357D01*
X4678928Y-1613500D02*
X4664643Y-1599214D01*
X4636071Y-1556357D01*
X4621786Y-1527786D01*
X4607500Y-1484929D01*
X4593214Y-1413500D01*
X4593214Y-1356357D01*
X4607500Y-1284929D01*
X4621786Y-1242072D01*
X4636071Y-1213500D01*
X4664643Y-1170643D01*
X4678928Y-1156357D01*
X4778928Y-1227786D02*
X4793214Y-1213500D01*
X4821786Y-1199214D01*
X4893214Y-1199214D01*
X4921786Y-1213500D01*
X4936071Y-1227786D01*
X4950357Y-1256357D01*
X4950357Y-1284929D01*
X4936071Y-1327786D01*
X4764643Y-1499214D01*
X4950357Y-1499214D01*
X5307500Y-1499214D02*
X5307500Y-1199214D01*
X5436071Y-1499214D02*
X5436071Y-1342072D01*
X5421786Y-1313500D01*
X5393214Y-1299214D01*
X5350357Y-1299214D01*
X5321786Y-1313500D01*
X5307500Y-1327786D01*
X5621786Y-1499214D02*
X5593214Y-1484929D01*
X5578928Y-1470643D01*
X5564643Y-1442071D01*
X5564643Y-1356357D01*
X5578928Y-1327786D01*
X5593214Y-1313500D01*
X5621786Y-1299214D01*
X5664643Y-1299214D01*
X5693214Y-1313500D01*
X5707500Y-1327786D01*
X5721786Y-1356357D01*
X5721786Y-1442071D01*
X5707500Y-1470643D01*
X5693214Y-1484929D01*
X5664643Y-1499214D01*
X5621786Y-1499214D01*
X5893214Y-1499214D02*
X5864643Y-1484929D01*
X5850357Y-1456357D01*
X5850357Y-1199214D01*
X6121786Y-1484929D02*
X6093214Y-1499214D01*
X6036071Y-1499214D01*
X6007500Y-1484929D01*
X5993214Y-1456357D01*
X5993214Y-1342072D01*
X6007500Y-1313500D01*
X6036071Y-1299214D01*
X6093214Y-1299214D01*
X6121786Y-1313500D01*
X6136071Y-1342072D01*
X6136071Y-1370643D01*
X5993214Y-1399214D01*
X6250357Y-1484929D02*
X6278928Y-1499214D01*
X6336071Y-1499214D01*
X6364643Y-1484929D01*
X6378928Y-1456357D01*
X6378928Y-1442071D01*
X6364643Y-1413500D01*
X6336071Y-1399214D01*
X6293214Y-1399214D01*
X6264643Y-1384929D01*
X6250357Y-1356357D01*
X6250357Y-1342072D01*
X6264643Y-1313500D01*
X6293214Y-1299214D01*
X6336071Y-1299214D01*
X6364643Y-1313500D01*
X6478928Y-1613500D02*
X6493214Y-1599214D01*
X6521786Y-1556357D01*
X6536071Y-1527786D01*
X6550357Y-1484929D01*
X6564643Y-1413500D01*
X6564643Y-1356357D01*
X6550357Y-1284929D01*
X6536071Y-1242072D01*
X6521786Y-1213500D01*
X6493214Y-1170643D01*
X6478928Y-1156357D01*
X-42500Y-1724500D02*
X-42500Y-1794500D01*
X-77500Y-1759500D02*
X-7500Y-1759500D01*
X336071Y-1595214D02*
X364643Y-1595214D01*
X393214Y-1609500D01*
X407500Y-1623786D01*
X421786Y-1652357D01*
X436071Y-1709500D01*
X436071Y-1780929D01*
X421786Y-1838071D01*
X407500Y-1866643D01*
X393214Y-1880929D01*
X364643Y-1895214D01*
X336071Y-1895214D01*
X307500Y-1880929D01*
X293214Y-1866643D01*
X278928Y-1838071D01*
X264643Y-1780929D01*
X264643Y-1709500D01*
X278928Y-1652357D01*
X293214Y-1623786D01*
X307500Y-1609500D01*
X336071Y-1595214D01*
X564643Y-1866643D02*
X578928Y-1880929D01*
X564643Y-1895214D01*
X550357Y-1880929D01*
X564643Y-1866643D01*
X564643Y-1895214D01*
X678928Y-1595214D02*
X878928Y-1595214D01*
X750357Y-1895214D01*
X1050357Y-1595214D02*
X1078928Y-1595214D01*
X1107500Y-1609500D01*
X1121786Y-1623786D01*
X1136071Y-1652357D01*
X1150357Y-1709500D01*
X1150357Y-1780929D01*
X1136071Y-1838071D01*
X1121786Y-1866643D01*
X1107500Y-1880929D01*
X1078928Y-1895214D01*
X1050357Y-1895214D01*
X1021786Y-1880929D01*
X1007500Y-1866643D01*
X993214Y-1838071D01*
X978928Y-1780929D01*
X978928Y-1709500D01*
X993214Y-1652357D01*
X1007500Y-1623786D01*
X1021786Y-1609500D01*
X1050357Y-1595214D01*
X1278928Y-1895214D02*
X1278928Y-1695214D01*
X1278928Y-1723786D02*
X1293214Y-1709500D01*
X1321786Y-1695214D01*
X1364643Y-1695214D01*
X1393214Y-1709500D01*
X1407500Y-1738071D01*
X1407500Y-1895214D01*
X1407500Y-1738071D02*
X1421786Y-1709500D01*
X1450357Y-1695214D01*
X1493214Y-1695214D01*
X1521786Y-1709500D01*
X1536071Y-1738071D01*
X1536071Y-1895214D01*
X1678928Y-1895214D02*
X1678928Y-1695214D01*
X1678928Y-1723786D02*
X1693214Y-1709500D01*
X1721786Y-1695214D01*
X1764643Y-1695214D01*
X1793214Y-1709500D01*
X1807500Y-1738071D01*
X1807500Y-1895214D01*
X1807500Y-1738071D02*
X1821786Y-1709500D01*
X1850357Y-1695214D01*
X1893214Y-1695214D01*
X1921786Y-1709500D01*
X1936071Y-1738071D01*
X1936071Y-1895214D01*
X2521786Y-1580929D02*
X2264643Y-1966643D01*
X2907500Y-1595214D02*
X2936071Y-1595214D01*
X2964643Y-1609500D01*
X2978928Y-1623786D01*
X2993214Y-1652357D01*
X3007500Y-1709500D01*
X3007500Y-1780929D01*
X2993214Y-1838071D01*
X2978928Y-1866643D01*
X2964643Y-1880929D01*
X2936071Y-1895214D01*
X2907500Y-1895214D01*
X2878928Y-1880929D01*
X2864643Y-1866643D01*
X2850357Y-1838071D01*
X2836071Y-1780929D01*
X2836071Y-1709500D01*
X2850357Y-1652357D01*
X2864643Y-1623786D01*
X2878928Y-1609500D01*
X2907500Y-1595214D01*
X3136071Y-1866643D02*
X3150357Y-1880929D01*
X3136071Y-1895214D01*
X3121786Y-1880929D01*
X3136071Y-1866643D01*
X3136071Y-1895214D01*
X3336071Y-1595214D02*
X3364643Y-1595214D01*
X3393214Y-1609500D01*
X3407500Y-1623786D01*
X3421786Y-1652357D01*
X3436071Y-1709500D01*
X3436071Y-1780929D01*
X3421786Y-1838071D01*
X3407500Y-1866643D01*
X3393214Y-1880929D01*
X3364643Y-1895214D01*
X3336071Y-1895214D01*
X3307500Y-1880929D01*
X3293214Y-1866643D01*
X3278928Y-1838071D01*
X3264643Y-1780929D01*
X3264643Y-1709500D01*
X3278928Y-1652357D01*
X3293214Y-1623786D01*
X3307500Y-1609500D01*
X3336071Y-1595214D01*
X3550357Y-1623786D02*
X3564643Y-1609500D01*
X3593214Y-1595214D01*
X3664643Y-1595214D01*
X3693214Y-1609500D01*
X3707500Y-1623786D01*
X3721786Y-1652357D01*
X3721786Y-1680929D01*
X3707500Y-1723786D01*
X3536071Y-1895214D01*
X3721786Y-1895214D01*
X3893214Y-1723786D02*
X3864643Y-1709500D01*
X3850357Y-1695214D01*
X3836071Y-1666643D01*
X3836071Y-1652357D01*
X3850357Y-1623786D01*
X3864643Y-1609500D01*
X3893214Y-1595214D01*
X3950357Y-1595214D01*
X3978928Y-1609500D01*
X3993214Y-1623786D01*
X4007500Y-1652357D01*
X4007500Y-1666643D01*
X3993214Y-1695214D01*
X3978928Y-1709500D01*
X3950357Y-1723786D01*
X3893214Y-1723786D01*
X3864643Y-1738071D01*
X3850357Y-1752357D01*
X3836071Y-1780929D01*
X3836071Y-1838071D01*
X3850357Y-1866643D01*
X3864643Y-1880929D01*
X3893214Y-1895214D01*
X3950357Y-1895214D01*
X3978928Y-1880929D01*
X3993214Y-1866643D01*
X4007500Y-1838071D01*
X4007500Y-1780929D01*
X3993214Y-1752357D01*
X3978928Y-1738071D01*
X3950357Y-1723786D01*
X4121786Y-1595214D02*
X4121786Y-1652357D01*
X4236071Y-1595214D02*
X4236071Y-1652357D01*
X4678928Y-2009500D02*
X4664643Y-1995214D01*
X4636071Y-1952357D01*
X4621786Y-1923786D01*
X4607500Y-1880929D01*
X4593214Y-1809500D01*
X4593214Y-1752357D01*
X4607500Y-1680929D01*
X4621786Y-1638071D01*
X4636071Y-1609500D01*
X4664643Y-1566643D01*
X4678928Y-1552357D01*
X4921786Y-1595214D02*
X4864643Y-1595214D01*
X4836071Y-1609500D01*
X4821786Y-1623786D01*
X4793214Y-1666643D01*
X4778928Y-1723786D01*
X4778928Y-1838071D01*
X4793214Y-1866643D01*
X4807500Y-1880929D01*
X4836071Y-1895214D01*
X4893214Y-1895214D01*
X4921786Y-1880929D01*
X4936071Y-1866643D01*
X4950357Y-1838071D01*
X4950357Y-1766643D01*
X4936071Y-1738071D01*
X4921786Y-1723786D01*
X4893214Y-1709500D01*
X4836071Y-1709500D01*
X4807500Y-1723786D01*
X4793214Y-1738071D01*
X4778928Y-1766643D01*
X5307500Y-1895214D02*
X5307500Y-1595214D01*
X5436071Y-1895214D02*
X5436071Y-1738071D01*
X5421786Y-1709500D01*
X5393214Y-1695214D01*
X5350357Y-1695214D01*
X5321786Y-1709500D01*
X5307500Y-1723786D01*
X5621786Y-1895214D02*
X5593214Y-1880929D01*
X5578928Y-1866643D01*
X5564643Y-1838071D01*
X5564643Y-1752357D01*
X5578928Y-1723786D01*
X5593214Y-1709500D01*
X5621786Y-1695214D01*
X5664643Y-1695214D01*
X5693214Y-1709500D01*
X5707500Y-1723786D01*
X5721786Y-1752357D01*
X5721786Y-1838071D01*
X5707500Y-1866643D01*
X5693214Y-1880929D01*
X5664643Y-1895214D01*
X5621786Y-1895214D01*
X5893214Y-1895214D02*
X5864643Y-1880929D01*
X5850357Y-1852357D01*
X5850357Y-1595214D01*
X6121786Y-1880929D02*
X6093214Y-1895214D01*
X6036071Y-1895214D01*
X6007500Y-1880929D01*
X5993214Y-1852357D01*
X5993214Y-1738071D01*
X6007500Y-1709500D01*
X6036071Y-1695214D01*
X6093214Y-1695214D01*
X6121786Y-1709500D01*
X6136071Y-1738071D01*
X6136071Y-1766643D01*
X5993214Y-1795214D01*
X6250357Y-1880929D02*
X6278928Y-1895214D01*
X6336071Y-1895214D01*
X6364643Y-1880929D01*
X6378928Y-1852357D01*
X6378928Y-1838071D01*
X6364643Y-1809500D01*
X6336071Y-1795214D01*
X6293214Y-1795214D01*
X6264643Y-1780929D01*
X6250357Y-1752357D01*
X6250357Y-1738071D01*
X6264643Y-1709500D01*
X6293214Y-1695214D01*
X6336071Y-1695214D01*
X6364643Y-1709500D01*
X6478928Y-2009500D02*
X6493214Y-1995214D01*
X6521786Y-1952357D01*
X6536071Y-1923786D01*
X6550357Y-1880929D01*
X6564643Y-1809500D01*
X6564643Y-1752357D01*
X6550357Y-1680929D01*
X6536071Y-1638071D01*
X6521786Y-1609500D01*
X6493214Y-1566643D01*
X6478928Y-1552357D01*
X-22437Y-2191563D02*
X-22437Y-2119437D01*
X-94563Y-2119437D01*
X-94563Y-2191563D01*
X-22437Y-2191563D01*
X436071Y-2291214D02*
X264643Y-2291214D01*
X350357Y-2291214D02*
X350357Y-1991214D01*
X321786Y-2034071D01*
X293214Y-2062643D01*
X264643Y-2076929D01*
X564643Y-2262643D02*
X578928Y-2276929D01*
X564643Y-2291214D01*
X550357Y-2276929D01*
X564643Y-2262643D01*
X564643Y-2291214D01*
X764643Y-1991214D02*
X793214Y-1991214D01*
X821786Y-2005500D01*
X836071Y-2019786D01*
X850357Y-2048357D01*
X864643Y-2105500D01*
X864643Y-2176929D01*
X850357Y-2234072D01*
X836071Y-2262643D01*
X821786Y-2276929D01*
X793214Y-2291214D01*
X764643Y-2291214D01*
X736071Y-2276929D01*
X721786Y-2262643D01*
X707500Y-2234072D01*
X693214Y-2176929D01*
X693214Y-2105500D01*
X707500Y-2048357D01*
X721786Y-2019786D01*
X736071Y-2005500D01*
X764643Y-1991214D01*
X978928Y-2019786D02*
X993214Y-2005500D01*
X1021786Y-1991214D01*
X1093214Y-1991214D01*
X1121786Y-2005500D01*
X1136071Y-2019786D01*
X1150357Y-2048357D01*
X1150357Y-2076929D01*
X1136071Y-2119786D01*
X964643Y-2291214D01*
X1150357Y-2291214D01*
X1278928Y-2291214D02*
X1278928Y-2091214D01*
X1278928Y-2119786D02*
X1293214Y-2105500D01*
X1321786Y-2091214D01*
X1364643Y-2091214D01*
X1393214Y-2105500D01*
X1407500Y-2134072D01*
X1407500Y-2291214D01*
X1407500Y-2134072D02*
X1421786Y-2105500D01*
X1450357Y-2091214D01*
X1493214Y-2091214D01*
X1521786Y-2105500D01*
X1536071Y-2134072D01*
X1536071Y-2291214D01*
X1678928Y-2291214D02*
X1678928Y-2091214D01*
X1678928Y-2119786D02*
X1693214Y-2105500D01*
X1721786Y-2091214D01*
X1764643Y-2091214D01*
X1793214Y-2105500D01*
X1807500Y-2134072D01*
X1807500Y-2291214D01*
X1807500Y-2134072D02*
X1821786Y-2105500D01*
X1850357Y-2091214D01*
X1893214Y-2091214D01*
X1921786Y-2105500D01*
X1936071Y-2134072D01*
X1936071Y-2291214D01*
X2521786Y-1976929D02*
X2264643Y-2362643D01*
X2907500Y-1991214D02*
X2936071Y-1991214D01*
X2964643Y-2005500D01*
X2978928Y-2019786D01*
X2993214Y-2048357D01*
X3007500Y-2105500D01*
X3007500Y-2176929D01*
X2993214Y-2234072D01*
X2978928Y-2262643D01*
X2964643Y-2276929D01*
X2936071Y-2291214D01*
X2907500Y-2291214D01*
X2878928Y-2276929D01*
X2864643Y-2262643D01*
X2850357Y-2234072D01*
X2836071Y-2176929D01*
X2836071Y-2105500D01*
X2850357Y-2048357D01*
X2864643Y-2019786D01*
X2878928Y-2005500D01*
X2907500Y-1991214D01*
X3136071Y-2262643D02*
X3150357Y-2276929D01*
X3136071Y-2291214D01*
X3121786Y-2276929D01*
X3136071Y-2262643D01*
X3136071Y-2291214D01*
X3336071Y-1991214D02*
X3364643Y-1991214D01*
X3393214Y-2005500D01*
X3407500Y-2019786D01*
X3421786Y-2048357D01*
X3436071Y-2105500D01*
X3436071Y-2176929D01*
X3421786Y-2234072D01*
X3407500Y-2262643D01*
X3393214Y-2276929D01*
X3364643Y-2291214D01*
X3336071Y-2291214D01*
X3307500Y-2276929D01*
X3293214Y-2262643D01*
X3278928Y-2234072D01*
X3264643Y-2176929D01*
X3264643Y-2105500D01*
X3278928Y-2048357D01*
X3293214Y-2019786D01*
X3307500Y-2005500D01*
X3336071Y-1991214D01*
X3693214Y-2091214D02*
X3693214Y-2291214D01*
X3621786Y-1976929D02*
X3550357Y-2191214D01*
X3736071Y-2191214D01*
X3907500Y-1991214D02*
X3936071Y-1991214D01*
X3964643Y-2005500D01*
X3978928Y-2019786D01*
X3993214Y-2048357D01*
X4007500Y-2105500D01*
X4007500Y-2176929D01*
X3993214Y-2234072D01*
X3978928Y-2262643D01*
X3964643Y-2276929D01*
X3936071Y-2291214D01*
X3907500Y-2291214D01*
X3878928Y-2276929D01*
X3864643Y-2262643D01*
X3850357Y-2234072D01*
X3836071Y-2176929D01*
X3836071Y-2105500D01*
X3850357Y-2048357D01*
X3864643Y-2019786D01*
X3878928Y-2005500D01*
X3907500Y-1991214D01*
X4121786Y-1991214D02*
X4121786Y-2048357D01*
X4236071Y-1991214D02*
X4236071Y-2048357D01*
X4678928Y-2405500D02*
X4664643Y-2391214D01*
X4636071Y-2348357D01*
X4621786Y-2319786D01*
X4607500Y-2276929D01*
X4593214Y-2205500D01*
X4593214Y-2148357D01*
X4607500Y-2076929D01*
X4621786Y-2034071D01*
X4636071Y-2005500D01*
X4664643Y-1962643D01*
X4678928Y-1948357D01*
X4850357Y-1991214D02*
X4878928Y-1991214D01*
X4907500Y-2005500D01*
X4921786Y-2019786D01*
X4936071Y-2048357D01*
X4950357Y-2105500D01*
X4950357Y-2176929D01*
X4936071Y-2234072D01*
X4921786Y-2262643D01*
X4907500Y-2276929D01*
X4878928Y-2291214D01*
X4850357Y-2291214D01*
X4821786Y-2276929D01*
X4807500Y-2262643D01*
X4793214Y-2234072D01*
X4778928Y-2176929D01*
X4778928Y-2105500D01*
X4793214Y-2048357D01*
X4807500Y-2019786D01*
X4821786Y-2005500D01*
X4850357Y-1991214D01*
X5307500Y-2291214D02*
X5307500Y-1991214D01*
X5436071Y-2291214D02*
X5436071Y-2134072D01*
X5421786Y-2105500D01*
X5393214Y-2091214D01*
X5350357Y-2091214D01*
X5321786Y-2105500D01*
X5307500Y-2119786D01*
X5621786Y-2291214D02*
X5593214Y-2276929D01*
X5578928Y-2262643D01*
X5564643Y-2234072D01*
X5564643Y-2148357D01*
X5578928Y-2119786D01*
X5593214Y-2105500D01*
X5621786Y-2091214D01*
X5664643Y-2091214D01*
X5693214Y-2105500D01*
X5707500Y-2119786D01*
X5721786Y-2148357D01*
X5721786Y-2234072D01*
X5707500Y-2262643D01*
X5693214Y-2276929D01*
X5664643Y-2291214D01*
X5621786Y-2291214D01*
X5893214Y-2291214D02*
X5864643Y-2276929D01*
X5850357Y-2248357D01*
X5850357Y-1991214D01*
X6121786Y-2276929D02*
X6093214Y-2291214D01*
X6036071Y-2291214D01*
X6007500Y-2276929D01*
X5993214Y-2248357D01*
X5993214Y-2134072D01*
X6007500Y-2105500D01*
X6036071Y-2091214D01*
X6093214Y-2091214D01*
X6121786Y-2105500D01*
X6136071Y-2134072D01*
X6136071Y-2162643D01*
X5993214Y-2191214D01*
X6250357Y-2276929D02*
X6278928Y-2291214D01*
X6336071Y-2291214D01*
X6364643Y-2276929D01*
X6378928Y-2248357D01*
X6378928Y-2234072D01*
X6364643Y-2205500D01*
X6336071Y-2191214D01*
X6293214Y-2191214D01*
X6264643Y-2176929D01*
X6250357Y-2148357D01*
X6250357Y-2134072D01*
X6264643Y-2105500D01*
X6293214Y-2091214D01*
X6336071Y-2091214D01*
X6364643Y-2105500D01*
X6736071Y-2176929D02*
X6964643Y-2176929D01*
X6850357Y-2291214D02*
X6850357Y-2062643D01*
X7307500Y-1991214D02*
X7493214Y-1991214D01*
X7393214Y-2105500D01*
X7436071Y-2105500D01*
X7464643Y-2119786D01*
X7478928Y-2134072D01*
X7493214Y-2162643D01*
X7493214Y-2234072D01*
X7478928Y-2262643D01*
X7464643Y-2276929D01*
X7436071Y-2291214D01*
X7350357Y-2291214D01*
X7321786Y-2276929D01*
X7307500Y-2262643D01*
X7836071Y-2276929D02*
X7864643Y-2291214D01*
X7921786Y-2291214D01*
X7950357Y-2276929D01*
X7964643Y-2248357D01*
X7964643Y-2234072D01*
X7950357Y-2205500D01*
X7921786Y-2191214D01*
X7878928Y-2191214D01*
X7850357Y-2176929D01*
X7836071Y-2148357D01*
X7836071Y-2134072D01*
X7850357Y-2105500D01*
X7878928Y-2091214D01*
X7921786Y-2091214D01*
X7950357Y-2105500D01*
X8136071Y-2291214D02*
X8107500Y-2276929D01*
X8093214Y-2248357D01*
X8093214Y-1991214D01*
X8293214Y-2291214D02*
X8264643Y-2276929D01*
X8250357Y-2262643D01*
X8236071Y-2234072D01*
X8236071Y-2148357D01*
X8250357Y-2119786D01*
X8264643Y-2105500D01*
X8293214Y-2091214D01*
X8336071Y-2091214D01*
X8364643Y-2105500D01*
X8378928Y-2119786D01*
X8393214Y-2148357D01*
X8393214Y-2234072D01*
X8378928Y-2262643D01*
X8364643Y-2276929D01*
X8336071Y-2291214D01*
X8293214Y-2291214D01*
X8478928Y-2091214D02*
X8593214Y-2091214D01*
X8521786Y-1991214D02*
X8521786Y-2248357D01*
X8536071Y-2276929D01*
X8564643Y-2291214D01*
X8593214Y-2291214D01*
X8678928Y-2276929D02*
X8707500Y-2291214D01*
X8764643Y-2291214D01*
X8793214Y-2276929D01*
X8807500Y-2248357D01*
X8807500Y-2234072D01*
X8793214Y-2205500D01*
X8764643Y-2191214D01*
X8721786Y-2191214D01*
X8693214Y-2176929D01*
X8678928Y-2148357D01*
X8678928Y-2134072D01*
X8693214Y-2105500D01*
X8721786Y-2091214D01*
X8764643Y-2091214D01*
X8793214Y-2105500D01*
X8907500Y-2405500D02*
X8921786Y-2391214D01*
X8950357Y-2348357D01*
X8964643Y-2319786D01*
X8978928Y-2276929D01*
X8993214Y-2205500D01*
X8993214Y-2148357D01*
X8978928Y-2076929D01*
X8964643Y-2034071D01*
X8950357Y-2005500D01*
X8921786Y-1962643D01*
X8907500Y-1948357D01*
X-62500Y-2606500D02*
X-7500Y-2551500D01*
X-62500Y-2496500D01*
X-117500Y-2551500D01*
X-62500Y-2606500D01*
X436071Y-2687214D02*
X264643Y-2687214D01*
X350357Y-2687214D02*
X350357Y-2387214D01*
X321786Y-2430072D01*
X293214Y-2458643D01*
X264643Y-2472929D01*
X564643Y-2658643D02*
X578928Y-2672929D01*
X564643Y-2687214D01*
X550357Y-2672929D01*
X564643Y-2658643D01*
X564643Y-2687214D01*
X864643Y-2687214D02*
X693214Y-2687214D01*
X778928Y-2687214D02*
X778928Y-2387214D01*
X750357Y-2430072D01*
X721786Y-2458643D01*
X693214Y-2472929D01*
X1050357Y-2387214D02*
X1078928Y-2387214D01*
X1107500Y-2401500D01*
X1121786Y-2415786D01*
X1136071Y-2444357D01*
X1150357Y-2501500D01*
X1150357Y-2572929D01*
X1136071Y-2630072D01*
X1121786Y-2658643D01*
X1107500Y-2672929D01*
X1078928Y-2687214D01*
X1050357Y-2687214D01*
X1021786Y-2672929D01*
X1007500Y-2658643D01*
X993214Y-2630072D01*
X978928Y-2572929D01*
X978928Y-2501500D01*
X993214Y-2444357D01*
X1007500Y-2415786D01*
X1021786Y-2401500D01*
X1050357Y-2387214D01*
X1278928Y-2687214D02*
X1278928Y-2487214D01*
X1278928Y-2515786D02*
X1293214Y-2501500D01*
X1321786Y-2487214D01*
X1364643Y-2487214D01*
X1393214Y-2501500D01*
X1407500Y-2530072D01*
X1407500Y-2687214D01*
X1407500Y-2530072D02*
X1421786Y-2501500D01*
X1450357Y-2487214D01*
X1493214Y-2487214D01*
X1521786Y-2501500D01*
X1536071Y-2530072D01*
X1536071Y-2687214D01*
X1678928Y-2687214D02*
X1678928Y-2487214D01*
X1678928Y-2515786D02*
X1693214Y-2501500D01*
X1721786Y-2487214D01*
X1764643Y-2487214D01*
X1793214Y-2501500D01*
X1807500Y-2530072D01*
X1807500Y-2687214D01*
X1807500Y-2530072D02*
X1821786Y-2501500D01*
X1850357Y-2487214D01*
X1893214Y-2487214D01*
X1921786Y-2501500D01*
X1936071Y-2530072D01*
X1936071Y-2687214D01*
X2521786Y-2372929D02*
X2264643Y-2758643D01*
X2907500Y-2387214D02*
X2936071Y-2387214D01*
X2964643Y-2401500D01*
X2978928Y-2415786D01*
X2993214Y-2444357D01*
X3007500Y-2501500D01*
X3007500Y-2572929D01*
X2993214Y-2630072D01*
X2978928Y-2658643D01*
X2964643Y-2672929D01*
X2936071Y-2687214D01*
X2907500Y-2687214D01*
X2878928Y-2672929D01*
X2864643Y-2658643D01*
X2850357Y-2630072D01*
X2836071Y-2572929D01*
X2836071Y-2501500D01*
X2850357Y-2444357D01*
X2864643Y-2415786D01*
X2878928Y-2401500D01*
X2907500Y-2387214D01*
X3136071Y-2658643D02*
X3150357Y-2672929D01*
X3136071Y-2687214D01*
X3121786Y-2672929D01*
X3136071Y-2658643D01*
X3136071Y-2687214D01*
X3336071Y-2387214D02*
X3364643Y-2387214D01*
X3393214Y-2401500D01*
X3407500Y-2415786D01*
X3421786Y-2444357D01*
X3436071Y-2501500D01*
X3436071Y-2572929D01*
X3421786Y-2630072D01*
X3407500Y-2658643D01*
X3393214Y-2672929D01*
X3364643Y-2687214D01*
X3336071Y-2687214D01*
X3307500Y-2672929D01*
X3293214Y-2658643D01*
X3278928Y-2630072D01*
X3264643Y-2572929D01*
X3264643Y-2501500D01*
X3278928Y-2444357D01*
X3293214Y-2415786D01*
X3307500Y-2401500D01*
X3336071Y-2387214D01*
X3693214Y-2487214D02*
X3693214Y-2687214D01*
X3621786Y-2372929D02*
X3550357Y-2587214D01*
X3736071Y-2587214D01*
X3821786Y-2387214D02*
X4007500Y-2387214D01*
X3907500Y-2501500D01*
X3950357Y-2501500D01*
X3978928Y-2515786D01*
X3993214Y-2530072D01*
X4007500Y-2558643D01*
X4007500Y-2630072D01*
X3993214Y-2658643D01*
X3978928Y-2672929D01*
X3950357Y-2687214D01*
X3864643Y-2687214D01*
X3836071Y-2672929D01*
X3821786Y-2658643D01*
X4121786Y-2387214D02*
X4121786Y-2444357D01*
X4236071Y-2387214D02*
X4236071Y-2444357D01*
X4678928Y-2801500D02*
X4664643Y-2787214D01*
X4636071Y-2744357D01*
X4621786Y-2715786D01*
X4607500Y-2672929D01*
X4593214Y-2601500D01*
X4593214Y-2544357D01*
X4607500Y-2472929D01*
X4621786Y-2430072D01*
X4636071Y-2401500D01*
X4664643Y-2358643D01*
X4678928Y-2344357D01*
X4850357Y-2387214D02*
X4878928Y-2387214D01*
X4907500Y-2401500D01*
X4921786Y-2415786D01*
X4936071Y-2444357D01*
X4950357Y-2501500D01*
X4950357Y-2572929D01*
X4936071Y-2630072D01*
X4921786Y-2658643D01*
X4907500Y-2672929D01*
X4878928Y-2687214D01*
X4850357Y-2687214D01*
X4821786Y-2672929D01*
X4807500Y-2658643D01*
X4793214Y-2630072D01*
X4778928Y-2572929D01*
X4778928Y-2501500D01*
X4793214Y-2444357D01*
X4807500Y-2415786D01*
X4821786Y-2401500D01*
X4850357Y-2387214D01*
X5307500Y-2687214D02*
X5307500Y-2387214D01*
X5436071Y-2687214D02*
X5436071Y-2530072D01*
X5421786Y-2501500D01*
X5393214Y-2487214D01*
X5350357Y-2487214D01*
X5321786Y-2501500D01*
X5307500Y-2515786D01*
X5621786Y-2687214D02*
X5593214Y-2672929D01*
X5578928Y-2658643D01*
X5564643Y-2630072D01*
X5564643Y-2544357D01*
X5578928Y-2515786D01*
X5593214Y-2501500D01*
X5621786Y-2487214D01*
X5664643Y-2487214D01*
X5693214Y-2501500D01*
X5707500Y-2515786D01*
X5721786Y-2544357D01*
X5721786Y-2630072D01*
X5707500Y-2658643D01*
X5693214Y-2672929D01*
X5664643Y-2687214D01*
X5621786Y-2687214D01*
X5893214Y-2687214D02*
X5864643Y-2672929D01*
X5850357Y-2644357D01*
X5850357Y-2387214D01*
X6121786Y-2672929D02*
X6093214Y-2687214D01*
X6036071Y-2687214D01*
X6007500Y-2672929D01*
X5993214Y-2644357D01*
X5993214Y-2530072D01*
X6007500Y-2501500D01*
X6036071Y-2487214D01*
X6093214Y-2487214D01*
X6121786Y-2501500D01*
X6136071Y-2530072D01*
X6136071Y-2558643D01*
X5993214Y-2587214D01*
X6250357Y-2672929D02*
X6278928Y-2687214D01*
X6336071Y-2687214D01*
X6364643Y-2672929D01*
X6378928Y-2644357D01*
X6378928Y-2630072D01*
X6364643Y-2601500D01*
X6336071Y-2587214D01*
X6293214Y-2587214D01*
X6264643Y-2572929D01*
X6250357Y-2544357D01*
X6250357Y-2530072D01*
X6264643Y-2501500D01*
X6293214Y-2487214D01*
X6336071Y-2487214D01*
X6364643Y-2501500D01*
X6736071Y-2572929D02*
X6964643Y-2572929D01*
X6850357Y-2687214D02*
X6850357Y-2458643D01*
X7464643Y-2387214D02*
X7407500Y-2387214D01*
X7378928Y-2401500D01*
X7364643Y-2415786D01*
X7336071Y-2458643D01*
X7321786Y-2515786D01*
X7321786Y-2630072D01*
X7336071Y-2658643D01*
X7350357Y-2672929D01*
X7378928Y-2687214D01*
X7436071Y-2687214D01*
X7464643Y-2672929D01*
X7478928Y-2658643D01*
X7493214Y-2630072D01*
X7493214Y-2558643D01*
X7478928Y-2530072D01*
X7464643Y-2515786D01*
X7436071Y-2501500D01*
X7378928Y-2501500D01*
X7350357Y-2515786D01*
X7336071Y-2530072D01*
X7321786Y-2558643D01*
X7836071Y-2672929D02*
X7864643Y-2687214D01*
X7921786Y-2687214D01*
X7950357Y-2672929D01*
X7964643Y-2644357D01*
X7964643Y-2630072D01*
X7950357Y-2601500D01*
X7921786Y-2587214D01*
X7878928Y-2587214D01*
X7850357Y-2572929D01*
X7836071Y-2544357D01*
X7836071Y-2530072D01*
X7850357Y-2501500D01*
X7878928Y-2487214D01*
X7921786Y-2487214D01*
X7950357Y-2501500D01*
X8136071Y-2687214D02*
X8107500Y-2672929D01*
X8093214Y-2644357D01*
X8093214Y-2387214D01*
X8293214Y-2687214D02*
X8264643Y-2672929D01*
X8250357Y-2658643D01*
X8236071Y-2630072D01*
X8236071Y-2544357D01*
X8250357Y-2515786D01*
X8264643Y-2501500D01*
X8293214Y-2487214D01*
X8336071Y-2487214D01*
X8364643Y-2501500D01*
X8378928Y-2515786D01*
X8393214Y-2544357D01*
X8393214Y-2630072D01*
X8378928Y-2658643D01*
X8364643Y-2672929D01*
X8336071Y-2687214D01*
X8293214Y-2687214D01*
X8478928Y-2487214D02*
X8593214Y-2487214D01*
X8521786Y-2387214D02*
X8521786Y-2644357D01*
X8536071Y-2672929D01*
X8564643Y-2687214D01*
X8593214Y-2687214D01*
X8678928Y-2672929D02*
X8707500Y-2687214D01*
X8764643Y-2687214D01*
X8793214Y-2672929D01*
X8807500Y-2644357D01*
X8807500Y-2630072D01*
X8793214Y-2601500D01*
X8764643Y-2587214D01*
X8721786Y-2587214D01*
X8693214Y-2572929D01*
X8678928Y-2544357D01*
X8678928Y-2530072D01*
X8693214Y-2501500D01*
X8721786Y-2487214D01*
X8764643Y-2487214D01*
X8793214Y-2501500D01*
X8907500Y-2801500D02*
X8921786Y-2787214D01*
X8950357Y-2744357D01*
X8964643Y-2715786D01*
X8978928Y-2672929D01*
X8993214Y-2601500D01*
X8993214Y-2544357D01*
X8978928Y-2472929D01*
X8964643Y-2430072D01*
X8950357Y-2401500D01*
X8921786Y-2358643D01*
X8907500Y-2344357D01*
X-127500Y-2887500D02*
X-7500Y-3007500D01*
X-7500Y-2887500D02*
X-127500Y-3007500D01*
X-7500Y-2947500D02*
G75*
G03X-7500Y-2947500I-60000J0D01*
G01*
X436071Y-3083214D02*
X264643Y-3083214D01*
X350357Y-3083214D02*
X350357Y-2783214D01*
X321786Y-2826071D01*
X293214Y-2854643D01*
X264643Y-2868929D01*
X564643Y-3054643D02*
X578928Y-3068929D01*
X564643Y-3083214D01*
X550357Y-3068929D01*
X564643Y-3054643D01*
X564643Y-3083214D01*
X693214Y-2811786D02*
X707500Y-2797500D01*
X736071Y-2783214D01*
X807500Y-2783214D01*
X836071Y-2797500D01*
X850357Y-2811786D01*
X864643Y-2840357D01*
X864643Y-2868929D01*
X850357Y-2911786D01*
X678928Y-3083214D01*
X864643Y-3083214D01*
X1050357Y-2783214D02*
X1078928Y-2783214D01*
X1107500Y-2797500D01*
X1121786Y-2811786D01*
X1136071Y-2840357D01*
X1150357Y-2897500D01*
X1150357Y-2968929D01*
X1136071Y-3026071D01*
X1121786Y-3054643D01*
X1107500Y-3068929D01*
X1078928Y-3083214D01*
X1050357Y-3083214D01*
X1021786Y-3068929D01*
X1007500Y-3054643D01*
X993214Y-3026071D01*
X978928Y-2968929D01*
X978928Y-2897500D01*
X993214Y-2840357D01*
X1007500Y-2811786D01*
X1021786Y-2797500D01*
X1050357Y-2783214D01*
X1278928Y-3083214D02*
X1278928Y-2883214D01*
X1278928Y-2911786D02*
X1293214Y-2897500D01*
X1321786Y-2883214D01*
X1364643Y-2883214D01*
X1393214Y-2897500D01*
X1407500Y-2926071D01*
X1407500Y-3083214D01*
X1407500Y-2926071D02*
X1421786Y-2897500D01*
X1450357Y-2883214D01*
X1493214Y-2883214D01*
X1521786Y-2897500D01*
X1536071Y-2926071D01*
X1536071Y-3083214D01*
X1678928Y-3083214D02*
X1678928Y-2883214D01*
X1678928Y-2911786D02*
X1693214Y-2897500D01*
X1721786Y-2883214D01*
X1764643Y-2883214D01*
X1793214Y-2897500D01*
X1807500Y-2926071D01*
X1807500Y-3083214D01*
X1807500Y-2926071D02*
X1821786Y-2897500D01*
X1850357Y-2883214D01*
X1893214Y-2883214D01*
X1921786Y-2897500D01*
X1936071Y-2926071D01*
X1936071Y-3083214D01*
X2521786Y-2768929D02*
X2264643Y-3154643D01*
X2907500Y-2783214D02*
X2936071Y-2783214D01*
X2964643Y-2797500D01*
X2978928Y-2811786D01*
X2993214Y-2840357D01*
X3007500Y-2897500D01*
X3007500Y-2968929D01*
X2993214Y-3026071D01*
X2978928Y-3054643D01*
X2964643Y-3068929D01*
X2936071Y-3083214D01*
X2907500Y-3083214D01*
X2878928Y-3068929D01*
X2864643Y-3054643D01*
X2850357Y-3026071D01*
X2836071Y-2968929D01*
X2836071Y-2897500D01*
X2850357Y-2840357D01*
X2864643Y-2811786D01*
X2878928Y-2797500D01*
X2907500Y-2783214D01*
X3136071Y-3054643D02*
X3150357Y-3068929D01*
X3136071Y-3083214D01*
X3121786Y-3068929D01*
X3136071Y-3054643D01*
X3136071Y-3083214D01*
X3336071Y-2783214D02*
X3364643Y-2783214D01*
X3393214Y-2797500D01*
X3407500Y-2811786D01*
X3421786Y-2840357D01*
X3436071Y-2897500D01*
X3436071Y-2968929D01*
X3421786Y-3026071D01*
X3407500Y-3054643D01*
X3393214Y-3068929D01*
X3364643Y-3083214D01*
X3336071Y-3083214D01*
X3307500Y-3068929D01*
X3293214Y-3054643D01*
X3278928Y-3026071D01*
X3264643Y-2968929D01*
X3264643Y-2897500D01*
X3278928Y-2840357D01*
X3293214Y-2811786D01*
X3307500Y-2797500D01*
X3336071Y-2783214D01*
X3693214Y-2883214D02*
X3693214Y-3083214D01*
X3621786Y-2768929D02*
X3550357Y-2983214D01*
X3736071Y-2983214D01*
X3821786Y-2783214D02*
X4021786Y-2783214D01*
X3893214Y-3083214D01*
X4121786Y-2783214D02*
X4121786Y-2840357D01*
X4236071Y-2783214D02*
X4236071Y-2840357D01*
X4678928Y-3197500D02*
X4664643Y-3183214D01*
X4636071Y-3140357D01*
X4621786Y-3111786D01*
X4607500Y-3068929D01*
X4593214Y-2997500D01*
X4593214Y-2940357D01*
X4607500Y-2868929D01*
X4621786Y-2826071D01*
X4636071Y-2797500D01*
X4664643Y-2754643D01*
X4678928Y-2740357D01*
X4807500Y-3083214D02*
X4864643Y-3083214D01*
X4893214Y-3068929D01*
X4907500Y-3054643D01*
X4936071Y-3011786D01*
X4950357Y-2954643D01*
X4950357Y-2840357D01*
X4936071Y-2811786D01*
X4921786Y-2797500D01*
X4893214Y-2783214D01*
X4836071Y-2783214D01*
X4807500Y-2797500D01*
X4793214Y-2811786D01*
X4778928Y-2840357D01*
X4778928Y-2911786D01*
X4793214Y-2940357D01*
X4807500Y-2954643D01*
X4836071Y-2968929D01*
X4893214Y-2968929D01*
X4921786Y-2954643D01*
X4936071Y-2940357D01*
X4950357Y-2911786D01*
X5307500Y-3083214D02*
X5307500Y-2783214D01*
X5436071Y-3083214D02*
X5436071Y-2926071D01*
X5421786Y-2897500D01*
X5393214Y-2883214D01*
X5350357Y-2883214D01*
X5321786Y-2897500D01*
X5307500Y-2911786D01*
X5621786Y-3083214D02*
X5593214Y-3068929D01*
X5578928Y-3054643D01*
X5564643Y-3026071D01*
X5564643Y-2940357D01*
X5578928Y-2911786D01*
X5593214Y-2897500D01*
X5621786Y-2883214D01*
X5664643Y-2883214D01*
X5693214Y-2897500D01*
X5707500Y-2911786D01*
X5721786Y-2940357D01*
X5721786Y-3026071D01*
X5707500Y-3054643D01*
X5693214Y-3068929D01*
X5664643Y-3083214D01*
X5621786Y-3083214D01*
X5893214Y-3083214D02*
X5864643Y-3068929D01*
X5850357Y-3040357D01*
X5850357Y-2783214D01*
X6121786Y-3068929D02*
X6093214Y-3083214D01*
X6036071Y-3083214D01*
X6007500Y-3068929D01*
X5993214Y-3040357D01*
X5993214Y-2926071D01*
X6007500Y-2897500D01*
X6036071Y-2883214D01*
X6093214Y-2883214D01*
X6121786Y-2897500D01*
X6136071Y-2926071D01*
X6136071Y-2954643D01*
X5993214Y-2983214D01*
X6250357Y-3068929D02*
X6278928Y-3083214D01*
X6336071Y-3083214D01*
X6364643Y-3068929D01*
X6378928Y-3040357D01*
X6378928Y-3026071D01*
X6364643Y-2997500D01*
X6336071Y-2983214D01*
X6293214Y-2983214D01*
X6264643Y-2968929D01*
X6250357Y-2940357D01*
X6250357Y-2926071D01*
X6264643Y-2897500D01*
X6293214Y-2883214D01*
X6336071Y-2883214D01*
X6364643Y-2897500D01*
X6478928Y-3197500D02*
X6493214Y-3183214D01*
X6521786Y-3140357D01*
X6536071Y-3111786D01*
X6550357Y-3068929D01*
X6564643Y-2997500D01*
X6564643Y-2940357D01*
X6550357Y-2868929D01*
X6536071Y-2826071D01*
X6521786Y-2797500D01*
X6493214Y-2754643D01*
X6478928Y-2740357D01*
X-137500Y-3278500D02*
X-7500Y-3408500D01*
X-7500Y-3278500D02*
X-137500Y-3408500D01*
X-72500Y-3278500D02*
X-72500Y-3408500D01*
X-137500Y-3343500D02*
X-7500Y-3343500D01*
X436071Y-3479214D02*
X264643Y-3479214D01*
X350357Y-3479214D02*
X350357Y-3179214D01*
X321786Y-3222071D01*
X293214Y-3250643D01*
X264643Y-3264929D01*
X564643Y-3450643D02*
X578928Y-3464929D01*
X564643Y-3479214D01*
X550357Y-3464929D01*
X564643Y-3450643D01*
X564643Y-3479214D01*
X678928Y-3179214D02*
X864643Y-3179214D01*
X764643Y-3293500D01*
X807500Y-3293500D01*
X836071Y-3307786D01*
X850357Y-3322071D01*
X864643Y-3350643D01*
X864643Y-3422071D01*
X850357Y-3450643D01*
X836071Y-3464929D01*
X807500Y-3479214D01*
X721786Y-3479214D01*
X693214Y-3464929D01*
X678928Y-3450643D01*
X1050357Y-3179214D02*
X1078928Y-3179214D01*
X1107500Y-3193500D01*
X1121786Y-3207786D01*
X1136071Y-3236357D01*
X1150357Y-3293500D01*
X1150357Y-3364929D01*
X1136071Y-3422071D01*
X1121786Y-3450643D01*
X1107500Y-3464929D01*
X1078928Y-3479214D01*
X1050357Y-3479214D01*
X1021786Y-3464929D01*
X1007500Y-3450643D01*
X993214Y-3422071D01*
X978928Y-3364929D01*
X978928Y-3293500D01*
X993214Y-3236357D01*
X1007500Y-3207786D01*
X1021786Y-3193500D01*
X1050357Y-3179214D01*
X1278928Y-3479214D02*
X1278928Y-3279214D01*
X1278928Y-3307786D02*
X1293214Y-3293500D01*
X1321786Y-3279214D01*
X1364643Y-3279214D01*
X1393214Y-3293500D01*
X1407500Y-3322071D01*
X1407500Y-3479214D01*
X1407500Y-3322071D02*
X1421786Y-3293500D01*
X1450357Y-3279214D01*
X1493214Y-3279214D01*
X1521786Y-3293500D01*
X1536071Y-3322071D01*
X1536071Y-3479214D01*
X1678928Y-3479214D02*
X1678928Y-3279214D01*
X1678928Y-3307786D02*
X1693214Y-3293500D01*
X1721786Y-3279214D01*
X1764643Y-3279214D01*
X1793214Y-3293500D01*
X1807500Y-3322071D01*
X1807500Y-3479214D01*
X1807500Y-3322071D02*
X1821786Y-3293500D01*
X1850357Y-3279214D01*
X1893214Y-3279214D01*
X1921786Y-3293500D01*
X1936071Y-3322071D01*
X1936071Y-3479214D01*
X2521786Y-3164929D02*
X2264643Y-3550643D01*
X2907500Y-3179214D02*
X2936071Y-3179214D01*
X2964643Y-3193500D01*
X2978928Y-3207786D01*
X2993214Y-3236357D01*
X3007500Y-3293500D01*
X3007500Y-3364929D01*
X2993214Y-3422071D01*
X2978928Y-3450643D01*
X2964643Y-3464929D01*
X2936071Y-3479214D01*
X2907500Y-3479214D01*
X2878928Y-3464929D01*
X2864643Y-3450643D01*
X2850357Y-3422071D01*
X2836071Y-3364929D01*
X2836071Y-3293500D01*
X2850357Y-3236357D01*
X2864643Y-3207786D01*
X2878928Y-3193500D01*
X2907500Y-3179214D01*
X3136071Y-3450643D02*
X3150357Y-3464929D01*
X3136071Y-3479214D01*
X3121786Y-3464929D01*
X3136071Y-3450643D01*
X3136071Y-3479214D01*
X3336071Y-3179214D02*
X3364643Y-3179214D01*
X3393214Y-3193500D01*
X3407500Y-3207786D01*
X3421786Y-3236357D01*
X3436071Y-3293500D01*
X3436071Y-3364929D01*
X3421786Y-3422071D01*
X3407500Y-3450643D01*
X3393214Y-3464929D01*
X3364643Y-3479214D01*
X3336071Y-3479214D01*
X3307500Y-3464929D01*
X3293214Y-3450643D01*
X3278928Y-3422071D01*
X3264643Y-3364929D01*
X3264643Y-3293500D01*
X3278928Y-3236357D01*
X3293214Y-3207786D01*
X3307500Y-3193500D01*
X3336071Y-3179214D01*
X3707500Y-3179214D02*
X3564643Y-3179214D01*
X3550357Y-3322071D01*
X3564643Y-3307786D01*
X3593214Y-3293500D01*
X3664643Y-3293500D01*
X3693214Y-3307786D01*
X3707500Y-3322071D01*
X3721786Y-3350643D01*
X3721786Y-3422071D01*
X3707500Y-3450643D01*
X3693214Y-3464929D01*
X3664643Y-3479214D01*
X3593214Y-3479214D01*
X3564643Y-3464929D01*
X3550357Y-3450643D01*
X4007500Y-3479214D02*
X3836071Y-3479214D01*
X3921786Y-3479214D02*
X3921786Y-3179214D01*
X3893214Y-3222071D01*
X3864643Y-3250643D01*
X3836071Y-3264929D01*
X4121786Y-3179214D02*
X4121786Y-3236357D01*
X4236071Y-3179214D02*
X4236071Y-3236357D01*
X4678928Y-3593500D02*
X4664643Y-3579214D01*
X4636071Y-3536357D01*
X4621786Y-3507786D01*
X4607500Y-3464929D01*
X4593214Y-3393500D01*
X4593214Y-3336357D01*
X4607500Y-3264929D01*
X4621786Y-3222071D01*
X4636071Y-3193500D01*
X4664643Y-3150643D01*
X4678928Y-3136357D01*
X4807500Y-3479214D02*
X4864643Y-3479214D01*
X4893214Y-3464929D01*
X4907500Y-3450643D01*
X4936071Y-3407786D01*
X4950357Y-3350643D01*
X4950357Y-3236357D01*
X4936071Y-3207786D01*
X4921786Y-3193500D01*
X4893214Y-3179214D01*
X4836071Y-3179214D01*
X4807500Y-3193500D01*
X4793214Y-3207786D01*
X4778928Y-3236357D01*
X4778928Y-3307786D01*
X4793214Y-3336357D01*
X4807500Y-3350643D01*
X4836071Y-3364929D01*
X4893214Y-3364929D01*
X4921786Y-3350643D01*
X4936071Y-3336357D01*
X4950357Y-3307786D01*
X5307500Y-3479214D02*
X5307500Y-3179214D01*
X5436071Y-3479214D02*
X5436071Y-3322071D01*
X5421786Y-3293500D01*
X5393214Y-3279214D01*
X5350357Y-3279214D01*
X5321786Y-3293500D01*
X5307500Y-3307786D01*
X5621786Y-3479214D02*
X5593214Y-3464929D01*
X5578928Y-3450643D01*
X5564643Y-3422071D01*
X5564643Y-3336357D01*
X5578928Y-3307786D01*
X5593214Y-3293500D01*
X5621786Y-3279214D01*
X5664643Y-3279214D01*
X5693214Y-3293500D01*
X5707500Y-3307786D01*
X5721786Y-3336357D01*
X5721786Y-3422071D01*
X5707500Y-3450643D01*
X5693214Y-3464929D01*
X5664643Y-3479214D01*
X5621786Y-3479214D01*
X5893214Y-3479214D02*
X5864643Y-3464929D01*
X5850357Y-3436357D01*
X5850357Y-3179214D01*
X6121786Y-3464929D02*
X6093214Y-3479214D01*
X6036071Y-3479214D01*
X6007500Y-3464929D01*
X5993214Y-3436357D01*
X5993214Y-3322071D01*
X6007500Y-3293500D01*
X6036071Y-3279214D01*
X6093214Y-3279214D01*
X6121786Y-3293500D01*
X6136071Y-3322071D01*
X6136071Y-3350643D01*
X5993214Y-3379214D01*
X6250357Y-3464929D02*
X6278928Y-3479214D01*
X6336071Y-3479214D01*
X6364643Y-3464929D01*
X6378928Y-3436357D01*
X6378928Y-3422071D01*
X6364643Y-3393500D01*
X6336071Y-3379214D01*
X6293214Y-3379214D01*
X6264643Y-3364929D01*
X6250357Y-3336357D01*
X6250357Y-3322071D01*
X6264643Y-3293500D01*
X6293214Y-3279214D01*
X6336071Y-3279214D01*
X6364643Y-3293500D01*
X6478928Y-3593500D02*
X6493214Y-3579214D01*
X6521786Y-3536357D01*
X6536071Y-3507786D01*
X6550357Y-3464929D01*
X6564643Y-3393500D01*
X6564643Y-3336357D01*
X6550357Y-3264929D01*
X6536071Y-3222071D01*
X6521786Y-3193500D01*
X6493214Y-3150643D01*
X6478928Y-3136357D01*
X-215500Y-3635500D02*
X-7500Y-3843500D01*
X-7500Y-3635500D02*
X-215500Y-3843500D01*
X-37960Y-3813040D02*
X-37960Y-3665960D01*
X-185040Y-3665960D01*
X-185040Y-3813040D01*
X-37960Y-3813040D01*
X264643Y-3603786D02*
X278928Y-3589500D01*
X307500Y-3575214D01*
X378928Y-3575214D01*
X407500Y-3589500D01*
X421786Y-3603786D01*
X436071Y-3632357D01*
X436071Y-3660929D01*
X421786Y-3703786D01*
X250357Y-3875214D01*
X436071Y-3875214D01*
X564643Y-3846643D02*
X578928Y-3860929D01*
X564643Y-3875214D01*
X550357Y-3860929D01*
X564643Y-3846643D01*
X564643Y-3875214D01*
X764643Y-3575214D02*
X793214Y-3575214D01*
X821786Y-3589500D01*
X836071Y-3603786D01*
X850357Y-3632357D01*
X864643Y-3689500D01*
X864643Y-3760929D01*
X850357Y-3818071D01*
X836071Y-3846643D01*
X821786Y-3860929D01*
X793214Y-3875214D01*
X764643Y-3875214D01*
X736071Y-3860929D01*
X721786Y-3846643D01*
X707500Y-3818071D01*
X693214Y-3760929D01*
X693214Y-3689500D01*
X707500Y-3632357D01*
X721786Y-3603786D01*
X736071Y-3589500D01*
X764643Y-3575214D01*
X1036071Y-3703786D02*
X1007500Y-3689500D01*
X993214Y-3675214D01*
X978928Y-3646643D01*
X978928Y-3632357D01*
X993214Y-3603786D01*
X1007500Y-3589500D01*
X1036071Y-3575214D01*
X1093214Y-3575214D01*
X1121786Y-3589500D01*
X1136071Y-3603786D01*
X1150357Y-3632357D01*
X1150357Y-3646643D01*
X1136071Y-3675214D01*
X1121786Y-3689500D01*
X1093214Y-3703786D01*
X1036071Y-3703786D01*
X1007500Y-3718071D01*
X993214Y-3732357D01*
X978928Y-3760929D01*
X978928Y-3818071D01*
X993214Y-3846643D01*
X1007500Y-3860929D01*
X1036071Y-3875214D01*
X1093214Y-3875214D01*
X1121786Y-3860929D01*
X1136071Y-3846643D01*
X1150357Y-3818071D01*
X1150357Y-3760929D01*
X1136071Y-3732357D01*
X1121786Y-3718071D01*
X1093214Y-3703786D01*
X1278928Y-3875214D02*
X1278928Y-3675214D01*
X1278928Y-3703786D02*
X1293214Y-3689500D01*
X1321786Y-3675214D01*
X1364643Y-3675214D01*
X1393214Y-3689500D01*
X1407500Y-3718071D01*
X1407500Y-3875214D01*
X1407500Y-3718071D02*
X1421786Y-3689500D01*
X1450357Y-3675214D01*
X1493214Y-3675214D01*
X1521786Y-3689500D01*
X1536071Y-3718071D01*
X1536071Y-3875214D01*
X1678928Y-3875214D02*
X1678928Y-3675214D01*
X1678928Y-3703786D02*
X1693214Y-3689500D01*
X1721786Y-3675214D01*
X1764643Y-3675214D01*
X1793214Y-3689500D01*
X1807500Y-3718071D01*
X1807500Y-3875214D01*
X1807500Y-3718071D02*
X1821786Y-3689500D01*
X1850357Y-3675214D01*
X1893214Y-3675214D01*
X1921786Y-3689500D01*
X1936071Y-3718071D01*
X1936071Y-3875214D01*
X2521786Y-3560929D02*
X2264643Y-3946643D01*
X2907500Y-3575214D02*
X2936071Y-3575214D01*
X2964643Y-3589500D01*
X2978928Y-3603786D01*
X2993214Y-3632357D01*
X3007500Y-3689500D01*
X3007500Y-3760929D01*
X2993214Y-3818071D01*
X2978928Y-3846643D01*
X2964643Y-3860929D01*
X2936071Y-3875214D01*
X2907500Y-3875214D01*
X2878928Y-3860929D01*
X2864643Y-3846643D01*
X2850357Y-3818071D01*
X2836071Y-3760929D01*
X2836071Y-3689500D01*
X2850357Y-3632357D01*
X2864643Y-3603786D01*
X2878928Y-3589500D01*
X2907500Y-3575214D01*
X3136071Y-3846643D02*
X3150357Y-3860929D01*
X3136071Y-3875214D01*
X3121786Y-3860929D01*
X3136071Y-3846643D01*
X3136071Y-3875214D01*
X3336071Y-3575214D02*
X3364643Y-3575214D01*
X3393214Y-3589500D01*
X3407500Y-3603786D01*
X3421786Y-3632357D01*
X3436071Y-3689500D01*
X3436071Y-3760929D01*
X3421786Y-3818071D01*
X3407500Y-3846643D01*
X3393214Y-3860929D01*
X3364643Y-3875214D01*
X3336071Y-3875214D01*
X3307500Y-3860929D01*
X3293214Y-3846643D01*
X3278928Y-3818071D01*
X3264643Y-3760929D01*
X3264643Y-3689500D01*
X3278928Y-3632357D01*
X3293214Y-3603786D01*
X3307500Y-3589500D01*
X3336071Y-3575214D01*
X3607500Y-3703786D02*
X3578928Y-3689500D01*
X3564643Y-3675214D01*
X3550357Y-3646643D01*
X3550357Y-3632357D01*
X3564643Y-3603786D01*
X3578928Y-3589500D01*
X3607500Y-3575214D01*
X3664643Y-3575214D01*
X3693214Y-3589500D01*
X3707500Y-3603786D01*
X3721786Y-3632357D01*
X3721786Y-3646643D01*
X3707500Y-3675214D01*
X3693214Y-3689500D01*
X3664643Y-3703786D01*
X3607500Y-3703786D01*
X3578928Y-3718071D01*
X3564643Y-3732357D01*
X3550357Y-3760929D01*
X3550357Y-3818071D01*
X3564643Y-3846643D01*
X3578928Y-3860929D01*
X3607500Y-3875214D01*
X3664643Y-3875214D01*
X3693214Y-3860929D01*
X3707500Y-3846643D01*
X3721786Y-3818071D01*
X3721786Y-3760929D01*
X3707500Y-3732357D01*
X3693214Y-3718071D01*
X3664643Y-3703786D01*
X3836071Y-3603786D02*
X3850357Y-3589500D01*
X3878928Y-3575214D01*
X3950357Y-3575214D01*
X3978928Y-3589500D01*
X3993214Y-3603786D01*
X4007500Y-3632357D01*
X4007500Y-3660929D01*
X3993214Y-3703786D01*
X3821786Y-3875214D01*
X4007500Y-3875214D01*
X4121786Y-3575214D02*
X4121786Y-3632357D01*
X4236071Y-3575214D02*
X4236071Y-3632357D01*
X4678928Y-3989500D02*
X4664643Y-3975214D01*
X4636071Y-3932357D01*
X4621786Y-3903786D01*
X4607500Y-3860929D01*
X4593214Y-3789500D01*
X4593214Y-3732357D01*
X4607500Y-3660929D01*
X4621786Y-3618071D01*
X4636071Y-3589500D01*
X4664643Y-3546643D01*
X4678928Y-3532357D01*
X4950357Y-3875214D02*
X4778928Y-3875214D01*
X4864643Y-3875214D02*
X4864643Y-3575214D01*
X4836071Y-3618071D01*
X4807500Y-3646643D01*
X4778928Y-3660929D01*
X5136071Y-3575214D02*
X5164643Y-3575214D01*
X5193214Y-3589500D01*
X5207500Y-3603786D01*
X5221786Y-3632357D01*
X5236071Y-3689500D01*
X5236071Y-3760929D01*
X5221786Y-3818071D01*
X5207500Y-3846643D01*
X5193214Y-3860929D01*
X5164643Y-3875214D01*
X5136071Y-3875214D01*
X5107500Y-3860929D01*
X5093214Y-3846643D01*
X5078928Y-3818071D01*
X5064643Y-3760929D01*
X5064643Y-3689500D01*
X5078928Y-3632357D01*
X5093214Y-3603786D01*
X5107500Y-3589500D01*
X5136071Y-3575214D01*
X5593214Y-3875214D02*
X5593214Y-3575214D01*
X5721786Y-3875214D02*
X5721786Y-3718071D01*
X5707500Y-3689500D01*
X5678928Y-3675214D01*
X5636071Y-3675214D01*
X5607500Y-3689500D01*
X5593214Y-3703786D01*
X5907500Y-3875214D02*
X5878928Y-3860929D01*
X5864643Y-3846643D01*
X5850357Y-3818071D01*
X5850357Y-3732357D01*
X5864643Y-3703786D01*
X5878928Y-3689500D01*
X5907500Y-3675214D01*
X5950357Y-3675214D01*
X5978928Y-3689500D01*
X5993214Y-3703786D01*
X6007500Y-3732357D01*
X6007500Y-3818071D01*
X5993214Y-3846643D01*
X5978928Y-3860929D01*
X5950357Y-3875214D01*
X5907500Y-3875214D01*
X6178928Y-3875214D02*
X6150357Y-3860929D01*
X6136071Y-3832357D01*
X6136071Y-3575214D01*
X6407500Y-3860929D02*
X6378928Y-3875214D01*
X6321786Y-3875214D01*
X6293214Y-3860929D01*
X6278928Y-3832357D01*
X6278928Y-3718071D01*
X6293214Y-3689500D01*
X6321786Y-3675214D01*
X6378928Y-3675214D01*
X6407500Y-3689500D01*
X6421786Y-3718071D01*
X6421786Y-3746643D01*
X6278928Y-3775214D01*
X6536071Y-3860929D02*
X6564643Y-3875214D01*
X6621786Y-3875214D01*
X6650357Y-3860929D01*
X6664643Y-3832357D01*
X6664643Y-3818071D01*
X6650357Y-3789500D01*
X6621786Y-3775214D01*
X6578928Y-3775214D01*
X6550357Y-3760929D01*
X6536071Y-3732357D01*
X6536071Y-3718071D01*
X6550357Y-3689500D01*
X6578928Y-3675214D01*
X6621786Y-3675214D01*
X6650357Y-3689500D01*
X6764643Y-3989500D02*
X6778928Y-3975214D01*
X6807500Y-3932357D01*
X6821786Y-3903786D01*
X6836071Y-3860929D01*
X6850357Y-3789500D01*
X6850357Y-3732357D01*
X6836071Y-3660929D01*
X6821786Y-3618071D01*
X6807500Y-3589500D01*
X6778928Y-3546643D01*
X6764643Y-3532357D01*
M02*
