%TF.GenerationSoftware,KiCad,Pcbnew,5.1.5-52549c5~84~ubuntu18.04.1*%
%TF.CreationDate,2019-12-01T00:39:59+01:00*%
%TF.ProjectId,clasicOverdrive,636c6173-6963-44f7-9665-726472697665,A*%
%TF.SameCoordinates,PX6708f40PY898d9f8*%
%TF.FileFunction,Legend,Bot*%
%TF.FilePolarity,Positive*%
%FSLAX46Y46*%
G04 Gerber Fmt 4.6, Leading zero omitted, Abs format (unit mm)*
G04 Created by KiCad (PCBNEW 5.1.5-52549c5~84~ubuntu18.04.1) date 2019-12-01 00:39:59*
%MOMM*%
%LPD*%
G04 APERTURE LIST*
%ADD10C,0.120000*%
%ADD11C,0.150000*%
%ADD12C,2.300000*%
%ADD13C,0.800000*%
%ADD14C,5.400000*%
%ADD15O,1.200000X1.600000*%
%ADD16O,1.200000X1.200000*%
%ADD17C,0.100000*%
%ADD18R,3.500000X3.500000*%
%ADD19C,1.800000*%
%ADD20C,4.000000*%
G04 APERTURE END LIST*
D10*
%TO.C,J2*%
X46200000Y7900000D02*
X38000000Y7900000D01*
X46200000Y17900000D02*
X46200000Y7900000D01*
X38000000Y17900000D02*
X46200000Y17900000D01*
X38000000Y3580000D02*
X38000000Y19330000D01*
X13000000Y3580000D02*
X38000000Y3580000D01*
X13000000Y19330000D02*
X13000000Y3580000D01*
X38000000Y19330000D02*
X13000000Y19330000D01*
%TO.C,J3*%
X-11200000Y31500000D02*
X-3000000Y31500000D01*
X-11200000Y21500000D02*
X-11200000Y31500000D01*
X-3000000Y21500000D02*
X-11200000Y21500000D01*
X-3000000Y35820000D02*
X-3000000Y20070000D01*
X22000000Y35820000D02*
X-3000000Y35820000D01*
X22000000Y20070000D02*
X22000000Y35820000D01*
X-3000000Y20070000D02*
X22000000Y20070000D01*
%TO.C,J2*%
D11*
X33533333Y12047620D02*
X33533333Y11333334D01*
X33580952Y11190477D01*
X33676190Y11095239D01*
X33819047Y11047620D01*
X33914285Y11047620D01*
X33104761Y11952381D02*
X33057142Y12000000D01*
X32961904Y12047620D01*
X32723809Y12047620D01*
X32628571Y12000000D01*
X32580952Y11952381D01*
X32533333Y11857143D01*
X32533333Y11761905D01*
X32580952Y11619048D01*
X33152380Y11047620D01*
X32533333Y11047620D01*
%TO.C,J3*%
X1733333Y26847620D02*
X1733333Y26133334D01*
X1780952Y25990477D01*
X1876190Y25895239D01*
X2019047Y25847620D01*
X2114285Y25847620D01*
X1352380Y26847620D02*
X733333Y26847620D01*
X1066666Y26466667D01*
X923809Y26466667D01*
X828571Y26419048D01*
X780952Y26371429D01*
X733333Y26276191D01*
X733333Y26038096D01*
X780952Y25942858D01*
X828571Y25895239D01*
X923809Y25847620D01*
X1209523Y25847620D01*
X1304761Y25895239D01*
X1352380Y25942858D01*
%TD*%
%LPC*%
D12*
%TO.C,J2*%
X26900000Y5670000D03*
X33250000Y5670000D03*
X20550000Y5670000D03*
X33250000Y17100000D03*
X26900000Y17100000D03*
X20550000Y17100000D03*
%TD*%
%TO.C,J3*%
X8100000Y33730000D03*
X1750000Y33730000D03*
X14450000Y33730000D03*
X1750000Y22300000D03*
X8100000Y22300000D03*
X14450000Y22300000D03*
%TD*%
D13*
%TO.C,H4*%
X36431891Y1431891D03*
X35000000Y2025000D03*
X33568109Y1431891D03*
X32975000Y0D03*
X33568109Y-1431891D03*
X35000000Y-2025000D03*
X36431891Y-1431891D03*
X37025000Y0D03*
D14*
X35000000Y0D03*
%TD*%
D13*
%TO.C,H3*%
X36431891Y72431891D03*
X35000000Y73025000D03*
X33568109Y72431891D03*
X32975000Y71000000D03*
X33568109Y69568109D03*
X35000000Y68975000D03*
X36431891Y69568109D03*
X37025000Y71000000D03*
D14*
X35000000Y71000000D03*
%TD*%
D13*
%TO.C,H2*%
X1431891Y1431891D03*
X0Y2025000D03*
X-1431891Y1431891D03*
X-2025000Y0D03*
X-1431891Y-1431891D03*
X0Y-2025000D03*
X1431891Y-1431891D03*
X2025000Y0D03*
D14*
X0Y0D03*
%TD*%
D13*
%TO.C,H1*%
X1431891Y72431891D03*
X0Y73025000D03*
X-1431891Y72431891D03*
X-2025000Y71000000D03*
X-1431891Y69568109D03*
X0Y68975000D03*
X1431891Y69568109D03*
X2025000Y71000000D03*
D14*
X0Y71000000D03*
%TD*%
D15*
%TO.C,Q1*%
X26000000Y24500000D03*
D16*
X24730000Y23230000D03*
X26000000Y21960000D03*
%TD*%
D15*
%TO.C,Q2*%
X17500000Y43500000D03*
D16*
X16230000Y42230000D03*
X17500000Y40960000D03*
%TD*%
D17*
%TO.C,J1*%
G36*
X14260765Y64745787D02*
G01*
X14345704Y64733187D01*
X14428999Y64712323D01*
X14509848Y64683395D01*
X14587472Y64646681D01*
X14661124Y64602536D01*
X14730094Y64551384D01*
X14793718Y64493718D01*
X14851384Y64430094D01*
X14902536Y64361124D01*
X14946681Y64287472D01*
X14983395Y64209848D01*
X15012323Y64128999D01*
X15033187Y64045704D01*
X15045787Y63960765D01*
X15050000Y63875000D01*
X15050000Y62125000D01*
X15045787Y62039235D01*
X15033187Y61954296D01*
X15012323Y61871001D01*
X14983395Y61790152D01*
X14946681Y61712528D01*
X14902536Y61638876D01*
X14851384Y61569906D01*
X14793718Y61506282D01*
X14730094Y61448616D01*
X14661124Y61397464D01*
X14587472Y61353319D01*
X14509848Y61316605D01*
X14428999Y61287677D01*
X14345704Y61266813D01*
X14260765Y61254213D01*
X14175000Y61250000D01*
X12425000Y61250000D01*
X12339235Y61254213D01*
X12254296Y61266813D01*
X12171001Y61287677D01*
X12090152Y61316605D01*
X12012528Y61353319D01*
X11938876Y61397464D01*
X11869906Y61448616D01*
X11806282Y61506282D01*
X11748616Y61569906D01*
X11697464Y61638876D01*
X11653319Y61712528D01*
X11616605Y61790152D01*
X11587677Y61871001D01*
X11566813Y61954296D01*
X11554213Y62039235D01*
X11550000Y62125000D01*
X11550000Y63875000D01*
X11554213Y63960765D01*
X11566813Y64045704D01*
X11587677Y64128999D01*
X11616605Y64209848D01*
X11653319Y64287472D01*
X11697464Y64361124D01*
X11748616Y64430094D01*
X11806282Y64493718D01*
X11869906Y64551384D01*
X11938876Y64602536D01*
X12012528Y64646681D01*
X12090152Y64683395D01*
X12171001Y64712323D01*
X12254296Y64733187D01*
X12339235Y64745787D01*
X12425000Y64750000D01*
X14175000Y64750000D01*
X14260765Y64745787D01*
G37*
G36*
X19073513Y67496389D02*
G01*
X19146318Y67485589D01*
X19217714Y67467705D01*
X19287013Y67442910D01*
X19353548Y67411441D01*
X19416678Y67373602D01*
X19475795Y67329758D01*
X19530330Y67280330D01*
X19579758Y67225795D01*
X19623602Y67166678D01*
X19661441Y67103548D01*
X19692910Y67037013D01*
X19717705Y66967714D01*
X19735589Y66896318D01*
X19746389Y66823513D01*
X19750000Y66750000D01*
X19750000Y65250000D01*
X19746389Y65176487D01*
X19735589Y65103682D01*
X19717705Y65032286D01*
X19692910Y64962987D01*
X19661441Y64896452D01*
X19623602Y64833322D01*
X19579758Y64774205D01*
X19530330Y64719670D01*
X19475795Y64670242D01*
X19416678Y64626398D01*
X19353548Y64588559D01*
X19287013Y64557090D01*
X19217714Y64532295D01*
X19146318Y64514411D01*
X19073513Y64503611D01*
X19000000Y64500000D01*
X17000000Y64500000D01*
X16926487Y64503611D01*
X16853682Y64514411D01*
X16782286Y64532295D01*
X16712987Y64557090D01*
X16646452Y64588559D01*
X16583322Y64626398D01*
X16524205Y64670242D01*
X16469670Y64719670D01*
X16420242Y64774205D01*
X16376398Y64833322D01*
X16338559Y64896452D01*
X16307090Y64962987D01*
X16282295Y65032286D01*
X16264411Y65103682D01*
X16253611Y65176487D01*
X16250000Y65250000D01*
X16250000Y66750000D01*
X16253611Y66823513D01*
X16264411Y66896318D01*
X16282295Y66967714D01*
X16307090Y67037013D01*
X16338559Y67103548D01*
X16376398Y67166678D01*
X16420242Y67225795D01*
X16469670Y67280330D01*
X16524205Y67329758D01*
X16583322Y67373602D01*
X16646452Y67411441D01*
X16712987Y67442910D01*
X16782286Y67467705D01*
X16853682Y67485589D01*
X16926487Y67496389D01*
X17000000Y67500000D01*
X19000000Y67500000D01*
X19073513Y67496389D01*
G37*
D18*
X18000000Y60000000D03*
%TD*%
D19*
%TO.C,U1*%
X2100000Y16900000D03*
X6900000Y16900000D03*
X11700000Y16900000D03*
X2100000Y11600000D03*
X6900000Y11600000D03*
X11700000Y11600000D03*
X2100000Y6300000D03*
X6900000Y6300000D03*
X11700000Y6300000D03*
%TD*%
D20*
%TO.C,RV1*%
X34900000Y61500000D03*
X26100000Y61500000D03*
D19*
X33000000Y54500000D03*
X30500000Y54500000D03*
X28000000Y54500000D03*
%TD*%
%TO.C,RV2*%
X1300000Y54500000D03*
X3800000Y54500000D03*
X6300000Y54500000D03*
D20*
X-600000Y61500000D03*
X8200000Y61500000D03*
%TD*%
%TO.C,RV3*%
X8200000Y45800000D03*
X-600000Y45800000D03*
D19*
X6300000Y38800000D03*
X3800000Y38800000D03*
X1300000Y38800000D03*
%TD*%
M02*
