%TF.GenerationSoftware,KiCad,Pcbnew,5.1.5-52549c5~84~ubuntu18.04.1*%
%TF.CreationDate,2019-12-01T12:56:03+01:00*%
%TF.ProjectId,clasicOverdrive,636c6173-6963-44f7-9665-726472697665,A*%
%TF.SameCoordinates,PX6708f40PY898d9f8*%
%TF.FileFunction,Soldermask,Bot*%
%TF.FilePolarity,Negative*%
%FSLAX46Y46*%
G04 Gerber Fmt 4.6, Leading zero omitted, Abs format (unit mm)*
G04 Created by KiCad (PCBNEW 5.1.5-52549c5~84~ubuntu18.04.1) date 2019-12-01 12:56:03*
%MOMM*%
%LPD*%
G04 APERTURE LIST*
%ADD10C,0.100000*%
G04 APERTURE END LIST*
D10*
G36*
X35787559Y2596241D02*
G01*
X35787562Y2596240D01*
X35787561Y2596240D01*
X36278930Y2392709D01*
X36721150Y2097227D01*
X37097227Y1721150D01*
X37392709Y1278930D01*
X37561320Y871866D01*
X37596241Y787559D01*
X37700000Y265928D01*
X37700000Y-265928D01*
X37596241Y-787559D01*
X37596240Y-787561D01*
X37392709Y-1278930D01*
X37097227Y-1721150D01*
X36721150Y-2097227D01*
X36278930Y-2392709D01*
X35871866Y-2561320D01*
X35787559Y-2596241D01*
X35265928Y-2700000D01*
X34734072Y-2700000D01*
X34212441Y-2596241D01*
X34128134Y-2561320D01*
X33721070Y-2392709D01*
X33278850Y-2097227D01*
X32902773Y-1721150D01*
X32607291Y-1278930D01*
X32403760Y-787561D01*
X32403759Y-787559D01*
X32300000Y-265928D01*
X32300000Y265928D01*
X32403759Y787559D01*
X32438680Y871866D01*
X32607291Y1278930D01*
X32902773Y1721150D01*
X33278850Y2097227D01*
X33721070Y2392709D01*
X34212439Y2596240D01*
X34212438Y2596240D01*
X34212441Y2596241D01*
X34734072Y2700000D01*
X35265928Y2700000D01*
X35787559Y2596241D01*
G37*
G36*
X787559Y2596241D02*
G01*
X787562Y2596240D01*
X787561Y2596240D01*
X1278930Y2392709D01*
X1721150Y2097227D01*
X2097227Y1721150D01*
X2392709Y1278930D01*
X2561320Y871866D01*
X2596241Y787559D01*
X2700000Y265928D01*
X2700000Y-265928D01*
X2596241Y-787559D01*
X2596240Y-787561D01*
X2392709Y-1278930D01*
X2097227Y-1721150D01*
X1721150Y-2097227D01*
X1278930Y-2392709D01*
X871866Y-2561320D01*
X787559Y-2596241D01*
X265928Y-2700000D01*
X-265928Y-2700000D01*
X-787559Y-2596241D01*
X-871866Y-2561320D01*
X-1278930Y-2392709D01*
X-1721150Y-2097227D01*
X-2097227Y-1721150D01*
X-2392709Y-1278930D01*
X-2596240Y-787561D01*
X-2596241Y-787559D01*
X-2700000Y-265928D01*
X-2700000Y265928D01*
X-2596241Y787559D01*
X-2561320Y871866D01*
X-2392709Y1278930D01*
X-2097227Y1721150D01*
X-1721150Y2097227D01*
X-1278930Y2392709D01*
X-787561Y2596240D01*
X-787562Y2596240D01*
X-787559Y2596241D01*
X-265928Y2700000D01*
X265928Y2700000D01*
X787559Y2596241D01*
G37*
G36*
X27124354Y6797903D02*
G01*
X27235443Y6775806D01*
X27358039Y6725024D01*
X27444728Y6689117D01*
X27633081Y6563264D01*
X27793264Y6403081D01*
X27919117Y6214728D01*
X27955024Y6128039D01*
X28005806Y6005443D01*
X28050000Y5783265D01*
X28050000Y5556735D01*
X28005806Y5334557D01*
X27955024Y5211961D01*
X27919117Y5125272D01*
X27793264Y4936919D01*
X27633081Y4776736D01*
X27444728Y4650883D01*
X27358039Y4614976D01*
X27235443Y4564194D01*
X27124354Y4542097D01*
X27013267Y4520000D01*
X26786733Y4520000D01*
X26675646Y4542097D01*
X26564557Y4564194D01*
X26441961Y4614976D01*
X26355272Y4650883D01*
X26166919Y4776736D01*
X26006736Y4936919D01*
X25880883Y5125272D01*
X25844976Y5211961D01*
X25794194Y5334557D01*
X25750000Y5556735D01*
X25750000Y5783265D01*
X25794194Y6005443D01*
X25844976Y6128039D01*
X25880883Y6214728D01*
X26006736Y6403081D01*
X26166919Y6563264D01*
X26355272Y6689117D01*
X26441961Y6725024D01*
X26564557Y6775806D01*
X26675646Y6797903D01*
X26786733Y6820000D01*
X27013267Y6820000D01*
X27124354Y6797903D01*
G37*
G36*
X20774354Y6797903D02*
G01*
X20885443Y6775806D01*
X21008039Y6725024D01*
X21094728Y6689117D01*
X21283081Y6563264D01*
X21443264Y6403081D01*
X21569117Y6214728D01*
X21605024Y6128039D01*
X21655806Y6005443D01*
X21700000Y5783265D01*
X21700000Y5556735D01*
X21655806Y5334557D01*
X21605024Y5211961D01*
X21569117Y5125272D01*
X21443264Y4936919D01*
X21283081Y4776736D01*
X21094728Y4650883D01*
X21008039Y4614976D01*
X20885443Y4564194D01*
X20774354Y4542097D01*
X20663267Y4520000D01*
X20436733Y4520000D01*
X20325646Y4542097D01*
X20214557Y4564194D01*
X20091961Y4614976D01*
X20005272Y4650883D01*
X19816919Y4776736D01*
X19656736Y4936919D01*
X19530883Y5125272D01*
X19494976Y5211961D01*
X19444194Y5334557D01*
X19400000Y5556735D01*
X19400000Y5783265D01*
X19444194Y6005443D01*
X19494976Y6128039D01*
X19530883Y6214728D01*
X19656736Y6403081D01*
X19816919Y6563264D01*
X20005272Y6689117D01*
X20091961Y6725024D01*
X20214557Y6775806D01*
X20325646Y6797903D01*
X20436733Y6820000D01*
X20663267Y6820000D01*
X20774354Y6797903D01*
G37*
G36*
X33474354Y6797903D02*
G01*
X33585443Y6775806D01*
X33708039Y6725024D01*
X33794728Y6689117D01*
X33983081Y6563264D01*
X34143264Y6403081D01*
X34269117Y6214728D01*
X34305024Y6128039D01*
X34355806Y6005443D01*
X34400000Y5783265D01*
X34400000Y5556735D01*
X34355806Y5334557D01*
X34305024Y5211961D01*
X34269117Y5125272D01*
X34143264Y4936919D01*
X33983081Y4776736D01*
X33794728Y4650883D01*
X33708039Y4614976D01*
X33585443Y4564194D01*
X33474354Y4542097D01*
X33363267Y4520000D01*
X33136733Y4520000D01*
X33025646Y4542097D01*
X32914557Y4564194D01*
X32791961Y4614976D01*
X32705272Y4650883D01*
X32516919Y4776736D01*
X32356736Y4936919D01*
X32230883Y5125272D01*
X32194976Y5211961D01*
X32144194Y5334557D01*
X32100000Y5556735D01*
X32100000Y5783265D01*
X32144194Y6005443D01*
X32194976Y6128039D01*
X32230883Y6214728D01*
X32356736Y6403081D01*
X32516919Y6563264D01*
X32705272Y6689117D01*
X32791961Y6725024D01*
X32914557Y6775806D01*
X33025646Y6797903D01*
X33136733Y6820000D01*
X33363267Y6820000D01*
X33474354Y6797903D01*
G37*
G36*
X7104561Y7176943D02*
G01*
X7162520Y7165414D01*
X7326310Y7097570D01*
X7473717Y6999076D01*
X7599076Y6873717D01*
X7697570Y6726310D01*
X7765414Y6562520D01*
X7800000Y6388642D01*
X7800000Y6211358D01*
X7765414Y6037480D01*
X7697570Y5873690D01*
X7599076Y5726283D01*
X7473717Y5600924D01*
X7326310Y5502430D01*
X7162520Y5434586D01*
X7104561Y5423057D01*
X6988644Y5400000D01*
X6811356Y5400000D01*
X6695439Y5423057D01*
X6637480Y5434586D01*
X6473690Y5502430D01*
X6326283Y5600924D01*
X6200924Y5726283D01*
X6102430Y5873690D01*
X6034586Y6037480D01*
X6000000Y6211358D01*
X6000000Y6388642D01*
X6034586Y6562520D01*
X6102430Y6726310D01*
X6200924Y6873717D01*
X6326283Y6999076D01*
X6473690Y7097570D01*
X6637480Y7165414D01*
X6695439Y7176943D01*
X6811356Y7200000D01*
X6988644Y7200000D01*
X7104561Y7176943D01*
G37*
G36*
X2304561Y7176943D02*
G01*
X2362520Y7165414D01*
X2526310Y7097570D01*
X2673717Y6999076D01*
X2799076Y6873717D01*
X2897570Y6726310D01*
X2965414Y6562520D01*
X3000000Y6388642D01*
X3000000Y6211358D01*
X2965414Y6037480D01*
X2897570Y5873690D01*
X2799076Y5726283D01*
X2673717Y5600924D01*
X2526310Y5502430D01*
X2362520Y5434586D01*
X2304561Y5423057D01*
X2188644Y5400000D01*
X2011356Y5400000D01*
X1895439Y5423057D01*
X1837480Y5434586D01*
X1673690Y5502430D01*
X1526283Y5600924D01*
X1400924Y5726283D01*
X1302430Y5873690D01*
X1234586Y6037480D01*
X1200000Y6211358D01*
X1200000Y6388642D01*
X1234586Y6562520D01*
X1302430Y6726310D01*
X1400924Y6873717D01*
X1526283Y6999076D01*
X1673690Y7097570D01*
X1837480Y7165414D01*
X1895439Y7176943D01*
X2011356Y7200000D01*
X2188644Y7200000D01*
X2304561Y7176943D01*
G37*
G36*
X11904561Y7176943D02*
G01*
X11962520Y7165414D01*
X12126310Y7097570D01*
X12273717Y6999076D01*
X12399076Y6873717D01*
X12497570Y6726310D01*
X12565414Y6562520D01*
X12600000Y6388642D01*
X12600000Y6211358D01*
X12565414Y6037480D01*
X12497570Y5873690D01*
X12399076Y5726283D01*
X12273717Y5600924D01*
X12126310Y5502430D01*
X11962520Y5434586D01*
X11904561Y5423057D01*
X11788644Y5400000D01*
X11611356Y5400000D01*
X11495439Y5423057D01*
X11437480Y5434586D01*
X11273690Y5502430D01*
X11126283Y5600924D01*
X11000924Y5726283D01*
X10902430Y5873690D01*
X10834586Y6037480D01*
X10800000Y6211358D01*
X10800000Y6388642D01*
X10834586Y6562520D01*
X10902430Y6726310D01*
X11000924Y6873717D01*
X11126283Y6999076D01*
X11273690Y7097570D01*
X11437480Y7165414D01*
X11495439Y7176943D01*
X11611356Y7200000D01*
X11788644Y7200000D01*
X11904561Y7176943D01*
G37*
G36*
X2304561Y12476943D02*
G01*
X2362520Y12465414D01*
X2526310Y12397570D01*
X2673717Y12299076D01*
X2799076Y12173717D01*
X2897570Y12026310D01*
X2965414Y11862520D01*
X3000000Y11688642D01*
X3000000Y11511358D01*
X2965414Y11337480D01*
X2897570Y11173690D01*
X2799076Y11026283D01*
X2673717Y10900924D01*
X2526310Y10802430D01*
X2362520Y10734586D01*
X2304561Y10723057D01*
X2188644Y10700000D01*
X2011356Y10700000D01*
X1895439Y10723057D01*
X1837480Y10734586D01*
X1673690Y10802430D01*
X1526283Y10900924D01*
X1400924Y11026283D01*
X1302430Y11173690D01*
X1234586Y11337480D01*
X1200000Y11511358D01*
X1200000Y11688642D01*
X1234586Y11862520D01*
X1302430Y12026310D01*
X1400924Y12173717D01*
X1526283Y12299076D01*
X1673690Y12397570D01*
X1837480Y12465414D01*
X1895439Y12476943D01*
X2011356Y12500000D01*
X2188644Y12500000D01*
X2304561Y12476943D01*
G37*
G36*
X11904561Y12476943D02*
G01*
X11962520Y12465414D01*
X12126310Y12397570D01*
X12273717Y12299076D01*
X12399076Y12173717D01*
X12497570Y12026310D01*
X12565414Y11862520D01*
X12600000Y11688642D01*
X12600000Y11511358D01*
X12565414Y11337480D01*
X12497570Y11173690D01*
X12399076Y11026283D01*
X12273717Y10900924D01*
X12126310Y10802430D01*
X11962520Y10734586D01*
X11904561Y10723057D01*
X11788644Y10700000D01*
X11611356Y10700000D01*
X11495439Y10723057D01*
X11437480Y10734586D01*
X11273690Y10802430D01*
X11126283Y10900924D01*
X11000924Y11026283D01*
X10902430Y11173690D01*
X10834586Y11337480D01*
X10800000Y11511358D01*
X10800000Y11688642D01*
X10834586Y11862520D01*
X10902430Y12026310D01*
X11000924Y12173717D01*
X11126283Y12299076D01*
X11273690Y12397570D01*
X11437480Y12465414D01*
X11495439Y12476943D01*
X11611356Y12500000D01*
X11788644Y12500000D01*
X11904561Y12476943D01*
G37*
G36*
X7104561Y12476943D02*
G01*
X7162520Y12465414D01*
X7326310Y12397570D01*
X7473717Y12299076D01*
X7599076Y12173717D01*
X7697570Y12026310D01*
X7765414Y11862520D01*
X7800000Y11688642D01*
X7800000Y11511358D01*
X7765414Y11337480D01*
X7697570Y11173690D01*
X7599076Y11026283D01*
X7473717Y10900924D01*
X7326310Y10802430D01*
X7162520Y10734586D01*
X7104561Y10723057D01*
X6988644Y10700000D01*
X6811356Y10700000D01*
X6695439Y10723057D01*
X6637480Y10734586D01*
X6473690Y10802430D01*
X6326283Y10900924D01*
X6200924Y11026283D01*
X6102430Y11173690D01*
X6034586Y11337480D01*
X6000000Y11511358D01*
X6000000Y11688642D01*
X6034586Y11862520D01*
X6102430Y12026310D01*
X6200924Y12173717D01*
X6326283Y12299076D01*
X6473690Y12397570D01*
X6637480Y12465414D01*
X6695439Y12476943D01*
X6811356Y12500000D01*
X6988644Y12500000D01*
X7104561Y12476943D01*
G37*
G36*
X33474354Y18227903D02*
G01*
X33585443Y18205806D01*
X33708039Y18155024D01*
X33794728Y18119117D01*
X33983081Y17993264D01*
X34143264Y17833081D01*
X34269117Y17644728D01*
X34305024Y17558039D01*
X34355806Y17435443D01*
X34400000Y17213265D01*
X34400000Y16986735D01*
X34355806Y16764557D01*
X34305024Y16641961D01*
X34269117Y16555272D01*
X34143264Y16366919D01*
X33983081Y16206736D01*
X33794728Y16080883D01*
X33708039Y16044976D01*
X33585443Y15994194D01*
X33474354Y15972097D01*
X33363267Y15950000D01*
X33136733Y15950000D01*
X33025646Y15972097D01*
X32914557Y15994194D01*
X32791961Y16044976D01*
X32705272Y16080883D01*
X32516919Y16206736D01*
X32356736Y16366919D01*
X32230883Y16555272D01*
X32194976Y16641961D01*
X32144194Y16764557D01*
X32100000Y16986735D01*
X32100000Y17213265D01*
X32144194Y17435443D01*
X32194976Y17558039D01*
X32230883Y17644728D01*
X32356736Y17833081D01*
X32516919Y17993264D01*
X32705272Y18119117D01*
X32791961Y18155024D01*
X32914557Y18205806D01*
X33025646Y18227903D01*
X33136733Y18250000D01*
X33363267Y18250000D01*
X33474354Y18227903D01*
G37*
G36*
X27124354Y18227903D02*
G01*
X27235443Y18205806D01*
X27358039Y18155024D01*
X27444728Y18119117D01*
X27633081Y17993264D01*
X27793264Y17833081D01*
X27919117Y17644728D01*
X27955024Y17558039D01*
X28005806Y17435443D01*
X28050000Y17213265D01*
X28050000Y16986735D01*
X28005806Y16764557D01*
X27955024Y16641961D01*
X27919117Y16555272D01*
X27793264Y16366919D01*
X27633081Y16206736D01*
X27444728Y16080883D01*
X27358039Y16044976D01*
X27235443Y15994194D01*
X27124354Y15972097D01*
X27013267Y15950000D01*
X26786733Y15950000D01*
X26675646Y15972097D01*
X26564557Y15994194D01*
X26441961Y16044976D01*
X26355272Y16080883D01*
X26166919Y16206736D01*
X26006736Y16366919D01*
X25880883Y16555272D01*
X25844976Y16641961D01*
X25794194Y16764557D01*
X25750000Y16986735D01*
X25750000Y17213265D01*
X25794194Y17435443D01*
X25844976Y17558039D01*
X25880883Y17644728D01*
X26006736Y17833081D01*
X26166919Y17993264D01*
X26355272Y18119117D01*
X26441961Y18155024D01*
X26564557Y18205806D01*
X26675646Y18227903D01*
X26786733Y18250000D01*
X27013267Y18250000D01*
X27124354Y18227903D01*
G37*
G36*
X20774354Y18227903D02*
G01*
X20885443Y18205806D01*
X21008039Y18155024D01*
X21094728Y18119117D01*
X21283081Y17993264D01*
X21443264Y17833081D01*
X21569117Y17644728D01*
X21605024Y17558039D01*
X21655806Y17435443D01*
X21700000Y17213265D01*
X21700000Y16986735D01*
X21655806Y16764557D01*
X21605024Y16641961D01*
X21569117Y16555272D01*
X21443264Y16366919D01*
X21283081Y16206736D01*
X21094728Y16080883D01*
X21008039Y16044976D01*
X20885443Y15994194D01*
X20774354Y15972097D01*
X20663267Y15950000D01*
X20436733Y15950000D01*
X20325646Y15972097D01*
X20214557Y15994194D01*
X20091961Y16044976D01*
X20005272Y16080883D01*
X19816919Y16206736D01*
X19656736Y16366919D01*
X19530883Y16555272D01*
X19494976Y16641961D01*
X19444194Y16764557D01*
X19400000Y16986735D01*
X19400000Y17213265D01*
X19444194Y17435443D01*
X19494976Y17558039D01*
X19530883Y17644728D01*
X19656736Y17833081D01*
X19816919Y17993264D01*
X20005272Y18119117D01*
X20091961Y18155024D01*
X20214557Y18205806D01*
X20325646Y18227903D01*
X20436733Y18250000D01*
X20663267Y18250000D01*
X20774354Y18227903D01*
G37*
G36*
X2304561Y17776943D02*
G01*
X2362520Y17765414D01*
X2526310Y17697570D01*
X2673717Y17599076D01*
X2799076Y17473717D01*
X2897570Y17326310D01*
X2965414Y17162520D01*
X3000000Y16988642D01*
X3000000Y16811358D01*
X2965414Y16637480D01*
X2897570Y16473690D01*
X2799076Y16326283D01*
X2673717Y16200924D01*
X2526310Y16102430D01*
X2362520Y16034586D01*
X2304561Y16023057D01*
X2188644Y16000000D01*
X2011356Y16000000D01*
X1895439Y16023057D01*
X1837480Y16034586D01*
X1673690Y16102430D01*
X1526283Y16200924D01*
X1400924Y16326283D01*
X1302430Y16473690D01*
X1234586Y16637480D01*
X1200000Y16811358D01*
X1200000Y16988642D01*
X1234586Y17162520D01*
X1302430Y17326310D01*
X1400924Y17473717D01*
X1526283Y17599076D01*
X1673690Y17697570D01*
X1837480Y17765414D01*
X1895439Y17776943D01*
X2011356Y17800000D01*
X2188644Y17800000D01*
X2304561Y17776943D01*
G37*
G36*
X7104561Y17776943D02*
G01*
X7162520Y17765414D01*
X7326310Y17697570D01*
X7473717Y17599076D01*
X7599076Y17473717D01*
X7697570Y17326310D01*
X7765414Y17162520D01*
X7800000Y16988642D01*
X7800000Y16811358D01*
X7765414Y16637480D01*
X7697570Y16473690D01*
X7599076Y16326283D01*
X7473717Y16200924D01*
X7326310Y16102430D01*
X7162520Y16034586D01*
X7104561Y16023057D01*
X6988644Y16000000D01*
X6811356Y16000000D01*
X6695439Y16023057D01*
X6637480Y16034586D01*
X6473690Y16102430D01*
X6326283Y16200924D01*
X6200924Y16326283D01*
X6102430Y16473690D01*
X6034586Y16637480D01*
X6000000Y16811358D01*
X6000000Y16988642D01*
X6034586Y17162520D01*
X6102430Y17326310D01*
X6200924Y17473717D01*
X6326283Y17599076D01*
X6473690Y17697570D01*
X6637480Y17765414D01*
X6695439Y17776943D01*
X6811356Y17800000D01*
X6988644Y17800000D01*
X7104561Y17776943D01*
G37*
G36*
X11904561Y17776943D02*
G01*
X11962520Y17765414D01*
X12126310Y17697570D01*
X12273717Y17599076D01*
X12399076Y17473717D01*
X12497570Y17326310D01*
X12565414Y17162520D01*
X12600000Y16988642D01*
X12600000Y16811358D01*
X12565414Y16637480D01*
X12497570Y16473690D01*
X12399076Y16326283D01*
X12273717Y16200924D01*
X12126310Y16102430D01*
X11962520Y16034586D01*
X11904561Y16023057D01*
X11788644Y16000000D01*
X11611356Y16000000D01*
X11495439Y16023057D01*
X11437480Y16034586D01*
X11273690Y16102430D01*
X11126283Y16200924D01*
X11000924Y16326283D01*
X10902430Y16473690D01*
X10834586Y16637480D01*
X10800000Y16811358D01*
X10800000Y16988642D01*
X10834586Y17162520D01*
X10902430Y17326310D01*
X11000924Y17473717D01*
X11126283Y17599076D01*
X11273690Y17697570D01*
X11437480Y17765414D01*
X11495439Y17776943D01*
X11611356Y17800000D01*
X11788644Y17800000D01*
X11904561Y17776943D01*
G37*
G36*
X1974354Y23427903D02*
G01*
X2085443Y23405806D01*
X2208039Y23355024D01*
X2294728Y23319117D01*
X2483081Y23193264D01*
X2643264Y23033081D01*
X2769117Y22844728D01*
X2802576Y22763950D01*
X2855806Y22635443D01*
X2900000Y22413265D01*
X2900000Y22186735D01*
X2855806Y21964557D01*
X2805024Y21841961D01*
X2769117Y21755272D01*
X2643264Y21566919D01*
X2483081Y21406736D01*
X2294728Y21280883D01*
X2208039Y21244976D01*
X2085443Y21194194D01*
X1974354Y21172097D01*
X1863267Y21150000D01*
X1636733Y21150000D01*
X1525646Y21172097D01*
X1414557Y21194194D01*
X1291961Y21244976D01*
X1205272Y21280883D01*
X1016919Y21406736D01*
X856736Y21566919D01*
X730883Y21755272D01*
X694976Y21841961D01*
X644194Y21964557D01*
X600000Y22186735D01*
X600000Y22413265D01*
X644194Y22635443D01*
X697424Y22763950D01*
X730883Y22844728D01*
X856736Y23033081D01*
X1016919Y23193264D01*
X1205272Y23319117D01*
X1291961Y23355024D01*
X1414557Y23405806D01*
X1525646Y23427903D01*
X1636733Y23450000D01*
X1863267Y23450000D01*
X1974354Y23427903D01*
G37*
G36*
X14674354Y23427903D02*
G01*
X14785443Y23405806D01*
X14908039Y23355024D01*
X14994728Y23319117D01*
X15183081Y23193264D01*
X15343264Y23033081D01*
X15469117Y22844728D01*
X15502576Y22763950D01*
X15555806Y22635443D01*
X15600000Y22413265D01*
X15600000Y22186735D01*
X15555806Y21964557D01*
X15505024Y21841961D01*
X15469117Y21755272D01*
X15343264Y21566919D01*
X15183081Y21406736D01*
X14994728Y21280883D01*
X14908039Y21244976D01*
X14785443Y21194194D01*
X14674354Y21172097D01*
X14563267Y21150000D01*
X14336733Y21150000D01*
X14225646Y21172097D01*
X14114557Y21194194D01*
X13991961Y21244976D01*
X13905272Y21280883D01*
X13716919Y21406736D01*
X13556736Y21566919D01*
X13430883Y21755272D01*
X13394976Y21841961D01*
X13344194Y21964557D01*
X13300000Y22186735D01*
X13300000Y22413265D01*
X13344194Y22635443D01*
X13397424Y22763950D01*
X13430883Y22844728D01*
X13556736Y23033081D01*
X13716919Y23193264D01*
X13905272Y23319117D01*
X13991961Y23355024D01*
X14114557Y23405806D01*
X14225646Y23427903D01*
X14336733Y23450000D01*
X14563267Y23450000D01*
X14674354Y23427903D01*
G37*
G36*
X8324354Y23427903D02*
G01*
X8435443Y23405806D01*
X8558039Y23355024D01*
X8644728Y23319117D01*
X8833081Y23193264D01*
X8993264Y23033081D01*
X9119117Y22844728D01*
X9152576Y22763950D01*
X9205806Y22635443D01*
X9250000Y22413265D01*
X9250000Y22186735D01*
X9205806Y21964557D01*
X9155024Y21841961D01*
X9119117Y21755272D01*
X8993264Y21566919D01*
X8833081Y21406736D01*
X8644728Y21280883D01*
X8558039Y21244976D01*
X8435443Y21194194D01*
X8324354Y21172097D01*
X8213267Y21150000D01*
X7986733Y21150000D01*
X7875646Y21172097D01*
X7764557Y21194194D01*
X7641961Y21244976D01*
X7555272Y21280883D01*
X7366919Y21406736D01*
X7206736Y21566919D01*
X7080883Y21755272D01*
X7044976Y21841961D01*
X6994194Y21964557D01*
X6950000Y22186735D01*
X6950000Y22413265D01*
X6994194Y22635443D01*
X7047424Y22763950D01*
X7080883Y22844728D01*
X7206736Y23033081D01*
X7366919Y23193264D01*
X7555272Y23319117D01*
X7641961Y23355024D01*
X7764557Y23405806D01*
X7875646Y23427903D01*
X7986733Y23450000D01*
X8213267Y23450000D01*
X8324354Y23427903D01*
G37*
G36*
X26175012Y22536943D02*
G01*
X26175015Y22536942D01*
X26175014Y22536942D01*
X26284207Y22491713D01*
X26382478Y22426050D01*
X26466050Y22342478D01*
X26466051Y22342476D01*
X26531714Y22244205D01*
X26576943Y22135012D01*
X26600000Y22019096D01*
X26600000Y21900904D01*
X26576943Y21784988D01*
X26576942Y21784986D01*
X26531713Y21675793D01*
X26466050Y21577522D01*
X26382478Y21493950D01*
X26284207Y21428287D01*
X26284206Y21428286D01*
X26284205Y21428286D01*
X26175012Y21383057D01*
X26059096Y21360000D01*
X25940904Y21360000D01*
X25824988Y21383057D01*
X25715795Y21428286D01*
X25715794Y21428286D01*
X25715793Y21428287D01*
X25617522Y21493950D01*
X25533950Y21577522D01*
X25468287Y21675793D01*
X25423058Y21784986D01*
X25423057Y21784988D01*
X25400000Y21900904D01*
X25400000Y22019096D01*
X25423057Y22135012D01*
X25468286Y22244205D01*
X25533949Y22342476D01*
X25533950Y22342478D01*
X25617522Y22426050D01*
X25715793Y22491713D01*
X25824986Y22536942D01*
X25824985Y22536942D01*
X25824988Y22536943D01*
X25940904Y22560000D01*
X26059096Y22560000D01*
X26175012Y22536943D01*
G37*
G36*
X24905012Y23806943D02*
G01*
X24924905Y23798703D01*
X25014207Y23761713D01*
X25112478Y23696050D01*
X25196050Y23612478D01*
X25196051Y23612476D01*
X25261714Y23514205D01*
X25306943Y23405012D01*
X25330000Y23289096D01*
X25330000Y23170904D01*
X25306943Y23054988D01*
X25306942Y23054986D01*
X25261713Y22945793D01*
X25196050Y22847522D01*
X25112478Y22763950D01*
X25014207Y22698287D01*
X25014206Y22698286D01*
X25014205Y22698286D01*
X24905012Y22653057D01*
X24789096Y22630000D01*
X24670904Y22630000D01*
X24554988Y22653057D01*
X24445795Y22698286D01*
X24445794Y22698286D01*
X24445793Y22698287D01*
X24347522Y22763950D01*
X24263950Y22847522D01*
X24198287Y22945793D01*
X24153058Y23054986D01*
X24153057Y23054988D01*
X24130000Y23170904D01*
X24130000Y23289096D01*
X24153057Y23405012D01*
X24198286Y23514205D01*
X24263949Y23612476D01*
X24263950Y23612478D01*
X24347522Y23696050D01*
X24445793Y23761713D01*
X24535095Y23798703D01*
X24554988Y23806943D01*
X24670904Y23830000D01*
X24789096Y23830000D01*
X24905012Y23806943D01*
G37*
G36*
X26117620Y25291319D02*
G01*
X26174171Y25274164D01*
X26230721Y25257010D01*
X26334955Y25201296D01*
X26426317Y25126317D01*
X26501296Y25034955D01*
X26557010Y24930721D01*
X26571097Y24884282D01*
X26591319Y24817620D01*
X26600000Y24729477D01*
X26600000Y24270522D01*
X26591319Y24182380D01*
X26574164Y24125829D01*
X26557010Y24069279D01*
X26501296Y23965045D01*
X26457713Y23911939D01*
X26426315Y23873680D01*
X26373089Y23830000D01*
X26334954Y23798704D01*
X26230720Y23742990D01*
X26174170Y23725836D01*
X26117619Y23708681D01*
X26000000Y23697097D01*
X25882380Y23708681D01*
X25825829Y23725836D01*
X25769279Y23742990D01*
X25665045Y23798704D01*
X25611939Y23842287D01*
X25573680Y23873685D01*
X25498705Y23965045D01*
X25498704Y23965046D01*
X25442990Y24069280D01*
X25408682Y24182379D01*
X25408681Y24182381D01*
X25400000Y24270523D01*
X25400000Y24729478D01*
X25408681Y24817620D01*
X25425836Y24874171D01*
X25442990Y24930721D01*
X25461562Y24965466D01*
X25498703Y25034953D01*
X25573684Y25126317D01*
X25665046Y25201296D01*
X25769280Y25257010D01*
X25825830Y25274164D01*
X25882381Y25291319D01*
X26000000Y25302903D01*
X26117620Y25291319D01*
G37*
G36*
X8324354Y34857903D02*
G01*
X8435443Y34835806D01*
X8558039Y34785024D01*
X8644728Y34749117D01*
X8833081Y34623264D01*
X8993264Y34463081D01*
X9119117Y34274728D01*
X9155024Y34188039D01*
X9205806Y34065443D01*
X9250000Y33843265D01*
X9250000Y33616735D01*
X9205806Y33394557D01*
X9155024Y33271961D01*
X9119117Y33185272D01*
X8993264Y32996919D01*
X8833081Y32836736D01*
X8644728Y32710883D01*
X8558039Y32674976D01*
X8435443Y32624194D01*
X8324354Y32602097D01*
X8213267Y32580000D01*
X7986733Y32580000D01*
X7875646Y32602097D01*
X7764557Y32624194D01*
X7641961Y32674976D01*
X7555272Y32710883D01*
X7366919Y32836736D01*
X7206736Y32996919D01*
X7080883Y33185272D01*
X7044976Y33271961D01*
X6994194Y33394557D01*
X6950000Y33616735D01*
X6950000Y33843265D01*
X6994194Y34065443D01*
X7044976Y34188039D01*
X7080883Y34274728D01*
X7206736Y34463081D01*
X7366919Y34623264D01*
X7555272Y34749117D01*
X7641961Y34785024D01*
X7764557Y34835806D01*
X7875646Y34857903D01*
X7986733Y34880000D01*
X8213267Y34880000D01*
X8324354Y34857903D01*
G37*
G36*
X14674354Y34857903D02*
G01*
X14785443Y34835806D01*
X14908039Y34785024D01*
X14994728Y34749117D01*
X15183081Y34623264D01*
X15343264Y34463081D01*
X15469117Y34274728D01*
X15505024Y34188039D01*
X15555806Y34065443D01*
X15600000Y33843265D01*
X15600000Y33616735D01*
X15555806Y33394557D01*
X15505024Y33271961D01*
X15469117Y33185272D01*
X15343264Y32996919D01*
X15183081Y32836736D01*
X14994728Y32710883D01*
X14908039Y32674976D01*
X14785443Y32624194D01*
X14674354Y32602097D01*
X14563267Y32580000D01*
X14336733Y32580000D01*
X14225646Y32602097D01*
X14114557Y32624194D01*
X13991961Y32674976D01*
X13905272Y32710883D01*
X13716919Y32836736D01*
X13556736Y32996919D01*
X13430883Y33185272D01*
X13394976Y33271961D01*
X13344194Y33394557D01*
X13300000Y33616735D01*
X13300000Y33843265D01*
X13344194Y34065443D01*
X13394976Y34188039D01*
X13430883Y34274728D01*
X13556736Y34463081D01*
X13716919Y34623264D01*
X13905272Y34749117D01*
X13991961Y34785024D01*
X14114557Y34835806D01*
X14225646Y34857903D01*
X14336733Y34880000D01*
X14563267Y34880000D01*
X14674354Y34857903D01*
G37*
G36*
X1974354Y34857903D02*
G01*
X2085443Y34835806D01*
X2208039Y34785024D01*
X2294728Y34749117D01*
X2483081Y34623264D01*
X2643264Y34463081D01*
X2769117Y34274728D01*
X2805024Y34188039D01*
X2855806Y34065443D01*
X2900000Y33843265D01*
X2900000Y33616735D01*
X2855806Y33394557D01*
X2805024Y33271961D01*
X2769117Y33185272D01*
X2643264Y32996919D01*
X2483081Y32836736D01*
X2294728Y32710883D01*
X2208039Y32674976D01*
X2085443Y32624194D01*
X1974354Y32602097D01*
X1863267Y32580000D01*
X1636733Y32580000D01*
X1525646Y32602097D01*
X1414557Y32624194D01*
X1291961Y32674976D01*
X1205272Y32710883D01*
X1016919Y32836736D01*
X856736Y32996919D01*
X730883Y33185272D01*
X694976Y33271961D01*
X644194Y33394557D01*
X600000Y33616735D01*
X600000Y33843265D01*
X644194Y34065443D01*
X694976Y34188039D01*
X730883Y34274728D01*
X856736Y34463081D01*
X1016919Y34623264D01*
X1205272Y34749117D01*
X1291961Y34785024D01*
X1414557Y34835806D01*
X1525646Y34857903D01*
X1636733Y34880000D01*
X1863267Y34880000D01*
X1974354Y34857903D01*
G37*
G36*
X4004561Y39676943D02*
G01*
X4062520Y39665414D01*
X4226310Y39597570D01*
X4373717Y39499076D01*
X4499076Y39373717D01*
X4597570Y39226310D01*
X4665414Y39062520D01*
X4700000Y38888642D01*
X4700000Y38711358D01*
X4665414Y38537480D01*
X4597570Y38373690D01*
X4499076Y38226283D01*
X4373717Y38100924D01*
X4226310Y38002430D01*
X4062520Y37934586D01*
X4004561Y37923057D01*
X3888644Y37900000D01*
X3711356Y37900000D01*
X3595439Y37923057D01*
X3537480Y37934586D01*
X3373690Y38002430D01*
X3226283Y38100924D01*
X3100924Y38226283D01*
X3002430Y38373690D01*
X2934586Y38537480D01*
X2900000Y38711358D01*
X2900000Y38888642D01*
X2934586Y39062520D01*
X3002430Y39226310D01*
X3100924Y39373717D01*
X3226283Y39499076D01*
X3373690Y39597570D01*
X3537480Y39665414D01*
X3595439Y39676943D01*
X3711356Y39700000D01*
X3888644Y39700000D01*
X4004561Y39676943D01*
G37*
G36*
X6504561Y39676943D02*
G01*
X6562520Y39665414D01*
X6726310Y39597570D01*
X6873717Y39499076D01*
X6999076Y39373717D01*
X7097570Y39226310D01*
X7165414Y39062520D01*
X7200000Y38888642D01*
X7200000Y38711358D01*
X7165414Y38537480D01*
X7097570Y38373690D01*
X6999076Y38226283D01*
X6873717Y38100924D01*
X6726310Y38002430D01*
X6562520Y37934586D01*
X6504561Y37923057D01*
X6388644Y37900000D01*
X6211356Y37900000D01*
X6095439Y37923057D01*
X6037480Y37934586D01*
X5873690Y38002430D01*
X5726283Y38100924D01*
X5600924Y38226283D01*
X5502430Y38373690D01*
X5434586Y38537480D01*
X5400000Y38711358D01*
X5400000Y38888642D01*
X5434586Y39062520D01*
X5502430Y39226310D01*
X5600924Y39373717D01*
X5726283Y39499076D01*
X5873690Y39597570D01*
X6037480Y39665414D01*
X6095439Y39676943D01*
X6211356Y39700000D01*
X6388644Y39700000D01*
X6504561Y39676943D01*
G37*
G36*
X1504561Y39676943D02*
G01*
X1562520Y39665414D01*
X1726310Y39597570D01*
X1873717Y39499076D01*
X1999076Y39373717D01*
X2097570Y39226310D01*
X2165414Y39062520D01*
X2200000Y38888642D01*
X2200000Y38711358D01*
X2165414Y38537480D01*
X2097570Y38373690D01*
X1999076Y38226283D01*
X1873717Y38100924D01*
X1726310Y38002430D01*
X1562520Y37934586D01*
X1504561Y37923057D01*
X1388644Y37900000D01*
X1211356Y37900000D01*
X1095439Y37923057D01*
X1037480Y37934586D01*
X873690Y38002430D01*
X726283Y38100924D01*
X600924Y38226283D01*
X502430Y38373690D01*
X434586Y38537480D01*
X400000Y38711358D01*
X400000Y38888642D01*
X434586Y39062520D01*
X502430Y39226310D01*
X600924Y39373717D01*
X726283Y39499076D01*
X873690Y39597570D01*
X1037480Y39665414D01*
X1095439Y39676943D01*
X1211356Y39700000D01*
X1388644Y39700000D01*
X1504561Y39676943D01*
G37*
G36*
X17675012Y41536943D02*
G01*
X17675015Y41536942D01*
X17675014Y41536942D01*
X17784207Y41491713D01*
X17882478Y41426050D01*
X17966050Y41342478D01*
X17966051Y41342476D01*
X18031714Y41244205D01*
X18076943Y41135012D01*
X18100000Y41019096D01*
X18100000Y40900904D01*
X18076943Y40784988D01*
X18076942Y40784986D01*
X18031713Y40675793D01*
X17966050Y40577522D01*
X17882478Y40493950D01*
X17784207Y40428287D01*
X17784206Y40428286D01*
X17784205Y40428286D01*
X17675012Y40383057D01*
X17559096Y40360000D01*
X17440904Y40360000D01*
X17324988Y40383057D01*
X17215795Y40428286D01*
X17215794Y40428286D01*
X17215793Y40428287D01*
X17117522Y40493950D01*
X17033950Y40577522D01*
X16968287Y40675793D01*
X16923058Y40784986D01*
X16923057Y40784988D01*
X16900000Y40900904D01*
X16900000Y41019096D01*
X16923057Y41135012D01*
X16968286Y41244205D01*
X17033949Y41342476D01*
X17033950Y41342478D01*
X17117522Y41426050D01*
X17215793Y41491713D01*
X17324986Y41536942D01*
X17324985Y41536942D01*
X17324988Y41536943D01*
X17440904Y41560000D01*
X17559096Y41560000D01*
X17675012Y41536943D01*
G37*
G36*
X16405012Y42806943D02*
G01*
X16424905Y42798703D01*
X16514207Y42761713D01*
X16612478Y42696050D01*
X16696050Y42612478D01*
X16696051Y42612476D01*
X16761714Y42514205D01*
X16806943Y42405012D01*
X16830000Y42289096D01*
X16830000Y42170904D01*
X16806943Y42054988D01*
X16806942Y42054986D01*
X16761713Y41945793D01*
X16696050Y41847522D01*
X16612478Y41763950D01*
X16514207Y41698287D01*
X16514206Y41698286D01*
X16514205Y41698286D01*
X16405012Y41653057D01*
X16289096Y41630000D01*
X16170904Y41630000D01*
X16054988Y41653057D01*
X15945795Y41698286D01*
X15945794Y41698286D01*
X15945793Y41698287D01*
X15847522Y41763950D01*
X15763950Y41847522D01*
X15698287Y41945793D01*
X15653058Y42054986D01*
X15653057Y42054988D01*
X15630000Y42170904D01*
X15630000Y42289096D01*
X15653057Y42405012D01*
X15698286Y42514205D01*
X15763949Y42612476D01*
X15763950Y42612478D01*
X15847522Y42696050D01*
X15945793Y42761713D01*
X16035095Y42798703D01*
X16054988Y42806943D01*
X16170904Y42830000D01*
X16289096Y42830000D01*
X16405012Y42806943D01*
G37*
G36*
X17617620Y44291319D02*
G01*
X17674171Y44274164D01*
X17730721Y44257010D01*
X17834955Y44201296D01*
X17926317Y44126317D01*
X18001296Y44034955D01*
X18057010Y43930721D01*
X18071097Y43884282D01*
X18091319Y43817620D01*
X18100000Y43729477D01*
X18100000Y43270522D01*
X18091319Y43182380D01*
X18074164Y43125829D01*
X18057010Y43069279D01*
X18001296Y42965045D01*
X17957713Y42911939D01*
X17926315Y42873680D01*
X17873089Y42830000D01*
X17834954Y42798704D01*
X17730720Y42742990D01*
X17674170Y42725836D01*
X17617619Y42708681D01*
X17500000Y42697097D01*
X17382380Y42708681D01*
X17325829Y42725836D01*
X17269279Y42742990D01*
X17165045Y42798704D01*
X17111939Y42842287D01*
X17073680Y42873685D01*
X16998705Y42965045D01*
X16998704Y42965046D01*
X16942990Y43069280D01*
X16908682Y43182379D01*
X16908681Y43182381D01*
X16900000Y43270523D01*
X16900000Y43729478D01*
X16908681Y43817620D01*
X16926651Y43876859D01*
X16942990Y43930721D01*
X16961562Y43965466D01*
X16998703Y44034953D01*
X17073684Y44126317D01*
X17165046Y44201296D01*
X17269280Y44257010D01*
X17325830Y44274164D01*
X17382381Y44291319D01*
X17500000Y44302903D01*
X17617620Y44291319D01*
G37*
G36*
X-16623Y47723142D02*
G01*
X196590Y47634826D01*
X347355Y47572377D01*
X674926Y47353501D01*
X953501Y47074926D01*
X1172377Y46747355D01*
X1172377Y46747354D01*
X1323142Y46383377D01*
X1400000Y45996984D01*
X1400000Y45603016D01*
X1323142Y45216623D01*
X1234826Y45003410D01*
X1172377Y44852645D01*
X953501Y44525074D01*
X674926Y44246499D01*
X347355Y44027623D01*
X196590Y43965174D01*
X-16623Y43876858D01*
X-403016Y43800000D01*
X-796984Y43800000D01*
X-1183377Y43876858D01*
X-1396590Y43965174D01*
X-1547355Y44027623D01*
X-1874926Y44246499D01*
X-2153501Y44525074D01*
X-2372377Y44852645D01*
X-2434826Y45003410D01*
X-2523142Y45216623D01*
X-2600000Y45603016D01*
X-2600000Y45996984D01*
X-2523142Y46383377D01*
X-2372377Y46747354D01*
X-2372377Y46747355D01*
X-2153501Y47074926D01*
X-1874926Y47353501D01*
X-1547355Y47572377D01*
X-1396590Y47634826D01*
X-1183377Y47723142D01*
X-796984Y47800000D01*
X-403016Y47800000D01*
X-16623Y47723142D01*
G37*
G36*
X8783377Y47723142D02*
G01*
X8996590Y47634826D01*
X9147355Y47572377D01*
X9474926Y47353501D01*
X9753501Y47074926D01*
X9972377Y46747355D01*
X9972377Y46747354D01*
X10123142Y46383377D01*
X10200000Y45996984D01*
X10200000Y45603016D01*
X10123142Y45216623D01*
X10034826Y45003410D01*
X9972377Y44852645D01*
X9753501Y44525074D01*
X9474926Y44246499D01*
X9147355Y44027623D01*
X8996590Y43965174D01*
X8783377Y43876858D01*
X8396984Y43800000D01*
X8003016Y43800000D01*
X7616623Y43876858D01*
X7403410Y43965174D01*
X7252645Y44027623D01*
X6925074Y44246499D01*
X6646499Y44525074D01*
X6427623Y44852645D01*
X6365174Y45003410D01*
X6276858Y45216623D01*
X6200000Y45603016D01*
X6200000Y45996984D01*
X6276858Y46383377D01*
X6427623Y46747354D01*
X6427623Y46747355D01*
X6646499Y47074926D01*
X6925074Y47353501D01*
X7252645Y47572377D01*
X7403410Y47634826D01*
X7616623Y47723142D01*
X8003016Y47800000D01*
X8396984Y47800000D01*
X8783377Y47723142D01*
G37*
G36*
X6504561Y55376943D02*
G01*
X6562520Y55365414D01*
X6726310Y55297570D01*
X6873717Y55199076D01*
X6999076Y55073717D01*
X7097570Y54926310D01*
X7165414Y54762520D01*
X7200000Y54588642D01*
X7200000Y54411358D01*
X7165414Y54237480D01*
X7097570Y54073690D01*
X6999076Y53926283D01*
X6873717Y53800924D01*
X6726310Y53702430D01*
X6562520Y53634586D01*
X6504561Y53623057D01*
X6388644Y53600000D01*
X6211356Y53600000D01*
X6095439Y53623057D01*
X6037480Y53634586D01*
X5873690Y53702430D01*
X5726283Y53800924D01*
X5600924Y53926283D01*
X5502430Y54073690D01*
X5434586Y54237480D01*
X5400000Y54411358D01*
X5400000Y54588642D01*
X5434586Y54762520D01*
X5502430Y54926310D01*
X5600924Y55073717D01*
X5726283Y55199076D01*
X5873690Y55297570D01*
X6037480Y55365414D01*
X6095439Y55376943D01*
X6211356Y55400000D01*
X6388644Y55400000D01*
X6504561Y55376943D01*
G37*
G36*
X1504561Y55376943D02*
G01*
X1562520Y55365414D01*
X1726310Y55297570D01*
X1873717Y55199076D01*
X1999076Y55073717D01*
X2097570Y54926310D01*
X2165414Y54762520D01*
X2200000Y54588642D01*
X2200000Y54411358D01*
X2165414Y54237480D01*
X2097570Y54073690D01*
X1999076Y53926283D01*
X1873717Y53800924D01*
X1726310Y53702430D01*
X1562520Y53634586D01*
X1504561Y53623057D01*
X1388644Y53600000D01*
X1211356Y53600000D01*
X1095439Y53623057D01*
X1037480Y53634586D01*
X873690Y53702430D01*
X726283Y53800924D01*
X600924Y53926283D01*
X502430Y54073690D01*
X434586Y54237480D01*
X400000Y54411358D01*
X400000Y54588642D01*
X434586Y54762520D01*
X502430Y54926310D01*
X600924Y55073717D01*
X726283Y55199076D01*
X873690Y55297570D01*
X1037480Y55365414D01*
X1095439Y55376943D01*
X1211356Y55400000D01*
X1388644Y55400000D01*
X1504561Y55376943D01*
G37*
G36*
X4004561Y55376943D02*
G01*
X4062520Y55365414D01*
X4226310Y55297570D01*
X4373717Y55199076D01*
X4499076Y55073717D01*
X4597570Y54926310D01*
X4665414Y54762520D01*
X4700000Y54588642D01*
X4700000Y54411358D01*
X4665414Y54237480D01*
X4597570Y54073690D01*
X4499076Y53926283D01*
X4373717Y53800924D01*
X4226310Y53702430D01*
X4062520Y53634586D01*
X4004561Y53623057D01*
X3888644Y53600000D01*
X3711356Y53600000D01*
X3595439Y53623057D01*
X3537480Y53634586D01*
X3373690Y53702430D01*
X3226283Y53800924D01*
X3100924Y53926283D01*
X3002430Y54073690D01*
X2934586Y54237480D01*
X2900000Y54411358D01*
X2900000Y54588642D01*
X2934586Y54762520D01*
X3002430Y54926310D01*
X3100924Y55073717D01*
X3226283Y55199076D01*
X3373690Y55297570D01*
X3537480Y55365414D01*
X3595439Y55376943D01*
X3711356Y55400000D01*
X3888644Y55400000D01*
X4004561Y55376943D01*
G37*
G36*
X28204561Y55376943D02*
G01*
X28262520Y55365414D01*
X28426310Y55297570D01*
X28573717Y55199076D01*
X28699076Y55073717D01*
X28797570Y54926310D01*
X28865414Y54762520D01*
X28900000Y54588642D01*
X28900000Y54411358D01*
X28865414Y54237480D01*
X28797570Y54073690D01*
X28699076Y53926283D01*
X28573717Y53800924D01*
X28426310Y53702430D01*
X28262520Y53634586D01*
X28204561Y53623057D01*
X28088644Y53600000D01*
X27911356Y53600000D01*
X27795439Y53623057D01*
X27737480Y53634586D01*
X27573690Y53702430D01*
X27426283Y53800924D01*
X27300924Y53926283D01*
X27202430Y54073690D01*
X27134586Y54237480D01*
X27100000Y54411358D01*
X27100000Y54588642D01*
X27134586Y54762520D01*
X27202430Y54926310D01*
X27300924Y55073717D01*
X27426283Y55199076D01*
X27573690Y55297570D01*
X27737480Y55365414D01*
X27795439Y55376943D01*
X27911356Y55400000D01*
X28088644Y55400000D01*
X28204561Y55376943D01*
G37*
G36*
X30704561Y55376943D02*
G01*
X30762520Y55365414D01*
X30926310Y55297570D01*
X31073717Y55199076D01*
X31199076Y55073717D01*
X31297570Y54926310D01*
X31365414Y54762520D01*
X31400000Y54588642D01*
X31400000Y54411358D01*
X31365414Y54237480D01*
X31297570Y54073690D01*
X31199076Y53926283D01*
X31073717Y53800924D01*
X30926310Y53702430D01*
X30762520Y53634586D01*
X30704561Y53623057D01*
X30588644Y53600000D01*
X30411356Y53600000D01*
X30295439Y53623057D01*
X30237480Y53634586D01*
X30073690Y53702430D01*
X29926283Y53800924D01*
X29800924Y53926283D01*
X29702430Y54073690D01*
X29634586Y54237480D01*
X29600000Y54411358D01*
X29600000Y54588642D01*
X29634586Y54762520D01*
X29702430Y54926310D01*
X29800924Y55073717D01*
X29926283Y55199076D01*
X30073690Y55297570D01*
X30237480Y55365414D01*
X30295439Y55376943D01*
X30411356Y55400000D01*
X30588644Y55400000D01*
X30704561Y55376943D01*
G37*
G36*
X33204561Y55376943D02*
G01*
X33262520Y55365414D01*
X33426310Y55297570D01*
X33573717Y55199076D01*
X33699076Y55073717D01*
X33797570Y54926310D01*
X33865414Y54762520D01*
X33900000Y54588642D01*
X33900000Y54411358D01*
X33865414Y54237480D01*
X33797570Y54073690D01*
X33699076Y53926283D01*
X33573717Y53800924D01*
X33426310Y53702430D01*
X33262520Y53634586D01*
X33204561Y53623057D01*
X33088644Y53600000D01*
X32911356Y53600000D01*
X32795439Y53623057D01*
X32737480Y53634586D01*
X32573690Y53702430D01*
X32426283Y53800924D01*
X32300924Y53926283D01*
X32202430Y54073690D01*
X32134586Y54237480D01*
X32100000Y54411358D01*
X32100000Y54588642D01*
X32134586Y54762520D01*
X32202430Y54926310D01*
X32300924Y55073717D01*
X32426283Y55199076D01*
X32573690Y55297570D01*
X32737480Y55365414D01*
X32795439Y55376943D01*
X32911356Y55400000D01*
X33088644Y55400000D01*
X33204561Y55376943D01*
G37*
G36*
X19750000Y58250000D02*
G01*
X16250000Y58250000D01*
X16250000Y61750000D01*
X19750000Y61750000D01*
X19750000Y58250000D01*
G37*
G36*
X8783377Y63423142D02*
G01*
X8996590Y63334826D01*
X9147355Y63272377D01*
X9474926Y63053501D01*
X9753501Y62774926D01*
X9972377Y62447355D01*
X9972377Y62447354D01*
X10123142Y62083377D01*
X10200000Y61696984D01*
X10200000Y61303016D01*
X10123142Y60916623D01*
X10034826Y60703410D01*
X9972377Y60552645D01*
X9753501Y60225074D01*
X9474926Y59946499D01*
X9147355Y59727623D01*
X8996590Y59665174D01*
X8783377Y59576858D01*
X8396984Y59500000D01*
X8003016Y59500000D01*
X7616623Y59576858D01*
X7403410Y59665174D01*
X7252645Y59727623D01*
X6925074Y59946499D01*
X6646499Y60225074D01*
X6427623Y60552645D01*
X6365174Y60703410D01*
X6276858Y60916623D01*
X6200000Y61303016D01*
X6200000Y61696984D01*
X6276858Y62083377D01*
X6427623Y62447354D01*
X6427623Y62447355D01*
X6646499Y62774926D01*
X6925074Y63053501D01*
X7252645Y63272377D01*
X7403410Y63334826D01*
X7616623Y63423142D01*
X8003016Y63500000D01*
X8396984Y63500000D01*
X8783377Y63423142D01*
G37*
G36*
X35483377Y63423142D02*
G01*
X35696590Y63334826D01*
X35847355Y63272377D01*
X36174926Y63053501D01*
X36453501Y62774926D01*
X36672377Y62447355D01*
X36672377Y62447354D01*
X36823142Y62083377D01*
X36900000Y61696984D01*
X36900000Y61303016D01*
X36823142Y60916623D01*
X36734826Y60703410D01*
X36672377Y60552645D01*
X36453501Y60225074D01*
X36174926Y59946499D01*
X35847355Y59727623D01*
X35696590Y59665174D01*
X35483377Y59576858D01*
X35096984Y59500000D01*
X34703016Y59500000D01*
X34316623Y59576858D01*
X34103410Y59665174D01*
X33952645Y59727623D01*
X33625074Y59946499D01*
X33346499Y60225074D01*
X33127623Y60552645D01*
X33065174Y60703410D01*
X32976858Y60916623D01*
X32900000Y61303016D01*
X32900000Y61696984D01*
X32976858Y62083377D01*
X33127623Y62447354D01*
X33127623Y62447355D01*
X33346499Y62774926D01*
X33625074Y63053501D01*
X33952645Y63272377D01*
X34103410Y63334826D01*
X34316623Y63423142D01*
X34703016Y63500000D01*
X35096984Y63500000D01*
X35483377Y63423142D01*
G37*
G36*
X26683377Y63423142D02*
G01*
X26896590Y63334826D01*
X27047355Y63272377D01*
X27374926Y63053501D01*
X27653501Y62774926D01*
X27872377Y62447355D01*
X27872377Y62447354D01*
X28023142Y62083377D01*
X28100000Y61696984D01*
X28100000Y61303016D01*
X28023142Y60916623D01*
X27934826Y60703410D01*
X27872377Y60552645D01*
X27653501Y60225074D01*
X27374926Y59946499D01*
X27047355Y59727623D01*
X26896590Y59665174D01*
X26683377Y59576858D01*
X26296984Y59500000D01*
X25903016Y59500000D01*
X25516623Y59576858D01*
X25303410Y59665174D01*
X25152645Y59727623D01*
X24825074Y59946499D01*
X24546499Y60225074D01*
X24327623Y60552645D01*
X24265174Y60703410D01*
X24176858Y60916623D01*
X24100000Y61303016D01*
X24100000Y61696984D01*
X24176858Y62083377D01*
X24327623Y62447354D01*
X24327623Y62447355D01*
X24546499Y62774926D01*
X24825074Y63053501D01*
X25152645Y63272377D01*
X25303410Y63334826D01*
X25516623Y63423142D01*
X25903016Y63500000D01*
X26296984Y63500000D01*
X26683377Y63423142D01*
G37*
G36*
X-16623Y63423142D02*
G01*
X196590Y63334826D01*
X347355Y63272377D01*
X674926Y63053501D01*
X953501Y62774926D01*
X1172377Y62447355D01*
X1172377Y62447354D01*
X1323142Y62083377D01*
X1400000Y61696984D01*
X1400000Y61303016D01*
X1323142Y60916623D01*
X1234826Y60703410D01*
X1172377Y60552645D01*
X953501Y60225074D01*
X674926Y59946499D01*
X347355Y59727623D01*
X196590Y59665174D01*
X-16623Y59576858D01*
X-403016Y59500000D01*
X-796984Y59500000D01*
X-1183377Y59576858D01*
X-1396590Y59665174D01*
X-1547355Y59727623D01*
X-1874926Y59946499D01*
X-2153501Y60225074D01*
X-2372377Y60552645D01*
X-2434826Y60703410D01*
X-2523142Y60916623D01*
X-2600000Y61303016D01*
X-2600000Y61696984D01*
X-2523142Y62083377D01*
X-2372377Y62447354D01*
X-2372377Y62447355D01*
X-2153501Y62774926D01*
X-1874926Y63053501D01*
X-1547355Y63272377D01*
X-1396590Y63334826D01*
X-1183377Y63423142D01*
X-796984Y63500000D01*
X-403016Y63500000D01*
X-16623Y63423142D01*
G37*
G36*
X14365779Y64733431D02*
G01*
X14525190Y64685074D01*
X14672098Y64606550D01*
X14800869Y64500869D01*
X14906550Y64372098D01*
X14985074Y64225190D01*
X15033431Y64065779D01*
X15050000Y63897546D01*
X15050000Y62102454D01*
X15033431Y61934221D01*
X14985074Y61774810D01*
X14906550Y61627902D01*
X14800869Y61499131D01*
X14672098Y61393450D01*
X14525190Y61314926D01*
X14365779Y61266569D01*
X14197546Y61250000D01*
X12402454Y61250000D01*
X12234221Y61266569D01*
X12074810Y61314926D01*
X11927902Y61393450D01*
X11799131Y61499131D01*
X11693450Y61627902D01*
X11614926Y61774810D01*
X11566569Y61934221D01*
X11550000Y62102454D01*
X11550000Y63897546D01*
X11566569Y64065779D01*
X11614926Y64225190D01*
X11693450Y64372098D01*
X11799131Y64500869D01*
X11927902Y64606550D01*
X12074810Y64685074D01*
X12234221Y64733431D01*
X12402454Y64750000D01*
X14197546Y64750000D01*
X14365779Y64733431D01*
G37*
G36*
X19166393Y67485833D02*
G01*
X19302354Y67444589D01*
X19427652Y67377616D01*
X19537481Y67287481D01*
X19627616Y67177652D01*
X19694589Y67052354D01*
X19735833Y66916393D01*
X19750000Y66772546D01*
X19750000Y65227454D01*
X19735833Y65083607D01*
X19694589Y64947646D01*
X19627616Y64822348D01*
X19537481Y64712519D01*
X19427652Y64622384D01*
X19302354Y64555411D01*
X19166393Y64514167D01*
X19022546Y64500000D01*
X16977454Y64500000D01*
X16833607Y64514167D01*
X16697646Y64555411D01*
X16572348Y64622384D01*
X16462519Y64712519D01*
X16372384Y64822348D01*
X16305411Y64947646D01*
X16264167Y65083607D01*
X16250000Y65227454D01*
X16250000Y66772546D01*
X16264167Y66916393D01*
X16305411Y67052354D01*
X16372384Y67177652D01*
X16462519Y67287481D01*
X16572348Y67377616D01*
X16697646Y67444589D01*
X16833607Y67485833D01*
X16977454Y67500000D01*
X19022546Y67500000D01*
X19166393Y67485833D01*
G37*
G36*
X35787559Y73596241D02*
G01*
X35787562Y73596240D01*
X35787561Y73596240D01*
X36278930Y73392709D01*
X36721150Y73097227D01*
X37097227Y72721150D01*
X37392709Y72278930D01*
X37561320Y71871866D01*
X37596241Y71787559D01*
X37700000Y71265928D01*
X37700000Y70734072D01*
X37596241Y70212441D01*
X37596240Y70212439D01*
X37392709Y69721070D01*
X37097227Y69278850D01*
X36721150Y68902773D01*
X36278930Y68607291D01*
X35871866Y68438680D01*
X35787559Y68403759D01*
X35265928Y68300000D01*
X34734072Y68300000D01*
X34212441Y68403759D01*
X34128134Y68438680D01*
X33721070Y68607291D01*
X33278850Y68902773D01*
X32902773Y69278850D01*
X32607291Y69721070D01*
X32403760Y70212439D01*
X32403759Y70212441D01*
X32300000Y70734072D01*
X32300000Y71265928D01*
X32403759Y71787559D01*
X32438680Y71871866D01*
X32607291Y72278930D01*
X32902773Y72721150D01*
X33278850Y73097227D01*
X33721070Y73392709D01*
X34212439Y73596240D01*
X34212438Y73596240D01*
X34212441Y73596241D01*
X34734072Y73700000D01*
X35265928Y73700000D01*
X35787559Y73596241D01*
G37*
G36*
X787559Y73596241D02*
G01*
X787562Y73596240D01*
X787561Y73596240D01*
X1278930Y73392709D01*
X1721150Y73097227D01*
X2097227Y72721150D01*
X2392709Y72278930D01*
X2561320Y71871866D01*
X2596241Y71787559D01*
X2700000Y71265928D01*
X2700000Y70734072D01*
X2596241Y70212441D01*
X2596240Y70212439D01*
X2392709Y69721070D01*
X2097227Y69278850D01*
X1721150Y68902773D01*
X1278930Y68607291D01*
X871866Y68438680D01*
X787559Y68403759D01*
X265928Y68300000D01*
X-265928Y68300000D01*
X-787559Y68403759D01*
X-871866Y68438680D01*
X-1278930Y68607291D01*
X-1721150Y68902773D01*
X-2097227Y69278850D01*
X-2392709Y69721070D01*
X-2596240Y70212439D01*
X-2596241Y70212441D01*
X-2700000Y70734072D01*
X-2700000Y71265928D01*
X-2596241Y71787559D01*
X-2561320Y71871866D01*
X-2392709Y72278930D01*
X-2097227Y72721150D01*
X-1721150Y73097227D01*
X-1278930Y73392709D01*
X-787561Y73596240D01*
X-787562Y73596240D01*
X-787559Y73596241D01*
X-265928Y73700000D01*
X265928Y73700000D01*
X787559Y73596241D01*
G37*
M02*
