%TF.GenerationSoftware,KiCad,Pcbnew,6.0.0-rc1-unknown-f2ccad3~66~ubuntu18.04.1*%
%TF.CreationDate,2018-11-07T22:10:29+01:00*%
%TF.ProjectId,clasicOverdrive,636c6173-6963-44f7-9665-726472697665,rev?*%
%TF.SameCoordinates,PX5f67d40PY8f46778*%
%TF.FileFunction,Plated,1,2,PTH,Mixed*%
%TF.FilePolarity,Positive*%
%FSLAX46Y46*%
G04 Gerber Fmt 4.6, Leading zero omitted, Abs format (unit mm)*
G04 Created by KiCad (PCBNEW 6.0.0-rc1-unknown-f2ccad3~66~ubuntu18.04.1) date Mi 07 Nov 2018 22:10:29 CET*
%MOMM*%
%LPD*%
G01*
G04 APERTURE LIST*
%TA.AperFunction,ViaDrill*%
%ADD10C,0.350000*%
%TD*%
%TA.AperFunction,ViaDrill*%
%ADD11C,0.500000*%
%TD*%
%TA.AperFunction,ComponentDrill*%
%ADD12C,0.700000*%
%TD*%
%TA.AperFunction,Slot*%
%ADD13C,1.020000*%
%TD*%
%TA.AperFunction,Slot*%
%ADD14C,1.100000*%
%TD*%
%TA.AperFunction,ComponentDrill*%
%ADD15C,1.200000*%
%TD*%
%TA.AperFunction,ComponentDrill*%
%ADD16C,1.300000*%
%TD*%
%TA.AperFunction,ComponentDrill*%
%ADD17C,2.080000*%
%TD*%
G04 APERTURE END LIST*
D10*
X2000000Y60500000D03*
X2000000Y59500000D03*
X2000000Y59500000D03*
X2000000Y59500000D03*
X2000000Y58500000D03*
X3000000Y60500000D03*
X3000000Y59500000D03*
X3000000Y58500000D03*
X4118800Y25157800D03*
X4250000Y26750000D03*
X5515200Y44000000D03*
X6000000Y20500000D03*
X6000000Y19500000D03*
X6000000Y18500000D03*
X7500000Y82000000D03*
X8000000Y72500000D03*
X8500000Y82000000D03*
X9000000Y72500000D03*
X9500000Y82000000D03*
X10000000Y72500000D03*
X10000000Y20500000D03*
X10000000Y19500000D03*
X10000000Y18500000D03*
X11500000Y47500000D03*
X11500000Y46500000D03*
X12500000Y47500000D03*
X12500000Y46500000D03*
X13500000Y47500000D03*
X13500000Y46500000D03*
X15640000Y74711100D03*
X18000000Y82000000D03*
X18000000Y28500000D03*
X18000000Y27500000D03*
X19000000Y82000000D03*
X19000000Y28500000D03*
X19000000Y27500000D03*
X20000000Y82000000D03*
X21548000Y77742000D03*
X22000000Y30000000D03*
X23000000Y31000000D03*
X23500000Y60000000D03*
X23500000Y59000000D03*
X24000000Y73500000D03*
X24000000Y72500000D03*
X24000000Y71500000D03*
X24500000Y60000000D03*
X24500000Y59000000D03*
X25276000Y78619000D03*
X27000000Y25000000D03*
X27500000Y70000000D03*
X27500000Y69000000D03*
X27500000Y65500000D03*
X27500000Y64500000D03*
X27500000Y63500000D03*
X27500002Y52500000D03*
X28000000Y26000000D03*
X30000000Y82000000D03*
X30309100Y76461100D03*
X30628700Y72867300D03*
X31000000Y82000000D03*
X31250000Y79250000D03*
X32000000Y82000000D03*
X32000000Y58000000D03*
X32000000Y57000000D03*
X32500000Y67000000D03*
X32500000Y66000000D03*
X32500000Y65000000D03*
X33000000Y58000000D03*
X33000000Y57000000D03*
X33000000Y47500000D03*
X33000000Y46500000D03*
X34000000Y47500000D03*
X34000000Y46500000D03*
X36500000Y23000000D03*
X36500000Y22000000D03*
X36500000Y2500000D03*
X37500000Y23000000D03*
X37500000Y22000000D03*
X37500000Y2500000D03*
X37757800Y72701800D03*
X38000000Y61500000D03*
X38500000Y23000000D03*
X38500000Y22000000D03*
X38500000Y2500000D03*
X39000000Y61500000D03*
X39000000Y47500000D03*
X39000000Y46500000D03*
X39500000Y69500000D03*
X39500000Y68500000D03*
X39500000Y67500000D03*
X40000000Y61500000D03*
X40500000Y82000000D03*
X40500000Y53000000D03*
X40500000Y52000000D03*
X41500000Y82000000D03*
X42500000Y82000000D03*
X44000000Y49500000D03*
X44000000Y48500000D03*
X45871700Y45293800D03*
X48000000Y12000000D03*
X48000000Y11000000D03*
X48000000Y10000000D03*
D11*
X3000000Y36000000D03*
X25153600Y75963200D03*
D12*
%TO.C,Q1*%
X6730000Y23230000D03*
X8000000Y24500000D03*
X8000000Y21960000D03*
%TO.C,Q2*%
X40460000Y41000000D03*
X41730000Y42270000D03*
X43000000Y41000000D03*
D13*
%TO.C,J1*%
X8060000Y14075000D02*
X8060000Y15595000D01*
X11110000Y9755000D02*
X9590000Y9755000D01*
X14160000Y14075000D02*
X14160000Y15595000D01*
D14*
%TO.C,RV1*%
X35500000Y65550000D02*
X35500000Y66450000D01*
X46500000Y65550000D02*
X46500000Y66450000D01*
%TO.C,RV2*%
X19500000Y65550000D02*
X19500000Y66450000D01*
X30500000Y65550000D02*
X30500000Y66450000D01*
%TO.C,RV3*%
X3500000Y65550000D02*
X3500000Y66450000D01*
X14500000Y65550000D02*
X14500000Y66450000D01*
D15*
%TO.C,U1*%
X19700000Y15300000D03*
X19700000Y10500000D03*
X19700000Y5700000D03*
X25000000Y15300000D03*
X25000000Y10500000D03*
X25000000Y5700000D03*
X30300000Y15300000D03*
X30300000Y10500000D03*
X30300000Y5700000D03*
D16*
%TO.C,RV1*%
X37250000Y56000000D03*
X41000000Y56000000D03*
X44750000Y56000000D03*
%TO.C,RV2*%
X21250000Y56000000D03*
X25000000Y56000000D03*
X28750000Y56000000D03*
%TO.C,RV3*%
X5250000Y56000000D03*
X9000000Y56000000D03*
X12750000Y56000000D03*
D17*
%TO.C,CON1*%
X19920000Y32955000D03*
X19920000Y23045000D03*
X30080000Y32955000D03*
X30080000Y23045000D03*
X37700000Y32955000D03*
%TO.C,CON2*%
X12300000Y40045000D03*
X19920000Y49955000D03*
X19920000Y40045000D03*
X30080000Y49955000D03*
X30080000Y40045000D03*
M02*
