%TF.GenerationSoftware,KiCad,Pcbnew,5.1.5-52549c5~84~ubuntu18.04.1*%
%TF.CreationDate,2019-12-01T00:32:44+01:00*%
%TF.ProjectId,clasicOverdrive,636c6173-6963-44f7-9665-726472697665,A*%
%TF.SameCoordinates,PX6708f40PY898d9f8*%
%TF.FileFunction,Paste,Top*%
%TF.FilePolarity,Positive*%
%FSLAX46Y46*%
G04 Gerber Fmt 4.6, Leading zero omitted, Abs format (unit mm)*
G04 Created by KiCad (PCBNEW 5.1.5-52549c5~84~ubuntu18.04.1) date 2019-12-01 00:32:44*
%MOMM*%
%LPD*%
G04 APERTURE LIST*
%ADD10R,0.600000X1.550000*%
%ADD11R,1.000000X1.000000*%
%ADD12C,0.100000*%
G04 APERTURE END LIST*
D10*
%TO.C,U2*%
X31655000Y44150000D03*
X30385000Y44150000D03*
X29115000Y44150000D03*
X27845000Y44150000D03*
X27845000Y38750000D03*
X29115000Y38750000D03*
X30385000Y38750000D03*
X31655000Y38750000D03*
%TD*%
D11*
%TO.C,D2*%
X30000000Y50350000D03*
X32500000Y50350000D03*
%TD*%
%TO.C,D3*%
X30000000Y48350000D03*
X32500000Y48350000D03*
%TD*%
D12*
%TO.C,C1*%
G36*
X18080142Y17748826D02*
G01*
X18103803Y17745316D01*
X18127007Y17739504D01*
X18149529Y17731446D01*
X18171153Y17721218D01*
X18191670Y17708921D01*
X18210883Y17694671D01*
X18228607Y17678607D01*
X18244671Y17660883D01*
X18258921Y17641670D01*
X18271218Y17621153D01*
X18281446Y17599529D01*
X18289504Y17577007D01*
X18295316Y17553803D01*
X18298826Y17530142D01*
X18300000Y17506250D01*
X18300000Y17018750D01*
X18298826Y16994858D01*
X18295316Y16971197D01*
X18289504Y16947993D01*
X18281446Y16925471D01*
X18271218Y16903847D01*
X18258921Y16883330D01*
X18244671Y16864117D01*
X18228607Y16846393D01*
X18210883Y16830329D01*
X18191670Y16816079D01*
X18171153Y16803782D01*
X18149529Y16793554D01*
X18127007Y16785496D01*
X18103803Y16779684D01*
X18080142Y16776174D01*
X18056250Y16775000D01*
X17143750Y16775000D01*
X17119858Y16776174D01*
X17096197Y16779684D01*
X17072993Y16785496D01*
X17050471Y16793554D01*
X17028847Y16803782D01*
X17008330Y16816079D01*
X16989117Y16830329D01*
X16971393Y16846393D01*
X16955329Y16864117D01*
X16941079Y16883330D01*
X16928782Y16903847D01*
X16918554Y16925471D01*
X16910496Y16947993D01*
X16904684Y16971197D01*
X16901174Y16994858D01*
X16900000Y17018750D01*
X16900000Y17506250D01*
X16901174Y17530142D01*
X16904684Y17553803D01*
X16910496Y17577007D01*
X16918554Y17599529D01*
X16928782Y17621153D01*
X16941079Y17641670D01*
X16955329Y17660883D01*
X16971393Y17678607D01*
X16989117Y17694671D01*
X17008330Y17708921D01*
X17028847Y17721218D01*
X17050471Y17731446D01*
X17072993Y17739504D01*
X17096197Y17745316D01*
X17119858Y17748826D01*
X17143750Y17750000D01*
X18056250Y17750000D01*
X18080142Y17748826D01*
G37*
G36*
X18080142Y19623826D02*
G01*
X18103803Y19620316D01*
X18127007Y19614504D01*
X18149529Y19606446D01*
X18171153Y19596218D01*
X18191670Y19583921D01*
X18210883Y19569671D01*
X18228607Y19553607D01*
X18244671Y19535883D01*
X18258921Y19516670D01*
X18271218Y19496153D01*
X18281446Y19474529D01*
X18289504Y19452007D01*
X18295316Y19428803D01*
X18298826Y19405142D01*
X18300000Y19381250D01*
X18300000Y18893750D01*
X18298826Y18869858D01*
X18295316Y18846197D01*
X18289504Y18822993D01*
X18281446Y18800471D01*
X18271218Y18778847D01*
X18258921Y18758330D01*
X18244671Y18739117D01*
X18228607Y18721393D01*
X18210883Y18705329D01*
X18191670Y18691079D01*
X18171153Y18678782D01*
X18149529Y18668554D01*
X18127007Y18660496D01*
X18103803Y18654684D01*
X18080142Y18651174D01*
X18056250Y18650000D01*
X17143750Y18650000D01*
X17119858Y18651174D01*
X17096197Y18654684D01*
X17072993Y18660496D01*
X17050471Y18668554D01*
X17028847Y18678782D01*
X17008330Y18691079D01*
X16989117Y18705329D01*
X16971393Y18721393D01*
X16955329Y18739117D01*
X16941079Y18758330D01*
X16928782Y18778847D01*
X16918554Y18800471D01*
X16910496Y18822993D01*
X16904684Y18846197D01*
X16901174Y18869858D01*
X16900000Y18893750D01*
X16900000Y19381250D01*
X16901174Y19405142D01*
X16904684Y19428803D01*
X16910496Y19452007D01*
X16918554Y19474529D01*
X16928782Y19496153D01*
X16941079Y19516670D01*
X16955329Y19535883D01*
X16971393Y19553607D01*
X16989117Y19569671D01*
X17008330Y19583921D01*
X17028847Y19596218D01*
X17050471Y19606446D01*
X17072993Y19614504D01*
X17096197Y19620316D01*
X17119858Y19623826D01*
X17143750Y19625000D01*
X18056250Y19625000D01*
X18080142Y19623826D01*
G37*
%TD*%
%TO.C,C2*%
G36*
X25967642Y47898826D02*
G01*
X25991303Y47895316D01*
X26014507Y47889504D01*
X26037029Y47881446D01*
X26058653Y47871218D01*
X26079170Y47858921D01*
X26098383Y47844671D01*
X26116107Y47828607D01*
X26132171Y47810883D01*
X26146421Y47791670D01*
X26158718Y47771153D01*
X26168946Y47749529D01*
X26177004Y47727007D01*
X26182816Y47703803D01*
X26186326Y47680142D01*
X26187500Y47656250D01*
X26187500Y46743750D01*
X26186326Y46719858D01*
X26182816Y46696197D01*
X26177004Y46672993D01*
X26168946Y46650471D01*
X26158718Y46628847D01*
X26146421Y46608330D01*
X26132171Y46589117D01*
X26116107Y46571393D01*
X26098383Y46555329D01*
X26079170Y46541079D01*
X26058653Y46528782D01*
X26037029Y46518554D01*
X26014507Y46510496D01*
X25991303Y46504684D01*
X25967642Y46501174D01*
X25943750Y46500000D01*
X25456250Y46500000D01*
X25432358Y46501174D01*
X25408697Y46504684D01*
X25385493Y46510496D01*
X25362971Y46518554D01*
X25341347Y46528782D01*
X25320830Y46541079D01*
X25301617Y46555329D01*
X25283893Y46571393D01*
X25267829Y46589117D01*
X25253579Y46608330D01*
X25241282Y46628847D01*
X25231054Y46650471D01*
X25222996Y46672993D01*
X25217184Y46696197D01*
X25213674Y46719858D01*
X25212500Y46743750D01*
X25212500Y47656250D01*
X25213674Y47680142D01*
X25217184Y47703803D01*
X25222996Y47727007D01*
X25231054Y47749529D01*
X25241282Y47771153D01*
X25253579Y47791670D01*
X25267829Y47810883D01*
X25283893Y47828607D01*
X25301617Y47844671D01*
X25320830Y47858921D01*
X25341347Y47871218D01*
X25362971Y47881446D01*
X25385493Y47889504D01*
X25408697Y47895316D01*
X25432358Y47898826D01*
X25456250Y47900000D01*
X25943750Y47900000D01*
X25967642Y47898826D01*
G37*
G36*
X27842642Y47898826D02*
G01*
X27866303Y47895316D01*
X27889507Y47889504D01*
X27912029Y47881446D01*
X27933653Y47871218D01*
X27954170Y47858921D01*
X27973383Y47844671D01*
X27991107Y47828607D01*
X28007171Y47810883D01*
X28021421Y47791670D01*
X28033718Y47771153D01*
X28043946Y47749529D01*
X28052004Y47727007D01*
X28057816Y47703803D01*
X28061326Y47680142D01*
X28062500Y47656250D01*
X28062500Y46743750D01*
X28061326Y46719858D01*
X28057816Y46696197D01*
X28052004Y46672993D01*
X28043946Y46650471D01*
X28033718Y46628847D01*
X28021421Y46608330D01*
X28007171Y46589117D01*
X27991107Y46571393D01*
X27973383Y46555329D01*
X27954170Y46541079D01*
X27933653Y46528782D01*
X27912029Y46518554D01*
X27889507Y46510496D01*
X27866303Y46504684D01*
X27842642Y46501174D01*
X27818750Y46500000D01*
X27331250Y46500000D01*
X27307358Y46501174D01*
X27283697Y46504684D01*
X27260493Y46510496D01*
X27237971Y46518554D01*
X27216347Y46528782D01*
X27195830Y46541079D01*
X27176617Y46555329D01*
X27158893Y46571393D01*
X27142829Y46589117D01*
X27128579Y46608330D01*
X27116282Y46628847D01*
X27106054Y46650471D01*
X27097996Y46672993D01*
X27092184Y46696197D01*
X27088674Y46719858D01*
X27087500Y46743750D01*
X27087500Y47656250D01*
X27088674Y47680142D01*
X27092184Y47703803D01*
X27097996Y47727007D01*
X27106054Y47749529D01*
X27116282Y47771153D01*
X27128579Y47791670D01*
X27142829Y47810883D01*
X27158893Y47828607D01*
X27176617Y47844671D01*
X27195830Y47858921D01*
X27216347Y47871218D01*
X27237971Y47881446D01*
X27260493Y47889504D01*
X27283697Y47895316D01*
X27307358Y47898826D01*
X27331250Y47900000D01*
X27818750Y47900000D01*
X27842642Y47898826D01*
G37*
%TD*%
%TO.C,C3*%
G36*
X26480142Y30923826D02*
G01*
X26503803Y30920316D01*
X26527007Y30914504D01*
X26549529Y30906446D01*
X26571153Y30896218D01*
X26591670Y30883921D01*
X26610883Y30869671D01*
X26628607Y30853607D01*
X26644671Y30835883D01*
X26658921Y30816670D01*
X26671218Y30796153D01*
X26681446Y30774529D01*
X26689504Y30752007D01*
X26695316Y30728803D01*
X26698826Y30705142D01*
X26700000Y30681250D01*
X26700000Y30193750D01*
X26698826Y30169858D01*
X26695316Y30146197D01*
X26689504Y30122993D01*
X26681446Y30100471D01*
X26671218Y30078847D01*
X26658921Y30058330D01*
X26644671Y30039117D01*
X26628607Y30021393D01*
X26610883Y30005329D01*
X26591670Y29991079D01*
X26571153Y29978782D01*
X26549529Y29968554D01*
X26527007Y29960496D01*
X26503803Y29954684D01*
X26480142Y29951174D01*
X26456250Y29950000D01*
X25543750Y29950000D01*
X25519858Y29951174D01*
X25496197Y29954684D01*
X25472993Y29960496D01*
X25450471Y29968554D01*
X25428847Y29978782D01*
X25408330Y29991079D01*
X25389117Y30005329D01*
X25371393Y30021393D01*
X25355329Y30039117D01*
X25341079Y30058330D01*
X25328782Y30078847D01*
X25318554Y30100471D01*
X25310496Y30122993D01*
X25304684Y30146197D01*
X25301174Y30169858D01*
X25300000Y30193750D01*
X25300000Y30681250D01*
X25301174Y30705142D01*
X25304684Y30728803D01*
X25310496Y30752007D01*
X25318554Y30774529D01*
X25328782Y30796153D01*
X25341079Y30816670D01*
X25355329Y30835883D01*
X25371393Y30853607D01*
X25389117Y30869671D01*
X25408330Y30883921D01*
X25428847Y30896218D01*
X25450471Y30906446D01*
X25472993Y30914504D01*
X25496197Y30920316D01*
X25519858Y30923826D01*
X25543750Y30925000D01*
X26456250Y30925000D01*
X26480142Y30923826D01*
G37*
G36*
X26480142Y29048826D02*
G01*
X26503803Y29045316D01*
X26527007Y29039504D01*
X26549529Y29031446D01*
X26571153Y29021218D01*
X26591670Y29008921D01*
X26610883Y28994671D01*
X26628607Y28978607D01*
X26644671Y28960883D01*
X26658921Y28941670D01*
X26671218Y28921153D01*
X26681446Y28899529D01*
X26689504Y28877007D01*
X26695316Y28853803D01*
X26698826Y28830142D01*
X26700000Y28806250D01*
X26700000Y28318750D01*
X26698826Y28294858D01*
X26695316Y28271197D01*
X26689504Y28247993D01*
X26681446Y28225471D01*
X26671218Y28203847D01*
X26658921Y28183330D01*
X26644671Y28164117D01*
X26628607Y28146393D01*
X26610883Y28130329D01*
X26591670Y28116079D01*
X26571153Y28103782D01*
X26549529Y28093554D01*
X26527007Y28085496D01*
X26503803Y28079684D01*
X26480142Y28076174D01*
X26456250Y28075000D01*
X25543750Y28075000D01*
X25519858Y28076174D01*
X25496197Y28079684D01*
X25472993Y28085496D01*
X25450471Y28093554D01*
X25428847Y28103782D01*
X25408330Y28116079D01*
X25389117Y28130329D01*
X25371393Y28146393D01*
X25355329Y28164117D01*
X25341079Y28183330D01*
X25328782Y28203847D01*
X25318554Y28225471D01*
X25310496Y28247993D01*
X25304684Y28271197D01*
X25301174Y28294858D01*
X25300000Y28318750D01*
X25300000Y28806250D01*
X25301174Y28830142D01*
X25304684Y28853803D01*
X25310496Y28877007D01*
X25318554Y28899529D01*
X25328782Y28921153D01*
X25341079Y28941670D01*
X25355329Y28960883D01*
X25371393Y28978607D01*
X25389117Y28994671D01*
X25408330Y29008921D01*
X25428847Y29021218D01*
X25450471Y29031446D01*
X25472993Y29039504D01*
X25496197Y29045316D01*
X25519858Y29048826D01*
X25543750Y29050000D01*
X26456250Y29050000D01*
X26480142Y29048826D01*
G37*
%TD*%
%TO.C,C4*%
G36*
X32455142Y47048826D02*
G01*
X32478803Y47045316D01*
X32502007Y47039504D01*
X32524529Y47031446D01*
X32546153Y47021218D01*
X32566670Y47008921D01*
X32585883Y46994671D01*
X32603607Y46978607D01*
X32619671Y46960883D01*
X32633921Y46941670D01*
X32646218Y46921153D01*
X32656446Y46899529D01*
X32664504Y46877007D01*
X32670316Y46853803D01*
X32673826Y46830142D01*
X32675000Y46806250D01*
X32675000Y45893750D01*
X32673826Y45869858D01*
X32670316Y45846197D01*
X32664504Y45822993D01*
X32656446Y45800471D01*
X32646218Y45778847D01*
X32633921Y45758330D01*
X32619671Y45739117D01*
X32603607Y45721393D01*
X32585883Y45705329D01*
X32566670Y45691079D01*
X32546153Y45678782D01*
X32524529Y45668554D01*
X32502007Y45660496D01*
X32478803Y45654684D01*
X32455142Y45651174D01*
X32431250Y45650000D01*
X31943750Y45650000D01*
X31919858Y45651174D01*
X31896197Y45654684D01*
X31872993Y45660496D01*
X31850471Y45668554D01*
X31828847Y45678782D01*
X31808330Y45691079D01*
X31789117Y45705329D01*
X31771393Y45721393D01*
X31755329Y45739117D01*
X31741079Y45758330D01*
X31728782Y45778847D01*
X31718554Y45800471D01*
X31710496Y45822993D01*
X31704684Y45846197D01*
X31701174Y45869858D01*
X31700000Y45893750D01*
X31700000Y46806250D01*
X31701174Y46830142D01*
X31704684Y46853803D01*
X31710496Y46877007D01*
X31718554Y46899529D01*
X31728782Y46921153D01*
X31741079Y46941670D01*
X31755329Y46960883D01*
X31771393Y46978607D01*
X31789117Y46994671D01*
X31808330Y47008921D01*
X31828847Y47021218D01*
X31850471Y47031446D01*
X31872993Y47039504D01*
X31896197Y47045316D01*
X31919858Y47048826D01*
X31943750Y47050000D01*
X32431250Y47050000D01*
X32455142Y47048826D01*
G37*
G36*
X30580142Y47048826D02*
G01*
X30603803Y47045316D01*
X30627007Y47039504D01*
X30649529Y47031446D01*
X30671153Y47021218D01*
X30691670Y47008921D01*
X30710883Y46994671D01*
X30728607Y46978607D01*
X30744671Y46960883D01*
X30758921Y46941670D01*
X30771218Y46921153D01*
X30781446Y46899529D01*
X30789504Y46877007D01*
X30795316Y46853803D01*
X30798826Y46830142D01*
X30800000Y46806250D01*
X30800000Y45893750D01*
X30798826Y45869858D01*
X30795316Y45846197D01*
X30789504Y45822993D01*
X30781446Y45800471D01*
X30771218Y45778847D01*
X30758921Y45758330D01*
X30744671Y45739117D01*
X30728607Y45721393D01*
X30710883Y45705329D01*
X30691670Y45691079D01*
X30671153Y45678782D01*
X30649529Y45668554D01*
X30627007Y45660496D01*
X30603803Y45654684D01*
X30580142Y45651174D01*
X30556250Y45650000D01*
X30068750Y45650000D01*
X30044858Y45651174D01*
X30021197Y45654684D01*
X29997993Y45660496D01*
X29975471Y45668554D01*
X29953847Y45678782D01*
X29933330Y45691079D01*
X29914117Y45705329D01*
X29896393Y45721393D01*
X29880329Y45739117D01*
X29866079Y45758330D01*
X29853782Y45778847D01*
X29843554Y45800471D01*
X29835496Y45822993D01*
X29829684Y45846197D01*
X29826174Y45869858D01*
X29825000Y45893750D01*
X29825000Y46806250D01*
X29826174Y46830142D01*
X29829684Y46853803D01*
X29835496Y46877007D01*
X29843554Y46899529D01*
X29853782Y46921153D01*
X29866079Y46941670D01*
X29880329Y46960883D01*
X29896393Y46978607D01*
X29914117Y46994671D01*
X29933330Y47008921D01*
X29953847Y47021218D01*
X29975471Y47031446D01*
X29997993Y47039504D01*
X30021197Y47045316D01*
X30044858Y47048826D01*
X30068750Y47050000D01*
X30556250Y47050000D01*
X30580142Y47048826D01*
G37*
%TD*%
%TO.C,C9*%
G36*
X31205142Y35198826D02*
G01*
X31228803Y35195316D01*
X31252007Y35189504D01*
X31274529Y35181446D01*
X31296153Y35171218D01*
X31316670Y35158921D01*
X31335883Y35144671D01*
X31353607Y35128607D01*
X31369671Y35110883D01*
X31383921Y35091670D01*
X31396218Y35071153D01*
X31406446Y35049529D01*
X31414504Y35027007D01*
X31420316Y35003803D01*
X31423826Y34980142D01*
X31425000Y34956250D01*
X31425000Y34043750D01*
X31423826Y34019858D01*
X31420316Y33996197D01*
X31414504Y33972993D01*
X31406446Y33950471D01*
X31396218Y33928847D01*
X31383921Y33908330D01*
X31369671Y33889117D01*
X31353607Y33871393D01*
X31335883Y33855329D01*
X31316670Y33841079D01*
X31296153Y33828782D01*
X31274529Y33818554D01*
X31252007Y33810496D01*
X31228803Y33804684D01*
X31205142Y33801174D01*
X31181250Y33800000D01*
X30693750Y33800000D01*
X30669858Y33801174D01*
X30646197Y33804684D01*
X30622993Y33810496D01*
X30600471Y33818554D01*
X30578847Y33828782D01*
X30558330Y33841079D01*
X30539117Y33855329D01*
X30521393Y33871393D01*
X30505329Y33889117D01*
X30491079Y33908330D01*
X30478782Y33928847D01*
X30468554Y33950471D01*
X30460496Y33972993D01*
X30454684Y33996197D01*
X30451174Y34019858D01*
X30450000Y34043750D01*
X30450000Y34956250D01*
X30451174Y34980142D01*
X30454684Y35003803D01*
X30460496Y35027007D01*
X30468554Y35049529D01*
X30478782Y35071153D01*
X30491079Y35091670D01*
X30505329Y35110883D01*
X30521393Y35128607D01*
X30539117Y35144671D01*
X30558330Y35158921D01*
X30578847Y35171218D01*
X30600471Y35181446D01*
X30622993Y35189504D01*
X30646197Y35195316D01*
X30669858Y35198826D01*
X30693750Y35200000D01*
X31181250Y35200000D01*
X31205142Y35198826D01*
G37*
G36*
X29330142Y35198826D02*
G01*
X29353803Y35195316D01*
X29377007Y35189504D01*
X29399529Y35181446D01*
X29421153Y35171218D01*
X29441670Y35158921D01*
X29460883Y35144671D01*
X29478607Y35128607D01*
X29494671Y35110883D01*
X29508921Y35091670D01*
X29521218Y35071153D01*
X29531446Y35049529D01*
X29539504Y35027007D01*
X29545316Y35003803D01*
X29548826Y34980142D01*
X29550000Y34956250D01*
X29550000Y34043750D01*
X29548826Y34019858D01*
X29545316Y33996197D01*
X29539504Y33972993D01*
X29531446Y33950471D01*
X29521218Y33928847D01*
X29508921Y33908330D01*
X29494671Y33889117D01*
X29478607Y33871393D01*
X29460883Y33855329D01*
X29441670Y33841079D01*
X29421153Y33828782D01*
X29399529Y33818554D01*
X29377007Y33810496D01*
X29353803Y33804684D01*
X29330142Y33801174D01*
X29306250Y33800000D01*
X28818750Y33800000D01*
X28794858Y33801174D01*
X28771197Y33804684D01*
X28747993Y33810496D01*
X28725471Y33818554D01*
X28703847Y33828782D01*
X28683330Y33841079D01*
X28664117Y33855329D01*
X28646393Y33871393D01*
X28630329Y33889117D01*
X28616079Y33908330D01*
X28603782Y33928847D01*
X28593554Y33950471D01*
X28585496Y33972993D01*
X28579684Y33996197D01*
X28576174Y34019858D01*
X28575000Y34043750D01*
X28575000Y34956250D01*
X28576174Y34980142D01*
X28579684Y35003803D01*
X28585496Y35027007D01*
X28593554Y35049529D01*
X28603782Y35071153D01*
X28616079Y35091670D01*
X28630329Y35110883D01*
X28646393Y35128607D01*
X28664117Y35144671D01*
X28683330Y35158921D01*
X28703847Y35171218D01*
X28725471Y35181446D01*
X28747993Y35189504D01*
X28771197Y35195316D01*
X28794858Y35198826D01*
X28818750Y35200000D01*
X29306250Y35200000D01*
X29330142Y35198826D01*
G37*
%TD*%
%TO.C,C10*%
G36*
X13455142Y42948826D02*
G01*
X13478803Y42945316D01*
X13502007Y42939504D01*
X13524529Y42931446D01*
X13546153Y42921218D01*
X13566670Y42908921D01*
X13585883Y42894671D01*
X13603607Y42878607D01*
X13619671Y42860883D01*
X13633921Y42841670D01*
X13646218Y42821153D01*
X13656446Y42799529D01*
X13664504Y42777007D01*
X13670316Y42753803D01*
X13673826Y42730142D01*
X13675000Y42706250D01*
X13675000Y41793750D01*
X13673826Y41769858D01*
X13670316Y41746197D01*
X13664504Y41722993D01*
X13656446Y41700471D01*
X13646218Y41678847D01*
X13633921Y41658330D01*
X13619671Y41639117D01*
X13603607Y41621393D01*
X13585883Y41605329D01*
X13566670Y41591079D01*
X13546153Y41578782D01*
X13524529Y41568554D01*
X13502007Y41560496D01*
X13478803Y41554684D01*
X13455142Y41551174D01*
X13431250Y41550000D01*
X12943750Y41550000D01*
X12919858Y41551174D01*
X12896197Y41554684D01*
X12872993Y41560496D01*
X12850471Y41568554D01*
X12828847Y41578782D01*
X12808330Y41591079D01*
X12789117Y41605329D01*
X12771393Y41621393D01*
X12755329Y41639117D01*
X12741079Y41658330D01*
X12728782Y41678847D01*
X12718554Y41700471D01*
X12710496Y41722993D01*
X12704684Y41746197D01*
X12701174Y41769858D01*
X12700000Y41793750D01*
X12700000Y42706250D01*
X12701174Y42730142D01*
X12704684Y42753803D01*
X12710496Y42777007D01*
X12718554Y42799529D01*
X12728782Y42821153D01*
X12741079Y42841670D01*
X12755329Y42860883D01*
X12771393Y42878607D01*
X12789117Y42894671D01*
X12808330Y42908921D01*
X12828847Y42921218D01*
X12850471Y42931446D01*
X12872993Y42939504D01*
X12896197Y42945316D01*
X12919858Y42948826D01*
X12943750Y42950000D01*
X13431250Y42950000D01*
X13455142Y42948826D01*
G37*
G36*
X11580142Y42948826D02*
G01*
X11603803Y42945316D01*
X11627007Y42939504D01*
X11649529Y42931446D01*
X11671153Y42921218D01*
X11691670Y42908921D01*
X11710883Y42894671D01*
X11728607Y42878607D01*
X11744671Y42860883D01*
X11758921Y42841670D01*
X11771218Y42821153D01*
X11781446Y42799529D01*
X11789504Y42777007D01*
X11795316Y42753803D01*
X11798826Y42730142D01*
X11800000Y42706250D01*
X11800000Y41793750D01*
X11798826Y41769858D01*
X11795316Y41746197D01*
X11789504Y41722993D01*
X11781446Y41700471D01*
X11771218Y41678847D01*
X11758921Y41658330D01*
X11744671Y41639117D01*
X11728607Y41621393D01*
X11710883Y41605329D01*
X11691670Y41591079D01*
X11671153Y41578782D01*
X11649529Y41568554D01*
X11627007Y41560496D01*
X11603803Y41554684D01*
X11580142Y41551174D01*
X11556250Y41550000D01*
X11068750Y41550000D01*
X11044858Y41551174D01*
X11021197Y41554684D01*
X10997993Y41560496D01*
X10975471Y41568554D01*
X10953847Y41578782D01*
X10933330Y41591079D01*
X10914117Y41605329D01*
X10896393Y41621393D01*
X10880329Y41639117D01*
X10866079Y41658330D01*
X10853782Y41678847D01*
X10843554Y41700471D01*
X10835496Y41722993D01*
X10829684Y41746197D01*
X10826174Y41769858D01*
X10825000Y41793750D01*
X10825000Y42706250D01*
X10826174Y42730142D01*
X10829684Y42753803D01*
X10835496Y42777007D01*
X10843554Y42799529D01*
X10853782Y42821153D01*
X10866079Y42841670D01*
X10880329Y42860883D01*
X10896393Y42878607D01*
X10914117Y42894671D01*
X10933330Y42908921D01*
X10953847Y42921218D01*
X10975471Y42931446D01*
X10997993Y42939504D01*
X11021197Y42945316D01*
X11044858Y42948826D01*
X11068750Y42950000D01*
X11556250Y42950000D01*
X11580142Y42948826D01*
G37*
%TD*%
%TO.C,C11*%
G36*
X22899504Y40273796D02*
G01*
X22923773Y40270196D01*
X22947571Y40264235D01*
X22970671Y40255970D01*
X22992849Y40245480D01*
X23013893Y40232867D01*
X23033598Y40218253D01*
X23051777Y40201777D01*
X23068253Y40183598D01*
X23082867Y40163893D01*
X23095480Y40142849D01*
X23105970Y40120671D01*
X23114235Y40097571D01*
X23120196Y40073773D01*
X23123796Y40049504D01*
X23125000Y40025000D01*
X23125000Y39275000D01*
X23123796Y39250496D01*
X23120196Y39226227D01*
X23114235Y39202429D01*
X23105970Y39179329D01*
X23095480Y39157151D01*
X23082867Y39136107D01*
X23068253Y39116402D01*
X23051777Y39098223D01*
X23033598Y39081747D01*
X23013893Y39067133D01*
X22992849Y39054520D01*
X22970671Y39044030D01*
X22947571Y39035765D01*
X22923773Y39029804D01*
X22899504Y39026204D01*
X22875000Y39025000D01*
X21625000Y39025000D01*
X21600496Y39026204D01*
X21576227Y39029804D01*
X21552429Y39035765D01*
X21529329Y39044030D01*
X21507151Y39054520D01*
X21486107Y39067133D01*
X21466402Y39081747D01*
X21448223Y39098223D01*
X21431747Y39116402D01*
X21417133Y39136107D01*
X21404520Y39157151D01*
X21394030Y39179329D01*
X21385765Y39202429D01*
X21379804Y39226227D01*
X21376204Y39250496D01*
X21375000Y39275000D01*
X21375000Y40025000D01*
X21376204Y40049504D01*
X21379804Y40073773D01*
X21385765Y40097571D01*
X21394030Y40120671D01*
X21404520Y40142849D01*
X21417133Y40163893D01*
X21431747Y40183598D01*
X21448223Y40201777D01*
X21466402Y40218253D01*
X21486107Y40232867D01*
X21507151Y40245480D01*
X21529329Y40255970D01*
X21552429Y40264235D01*
X21576227Y40270196D01*
X21600496Y40273796D01*
X21625000Y40275000D01*
X22875000Y40275000D01*
X22899504Y40273796D01*
G37*
G36*
X22899504Y37473796D02*
G01*
X22923773Y37470196D01*
X22947571Y37464235D01*
X22970671Y37455970D01*
X22992849Y37445480D01*
X23013893Y37432867D01*
X23033598Y37418253D01*
X23051777Y37401777D01*
X23068253Y37383598D01*
X23082867Y37363893D01*
X23095480Y37342849D01*
X23105970Y37320671D01*
X23114235Y37297571D01*
X23120196Y37273773D01*
X23123796Y37249504D01*
X23125000Y37225000D01*
X23125000Y36475000D01*
X23123796Y36450496D01*
X23120196Y36426227D01*
X23114235Y36402429D01*
X23105970Y36379329D01*
X23095480Y36357151D01*
X23082867Y36336107D01*
X23068253Y36316402D01*
X23051777Y36298223D01*
X23033598Y36281747D01*
X23013893Y36267133D01*
X22992849Y36254520D01*
X22970671Y36244030D01*
X22947571Y36235765D01*
X22923773Y36229804D01*
X22899504Y36226204D01*
X22875000Y36225000D01*
X21625000Y36225000D01*
X21600496Y36226204D01*
X21576227Y36229804D01*
X21552429Y36235765D01*
X21529329Y36244030D01*
X21507151Y36254520D01*
X21486107Y36267133D01*
X21466402Y36281747D01*
X21448223Y36298223D01*
X21431747Y36316402D01*
X21417133Y36336107D01*
X21404520Y36357151D01*
X21394030Y36379329D01*
X21385765Y36402429D01*
X21379804Y36426227D01*
X21376204Y36450496D01*
X21375000Y36475000D01*
X21375000Y37225000D01*
X21376204Y37249504D01*
X21379804Y37273773D01*
X21385765Y37297571D01*
X21394030Y37320671D01*
X21404520Y37342849D01*
X21417133Y37363893D01*
X21431747Y37383598D01*
X21448223Y37401777D01*
X21466402Y37418253D01*
X21486107Y37432867D01*
X21507151Y37445480D01*
X21529329Y37455970D01*
X21552429Y37464235D01*
X21576227Y37470196D01*
X21600496Y37473796D01*
X21625000Y37475000D01*
X22875000Y37475000D01*
X22899504Y37473796D01*
G37*
%TD*%
%TO.C,D1*%
G36*
X16649504Y9523796D02*
G01*
X16673773Y9520196D01*
X16697571Y9514235D01*
X16720671Y9505970D01*
X16742849Y9495480D01*
X16763893Y9482867D01*
X16783598Y9468253D01*
X16801777Y9451777D01*
X16818253Y9433598D01*
X16832867Y9413893D01*
X16845480Y9392849D01*
X16855970Y9370671D01*
X16864235Y9347571D01*
X16870196Y9323773D01*
X16873796Y9299504D01*
X16875000Y9275000D01*
X16875000Y8525000D01*
X16873796Y8500496D01*
X16870196Y8476227D01*
X16864235Y8452429D01*
X16855970Y8429329D01*
X16845480Y8407151D01*
X16832867Y8386107D01*
X16818253Y8366402D01*
X16801777Y8348223D01*
X16783598Y8331747D01*
X16763893Y8317133D01*
X16742849Y8304520D01*
X16720671Y8294030D01*
X16697571Y8285765D01*
X16673773Y8279804D01*
X16649504Y8276204D01*
X16625000Y8275000D01*
X15375000Y8275000D01*
X15350496Y8276204D01*
X15326227Y8279804D01*
X15302429Y8285765D01*
X15279329Y8294030D01*
X15257151Y8304520D01*
X15236107Y8317133D01*
X15216402Y8331747D01*
X15198223Y8348223D01*
X15181747Y8366402D01*
X15167133Y8386107D01*
X15154520Y8407151D01*
X15144030Y8429329D01*
X15135765Y8452429D01*
X15129804Y8476227D01*
X15126204Y8500496D01*
X15125000Y8525000D01*
X15125000Y9275000D01*
X15126204Y9299504D01*
X15129804Y9323773D01*
X15135765Y9347571D01*
X15144030Y9370671D01*
X15154520Y9392849D01*
X15167133Y9413893D01*
X15181747Y9433598D01*
X15198223Y9451777D01*
X15216402Y9468253D01*
X15236107Y9482867D01*
X15257151Y9495480D01*
X15279329Y9505970D01*
X15302429Y9514235D01*
X15326227Y9520196D01*
X15350496Y9523796D01*
X15375000Y9525000D01*
X16625000Y9525000D01*
X16649504Y9523796D01*
G37*
G36*
X16649504Y6723796D02*
G01*
X16673773Y6720196D01*
X16697571Y6714235D01*
X16720671Y6705970D01*
X16742849Y6695480D01*
X16763893Y6682867D01*
X16783598Y6668253D01*
X16801777Y6651777D01*
X16818253Y6633598D01*
X16832867Y6613893D01*
X16845480Y6592849D01*
X16855970Y6570671D01*
X16864235Y6547571D01*
X16870196Y6523773D01*
X16873796Y6499504D01*
X16875000Y6475000D01*
X16875000Y5725000D01*
X16873796Y5700496D01*
X16870196Y5676227D01*
X16864235Y5652429D01*
X16855970Y5629329D01*
X16845480Y5607151D01*
X16832867Y5586107D01*
X16818253Y5566402D01*
X16801777Y5548223D01*
X16783598Y5531747D01*
X16763893Y5517133D01*
X16742849Y5504520D01*
X16720671Y5494030D01*
X16697571Y5485765D01*
X16673773Y5479804D01*
X16649504Y5476204D01*
X16625000Y5475000D01*
X15375000Y5475000D01*
X15350496Y5476204D01*
X15326227Y5479804D01*
X15302429Y5485765D01*
X15279329Y5494030D01*
X15257151Y5504520D01*
X15236107Y5517133D01*
X15216402Y5531747D01*
X15198223Y5548223D01*
X15181747Y5566402D01*
X15167133Y5586107D01*
X15154520Y5607151D01*
X15144030Y5629329D01*
X15135765Y5652429D01*
X15129804Y5676227D01*
X15126204Y5700496D01*
X15125000Y5725000D01*
X15125000Y6475000D01*
X15126204Y6499504D01*
X15129804Y6523773D01*
X15135765Y6547571D01*
X15144030Y6570671D01*
X15154520Y6592849D01*
X15167133Y6613893D01*
X15181747Y6633598D01*
X15198223Y6651777D01*
X15216402Y6668253D01*
X15236107Y6682867D01*
X15257151Y6695480D01*
X15279329Y6705970D01*
X15302429Y6714235D01*
X15326227Y6720196D01*
X15350496Y6723796D01*
X15375000Y6725000D01*
X16625000Y6725000D01*
X16649504Y6723796D01*
G37*
%TD*%
%TO.C,R1*%
G36*
X16277691Y12723947D02*
G01*
X16298926Y12720797D01*
X16319750Y12715581D01*
X16339962Y12708349D01*
X16359368Y12699170D01*
X16377781Y12688134D01*
X16395024Y12675346D01*
X16410930Y12660930D01*
X16425346Y12645024D01*
X16438134Y12627781D01*
X16449170Y12609368D01*
X16458349Y12589962D01*
X16465581Y12569750D01*
X16470797Y12548926D01*
X16473947Y12527691D01*
X16475000Y12506250D01*
X16475000Y12068750D01*
X16473947Y12047309D01*
X16470797Y12026074D01*
X16465581Y12005250D01*
X16458349Y11985038D01*
X16449170Y11965632D01*
X16438134Y11947219D01*
X16425346Y11929976D01*
X16410930Y11914070D01*
X16395024Y11899654D01*
X16377781Y11886866D01*
X16359368Y11875830D01*
X16339962Y11866651D01*
X16319750Y11859419D01*
X16298926Y11854203D01*
X16277691Y11851053D01*
X16256250Y11850000D01*
X15743750Y11850000D01*
X15722309Y11851053D01*
X15701074Y11854203D01*
X15680250Y11859419D01*
X15660038Y11866651D01*
X15640632Y11875830D01*
X15622219Y11886866D01*
X15604976Y11899654D01*
X15589070Y11914070D01*
X15574654Y11929976D01*
X15561866Y11947219D01*
X15550830Y11965632D01*
X15541651Y11985038D01*
X15534419Y12005250D01*
X15529203Y12026074D01*
X15526053Y12047309D01*
X15525000Y12068750D01*
X15525000Y12506250D01*
X15526053Y12527691D01*
X15529203Y12548926D01*
X15534419Y12569750D01*
X15541651Y12589962D01*
X15550830Y12609368D01*
X15561866Y12627781D01*
X15574654Y12645024D01*
X15589070Y12660930D01*
X15604976Y12675346D01*
X15622219Y12688134D01*
X15640632Y12699170D01*
X15660038Y12708349D01*
X15680250Y12715581D01*
X15701074Y12720797D01*
X15722309Y12723947D01*
X15743750Y12725000D01*
X16256250Y12725000D01*
X16277691Y12723947D01*
G37*
G36*
X16277691Y11148947D02*
G01*
X16298926Y11145797D01*
X16319750Y11140581D01*
X16339962Y11133349D01*
X16359368Y11124170D01*
X16377781Y11113134D01*
X16395024Y11100346D01*
X16410930Y11085930D01*
X16425346Y11070024D01*
X16438134Y11052781D01*
X16449170Y11034368D01*
X16458349Y11014962D01*
X16465581Y10994750D01*
X16470797Y10973926D01*
X16473947Y10952691D01*
X16475000Y10931250D01*
X16475000Y10493750D01*
X16473947Y10472309D01*
X16470797Y10451074D01*
X16465581Y10430250D01*
X16458349Y10410038D01*
X16449170Y10390632D01*
X16438134Y10372219D01*
X16425346Y10354976D01*
X16410930Y10339070D01*
X16395024Y10324654D01*
X16377781Y10311866D01*
X16359368Y10300830D01*
X16339962Y10291651D01*
X16319750Y10284419D01*
X16298926Y10279203D01*
X16277691Y10276053D01*
X16256250Y10275000D01*
X15743750Y10275000D01*
X15722309Y10276053D01*
X15701074Y10279203D01*
X15680250Y10284419D01*
X15660038Y10291651D01*
X15640632Y10300830D01*
X15622219Y10311866D01*
X15604976Y10324654D01*
X15589070Y10339070D01*
X15574654Y10354976D01*
X15561866Y10372219D01*
X15550830Y10390632D01*
X15541651Y10410038D01*
X15534419Y10430250D01*
X15529203Y10451074D01*
X15526053Y10472309D01*
X15525000Y10493750D01*
X15525000Y10931250D01*
X15526053Y10952691D01*
X15529203Y10973926D01*
X15534419Y10994750D01*
X15541651Y11014962D01*
X15550830Y11034368D01*
X15561866Y11052781D01*
X15574654Y11070024D01*
X15589070Y11085930D01*
X15604976Y11100346D01*
X15622219Y11113134D01*
X15640632Y11124170D01*
X15660038Y11133349D01*
X15680250Y11140581D01*
X15701074Y11145797D01*
X15722309Y11148947D01*
X15743750Y11150000D01*
X16256250Y11150000D01*
X16277691Y11148947D01*
G37*
%TD*%
%TO.C,R2*%
G36*
X17877691Y16136447D02*
G01*
X17898926Y16133297D01*
X17919750Y16128081D01*
X17939962Y16120849D01*
X17959368Y16111670D01*
X17977781Y16100634D01*
X17995024Y16087846D01*
X18010930Y16073430D01*
X18025346Y16057524D01*
X18038134Y16040281D01*
X18049170Y16021868D01*
X18058349Y16002462D01*
X18065581Y15982250D01*
X18070797Y15961426D01*
X18073947Y15940191D01*
X18075000Y15918750D01*
X18075000Y15481250D01*
X18073947Y15459809D01*
X18070797Y15438574D01*
X18065581Y15417750D01*
X18058349Y15397538D01*
X18049170Y15378132D01*
X18038134Y15359719D01*
X18025346Y15342476D01*
X18010930Y15326570D01*
X17995024Y15312154D01*
X17977781Y15299366D01*
X17959368Y15288330D01*
X17939962Y15279151D01*
X17919750Y15271919D01*
X17898926Y15266703D01*
X17877691Y15263553D01*
X17856250Y15262500D01*
X17343750Y15262500D01*
X17322309Y15263553D01*
X17301074Y15266703D01*
X17280250Y15271919D01*
X17260038Y15279151D01*
X17240632Y15288330D01*
X17222219Y15299366D01*
X17204976Y15312154D01*
X17189070Y15326570D01*
X17174654Y15342476D01*
X17161866Y15359719D01*
X17150830Y15378132D01*
X17141651Y15397538D01*
X17134419Y15417750D01*
X17129203Y15438574D01*
X17126053Y15459809D01*
X17125000Y15481250D01*
X17125000Y15918750D01*
X17126053Y15940191D01*
X17129203Y15961426D01*
X17134419Y15982250D01*
X17141651Y16002462D01*
X17150830Y16021868D01*
X17161866Y16040281D01*
X17174654Y16057524D01*
X17189070Y16073430D01*
X17204976Y16087846D01*
X17222219Y16100634D01*
X17240632Y16111670D01*
X17260038Y16120849D01*
X17280250Y16128081D01*
X17301074Y16133297D01*
X17322309Y16136447D01*
X17343750Y16137500D01*
X17856250Y16137500D01*
X17877691Y16136447D01*
G37*
G36*
X17877691Y14561447D02*
G01*
X17898926Y14558297D01*
X17919750Y14553081D01*
X17939962Y14545849D01*
X17959368Y14536670D01*
X17977781Y14525634D01*
X17995024Y14512846D01*
X18010930Y14498430D01*
X18025346Y14482524D01*
X18038134Y14465281D01*
X18049170Y14446868D01*
X18058349Y14427462D01*
X18065581Y14407250D01*
X18070797Y14386426D01*
X18073947Y14365191D01*
X18075000Y14343750D01*
X18075000Y13906250D01*
X18073947Y13884809D01*
X18070797Y13863574D01*
X18065581Y13842750D01*
X18058349Y13822538D01*
X18049170Y13803132D01*
X18038134Y13784719D01*
X18025346Y13767476D01*
X18010930Y13751570D01*
X17995024Y13737154D01*
X17977781Y13724366D01*
X17959368Y13713330D01*
X17939962Y13704151D01*
X17919750Y13696919D01*
X17898926Y13691703D01*
X17877691Y13688553D01*
X17856250Y13687500D01*
X17343750Y13687500D01*
X17322309Y13688553D01*
X17301074Y13691703D01*
X17280250Y13696919D01*
X17260038Y13704151D01*
X17240632Y13713330D01*
X17222219Y13724366D01*
X17204976Y13737154D01*
X17189070Y13751570D01*
X17174654Y13767476D01*
X17161866Y13784719D01*
X17150830Y13803132D01*
X17141651Y13822538D01*
X17134419Y13842750D01*
X17129203Y13863574D01*
X17126053Y13884809D01*
X17125000Y13906250D01*
X17125000Y14343750D01*
X17126053Y14365191D01*
X17129203Y14386426D01*
X17134419Y14407250D01*
X17141651Y14427462D01*
X17150830Y14446868D01*
X17161866Y14465281D01*
X17174654Y14482524D01*
X17189070Y14498430D01*
X17204976Y14512846D01*
X17222219Y14525634D01*
X17240632Y14536670D01*
X17260038Y14545849D01*
X17280250Y14553081D01*
X17301074Y14558297D01*
X17322309Y14561447D01*
X17343750Y14562500D01*
X17856250Y14562500D01*
X17877691Y14561447D01*
G37*
%TD*%
%TO.C,R3*%
G36*
X22077691Y22923947D02*
G01*
X22098926Y22920797D01*
X22119750Y22915581D01*
X22139962Y22908349D01*
X22159368Y22899170D01*
X22177781Y22888134D01*
X22195024Y22875346D01*
X22210930Y22860930D01*
X22225346Y22845024D01*
X22238134Y22827781D01*
X22249170Y22809368D01*
X22258349Y22789962D01*
X22265581Y22769750D01*
X22270797Y22748926D01*
X22273947Y22727691D01*
X22275000Y22706250D01*
X22275000Y22268750D01*
X22273947Y22247309D01*
X22270797Y22226074D01*
X22265581Y22205250D01*
X22258349Y22185038D01*
X22249170Y22165632D01*
X22238134Y22147219D01*
X22225346Y22129976D01*
X22210930Y22114070D01*
X22195024Y22099654D01*
X22177781Y22086866D01*
X22159368Y22075830D01*
X22139962Y22066651D01*
X22119750Y22059419D01*
X22098926Y22054203D01*
X22077691Y22051053D01*
X22056250Y22050000D01*
X21543750Y22050000D01*
X21522309Y22051053D01*
X21501074Y22054203D01*
X21480250Y22059419D01*
X21460038Y22066651D01*
X21440632Y22075830D01*
X21422219Y22086866D01*
X21404976Y22099654D01*
X21389070Y22114070D01*
X21374654Y22129976D01*
X21361866Y22147219D01*
X21350830Y22165632D01*
X21341651Y22185038D01*
X21334419Y22205250D01*
X21329203Y22226074D01*
X21326053Y22247309D01*
X21325000Y22268750D01*
X21325000Y22706250D01*
X21326053Y22727691D01*
X21329203Y22748926D01*
X21334419Y22769750D01*
X21341651Y22789962D01*
X21350830Y22809368D01*
X21361866Y22827781D01*
X21374654Y22845024D01*
X21389070Y22860930D01*
X21404976Y22875346D01*
X21422219Y22888134D01*
X21440632Y22899170D01*
X21460038Y22908349D01*
X21480250Y22915581D01*
X21501074Y22920797D01*
X21522309Y22923947D01*
X21543750Y22925000D01*
X22056250Y22925000D01*
X22077691Y22923947D01*
G37*
G36*
X22077691Y21348947D02*
G01*
X22098926Y21345797D01*
X22119750Y21340581D01*
X22139962Y21333349D01*
X22159368Y21324170D01*
X22177781Y21313134D01*
X22195024Y21300346D01*
X22210930Y21285930D01*
X22225346Y21270024D01*
X22238134Y21252781D01*
X22249170Y21234368D01*
X22258349Y21214962D01*
X22265581Y21194750D01*
X22270797Y21173926D01*
X22273947Y21152691D01*
X22275000Y21131250D01*
X22275000Y20693750D01*
X22273947Y20672309D01*
X22270797Y20651074D01*
X22265581Y20630250D01*
X22258349Y20610038D01*
X22249170Y20590632D01*
X22238134Y20572219D01*
X22225346Y20554976D01*
X22210930Y20539070D01*
X22195024Y20524654D01*
X22177781Y20511866D01*
X22159368Y20500830D01*
X22139962Y20491651D01*
X22119750Y20484419D01*
X22098926Y20479203D01*
X22077691Y20476053D01*
X22056250Y20475000D01*
X21543750Y20475000D01*
X21522309Y20476053D01*
X21501074Y20479203D01*
X21480250Y20484419D01*
X21460038Y20491651D01*
X21440632Y20500830D01*
X21422219Y20511866D01*
X21404976Y20524654D01*
X21389070Y20539070D01*
X21374654Y20554976D01*
X21361866Y20572219D01*
X21350830Y20590632D01*
X21341651Y20610038D01*
X21334419Y20630250D01*
X21329203Y20651074D01*
X21326053Y20672309D01*
X21325000Y20693750D01*
X21325000Y21131250D01*
X21326053Y21152691D01*
X21329203Y21173926D01*
X21334419Y21194750D01*
X21341651Y21214962D01*
X21350830Y21234368D01*
X21361866Y21252781D01*
X21374654Y21270024D01*
X21389070Y21285930D01*
X21404976Y21300346D01*
X21422219Y21313134D01*
X21440632Y21324170D01*
X21460038Y21333349D01*
X21480250Y21340581D01*
X21501074Y21345797D01*
X21522309Y21348947D01*
X21543750Y21350000D01*
X22056250Y21350000D01*
X22077691Y21348947D01*
G37*
%TD*%
%TO.C,R4*%
G36*
X18952691Y22973947D02*
G01*
X18973926Y22970797D01*
X18994750Y22965581D01*
X19014962Y22958349D01*
X19034368Y22949170D01*
X19052781Y22938134D01*
X19070024Y22925346D01*
X19085930Y22910930D01*
X19100346Y22895024D01*
X19113134Y22877781D01*
X19124170Y22859368D01*
X19133349Y22839962D01*
X19140581Y22819750D01*
X19145797Y22798926D01*
X19148947Y22777691D01*
X19150000Y22756250D01*
X19150000Y22243750D01*
X19148947Y22222309D01*
X19145797Y22201074D01*
X19140581Y22180250D01*
X19133349Y22160038D01*
X19124170Y22140632D01*
X19113134Y22122219D01*
X19100346Y22104976D01*
X19085930Y22089070D01*
X19070024Y22074654D01*
X19052781Y22061866D01*
X19034368Y22050830D01*
X19014962Y22041651D01*
X18994750Y22034419D01*
X18973926Y22029203D01*
X18952691Y22026053D01*
X18931250Y22025000D01*
X18493750Y22025000D01*
X18472309Y22026053D01*
X18451074Y22029203D01*
X18430250Y22034419D01*
X18410038Y22041651D01*
X18390632Y22050830D01*
X18372219Y22061866D01*
X18354976Y22074654D01*
X18339070Y22089070D01*
X18324654Y22104976D01*
X18311866Y22122219D01*
X18300830Y22140632D01*
X18291651Y22160038D01*
X18284419Y22180250D01*
X18279203Y22201074D01*
X18276053Y22222309D01*
X18275000Y22243750D01*
X18275000Y22756250D01*
X18276053Y22777691D01*
X18279203Y22798926D01*
X18284419Y22819750D01*
X18291651Y22839962D01*
X18300830Y22859368D01*
X18311866Y22877781D01*
X18324654Y22895024D01*
X18339070Y22910930D01*
X18354976Y22925346D01*
X18372219Y22938134D01*
X18390632Y22949170D01*
X18410038Y22958349D01*
X18430250Y22965581D01*
X18451074Y22970797D01*
X18472309Y22973947D01*
X18493750Y22975000D01*
X18931250Y22975000D01*
X18952691Y22973947D01*
G37*
G36*
X20527691Y22973947D02*
G01*
X20548926Y22970797D01*
X20569750Y22965581D01*
X20589962Y22958349D01*
X20609368Y22949170D01*
X20627781Y22938134D01*
X20645024Y22925346D01*
X20660930Y22910930D01*
X20675346Y22895024D01*
X20688134Y22877781D01*
X20699170Y22859368D01*
X20708349Y22839962D01*
X20715581Y22819750D01*
X20720797Y22798926D01*
X20723947Y22777691D01*
X20725000Y22756250D01*
X20725000Y22243750D01*
X20723947Y22222309D01*
X20720797Y22201074D01*
X20715581Y22180250D01*
X20708349Y22160038D01*
X20699170Y22140632D01*
X20688134Y22122219D01*
X20675346Y22104976D01*
X20660930Y22089070D01*
X20645024Y22074654D01*
X20627781Y22061866D01*
X20609368Y22050830D01*
X20589962Y22041651D01*
X20569750Y22034419D01*
X20548926Y22029203D01*
X20527691Y22026053D01*
X20506250Y22025000D01*
X20068750Y22025000D01*
X20047309Y22026053D01*
X20026074Y22029203D01*
X20005250Y22034419D01*
X19985038Y22041651D01*
X19965632Y22050830D01*
X19947219Y22061866D01*
X19929976Y22074654D01*
X19914070Y22089070D01*
X19899654Y22104976D01*
X19886866Y22122219D01*
X19875830Y22140632D01*
X19866651Y22160038D01*
X19859419Y22180250D01*
X19854203Y22201074D01*
X19851053Y22222309D01*
X19850000Y22243750D01*
X19850000Y22756250D01*
X19851053Y22777691D01*
X19854203Y22798926D01*
X19859419Y22819750D01*
X19866651Y22839962D01*
X19875830Y22859368D01*
X19886866Y22877781D01*
X19899654Y22895024D01*
X19914070Y22910930D01*
X19929976Y22925346D01*
X19947219Y22938134D01*
X19965632Y22949170D01*
X19985038Y22958349D01*
X20005250Y22965581D01*
X20026074Y22970797D01*
X20047309Y22973947D01*
X20068750Y22975000D01*
X20506250Y22975000D01*
X20527691Y22973947D01*
G37*
%TD*%
%TO.C,R5*%
G36*
X29777691Y28973947D02*
G01*
X29798926Y28970797D01*
X29819750Y28965581D01*
X29839962Y28958349D01*
X29859368Y28949170D01*
X29877781Y28938134D01*
X29895024Y28925346D01*
X29910930Y28910930D01*
X29925346Y28895024D01*
X29938134Y28877781D01*
X29949170Y28859368D01*
X29958349Y28839962D01*
X29965581Y28819750D01*
X29970797Y28798926D01*
X29973947Y28777691D01*
X29975000Y28756250D01*
X29975000Y28243750D01*
X29973947Y28222309D01*
X29970797Y28201074D01*
X29965581Y28180250D01*
X29958349Y28160038D01*
X29949170Y28140632D01*
X29938134Y28122219D01*
X29925346Y28104976D01*
X29910930Y28089070D01*
X29895024Y28074654D01*
X29877781Y28061866D01*
X29859368Y28050830D01*
X29839962Y28041651D01*
X29819750Y28034419D01*
X29798926Y28029203D01*
X29777691Y28026053D01*
X29756250Y28025000D01*
X29318750Y28025000D01*
X29297309Y28026053D01*
X29276074Y28029203D01*
X29255250Y28034419D01*
X29235038Y28041651D01*
X29215632Y28050830D01*
X29197219Y28061866D01*
X29179976Y28074654D01*
X29164070Y28089070D01*
X29149654Y28104976D01*
X29136866Y28122219D01*
X29125830Y28140632D01*
X29116651Y28160038D01*
X29109419Y28180250D01*
X29104203Y28201074D01*
X29101053Y28222309D01*
X29100000Y28243750D01*
X29100000Y28756250D01*
X29101053Y28777691D01*
X29104203Y28798926D01*
X29109419Y28819750D01*
X29116651Y28839962D01*
X29125830Y28859368D01*
X29136866Y28877781D01*
X29149654Y28895024D01*
X29164070Y28910930D01*
X29179976Y28925346D01*
X29197219Y28938134D01*
X29215632Y28949170D01*
X29235038Y28958349D01*
X29255250Y28965581D01*
X29276074Y28970797D01*
X29297309Y28973947D01*
X29318750Y28975000D01*
X29756250Y28975000D01*
X29777691Y28973947D01*
G37*
G36*
X28202691Y28973947D02*
G01*
X28223926Y28970797D01*
X28244750Y28965581D01*
X28264962Y28958349D01*
X28284368Y28949170D01*
X28302781Y28938134D01*
X28320024Y28925346D01*
X28335930Y28910930D01*
X28350346Y28895024D01*
X28363134Y28877781D01*
X28374170Y28859368D01*
X28383349Y28839962D01*
X28390581Y28819750D01*
X28395797Y28798926D01*
X28398947Y28777691D01*
X28400000Y28756250D01*
X28400000Y28243750D01*
X28398947Y28222309D01*
X28395797Y28201074D01*
X28390581Y28180250D01*
X28383349Y28160038D01*
X28374170Y28140632D01*
X28363134Y28122219D01*
X28350346Y28104976D01*
X28335930Y28089070D01*
X28320024Y28074654D01*
X28302781Y28061866D01*
X28284368Y28050830D01*
X28264962Y28041651D01*
X28244750Y28034419D01*
X28223926Y28029203D01*
X28202691Y28026053D01*
X28181250Y28025000D01*
X27743750Y28025000D01*
X27722309Y28026053D01*
X27701074Y28029203D01*
X27680250Y28034419D01*
X27660038Y28041651D01*
X27640632Y28050830D01*
X27622219Y28061866D01*
X27604976Y28074654D01*
X27589070Y28089070D01*
X27574654Y28104976D01*
X27561866Y28122219D01*
X27550830Y28140632D01*
X27541651Y28160038D01*
X27534419Y28180250D01*
X27529203Y28201074D01*
X27526053Y28222309D01*
X27525000Y28243750D01*
X27525000Y28756250D01*
X27526053Y28777691D01*
X27529203Y28798926D01*
X27534419Y28819750D01*
X27541651Y28839962D01*
X27550830Y28859368D01*
X27561866Y28877781D01*
X27574654Y28895024D01*
X27589070Y28910930D01*
X27604976Y28925346D01*
X27622219Y28938134D01*
X27640632Y28949170D01*
X27660038Y28958349D01*
X27680250Y28965581D01*
X27701074Y28970797D01*
X27722309Y28973947D01*
X27743750Y28975000D01*
X28181250Y28975000D01*
X28202691Y28973947D01*
G37*
%TD*%
%TO.C,R6*%
G36*
X24027691Y46973947D02*
G01*
X24048926Y46970797D01*
X24069750Y46965581D01*
X24089962Y46958349D01*
X24109368Y46949170D01*
X24127781Y46938134D01*
X24145024Y46925346D01*
X24160930Y46910930D01*
X24175346Y46895024D01*
X24188134Y46877781D01*
X24199170Y46859368D01*
X24208349Y46839962D01*
X24215581Y46819750D01*
X24220797Y46798926D01*
X24223947Y46777691D01*
X24225000Y46756250D01*
X24225000Y46243750D01*
X24223947Y46222309D01*
X24220797Y46201074D01*
X24215581Y46180250D01*
X24208349Y46160038D01*
X24199170Y46140632D01*
X24188134Y46122219D01*
X24175346Y46104976D01*
X24160930Y46089070D01*
X24145024Y46074654D01*
X24127781Y46061866D01*
X24109368Y46050830D01*
X24089962Y46041651D01*
X24069750Y46034419D01*
X24048926Y46029203D01*
X24027691Y46026053D01*
X24006250Y46025000D01*
X23568750Y46025000D01*
X23547309Y46026053D01*
X23526074Y46029203D01*
X23505250Y46034419D01*
X23485038Y46041651D01*
X23465632Y46050830D01*
X23447219Y46061866D01*
X23429976Y46074654D01*
X23414070Y46089070D01*
X23399654Y46104976D01*
X23386866Y46122219D01*
X23375830Y46140632D01*
X23366651Y46160038D01*
X23359419Y46180250D01*
X23354203Y46201074D01*
X23351053Y46222309D01*
X23350000Y46243750D01*
X23350000Y46756250D01*
X23351053Y46777691D01*
X23354203Y46798926D01*
X23359419Y46819750D01*
X23366651Y46839962D01*
X23375830Y46859368D01*
X23386866Y46877781D01*
X23399654Y46895024D01*
X23414070Y46910930D01*
X23429976Y46925346D01*
X23447219Y46938134D01*
X23465632Y46949170D01*
X23485038Y46958349D01*
X23505250Y46965581D01*
X23526074Y46970797D01*
X23547309Y46973947D01*
X23568750Y46975000D01*
X24006250Y46975000D01*
X24027691Y46973947D01*
G37*
G36*
X22452691Y46973947D02*
G01*
X22473926Y46970797D01*
X22494750Y46965581D01*
X22514962Y46958349D01*
X22534368Y46949170D01*
X22552781Y46938134D01*
X22570024Y46925346D01*
X22585930Y46910930D01*
X22600346Y46895024D01*
X22613134Y46877781D01*
X22624170Y46859368D01*
X22633349Y46839962D01*
X22640581Y46819750D01*
X22645797Y46798926D01*
X22648947Y46777691D01*
X22650000Y46756250D01*
X22650000Y46243750D01*
X22648947Y46222309D01*
X22645797Y46201074D01*
X22640581Y46180250D01*
X22633349Y46160038D01*
X22624170Y46140632D01*
X22613134Y46122219D01*
X22600346Y46104976D01*
X22585930Y46089070D01*
X22570024Y46074654D01*
X22552781Y46061866D01*
X22534368Y46050830D01*
X22514962Y46041651D01*
X22494750Y46034419D01*
X22473926Y46029203D01*
X22452691Y46026053D01*
X22431250Y46025000D01*
X21993750Y46025000D01*
X21972309Y46026053D01*
X21951074Y46029203D01*
X21930250Y46034419D01*
X21910038Y46041651D01*
X21890632Y46050830D01*
X21872219Y46061866D01*
X21854976Y46074654D01*
X21839070Y46089070D01*
X21824654Y46104976D01*
X21811866Y46122219D01*
X21800830Y46140632D01*
X21791651Y46160038D01*
X21784419Y46180250D01*
X21779203Y46201074D01*
X21776053Y46222309D01*
X21775000Y46243750D01*
X21775000Y46756250D01*
X21776053Y46777691D01*
X21779203Y46798926D01*
X21784419Y46819750D01*
X21791651Y46839962D01*
X21800830Y46859368D01*
X21811866Y46877781D01*
X21824654Y46895024D01*
X21839070Y46910930D01*
X21854976Y46925346D01*
X21872219Y46938134D01*
X21890632Y46949170D01*
X21910038Y46958349D01*
X21930250Y46965581D01*
X21951074Y46970797D01*
X21972309Y46973947D01*
X21993750Y46975000D01*
X22431250Y46975000D01*
X22452691Y46973947D01*
G37*
%TD*%
%TO.C,R7*%
G36*
X24277691Y30973947D02*
G01*
X24298926Y30970797D01*
X24319750Y30965581D01*
X24339962Y30958349D01*
X24359368Y30949170D01*
X24377781Y30938134D01*
X24395024Y30925346D01*
X24410930Y30910930D01*
X24425346Y30895024D01*
X24438134Y30877781D01*
X24449170Y30859368D01*
X24458349Y30839962D01*
X24465581Y30819750D01*
X24470797Y30798926D01*
X24473947Y30777691D01*
X24475000Y30756250D01*
X24475000Y30243750D01*
X24473947Y30222309D01*
X24470797Y30201074D01*
X24465581Y30180250D01*
X24458349Y30160038D01*
X24449170Y30140632D01*
X24438134Y30122219D01*
X24425346Y30104976D01*
X24410930Y30089070D01*
X24395024Y30074654D01*
X24377781Y30061866D01*
X24359368Y30050830D01*
X24339962Y30041651D01*
X24319750Y30034419D01*
X24298926Y30029203D01*
X24277691Y30026053D01*
X24256250Y30025000D01*
X23818750Y30025000D01*
X23797309Y30026053D01*
X23776074Y30029203D01*
X23755250Y30034419D01*
X23735038Y30041651D01*
X23715632Y30050830D01*
X23697219Y30061866D01*
X23679976Y30074654D01*
X23664070Y30089070D01*
X23649654Y30104976D01*
X23636866Y30122219D01*
X23625830Y30140632D01*
X23616651Y30160038D01*
X23609419Y30180250D01*
X23604203Y30201074D01*
X23601053Y30222309D01*
X23600000Y30243750D01*
X23600000Y30756250D01*
X23601053Y30777691D01*
X23604203Y30798926D01*
X23609419Y30819750D01*
X23616651Y30839962D01*
X23625830Y30859368D01*
X23636866Y30877781D01*
X23649654Y30895024D01*
X23664070Y30910930D01*
X23679976Y30925346D01*
X23697219Y30938134D01*
X23715632Y30949170D01*
X23735038Y30958349D01*
X23755250Y30965581D01*
X23776074Y30970797D01*
X23797309Y30973947D01*
X23818750Y30975000D01*
X24256250Y30975000D01*
X24277691Y30973947D01*
G37*
G36*
X22702691Y30973947D02*
G01*
X22723926Y30970797D01*
X22744750Y30965581D01*
X22764962Y30958349D01*
X22784368Y30949170D01*
X22802781Y30938134D01*
X22820024Y30925346D01*
X22835930Y30910930D01*
X22850346Y30895024D01*
X22863134Y30877781D01*
X22874170Y30859368D01*
X22883349Y30839962D01*
X22890581Y30819750D01*
X22895797Y30798926D01*
X22898947Y30777691D01*
X22900000Y30756250D01*
X22900000Y30243750D01*
X22898947Y30222309D01*
X22895797Y30201074D01*
X22890581Y30180250D01*
X22883349Y30160038D01*
X22874170Y30140632D01*
X22863134Y30122219D01*
X22850346Y30104976D01*
X22835930Y30089070D01*
X22820024Y30074654D01*
X22802781Y30061866D01*
X22784368Y30050830D01*
X22764962Y30041651D01*
X22744750Y30034419D01*
X22723926Y30029203D01*
X22702691Y30026053D01*
X22681250Y30025000D01*
X22243750Y30025000D01*
X22222309Y30026053D01*
X22201074Y30029203D01*
X22180250Y30034419D01*
X22160038Y30041651D01*
X22140632Y30050830D01*
X22122219Y30061866D01*
X22104976Y30074654D01*
X22089070Y30089070D01*
X22074654Y30104976D01*
X22061866Y30122219D01*
X22050830Y30140632D01*
X22041651Y30160038D01*
X22034419Y30180250D01*
X22029203Y30201074D01*
X22026053Y30222309D01*
X22025000Y30243750D01*
X22025000Y30756250D01*
X22026053Y30777691D01*
X22029203Y30798926D01*
X22034419Y30819750D01*
X22041651Y30839962D01*
X22050830Y30859368D01*
X22061866Y30877781D01*
X22074654Y30895024D01*
X22089070Y30910930D01*
X22104976Y30925346D01*
X22122219Y30938134D01*
X22140632Y30949170D01*
X22160038Y30958349D01*
X22180250Y30965581D01*
X22201074Y30970797D01*
X22222309Y30973947D01*
X22243750Y30975000D01*
X22681250Y30975000D01*
X22702691Y30973947D01*
G37*
%TD*%
%TO.C,R8*%
G36*
X28702691Y52723947D02*
G01*
X28723926Y52720797D01*
X28744750Y52715581D01*
X28764962Y52708349D01*
X28784368Y52699170D01*
X28802781Y52688134D01*
X28820024Y52675346D01*
X28835930Y52660930D01*
X28850346Y52645024D01*
X28863134Y52627781D01*
X28874170Y52609368D01*
X28883349Y52589962D01*
X28890581Y52569750D01*
X28895797Y52548926D01*
X28898947Y52527691D01*
X28900000Y52506250D01*
X28900000Y51993750D01*
X28898947Y51972309D01*
X28895797Y51951074D01*
X28890581Y51930250D01*
X28883349Y51910038D01*
X28874170Y51890632D01*
X28863134Y51872219D01*
X28850346Y51854976D01*
X28835930Y51839070D01*
X28820024Y51824654D01*
X28802781Y51811866D01*
X28784368Y51800830D01*
X28764962Y51791651D01*
X28744750Y51784419D01*
X28723926Y51779203D01*
X28702691Y51776053D01*
X28681250Y51775000D01*
X28243750Y51775000D01*
X28222309Y51776053D01*
X28201074Y51779203D01*
X28180250Y51784419D01*
X28160038Y51791651D01*
X28140632Y51800830D01*
X28122219Y51811866D01*
X28104976Y51824654D01*
X28089070Y51839070D01*
X28074654Y51854976D01*
X28061866Y51872219D01*
X28050830Y51890632D01*
X28041651Y51910038D01*
X28034419Y51930250D01*
X28029203Y51951074D01*
X28026053Y51972309D01*
X28025000Y51993750D01*
X28025000Y52506250D01*
X28026053Y52527691D01*
X28029203Y52548926D01*
X28034419Y52569750D01*
X28041651Y52589962D01*
X28050830Y52609368D01*
X28061866Y52627781D01*
X28074654Y52645024D01*
X28089070Y52660930D01*
X28104976Y52675346D01*
X28122219Y52688134D01*
X28140632Y52699170D01*
X28160038Y52708349D01*
X28180250Y52715581D01*
X28201074Y52720797D01*
X28222309Y52723947D01*
X28243750Y52725000D01*
X28681250Y52725000D01*
X28702691Y52723947D01*
G37*
G36*
X30277691Y52723947D02*
G01*
X30298926Y52720797D01*
X30319750Y52715581D01*
X30339962Y52708349D01*
X30359368Y52699170D01*
X30377781Y52688134D01*
X30395024Y52675346D01*
X30410930Y52660930D01*
X30425346Y52645024D01*
X30438134Y52627781D01*
X30449170Y52609368D01*
X30458349Y52589962D01*
X30465581Y52569750D01*
X30470797Y52548926D01*
X30473947Y52527691D01*
X30475000Y52506250D01*
X30475000Y51993750D01*
X30473947Y51972309D01*
X30470797Y51951074D01*
X30465581Y51930250D01*
X30458349Y51910038D01*
X30449170Y51890632D01*
X30438134Y51872219D01*
X30425346Y51854976D01*
X30410930Y51839070D01*
X30395024Y51824654D01*
X30377781Y51811866D01*
X30359368Y51800830D01*
X30339962Y51791651D01*
X30319750Y51784419D01*
X30298926Y51779203D01*
X30277691Y51776053D01*
X30256250Y51775000D01*
X29818750Y51775000D01*
X29797309Y51776053D01*
X29776074Y51779203D01*
X29755250Y51784419D01*
X29735038Y51791651D01*
X29715632Y51800830D01*
X29697219Y51811866D01*
X29679976Y51824654D01*
X29664070Y51839070D01*
X29649654Y51854976D01*
X29636866Y51872219D01*
X29625830Y51890632D01*
X29616651Y51910038D01*
X29609419Y51930250D01*
X29604203Y51951074D01*
X29601053Y51972309D01*
X29600000Y51993750D01*
X29600000Y52506250D01*
X29601053Y52527691D01*
X29604203Y52548926D01*
X29609419Y52569750D01*
X29616651Y52589962D01*
X29625830Y52609368D01*
X29636866Y52627781D01*
X29649654Y52645024D01*
X29664070Y52660930D01*
X29679976Y52675346D01*
X29697219Y52688134D01*
X29715632Y52699170D01*
X29735038Y52708349D01*
X29755250Y52715581D01*
X29776074Y52720797D01*
X29797309Y52723947D01*
X29818750Y52725000D01*
X30256250Y52725000D01*
X30277691Y52723947D01*
G37*
%TD*%
%TO.C,R9*%
G36*
X33777691Y42723947D02*
G01*
X33798926Y42720797D01*
X33819750Y42715581D01*
X33839962Y42708349D01*
X33859368Y42699170D01*
X33877781Y42688134D01*
X33895024Y42675346D01*
X33910930Y42660930D01*
X33925346Y42645024D01*
X33938134Y42627781D01*
X33949170Y42609368D01*
X33958349Y42589962D01*
X33965581Y42569750D01*
X33970797Y42548926D01*
X33973947Y42527691D01*
X33975000Y42506250D01*
X33975000Y42068750D01*
X33973947Y42047309D01*
X33970797Y42026074D01*
X33965581Y42005250D01*
X33958349Y41985038D01*
X33949170Y41965632D01*
X33938134Y41947219D01*
X33925346Y41929976D01*
X33910930Y41914070D01*
X33895024Y41899654D01*
X33877781Y41886866D01*
X33859368Y41875830D01*
X33839962Y41866651D01*
X33819750Y41859419D01*
X33798926Y41854203D01*
X33777691Y41851053D01*
X33756250Y41850000D01*
X33243750Y41850000D01*
X33222309Y41851053D01*
X33201074Y41854203D01*
X33180250Y41859419D01*
X33160038Y41866651D01*
X33140632Y41875830D01*
X33122219Y41886866D01*
X33104976Y41899654D01*
X33089070Y41914070D01*
X33074654Y41929976D01*
X33061866Y41947219D01*
X33050830Y41965632D01*
X33041651Y41985038D01*
X33034419Y42005250D01*
X33029203Y42026074D01*
X33026053Y42047309D01*
X33025000Y42068750D01*
X33025000Y42506250D01*
X33026053Y42527691D01*
X33029203Y42548926D01*
X33034419Y42569750D01*
X33041651Y42589962D01*
X33050830Y42609368D01*
X33061866Y42627781D01*
X33074654Y42645024D01*
X33089070Y42660930D01*
X33104976Y42675346D01*
X33122219Y42688134D01*
X33140632Y42699170D01*
X33160038Y42708349D01*
X33180250Y42715581D01*
X33201074Y42720797D01*
X33222309Y42723947D01*
X33243750Y42725000D01*
X33756250Y42725000D01*
X33777691Y42723947D01*
G37*
G36*
X33777691Y41148947D02*
G01*
X33798926Y41145797D01*
X33819750Y41140581D01*
X33839962Y41133349D01*
X33859368Y41124170D01*
X33877781Y41113134D01*
X33895024Y41100346D01*
X33910930Y41085930D01*
X33925346Y41070024D01*
X33938134Y41052781D01*
X33949170Y41034368D01*
X33958349Y41014962D01*
X33965581Y40994750D01*
X33970797Y40973926D01*
X33973947Y40952691D01*
X33975000Y40931250D01*
X33975000Y40493750D01*
X33973947Y40472309D01*
X33970797Y40451074D01*
X33965581Y40430250D01*
X33958349Y40410038D01*
X33949170Y40390632D01*
X33938134Y40372219D01*
X33925346Y40354976D01*
X33910930Y40339070D01*
X33895024Y40324654D01*
X33877781Y40311866D01*
X33859368Y40300830D01*
X33839962Y40291651D01*
X33819750Y40284419D01*
X33798926Y40279203D01*
X33777691Y40276053D01*
X33756250Y40275000D01*
X33243750Y40275000D01*
X33222309Y40276053D01*
X33201074Y40279203D01*
X33180250Y40284419D01*
X33160038Y40291651D01*
X33140632Y40300830D01*
X33122219Y40311866D01*
X33104976Y40324654D01*
X33089070Y40339070D01*
X33074654Y40354976D01*
X33061866Y40372219D01*
X33050830Y40390632D01*
X33041651Y40410038D01*
X33034419Y40430250D01*
X33029203Y40451074D01*
X33026053Y40472309D01*
X33025000Y40493750D01*
X33025000Y40931250D01*
X33026053Y40952691D01*
X33029203Y40973926D01*
X33034419Y40994750D01*
X33041651Y41014962D01*
X33050830Y41034368D01*
X33061866Y41052781D01*
X33074654Y41070024D01*
X33089070Y41085930D01*
X33104976Y41100346D01*
X33122219Y41113134D01*
X33140632Y41124170D01*
X33160038Y41133349D01*
X33180250Y41140581D01*
X33201074Y41145797D01*
X33222309Y41148947D01*
X33243750Y41150000D01*
X33756250Y41150000D01*
X33777691Y41148947D01*
G37*
%TD*%
%TO.C,R10*%
G36*
X19777691Y48898947D02*
G01*
X19798926Y48895797D01*
X19819750Y48890581D01*
X19839962Y48883349D01*
X19859368Y48874170D01*
X19877781Y48863134D01*
X19895024Y48850346D01*
X19910930Y48835930D01*
X19925346Y48820024D01*
X19938134Y48802781D01*
X19949170Y48784368D01*
X19958349Y48764962D01*
X19965581Y48744750D01*
X19970797Y48723926D01*
X19973947Y48702691D01*
X19975000Y48681250D01*
X19975000Y48243750D01*
X19973947Y48222309D01*
X19970797Y48201074D01*
X19965581Y48180250D01*
X19958349Y48160038D01*
X19949170Y48140632D01*
X19938134Y48122219D01*
X19925346Y48104976D01*
X19910930Y48089070D01*
X19895024Y48074654D01*
X19877781Y48061866D01*
X19859368Y48050830D01*
X19839962Y48041651D01*
X19819750Y48034419D01*
X19798926Y48029203D01*
X19777691Y48026053D01*
X19756250Y48025000D01*
X19243750Y48025000D01*
X19222309Y48026053D01*
X19201074Y48029203D01*
X19180250Y48034419D01*
X19160038Y48041651D01*
X19140632Y48050830D01*
X19122219Y48061866D01*
X19104976Y48074654D01*
X19089070Y48089070D01*
X19074654Y48104976D01*
X19061866Y48122219D01*
X19050830Y48140632D01*
X19041651Y48160038D01*
X19034419Y48180250D01*
X19029203Y48201074D01*
X19026053Y48222309D01*
X19025000Y48243750D01*
X19025000Y48681250D01*
X19026053Y48702691D01*
X19029203Y48723926D01*
X19034419Y48744750D01*
X19041651Y48764962D01*
X19050830Y48784368D01*
X19061866Y48802781D01*
X19074654Y48820024D01*
X19089070Y48835930D01*
X19104976Y48850346D01*
X19122219Y48863134D01*
X19140632Y48874170D01*
X19160038Y48883349D01*
X19180250Y48890581D01*
X19201074Y48895797D01*
X19222309Y48898947D01*
X19243750Y48900000D01*
X19756250Y48900000D01*
X19777691Y48898947D01*
G37*
G36*
X19777691Y50473947D02*
G01*
X19798926Y50470797D01*
X19819750Y50465581D01*
X19839962Y50458349D01*
X19859368Y50449170D01*
X19877781Y50438134D01*
X19895024Y50425346D01*
X19910930Y50410930D01*
X19925346Y50395024D01*
X19938134Y50377781D01*
X19949170Y50359368D01*
X19958349Y50339962D01*
X19965581Y50319750D01*
X19970797Y50298926D01*
X19973947Y50277691D01*
X19975000Y50256250D01*
X19975000Y49818750D01*
X19973947Y49797309D01*
X19970797Y49776074D01*
X19965581Y49755250D01*
X19958349Y49735038D01*
X19949170Y49715632D01*
X19938134Y49697219D01*
X19925346Y49679976D01*
X19910930Y49664070D01*
X19895024Y49649654D01*
X19877781Y49636866D01*
X19859368Y49625830D01*
X19839962Y49616651D01*
X19819750Y49609419D01*
X19798926Y49604203D01*
X19777691Y49601053D01*
X19756250Y49600000D01*
X19243750Y49600000D01*
X19222309Y49601053D01*
X19201074Y49604203D01*
X19180250Y49609419D01*
X19160038Y49616651D01*
X19140632Y49625830D01*
X19122219Y49636866D01*
X19104976Y49649654D01*
X19089070Y49664070D01*
X19074654Y49679976D01*
X19061866Y49697219D01*
X19050830Y49715632D01*
X19041651Y49735038D01*
X19034419Y49755250D01*
X19029203Y49776074D01*
X19026053Y49797309D01*
X19025000Y49818750D01*
X19025000Y50256250D01*
X19026053Y50277691D01*
X19029203Y50298926D01*
X19034419Y50319750D01*
X19041651Y50339962D01*
X19050830Y50359368D01*
X19061866Y50377781D01*
X19074654Y50395024D01*
X19089070Y50410930D01*
X19104976Y50425346D01*
X19122219Y50438134D01*
X19140632Y50449170D01*
X19160038Y50458349D01*
X19180250Y50465581D01*
X19201074Y50470797D01*
X19222309Y50473947D01*
X19243750Y50475000D01*
X19756250Y50475000D01*
X19777691Y50473947D01*
G37*
%TD*%
%TO.C,R11*%
G36*
X19527691Y47223947D02*
G01*
X19548926Y47220797D01*
X19569750Y47215581D01*
X19589962Y47208349D01*
X19609368Y47199170D01*
X19627781Y47188134D01*
X19645024Y47175346D01*
X19660930Y47160930D01*
X19675346Y47145024D01*
X19688134Y47127781D01*
X19699170Y47109368D01*
X19708349Y47089962D01*
X19715581Y47069750D01*
X19720797Y47048926D01*
X19723947Y47027691D01*
X19725000Y47006250D01*
X19725000Y46493750D01*
X19723947Y46472309D01*
X19720797Y46451074D01*
X19715581Y46430250D01*
X19708349Y46410038D01*
X19699170Y46390632D01*
X19688134Y46372219D01*
X19675346Y46354976D01*
X19660930Y46339070D01*
X19645024Y46324654D01*
X19627781Y46311866D01*
X19609368Y46300830D01*
X19589962Y46291651D01*
X19569750Y46284419D01*
X19548926Y46279203D01*
X19527691Y46276053D01*
X19506250Y46275000D01*
X19068750Y46275000D01*
X19047309Y46276053D01*
X19026074Y46279203D01*
X19005250Y46284419D01*
X18985038Y46291651D01*
X18965632Y46300830D01*
X18947219Y46311866D01*
X18929976Y46324654D01*
X18914070Y46339070D01*
X18899654Y46354976D01*
X18886866Y46372219D01*
X18875830Y46390632D01*
X18866651Y46410038D01*
X18859419Y46430250D01*
X18854203Y46451074D01*
X18851053Y46472309D01*
X18850000Y46493750D01*
X18850000Y47006250D01*
X18851053Y47027691D01*
X18854203Y47048926D01*
X18859419Y47069750D01*
X18866651Y47089962D01*
X18875830Y47109368D01*
X18886866Y47127781D01*
X18899654Y47145024D01*
X18914070Y47160930D01*
X18929976Y47175346D01*
X18947219Y47188134D01*
X18965632Y47199170D01*
X18985038Y47208349D01*
X19005250Y47215581D01*
X19026074Y47220797D01*
X19047309Y47223947D01*
X19068750Y47225000D01*
X19506250Y47225000D01*
X19527691Y47223947D01*
G37*
G36*
X17952691Y47223947D02*
G01*
X17973926Y47220797D01*
X17994750Y47215581D01*
X18014962Y47208349D01*
X18034368Y47199170D01*
X18052781Y47188134D01*
X18070024Y47175346D01*
X18085930Y47160930D01*
X18100346Y47145024D01*
X18113134Y47127781D01*
X18124170Y47109368D01*
X18133349Y47089962D01*
X18140581Y47069750D01*
X18145797Y47048926D01*
X18148947Y47027691D01*
X18150000Y47006250D01*
X18150000Y46493750D01*
X18148947Y46472309D01*
X18145797Y46451074D01*
X18140581Y46430250D01*
X18133349Y46410038D01*
X18124170Y46390632D01*
X18113134Y46372219D01*
X18100346Y46354976D01*
X18085930Y46339070D01*
X18070024Y46324654D01*
X18052781Y46311866D01*
X18034368Y46300830D01*
X18014962Y46291651D01*
X17994750Y46284419D01*
X17973926Y46279203D01*
X17952691Y46276053D01*
X17931250Y46275000D01*
X17493750Y46275000D01*
X17472309Y46276053D01*
X17451074Y46279203D01*
X17430250Y46284419D01*
X17410038Y46291651D01*
X17390632Y46300830D01*
X17372219Y46311866D01*
X17354976Y46324654D01*
X17339070Y46339070D01*
X17324654Y46354976D01*
X17311866Y46372219D01*
X17300830Y46390632D01*
X17291651Y46410038D01*
X17284419Y46430250D01*
X17279203Y46451074D01*
X17276053Y46472309D01*
X17275000Y46493750D01*
X17275000Y47006250D01*
X17276053Y47027691D01*
X17279203Y47048926D01*
X17284419Y47069750D01*
X17291651Y47089962D01*
X17300830Y47109368D01*
X17311866Y47127781D01*
X17324654Y47145024D01*
X17339070Y47160930D01*
X17354976Y47175346D01*
X17372219Y47188134D01*
X17390632Y47199170D01*
X17410038Y47208349D01*
X17430250Y47215581D01*
X17451074Y47220797D01*
X17472309Y47223947D01*
X17493750Y47225000D01*
X17931250Y47225000D01*
X17952691Y47223947D01*
G37*
%TD*%
%TO.C,R12*%
G36*
X14677691Y51723947D02*
G01*
X14698926Y51720797D01*
X14719750Y51715581D01*
X14739962Y51708349D01*
X14759368Y51699170D01*
X14777781Y51688134D01*
X14795024Y51675346D01*
X14810930Y51660930D01*
X14825346Y51645024D01*
X14838134Y51627781D01*
X14849170Y51609368D01*
X14858349Y51589962D01*
X14865581Y51569750D01*
X14870797Y51548926D01*
X14873947Y51527691D01*
X14875000Y51506250D01*
X14875000Y51068750D01*
X14873947Y51047309D01*
X14870797Y51026074D01*
X14865581Y51005250D01*
X14858349Y50985038D01*
X14849170Y50965632D01*
X14838134Y50947219D01*
X14825346Y50929976D01*
X14810930Y50914070D01*
X14795024Y50899654D01*
X14777781Y50886866D01*
X14759368Y50875830D01*
X14739962Y50866651D01*
X14719750Y50859419D01*
X14698926Y50854203D01*
X14677691Y50851053D01*
X14656250Y50850000D01*
X14143750Y50850000D01*
X14122309Y50851053D01*
X14101074Y50854203D01*
X14080250Y50859419D01*
X14060038Y50866651D01*
X14040632Y50875830D01*
X14022219Y50886866D01*
X14004976Y50899654D01*
X13989070Y50914070D01*
X13974654Y50929976D01*
X13961866Y50947219D01*
X13950830Y50965632D01*
X13941651Y50985038D01*
X13934419Y51005250D01*
X13929203Y51026074D01*
X13926053Y51047309D01*
X13925000Y51068750D01*
X13925000Y51506250D01*
X13926053Y51527691D01*
X13929203Y51548926D01*
X13934419Y51569750D01*
X13941651Y51589962D01*
X13950830Y51609368D01*
X13961866Y51627781D01*
X13974654Y51645024D01*
X13989070Y51660930D01*
X14004976Y51675346D01*
X14022219Y51688134D01*
X14040632Y51699170D01*
X14060038Y51708349D01*
X14080250Y51715581D01*
X14101074Y51720797D01*
X14122309Y51723947D01*
X14143750Y51725000D01*
X14656250Y51725000D01*
X14677691Y51723947D01*
G37*
G36*
X14677691Y50148947D02*
G01*
X14698926Y50145797D01*
X14719750Y50140581D01*
X14739962Y50133349D01*
X14759368Y50124170D01*
X14777781Y50113134D01*
X14795024Y50100346D01*
X14810930Y50085930D01*
X14825346Y50070024D01*
X14838134Y50052781D01*
X14849170Y50034368D01*
X14858349Y50014962D01*
X14865581Y49994750D01*
X14870797Y49973926D01*
X14873947Y49952691D01*
X14875000Y49931250D01*
X14875000Y49493750D01*
X14873947Y49472309D01*
X14870797Y49451074D01*
X14865581Y49430250D01*
X14858349Y49410038D01*
X14849170Y49390632D01*
X14838134Y49372219D01*
X14825346Y49354976D01*
X14810930Y49339070D01*
X14795024Y49324654D01*
X14777781Y49311866D01*
X14759368Y49300830D01*
X14739962Y49291651D01*
X14719750Y49284419D01*
X14698926Y49279203D01*
X14677691Y49276053D01*
X14656250Y49275000D01*
X14143750Y49275000D01*
X14122309Y49276053D01*
X14101074Y49279203D01*
X14080250Y49284419D01*
X14060038Y49291651D01*
X14040632Y49300830D01*
X14022219Y49311866D01*
X14004976Y49324654D01*
X13989070Y49339070D01*
X13974654Y49354976D01*
X13961866Y49372219D01*
X13950830Y49390632D01*
X13941651Y49410038D01*
X13934419Y49430250D01*
X13929203Y49451074D01*
X13926053Y49472309D01*
X13925000Y49493750D01*
X13925000Y49931250D01*
X13926053Y49952691D01*
X13929203Y49973926D01*
X13934419Y49994750D01*
X13941651Y50014962D01*
X13950830Y50034368D01*
X13961866Y50052781D01*
X13974654Y50070024D01*
X13989070Y50085930D01*
X14004976Y50100346D01*
X14022219Y50113134D01*
X14040632Y50124170D01*
X14060038Y50133349D01*
X14080250Y50140581D01*
X14101074Y50145797D01*
X14122309Y50148947D01*
X14143750Y50150000D01*
X14656250Y50150000D01*
X14677691Y50148947D01*
G37*
%TD*%
%TO.C,R13*%
G36*
X26277691Y39148947D02*
G01*
X26298926Y39145797D01*
X26319750Y39140581D01*
X26339962Y39133349D01*
X26359368Y39124170D01*
X26377781Y39113134D01*
X26395024Y39100346D01*
X26410930Y39085930D01*
X26425346Y39070024D01*
X26438134Y39052781D01*
X26449170Y39034368D01*
X26458349Y39014962D01*
X26465581Y38994750D01*
X26470797Y38973926D01*
X26473947Y38952691D01*
X26475000Y38931250D01*
X26475000Y38493750D01*
X26473947Y38472309D01*
X26470797Y38451074D01*
X26465581Y38430250D01*
X26458349Y38410038D01*
X26449170Y38390632D01*
X26438134Y38372219D01*
X26425346Y38354976D01*
X26410930Y38339070D01*
X26395024Y38324654D01*
X26377781Y38311866D01*
X26359368Y38300830D01*
X26339962Y38291651D01*
X26319750Y38284419D01*
X26298926Y38279203D01*
X26277691Y38276053D01*
X26256250Y38275000D01*
X25743750Y38275000D01*
X25722309Y38276053D01*
X25701074Y38279203D01*
X25680250Y38284419D01*
X25660038Y38291651D01*
X25640632Y38300830D01*
X25622219Y38311866D01*
X25604976Y38324654D01*
X25589070Y38339070D01*
X25574654Y38354976D01*
X25561866Y38372219D01*
X25550830Y38390632D01*
X25541651Y38410038D01*
X25534419Y38430250D01*
X25529203Y38451074D01*
X25526053Y38472309D01*
X25525000Y38493750D01*
X25525000Y38931250D01*
X25526053Y38952691D01*
X25529203Y38973926D01*
X25534419Y38994750D01*
X25541651Y39014962D01*
X25550830Y39034368D01*
X25561866Y39052781D01*
X25574654Y39070024D01*
X25589070Y39085930D01*
X25604976Y39100346D01*
X25622219Y39113134D01*
X25640632Y39124170D01*
X25660038Y39133349D01*
X25680250Y39140581D01*
X25701074Y39145797D01*
X25722309Y39148947D01*
X25743750Y39150000D01*
X26256250Y39150000D01*
X26277691Y39148947D01*
G37*
G36*
X26277691Y40723947D02*
G01*
X26298926Y40720797D01*
X26319750Y40715581D01*
X26339962Y40708349D01*
X26359368Y40699170D01*
X26377781Y40688134D01*
X26395024Y40675346D01*
X26410930Y40660930D01*
X26425346Y40645024D01*
X26438134Y40627781D01*
X26449170Y40609368D01*
X26458349Y40589962D01*
X26465581Y40569750D01*
X26470797Y40548926D01*
X26473947Y40527691D01*
X26475000Y40506250D01*
X26475000Y40068750D01*
X26473947Y40047309D01*
X26470797Y40026074D01*
X26465581Y40005250D01*
X26458349Y39985038D01*
X26449170Y39965632D01*
X26438134Y39947219D01*
X26425346Y39929976D01*
X26410930Y39914070D01*
X26395024Y39899654D01*
X26377781Y39886866D01*
X26359368Y39875830D01*
X26339962Y39866651D01*
X26319750Y39859419D01*
X26298926Y39854203D01*
X26277691Y39851053D01*
X26256250Y39850000D01*
X25743750Y39850000D01*
X25722309Y39851053D01*
X25701074Y39854203D01*
X25680250Y39859419D01*
X25660038Y39866651D01*
X25640632Y39875830D01*
X25622219Y39886866D01*
X25604976Y39899654D01*
X25589070Y39914070D01*
X25574654Y39929976D01*
X25561866Y39947219D01*
X25550830Y39965632D01*
X25541651Y39985038D01*
X25534419Y40005250D01*
X25529203Y40026074D01*
X25526053Y40047309D01*
X25525000Y40068750D01*
X25525000Y40506250D01*
X25526053Y40527691D01*
X25529203Y40548926D01*
X25534419Y40569750D01*
X25541651Y40589962D01*
X25550830Y40609368D01*
X25561866Y40627781D01*
X25574654Y40645024D01*
X25589070Y40660930D01*
X25604976Y40675346D01*
X25622219Y40688134D01*
X25640632Y40699170D01*
X25660038Y40708349D01*
X25680250Y40715581D01*
X25701074Y40720797D01*
X25722309Y40723947D01*
X25743750Y40725000D01*
X26256250Y40725000D01*
X26277691Y40723947D01*
G37*
%TD*%
%TO.C,R14*%
G36*
X29352691Y36973947D02*
G01*
X29373926Y36970797D01*
X29394750Y36965581D01*
X29414962Y36958349D01*
X29434368Y36949170D01*
X29452781Y36938134D01*
X29470024Y36925346D01*
X29485930Y36910930D01*
X29500346Y36895024D01*
X29513134Y36877781D01*
X29524170Y36859368D01*
X29533349Y36839962D01*
X29540581Y36819750D01*
X29545797Y36798926D01*
X29548947Y36777691D01*
X29550000Y36756250D01*
X29550000Y36243750D01*
X29548947Y36222309D01*
X29545797Y36201074D01*
X29540581Y36180250D01*
X29533349Y36160038D01*
X29524170Y36140632D01*
X29513134Y36122219D01*
X29500346Y36104976D01*
X29485930Y36089070D01*
X29470024Y36074654D01*
X29452781Y36061866D01*
X29434368Y36050830D01*
X29414962Y36041651D01*
X29394750Y36034419D01*
X29373926Y36029203D01*
X29352691Y36026053D01*
X29331250Y36025000D01*
X28893750Y36025000D01*
X28872309Y36026053D01*
X28851074Y36029203D01*
X28830250Y36034419D01*
X28810038Y36041651D01*
X28790632Y36050830D01*
X28772219Y36061866D01*
X28754976Y36074654D01*
X28739070Y36089070D01*
X28724654Y36104976D01*
X28711866Y36122219D01*
X28700830Y36140632D01*
X28691651Y36160038D01*
X28684419Y36180250D01*
X28679203Y36201074D01*
X28676053Y36222309D01*
X28675000Y36243750D01*
X28675000Y36756250D01*
X28676053Y36777691D01*
X28679203Y36798926D01*
X28684419Y36819750D01*
X28691651Y36839962D01*
X28700830Y36859368D01*
X28711866Y36877781D01*
X28724654Y36895024D01*
X28739070Y36910930D01*
X28754976Y36925346D01*
X28772219Y36938134D01*
X28790632Y36949170D01*
X28810038Y36958349D01*
X28830250Y36965581D01*
X28851074Y36970797D01*
X28872309Y36973947D01*
X28893750Y36975000D01*
X29331250Y36975000D01*
X29352691Y36973947D01*
G37*
G36*
X30927691Y36973947D02*
G01*
X30948926Y36970797D01*
X30969750Y36965581D01*
X30989962Y36958349D01*
X31009368Y36949170D01*
X31027781Y36938134D01*
X31045024Y36925346D01*
X31060930Y36910930D01*
X31075346Y36895024D01*
X31088134Y36877781D01*
X31099170Y36859368D01*
X31108349Y36839962D01*
X31115581Y36819750D01*
X31120797Y36798926D01*
X31123947Y36777691D01*
X31125000Y36756250D01*
X31125000Y36243750D01*
X31123947Y36222309D01*
X31120797Y36201074D01*
X31115581Y36180250D01*
X31108349Y36160038D01*
X31099170Y36140632D01*
X31088134Y36122219D01*
X31075346Y36104976D01*
X31060930Y36089070D01*
X31045024Y36074654D01*
X31027781Y36061866D01*
X31009368Y36050830D01*
X30989962Y36041651D01*
X30969750Y36034419D01*
X30948926Y36029203D01*
X30927691Y36026053D01*
X30906250Y36025000D01*
X30468750Y36025000D01*
X30447309Y36026053D01*
X30426074Y36029203D01*
X30405250Y36034419D01*
X30385038Y36041651D01*
X30365632Y36050830D01*
X30347219Y36061866D01*
X30329976Y36074654D01*
X30314070Y36089070D01*
X30299654Y36104976D01*
X30286866Y36122219D01*
X30275830Y36140632D01*
X30266651Y36160038D01*
X30259419Y36180250D01*
X30254203Y36201074D01*
X30251053Y36222309D01*
X30250000Y36243750D01*
X30250000Y36756250D01*
X30251053Y36777691D01*
X30254203Y36798926D01*
X30259419Y36819750D01*
X30266651Y36839962D01*
X30275830Y36859368D01*
X30286866Y36877781D01*
X30299654Y36895024D01*
X30314070Y36910930D01*
X30329976Y36925346D01*
X30347219Y36938134D01*
X30365632Y36949170D01*
X30385038Y36958349D01*
X30405250Y36965581D01*
X30426074Y36970797D01*
X30447309Y36973947D01*
X30468750Y36975000D01*
X30906250Y36975000D01*
X30927691Y36973947D01*
G37*
%TD*%
%TO.C,R15*%
G36*
X1452691Y36723947D02*
G01*
X1473926Y36720797D01*
X1494750Y36715581D01*
X1514962Y36708349D01*
X1534368Y36699170D01*
X1552781Y36688134D01*
X1570024Y36675346D01*
X1585930Y36660930D01*
X1600346Y36645024D01*
X1613134Y36627781D01*
X1624170Y36609368D01*
X1633349Y36589962D01*
X1640581Y36569750D01*
X1645797Y36548926D01*
X1648947Y36527691D01*
X1650000Y36506250D01*
X1650000Y35993750D01*
X1648947Y35972309D01*
X1645797Y35951074D01*
X1640581Y35930250D01*
X1633349Y35910038D01*
X1624170Y35890632D01*
X1613134Y35872219D01*
X1600346Y35854976D01*
X1585930Y35839070D01*
X1570024Y35824654D01*
X1552781Y35811866D01*
X1534368Y35800830D01*
X1514962Y35791651D01*
X1494750Y35784419D01*
X1473926Y35779203D01*
X1452691Y35776053D01*
X1431250Y35775000D01*
X993750Y35775000D01*
X972309Y35776053D01*
X951074Y35779203D01*
X930250Y35784419D01*
X910038Y35791651D01*
X890632Y35800830D01*
X872219Y35811866D01*
X854976Y35824654D01*
X839070Y35839070D01*
X824654Y35854976D01*
X811866Y35872219D01*
X800830Y35890632D01*
X791651Y35910038D01*
X784419Y35930250D01*
X779203Y35951074D01*
X776053Y35972309D01*
X775000Y35993750D01*
X775000Y36506250D01*
X776053Y36527691D01*
X779203Y36548926D01*
X784419Y36569750D01*
X791651Y36589962D01*
X800830Y36609368D01*
X811866Y36627781D01*
X824654Y36645024D01*
X839070Y36660930D01*
X854976Y36675346D01*
X872219Y36688134D01*
X890632Y36699170D01*
X910038Y36708349D01*
X930250Y36715581D01*
X951074Y36720797D01*
X972309Y36723947D01*
X993750Y36725000D01*
X1431250Y36725000D01*
X1452691Y36723947D01*
G37*
G36*
X3027691Y36723947D02*
G01*
X3048926Y36720797D01*
X3069750Y36715581D01*
X3089962Y36708349D01*
X3109368Y36699170D01*
X3127781Y36688134D01*
X3145024Y36675346D01*
X3160930Y36660930D01*
X3175346Y36645024D01*
X3188134Y36627781D01*
X3199170Y36609368D01*
X3208349Y36589962D01*
X3215581Y36569750D01*
X3220797Y36548926D01*
X3223947Y36527691D01*
X3225000Y36506250D01*
X3225000Y35993750D01*
X3223947Y35972309D01*
X3220797Y35951074D01*
X3215581Y35930250D01*
X3208349Y35910038D01*
X3199170Y35890632D01*
X3188134Y35872219D01*
X3175346Y35854976D01*
X3160930Y35839070D01*
X3145024Y35824654D01*
X3127781Y35811866D01*
X3109368Y35800830D01*
X3089962Y35791651D01*
X3069750Y35784419D01*
X3048926Y35779203D01*
X3027691Y35776053D01*
X3006250Y35775000D01*
X2568750Y35775000D01*
X2547309Y35776053D01*
X2526074Y35779203D01*
X2505250Y35784419D01*
X2485038Y35791651D01*
X2465632Y35800830D01*
X2447219Y35811866D01*
X2429976Y35824654D01*
X2414070Y35839070D01*
X2399654Y35854976D01*
X2386866Y35872219D01*
X2375830Y35890632D01*
X2366651Y35910038D01*
X2359419Y35930250D01*
X2354203Y35951074D01*
X2351053Y35972309D01*
X2350000Y35993750D01*
X2350000Y36506250D01*
X2351053Y36527691D01*
X2354203Y36548926D01*
X2359419Y36569750D01*
X2366651Y36589962D01*
X2375830Y36609368D01*
X2386866Y36627781D01*
X2399654Y36645024D01*
X2414070Y36660930D01*
X2429976Y36675346D01*
X2447219Y36688134D01*
X2465632Y36699170D01*
X2485038Y36708349D01*
X2505250Y36715581D01*
X2526074Y36720797D01*
X2547309Y36723947D01*
X2568750Y36725000D01*
X3006250Y36725000D01*
X3027691Y36723947D01*
G37*
%TD*%
%TO.C,R16*%
G36*
X13527691Y44548947D02*
G01*
X13548926Y44545797D01*
X13569750Y44540581D01*
X13589962Y44533349D01*
X13609368Y44524170D01*
X13627781Y44513134D01*
X13645024Y44500346D01*
X13660930Y44485930D01*
X13675346Y44470024D01*
X13688134Y44452781D01*
X13699170Y44434368D01*
X13708349Y44414962D01*
X13715581Y44394750D01*
X13720797Y44373926D01*
X13723947Y44352691D01*
X13725000Y44331250D01*
X13725000Y43893750D01*
X13723947Y43872309D01*
X13720797Y43851074D01*
X13715581Y43830250D01*
X13708349Y43810038D01*
X13699170Y43790632D01*
X13688134Y43772219D01*
X13675346Y43754976D01*
X13660930Y43739070D01*
X13645024Y43724654D01*
X13627781Y43711866D01*
X13609368Y43700830D01*
X13589962Y43691651D01*
X13569750Y43684419D01*
X13548926Y43679203D01*
X13527691Y43676053D01*
X13506250Y43675000D01*
X12993750Y43675000D01*
X12972309Y43676053D01*
X12951074Y43679203D01*
X12930250Y43684419D01*
X12910038Y43691651D01*
X12890632Y43700830D01*
X12872219Y43711866D01*
X12854976Y43724654D01*
X12839070Y43739070D01*
X12824654Y43754976D01*
X12811866Y43772219D01*
X12800830Y43790632D01*
X12791651Y43810038D01*
X12784419Y43830250D01*
X12779203Y43851074D01*
X12776053Y43872309D01*
X12775000Y43893750D01*
X12775000Y44331250D01*
X12776053Y44352691D01*
X12779203Y44373926D01*
X12784419Y44394750D01*
X12791651Y44414962D01*
X12800830Y44434368D01*
X12811866Y44452781D01*
X12824654Y44470024D01*
X12839070Y44485930D01*
X12854976Y44500346D01*
X12872219Y44513134D01*
X12890632Y44524170D01*
X12910038Y44533349D01*
X12930250Y44540581D01*
X12951074Y44545797D01*
X12972309Y44548947D01*
X12993750Y44550000D01*
X13506250Y44550000D01*
X13527691Y44548947D01*
G37*
G36*
X13527691Y46123947D02*
G01*
X13548926Y46120797D01*
X13569750Y46115581D01*
X13589962Y46108349D01*
X13609368Y46099170D01*
X13627781Y46088134D01*
X13645024Y46075346D01*
X13660930Y46060930D01*
X13675346Y46045024D01*
X13688134Y46027781D01*
X13699170Y46009368D01*
X13708349Y45989962D01*
X13715581Y45969750D01*
X13720797Y45948926D01*
X13723947Y45927691D01*
X13725000Y45906250D01*
X13725000Y45468750D01*
X13723947Y45447309D01*
X13720797Y45426074D01*
X13715581Y45405250D01*
X13708349Y45385038D01*
X13699170Y45365632D01*
X13688134Y45347219D01*
X13675346Y45329976D01*
X13660930Y45314070D01*
X13645024Y45299654D01*
X13627781Y45286866D01*
X13609368Y45275830D01*
X13589962Y45266651D01*
X13569750Y45259419D01*
X13548926Y45254203D01*
X13527691Y45251053D01*
X13506250Y45250000D01*
X12993750Y45250000D01*
X12972309Y45251053D01*
X12951074Y45254203D01*
X12930250Y45259419D01*
X12910038Y45266651D01*
X12890632Y45275830D01*
X12872219Y45286866D01*
X12854976Y45299654D01*
X12839070Y45314070D01*
X12824654Y45329976D01*
X12811866Y45347219D01*
X12800830Y45365632D01*
X12791651Y45385038D01*
X12784419Y45405250D01*
X12779203Y45426074D01*
X12776053Y45447309D01*
X12775000Y45468750D01*
X12775000Y45906250D01*
X12776053Y45927691D01*
X12779203Y45948926D01*
X12784419Y45969750D01*
X12791651Y45989962D01*
X12800830Y46009368D01*
X12811866Y46027781D01*
X12824654Y46045024D01*
X12839070Y46060930D01*
X12854976Y46075346D01*
X12872219Y46088134D01*
X12890632Y46099170D01*
X12910038Y46108349D01*
X12930250Y46115581D01*
X12951074Y46120797D01*
X12972309Y46123947D01*
X12993750Y46125000D01*
X13506250Y46125000D01*
X13527691Y46123947D01*
G37*
%TD*%
%TO.C,R17*%
G36*
X23952691Y44223947D02*
G01*
X23973926Y44220797D01*
X23994750Y44215581D01*
X24014962Y44208349D01*
X24034368Y44199170D01*
X24052781Y44188134D01*
X24070024Y44175346D01*
X24085930Y44160930D01*
X24100346Y44145024D01*
X24113134Y44127781D01*
X24124170Y44109368D01*
X24133349Y44089962D01*
X24140581Y44069750D01*
X24145797Y44048926D01*
X24148947Y44027691D01*
X24150000Y44006250D01*
X24150000Y43493750D01*
X24148947Y43472309D01*
X24145797Y43451074D01*
X24140581Y43430250D01*
X24133349Y43410038D01*
X24124170Y43390632D01*
X24113134Y43372219D01*
X24100346Y43354976D01*
X24085930Y43339070D01*
X24070024Y43324654D01*
X24052781Y43311866D01*
X24034368Y43300830D01*
X24014962Y43291651D01*
X23994750Y43284419D01*
X23973926Y43279203D01*
X23952691Y43276053D01*
X23931250Y43275000D01*
X23493750Y43275000D01*
X23472309Y43276053D01*
X23451074Y43279203D01*
X23430250Y43284419D01*
X23410038Y43291651D01*
X23390632Y43300830D01*
X23372219Y43311866D01*
X23354976Y43324654D01*
X23339070Y43339070D01*
X23324654Y43354976D01*
X23311866Y43372219D01*
X23300830Y43390632D01*
X23291651Y43410038D01*
X23284419Y43430250D01*
X23279203Y43451074D01*
X23276053Y43472309D01*
X23275000Y43493750D01*
X23275000Y44006250D01*
X23276053Y44027691D01*
X23279203Y44048926D01*
X23284419Y44069750D01*
X23291651Y44089962D01*
X23300830Y44109368D01*
X23311866Y44127781D01*
X23324654Y44145024D01*
X23339070Y44160930D01*
X23354976Y44175346D01*
X23372219Y44188134D01*
X23390632Y44199170D01*
X23410038Y44208349D01*
X23430250Y44215581D01*
X23451074Y44220797D01*
X23472309Y44223947D01*
X23493750Y44225000D01*
X23931250Y44225000D01*
X23952691Y44223947D01*
G37*
G36*
X25527691Y44223947D02*
G01*
X25548926Y44220797D01*
X25569750Y44215581D01*
X25589962Y44208349D01*
X25609368Y44199170D01*
X25627781Y44188134D01*
X25645024Y44175346D01*
X25660930Y44160930D01*
X25675346Y44145024D01*
X25688134Y44127781D01*
X25699170Y44109368D01*
X25708349Y44089962D01*
X25715581Y44069750D01*
X25720797Y44048926D01*
X25723947Y44027691D01*
X25725000Y44006250D01*
X25725000Y43493750D01*
X25723947Y43472309D01*
X25720797Y43451074D01*
X25715581Y43430250D01*
X25708349Y43410038D01*
X25699170Y43390632D01*
X25688134Y43372219D01*
X25675346Y43354976D01*
X25660930Y43339070D01*
X25645024Y43324654D01*
X25627781Y43311866D01*
X25609368Y43300830D01*
X25589962Y43291651D01*
X25569750Y43284419D01*
X25548926Y43279203D01*
X25527691Y43276053D01*
X25506250Y43275000D01*
X25068750Y43275000D01*
X25047309Y43276053D01*
X25026074Y43279203D01*
X25005250Y43284419D01*
X24985038Y43291651D01*
X24965632Y43300830D01*
X24947219Y43311866D01*
X24929976Y43324654D01*
X24914070Y43339070D01*
X24899654Y43354976D01*
X24886866Y43372219D01*
X24875830Y43390632D01*
X24866651Y43410038D01*
X24859419Y43430250D01*
X24854203Y43451074D01*
X24851053Y43472309D01*
X24850000Y43493750D01*
X24850000Y44006250D01*
X24851053Y44027691D01*
X24854203Y44048926D01*
X24859419Y44069750D01*
X24866651Y44089962D01*
X24875830Y44109368D01*
X24886866Y44127781D01*
X24899654Y44145024D01*
X24914070Y44160930D01*
X24929976Y44175346D01*
X24947219Y44188134D01*
X24965632Y44199170D01*
X24985038Y44208349D01*
X25005250Y44215581D01*
X25026074Y44220797D01*
X25047309Y44223947D01*
X25068750Y44225000D01*
X25506250Y44225000D01*
X25527691Y44223947D01*
G37*
%TD*%
%TO.C,R18*%
G36*
X22277691Y42648947D02*
G01*
X22298926Y42645797D01*
X22319750Y42640581D01*
X22339962Y42633349D01*
X22359368Y42624170D01*
X22377781Y42613134D01*
X22395024Y42600346D01*
X22410930Y42585930D01*
X22425346Y42570024D01*
X22438134Y42552781D01*
X22449170Y42534368D01*
X22458349Y42514962D01*
X22465581Y42494750D01*
X22470797Y42473926D01*
X22473947Y42452691D01*
X22475000Y42431250D01*
X22475000Y41993750D01*
X22473947Y41972309D01*
X22470797Y41951074D01*
X22465581Y41930250D01*
X22458349Y41910038D01*
X22449170Y41890632D01*
X22438134Y41872219D01*
X22425346Y41854976D01*
X22410930Y41839070D01*
X22395024Y41824654D01*
X22377781Y41811866D01*
X22359368Y41800830D01*
X22339962Y41791651D01*
X22319750Y41784419D01*
X22298926Y41779203D01*
X22277691Y41776053D01*
X22256250Y41775000D01*
X21743750Y41775000D01*
X21722309Y41776053D01*
X21701074Y41779203D01*
X21680250Y41784419D01*
X21660038Y41791651D01*
X21640632Y41800830D01*
X21622219Y41811866D01*
X21604976Y41824654D01*
X21589070Y41839070D01*
X21574654Y41854976D01*
X21561866Y41872219D01*
X21550830Y41890632D01*
X21541651Y41910038D01*
X21534419Y41930250D01*
X21529203Y41951074D01*
X21526053Y41972309D01*
X21525000Y41993750D01*
X21525000Y42431250D01*
X21526053Y42452691D01*
X21529203Y42473926D01*
X21534419Y42494750D01*
X21541651Y42514962D01*
X21550830Y42534368D01*
X21561866Y42552781D01*
X21574654Y42570024D01*
X21589070Y42585930D01*
X21604976Y42600346D01*
X21622219Y42613134D01*
X21640632Y42624170D01*
X21660038Y42633349D01*
X21680250Y42640581D01*
X21701074Y42645797D01*
X21722309Y42648947D01*
X21743750Y42650000D01*
X22256250Y42650000D01*
X22277691Y42648947D01*
G37*
G36*
X22277691Y44223947D02*
G01*
X22298926Y44220797D01*
X22319750Y44215581D01*
X22339962Y44208349D01*
X22359368Y44199170D01*
X22377781Y44188134D01*
X22395024Y44175346D01*
X22410930Y44160930D01*
X22425346Y44145024D01*
X22438134Y44127781D01*
X22449170Y44109368D01*
X22458349Y44089962D01*
X22465581Y44069750D01*
X22470797Y44048926D01*
X22473947Y44027691D01*
X22475000Y44006250D01*
X22475000Y43568750D01*
X22473947Y43547309D01*
X22470797Y43526074D01*
X22465581Y43505250D01*
X22458349Y43485038D01*
X22449170Y43465632D01*
X22438134Y43447219D01*
X22425346Y43429976D01*
X22410930Y43414070D01*
X22395024Y43399654D01*
X22377781Y43386866D01*
X22359368Y43375830D01*
X22339962Y43366651D01*
X22319750Y43359419D01*
X22298926Y43354203D01*
X22277691Y43351053D01*
X22256250Y43350000D01*
X21743750Y43350000D01*
X21722309Y43351053D01*
X21701074Y43354203D01*
X21680250Y43359419D01*
X21660038Y43366651D01*
X21640632Y43375830D01*
X21622219Y43386866D01*
X21604976Y43399654D01*
X21589070Y43414070D01*
X21574654Y43429976D01*
X21561866Y43447219D01*
X21550830Y43465632D01*
X21541651Y43485038D01*
X21534419Y43505250D01*
X21529203Y43526074D01*
X21526053Y43547309D01*
X21525000Y43568750D01*
X21525000Y44006250D01*
X21526053Y44027691D01*
X21529203Y44048926D01*
X21534419Y44069750D01*
X21541651Y44089962D01*
X21550830Y44109368D01*
X21561866Y44127781D01*
X21574654Y44145024D01*
X21589070Y44160930D01*
X21604976Y44175346D01*
X21622219Y44188134D01*
X21640632Y44199170D01*
X21660038Y44208349D01*
X21680250Y44215581D01*
X21701074Y44220797D01*
X21722309Y44223947D01*
X21743750Y44225000D01*
X22256250Y44225000D01*
X22277691Y44223947D01*
G37*
%TD*%
%TO.C,R19*%
G36*
X24027691Y34723947D02*
G01*
X24048926Y34720797D01*
X24069750Y34715581D01*
X24089962Y34708349D01*
X24109368Y34699170D01*
X24127781Y34688134D01*
X24145024Y34675346D01*
X24160930Y34660930D01*
X24175346Y34645024D01*
X24188134Y34627781D01*
X24199170Y34609368D01*
X24208349Y34589962D01*
X24215581Y34569750D01*
X24220797Y34548926D01*
X24223947Y34527691D01*
X24225000Y34506250D01*
X24225000Y33993750D01*
X24223947Y33972309D01*
X24220797Y33951074D01*
X24215581Y33930250D01*
X24208349Y33910038D01*
X24199170Y33890632D01*
X24188134Y33872219D01*
X24175346Y33854976D01*
X24160930Y33839070D01*
X24145024Y33824654D01*
X24127781Y33811866D01*
X24109368Y33800830D01*
X24089962Y33791651D01*
X24069750Y33784419D01*
X24048926Y33779203D01*
X24027691Y33776053D01*
X24006250Y33775000D01*
X23568750Y33775000D01*
X23547309Y33776053D01*
X23526074Y33779203D01*
X23505250Y33784419D01*
X23485038Y33791651D01*
X23465632Y33800830D01*
X23447219Y33811866D01*
X23429976Y33824654D01*
X23414070Y33839070D01*
X23399654Y33854976D01*
X23386866Y33872219D01*
X23375830Y33890632D01*
X23366651Y33910038D01*
X23359419Y33930250D01*
X23354203Y33951074D01*
X23351053Y33972309D01*
X23350000Y33993750D01*
X23350000Y34506250D01*
X23351053Y34527691D01*
X23354203Y34548926D01*
X23359419Y34569750D01*
X23366651Y34589962D01*
X23375830Y34609368D01*
X23386866Y34627781D01*
X23399654Y34645024D01*
X23414070Y34660930D01*
X23429976Y34675346D01*
X23447219Y34688134D01*
X23465632Y34699170D01*
X23485038Y34708349D01*
X23505250Y34715581D01*
X23526074Y34720797D01*
X23547309Y34723947D01*
X23568750Y34725000D01*
X24006250Y34725000D01*
X24027691Y34723947D01*
G37*
G36*
X22452691Y34723947D02*
G01*
X22473926Y34720797D01*
X22494750Y34715581D01*
X22514962Y34708349D01*
X22534368Y34699170D01*
X22552781Y34688134D01*
X22570024Y34675346D01*
X22585930Y34660930D01*
X22600346Y34645024D01*
X22613134Y34627781D01*
X22624170Y34609368D01*
X22633349Y34589962D01*
X22640581Y34569750D01*
X22645797Y34548926D01*
X22648947Y34527691D01*
X22650000Y34506250D01*
X22650000Y33993750D01*
X22648947Y33972309D01*
X22645797Y33951074D01*
X22640581Y33930250D01*
X22633349Y33910038D01*
X22624170Y33890632D01*
X22613134Y33872219D01*
X22600346Y33854976D01*
X22585930Y33839070D01*
X22570024Y33824654D01*
X22552781Y33811866D01*
X22534368Y33800830D01*
X22514962Y33791651D01*
X22494750Y33784419D01*
X22473926Y33779203D01*
X22452691Y33776053D01*
X22431250Y33775000D01*
X21993750Y33775000D01*
X21972309Y33776053D01*
X21951074Y33779203D01*
X21930250Y33784419D01*
X21910038Y33791651D01*
X21890632Y33800830D01*
X21872219Y33811866D01*
X21854976Y33824654D01*
X21839070Y33839070D01*
X21824654Y33854976D01*
X21811866Y33872219D01*
X21800830Y33890632D01*
X21791651Y33910038D01*
X21784419Y33930250D01*
X21779203Y33951074D01*
X21776053Y33972309D01*
X21775000Y33993750D01*
X21775000Y34506250D01*
X21776053Y34527691D01*
X21779203Y34548926D01*
X21784419Y34569750D01*
X21791651Y34589962D01*
X21800830Y34609368D01*
X21811866Y34627781D01*
X21824654Y34645024D01*
X21839070Y34660930D01*
X21854976Y34675346D01*
X21872219Y34688134D01*
X21890632Y34699170D01*
X21910038Y34708349D01*
X21930250Y34715581D01*
X21951074Y34720797D01*
X21972309Y34723947D01*
X21993750Y34725000D01*
X22431250Y34725000D01*
X22452691Y34723947D01*
G37*
%TD*%
%TO.C,C12*%
G36*
X36180142Y37448826D02*
G01*
X36203803Y37445316D01*
X36227007Y37439504D01*
X36249529Y37431446D01*
X36271153Y37421218D01*
X36291670Y37408921D01*
X36310883Y37394671D01*
X36328607Y37378607D01*
X36344671Y37360883D01*
X36358921Y37341670D01*
X36371218Y37321153D01*
X36381446Y37299529D01*
X36389504Y37277007D01*
X36395316Y37253803D01*
X36398826Y37230142D01*
X36400000Y37206250D01*
X36400000Y36718750D01*
X36398826Y36694858D01*
X36395316Y36671197D01*
X36389504Y36647993D01*
X36381446Y36625471D01*
X36371218Y36603847D01*
X36358921Y36583330D01*
X36344671Y36564117D01*
X36328607Y36546393D01*
X36310883Y36530329D01*
X36291670Y36516079D01*
X36271153Y36503782D01*
X36249529Y36493554D01*
X36227007Y36485496D01*
X36203803Y36479684D01*
X36180142Y36476174D01*
X36156250Y36475000D01*
X35243750Y36475000D01*
X35219858Y36476174D01*
X35196197Y36479684D01*
X35172993Y36485496D01*
X35150471Y36493554D01*
X35128847Y36503782D01*
X35108330Y36516079D01*
X35089117Y36530329D01*
X35071393Y36546393D01*
X35055329Y36564117D01*
X35041079Y36583330D01*
X35028782Y36603847D01*
X35018554Y36625471D01*
X35010496Y36647993D01*
X35004684Y36671197D01*
X35001174Y36694858D01*
X35000000Y36718750D01*
X35000000Y37206250D01*
X35001174Y37230142D01*
X35004684Y37253803D01*
X35010496Y37277007D01*
X35018554Y37299529D01*
X35028782Y37321153D01*
X35041079Y37341670D01*
X35055329Y37360883D01*
X35071393Y37378607D01*
X35089117Y37394671D01*
X35108330Y37408921D01*
X35128847Y37421218D01*
X35150471Y37431446D01*
X35172993Y37439504D01*
X35196197Y37445316D01*
X35219858Y37448826D01*
X35243750Y37450000D01*
X36156250Y37450000D01*
X36180142Y37448826D01*
G37*
G36*
X36180142Y39323826D02*
G01*
X36203803Y39320316D01*
X36227007Y39314504D01*
X36249529Y39306446D01*
X36271153Y39296218D01*
X36291670Y39283921D01*
X36310883Y39269671D01*
X36328607Y39253607D01*
X36344671Y39235883D01*
X36358921Y39216670D01*
X36371218Y39196153D01*
X36381446Y39174529D01*
X36389504Y39152007D01*
X36395316Y39128803D01*
X36398826Y39105142D01*
X36400000Y39081250D01*
X36400000Y38593750D01*
X36398826Y38569858D01*
X36395316Y38546197D01*
X36389504Y38522993D01*
X36381446Y38500471D01*
X36371218Y38478847D01*
X36358921Y38458330D01*
X36344671Y38439117D01*
X36328607Y38421393D01*
X36310883Y38405329D01*
X36291670Y38391079D01*
X36271153Y38378782D01*
X36249529Y38368554D01*
X36227007Y38360496D01*
X36203803Y38354684D01*
X36180142Y38351174D01*
X36156250Y38350000D01*
X35243750Y38350000D01*
X35219858Y38351174D01*
X35196197Y38354684D01*
X35172993Y38360496D01*
X35150471Y38368554D01*
X35128847Y38378782D01*
X35108330Y38391079D01*
X35089117Y38405329D01*
X35071393Y38421393D01*
X35055329Y38439117D01*
X35041079Y38458330D01*
X35028782Y38478847D01*
X35018554Y38500471D01*
X35010496Y38522993D01*
X35004684Y38546197D01*
X35001174Y38569858D01*
X35000000Y38593750D01*
X35000000Y39081250D01*
X35001174Y39105142D01*
X35004684Y39128803D01*
X35010496Y39152007D01*
X35018554Y39174529D01*
X35028782Y39196153D01*
X35041079Y39216670D01*
X35055329Y39235883D01*
X35071393Y39253607D01*
X35089117Y39269671D01*
X35108330Y39283921D01*
X35128847Y39296218D01*
X35150471Y39306446D01*
X35172993Y39314504D01*
X35196197Y39320316D01*
X35219858Y39323826D01*
X35243750Y39325000D01*
X36156250Y39325000D01*
X36180142Y39323826D01*
G37*
%TD*%
%TO.C,C13*%
G36*
X34180142Y37448826D02*
G01*
X34203803Y37445316D01*
X34227007Y37439504D01*
X34249529Y37431446D01*
X34271153Y37421218D01*
X34291670Y37408921D01*
X34310883Y37394671D01*
X34328607Y37378607D01*
X34344671Y37360883D01*
X34358921Y37341670D01*
X34371218Y37321153D01*
X34381446Y37299529D01*
X34389504Y37277007D01*
X34395316Y37253803D01*
X34398826Y37230142D01*
X34400000Y37206250D01*
X34400000Y36718750D01*
X34398826Y36694858D01*
X34395316Y36671197D01*
X34389504Y36647993D01*
X34381446Y36625471D01*
X34371218Y36603847D01*
X34358921Y36583330D01*
X34344671Y36564117D01*
X34328607Y36546393D01*
X34310883Y36530329D01*
X34291670Y36516079D01*
X34271153Y36503782D01*
X34249529Y36493554D01*
X34227007Y36485496D01*
X34203803Y36479684D01*
X34180142Y36476174D01*
X34156250Y36475000D01*
X33243750Y36475000D01*
X33219858Y36476174D01*
X33196197Y36479684D01*
X33172993Y36485496D01*
X33150471Y36493554D01*
X33128847Y36503782D01*
X33108330Y36516079D01*
X33089117Y36530329D01*
X33071393Y36546393D01*
X33055329Y36564117D01*
X33041079Y36583330D01*
X33028782Y36603847D01*
X33018554Y36625471D01*
X33010496Y36647993D01*
X33004684Y36671197D01*
X33001174Y36694858D01*
X33000000Y36718750D01*
X33000000Y37206250D01*
X33001174Y37230142D01*
X33004684Y37253803D01*
X33010496Y37277007D01*
X33018554Y37299529D01*
X33028782Y37321153D01*
X33041079Y37341670D01*
X33055329Y37360883D01*
X33071393Y37378607D01*
X33089117Y37394671D01*
X33108330Y37408921D01*
X33128847Y37421218D01*
X33150471Y37431446D01*
X33172993Y37439504D01*
X33196197Y37445316D01*
X33219858Y37448826D01*
X33243750Y37450000D01*
X34156250Y37450000D01*
X34180142Y37448826D01*
G37*
G36*
X34180142Y39323826D02*
G01*
X34203803Y39320316D01*
X34227007Y39314504D01*
X34249529Y39306446D01*
X34271153Y39296218D01*
X34291670Y39283921D01*
X34310883Y39269671D01*
X34328607Y39253607D01*
X34344671Y39235883D01*
X34358921Y39216670D01*
X34371218Y39196153D01*
X34381446Y39174529D01*
X34389504Y39152007D01*
X34395316Y39128803D01*
X34398826Y39105142D01*
X34400000Y39081250D01*
X34400000Y38593750D01*
X34398826Y38569858D01*
X34395316Y38546197D01*
X34389504Y38522993D01*
X34381446Y38500471D01*
X34371218Y38478847D01*
X34358921Y38458330D01*
X34344671Y38439117D01*
X34328607Y38421393D01*
X34310883Y38405329D01*
X34291670Y38391079D01*
X34271153Y38378782D01*
X34249529Y38368554D01*
X34227007Y38360496D01*
X34203803Y38354684D01*
X34180142Y38351174D01*
X34156250Y38350000D01*
X33243750Y38350000D01*
X33219858Y38351174D01*
X33196197Y38354684D01*
X33172993Y38360496D01*
X33150471Y38368554D01*
X33128847Y38378782D01*
X33108330Y38391079D01*
X33089117Y38405329D01*
X33071393Y38421393D01*
X33055329Y38439117D01*
X33041079Y38458330D01*
X33028782Y38478847D01*
X33018554Y38500471D01*
X33010496Y38522993D01*
X33004684Y38546197D01*
X33001174Y38569858D01*
X33000000Y38593750D01*
X33000000Y39081250D01*
X33001174Y39105142D01*
X33004684Y39128803D01*
X33010496Y39152007D01*
X33018554Y39174529D01*
X33028782Y39196153D01*
X33041079Y39216670D01*
X33055329Y39235883D01*
X33071393Y39253607D01*
X33089117Y39269671D01*
X33108330Y39283921D01*
X33128847Y39296218D01*
X33150471Y39306446D01*
X33172993Y39314504D01*
X33196197Y39320316D01*
X33219858Y39323826D01*
X33243750Y39325000D01*
X34156250Y39325000D01*
X34180142Y39323826D01*
G37*
%TD*%
%TO.C,C14*%
G36*
X22380142Y29398826D02*
G01*
X22403803Y29395316D01*
X22427007Y29389504D01*
X22449529Y29381446D01*
X22471153Y29371218D01*
X22491670Y29358921D01*
X22510883Y29344671D01*
X22528607Y29328607D01*
X22544671Y29310883D01*
X22558921Y29291670D01*
X22571218Y29271153D01*
X22581446Y29249529D01*
X22589504Y29227007D01*
X22595316Y29203803D01*
X22598826Y29180142D01*
X22600000Y29156250D01*
X22600000Y28243750D01*
X22598826Y28219858D01*
X22595316Y28196197D01*
X22589504Y28172993D01*
X22581446Y28150471D01*
X22571218Y28128847D01*
X22558921Y28108330D01*
X22544671Y28089117D01*
X22528607Y28071393D01*
X22510883Y28055329D01*
X22491670Y28041079D01*
X22471153Y28028782D01*
X22449529Y28018554D01*
X22427007Y28010496D01*
X22403803Y28004684D01*
X22380142Y28001174D01*
X22356250Y28000000D01*
X21868750Y28000000D01*
X21844858Y28001174D01*
X21821197Y28004684D01*
X21797993Y28010496D01*
X21775471Y28018554D01*
X21753847Y28028782D01*
X21733330Y28041079D01*
X21714117Y28055329D01*
X21696393Y28071393D01*
X21680329Y28089117D01*
X21666079Y28108330D01*
X21653782Y28128847D01*
X21643554Y28150471D01*
X21635496Y28172993D01*
X21629684Y28196197D01*
X21626174Y28219858D01*
X21625000Y28243750D01*
X21625000Y29156250D01*
X21626174Y29180142D01*
X21629684Y29203803D01*
X21635496Y29227007D01*
X21643554Y29249529D01*
X21653782Y29271153D01*
X21666079Y29291670D01*
X21680329Y29310883D01*
X21696393Y29328607D01*
X21714117Y29344671D01*
X21733330Y29358921D01*
X21753847Y29371218D01*
X21775471Y29381446D01*
X21797993Y29389504D01*
X21821197Y29395316D01*
X21844858Y29398826D01*
X21868750Y29400000D01*
X22356250Y29400000D01*
X22380142Y29398826D01*
G37*
G36*
X24255142Y29398826D02*
G01*
X24278803Y29395316D01*
X24302007Y29389504D01*
X24324529Y29381446D01*
X24346153Y29371218D01*
X24366670Y29358921D01*
X24385883Y29344671D01*
X24403607Y29328607D01*
X24419671Y29310883D01*
X24433921Y29291670D01*
X24446218Y29271153D01*
X24456446Y29249529D01*
X24464504Y29227007D01*
X24470316Y29203803D01*
X24473826Y29180142D01*
X24475000Y29156250D01*
X24475000Y28243750D01*
X24473826Y28219858D01*
X24470316Y28196197D01*
X24464504Y28172993D01*
X24456446Y28150471D01*
X24446218Y28128847D01*
X24433921Y28108330D01*
X24419671Y28089117D01*
X24403607Y28071393D01*
X24385883Y28055329D01*
X24366670Y28041079D01*
X24346153Y28028782D01*
X24324529Y28018554D01*
X24302007Y28010496D01*
X24278803Y28004684D01*
X24255142Y28001174D01*
X24231250Y28000000D01*
X23743750Y28000000D01*
X23719858Y28001174D01*
X23696197Y28004684D01*
X23672993Y28010496D01*
X23650471Y28018554D01*
X23628847Y28028782D01*
X23608330Y28041079D01*
X23589117Y28055329D01*
X23571393Y28071393D01*
X23555329Y28089117D01*
X23541079Y28108330D01*
X23528782Y28128847D01*
X23518554Y28150471D01*
X23510496Y28172993D01*
X23504684Y28196197D01*
X23501174Y28219858D01*
X23500000Y28243750D01*
X23500000Y29156250D01*
X23501174Y29180142D01*
X23504684Y29203803D01*
X23510496Y29227007D01*
X23518554Y29249529D01*
X23528782Y29271153D01*
X23541079Y29291670D01*
X23555329Y29310883D01*
X23571393Y29328607D01*
X23589117Y29344671D01*
X23608330Y29358921D01*
X23628847Y29371218D01*
X23650471Y29381446D01*
X23672993Y29389504D01*
X23696197Y29395316D01*
X23719858Y29398826D01*
X23743750Y29400000D01*
X24231250Y29400000D01*
X24255142Y29398826D01*
G37*
%TD*%
%TO.C,C15*%
G36*
X21705142Y24998826D02*
G01*
X21728803Y24995316D01*
X21752007Y24989504D01*
X21774529Y24981446D01*
X21796153Y24971218D01*
X21816670Y24958921D01*
X21835883Y24944671D01*
X21853607Y24928607D01*
X21869671Y24910883D01*
X21883921Y24891670D01*
X21896218Y24871153D01*
X21906446Y24849529D01*
X21914504Y24827007D01*
X21920316Y24803803D01*
X21923826Y24780142D01*
X21925000Y24756250D01*
X21925000Y23843750D01*
X21923826Y23819858D01*
X21920316Y23796197D01*
X21914504Y23772993D01*
X21906446Y23750471D01*
X21896218Y23728847D01*
X21883921Y23708330D01*
X21869671Y23689117D01*
X21853607Y23671393D01*
X21835883Y23655329D01*
X21816670Y23641079D01*
X21796153Y23628782D01*
X21774529Y23618554D01*
X21752007Y23610496D01*
X21728803Y23604684D01*
X21705142Y23601174D01*
X21681250Y23600000D01*
X21193750Y23600000D01*
X21169858Y23601174D01*
X21146197Y23604684D01*
X21122993Y23610496D01*
X21100471Y23618554D01*
X21078847Y23628782D01*
X21058330Y23641079D01*
X21039117Y23655329D01*
X21021393Y23671393D01*
X21005329Y23689117D01*
X20991079Y23708330D01*
X20978782Y23728847D01*
X20968554Y23750471D01*
X20960496Y23772993D01*
X20954684Y23796197D01*
X20951174Y23819858D01*
X20950000Y23843750D01*
X20950000Y24756250D01*
X20951174Y24780142D01*
X20954684Y24803803D01*
X20960496Y24827007D01*
X20968554Y24849529D01*
X20978782Y24871153D01*
X20991079Y24891670D01*
X21005329Y24910883D01*
X21021393Y24928607D01*
X21039117Y24944671D01*
X21058330Y24958921D01*
X21078847Y24971218D01*
X21100471Y24981446D01*
X21122993Y24989504D01*
X21146197Y24995316D01*
X21169858Y24998826D01*
X21193750Y25000000D01*
X21681250Y25000000D01*
X21705142Y24998826D01*
G37*
G36*
X19830142Y24998826D02*
G01*
X19853803Y24995316D01*
X19877007Y24989504D01*
X19899529Y24981446D01*
X19921153Y24971218D01*
X19941670Y24958921D01*
X19960883Y24944671D01*
X19978607Y24928607D01*
X19994671Y24910883D01*
X20008921Y24891670D01*
X20021218Y24871153D01*
X20031446Y24849529D01*
X20039504Y24827007D01*
X20045316Y24803803D01*
X20048826Y24780142D01*
X20050000Y24756250D01*
X20050000Y23843750D01*
X20048826Y23819858D01*
X20045316Y23796197D01*
X20039504Y23772993D01*
X20031446Y23750471D01*
X20021218Y23728847D01*
X20008921Y23708330D01*
X19994671Y23689117D01*
X19978607Y23671393D01*
X19960883Y23655329D01*
X19941670Y23641079D01*
X19921153Y23628782D01*
X19899529Y23618554D01*
X19877007Y23610496D01*
X19853803Y23604684D01*
X19830142Y23601174D01*
X19806250Y23600000D01*
X19318750Y23600000D01*
X19294858Y23601174D01*
X19271197Y23604684D01*
X19247993Y23610496D01*
X19225471Y23618554D01*
X19203847Y23628782D01*
X19183330Y23641079D01*
X19164117Y23655329D01*
X19146393Y23671393D01*
X19130329Y23689117D01*
X19116079Y23708330D01*
X19103782Y23728847D01*
X19093554Y23750471D01*
X19085496Y23772993D01*
X19079684Y23796197D01*
X19076174Y23819858D01*
X19075000Y23843750D01*
X19075000Y24756250D01*
X19076174Y24780142D01*
X19079684Y24803803D01*
X19085496Y24827007D01*
X19093554Y24849529D01*
X19103782Y24871153D01*
X19116079Y24891670D01*
X19130329Y24910883D01*
X19146393Y24928607D01*
X19164117Y24944671D01*
X19183330Y24958921D01*
X19203847Y24971218D01*
X19225471Y24981446D01*
X19247993Y24989504D01*
X19271197Y24995316D01*
X19294858Y24998826D01*
X19318750Y25000000D01*
X19806250Y25000000D01*
X19830142Y24998826D01*
G37*
%TD*%
%TO.C,C16*%
G36*
X14605142Y48098826D02*
G01*
X14628803Y48095316D01*
X14652007Y48089504D01*
X14674529Y48081446D01*
X14696153Y48071218D01*
X14716670Y48058921D01*
X14735883Y48044671D01*
X14753607Y48028607D01*
X14769671Y48010883D01*
X14783921Y47991670D01*
X14796218Y47971153D01*
X14806446Y47949529D01*
X14814504Y47927007D01*
X14820316Y47903803D01*
X14823826Y47880142D01*
X14825000Y47856250D01*
X14825000Y46943750D01*
X14823826Y46919858D01*
X14820316Y46896197D01*
X14814504Y46872993D01*
X14806446Y46850471D01*
X14796218Y46828847D01*
X14783921Y46808330D01*
X14769671Y46789117D01*
X14753607Y46771393D01*
X14735883Y46755329D01*
X14716670Y46741079D01*
X14696153Y46728782D01*
X14674529Y46718554D01*
X14652007Y46710496D01*
X14628803Y46704684D01*
X14605142Y46701174D01*
X14581250Y46700000D01*
X14093750Y46700000D01*
X14069858Y46701174D01*
X14046197Y46704684D01*
X14022993Y46710496D01*
X14000471Y46718554D01*
X13978847Y46728782D01*
X13958330Y46741079D01*
X13939117Y46755329D01*
X13921393Y46771393D01*
X13905329Y46789117D01*
X13891079Y46808330D01*
X13878782Y46828847D01*
X13868554Y46850471D01*
X13860496Y46872993D01*
X13854684Y46896197D01*
X13851174Y46919858D01*
X13850000Y46943750D01*
X13850000Y47856250D01*
X13851174Y47880142D01*
X13854684Y47903803D01*
X13860496Y47927007D01*
X13868554Y47949529D01*
X13878782Y47971153D01*
X13891079Y47991670D01*
X13905329Y48010883D01*
X13921393Y48028607D01*
X13939117Y48044671D01*
X13958330Y48058921D01*
X13978847Y48071218D01*
X14000471Y48081446D01*
X14022993Y48089504D01*
X14046197Y48095316D01*
X14069858Y48098826D01*
X14093750Y48100000D01*
X14581250Y48100000D01*
X14605142Y48098826D01*
G37*
G36*
X12730142Y48098826D02*
G01*
X12753803Y48095316D01*
X12777007Y48089504D01*
X12799529Y48081446D01*
X12821153Y48071218D01*
X12841670Y48058921D01*
X12860883Y48044671D01*
X12878607Y48028607D01*
X12894671Y48010883D01*
X12908921Y47991670D01*
X12921218Y47971153D01*
X12931446Y47949529D01*
X12939504Y47927007D01*
X12945316Y47903803D01*
X12948826Y47880142D01*
X12950000Y47856250D01*
X12950000Y46943750D01*
X12948826Y46919858D01*
X12945316Y46896197D01*
X12939504Y46872993D01*
X12931446Y46850471D01*
X12921218Y46828847D01*
X12908921Y46808330D01*
X12894671Y46789117D01*
X12878607Y46771393D01*
X12860883Y46755329D01*
X12841670Y46741079D01*
X12821153Y46728782D01*
X12799529Y46718554D01*
X12777007Y46710496D01*
X12753803Y46704684D01*
X12730142Y46701174D01*
X12706250Y46700000D01*
X12218750Y46700000D01*
X12194858Y46701174D01*
X12171197Y46704684D01*
X12147993Y46710496D01*
X12125471Y46718554D01*
X12103847Y46728782D01*
X12083330Y46741079D01*
X12064117Y46755329D01*
X12046393Y46771393D01*
X12030329Y46789117D01*
X12016079Y46808330D01*
X12003782Y46828847D01*
X11993554Y46850471D01*
X11985496Y46872993D01*
X11979684Y46896197D01*
X11976174Y46919858D01*
X11975000Y46943750D01*
X11975000Y47856250D01*
X11976174Y47880142D01*
X11979684Y47903803D01*
X11985496Y47927007D01*
X11993554Y47949529D01*
X12003782Y47971153D01*
X12016079Y47991670D01*
X12030329Y48010883D01*
X12046393Y48028607D01*
X12064117Y48044671D01*
X12083330Y48058921D01*
X12103847Y48071218D01*
X12125471Y48081446D01*
X12147993Y48089504D01*
X12171197Y48095316D01*
X12194858Y48098826D01*
X12218750Y48100000D01*
X12706250Y48100000D01*
X12730142Y48098826D01*
G37*
%TD*%
%TO.C,C5*%
G36*
X23094504Y57003796D02*
G01*
X23118773Y57000196D01*
X23142571Y56994235D01*
X23165671Y56985970D01*
X23187849Y56975480D01*
X23208893Y56962867D01*
X23228598Y56948253D01*
X23246777Y56931777D01*
X23263253Y56913598D01*
X23277867Y56893893D01*
X23290480Y56872849D01*
X23300970Y56850671D01*
X23309235Y56827571D01*
X23315196Y56803773D01*
X23318796Y56779504D01*
X23320000Y56755000D01*
X23320000Y54905000D01*
X23318796Y54880496D01*
X23315196Y54856227D01*
X23309235Y54832429D01*
X23300970Y54809329D01*
X23290480Y54787151D01*
X23277867Y54766107D01*
X23263253Y54746402D01*
X23246777Y54728223D01*
X23228598Y54711747D01*
X23208893Y54697133D01*
X23187849Y54684520D01*
X23165671Y54674030D01*
X23142571Y54665765D01*
X23118773Y54659804D01*
X23094504Y54656204D01*
X23070000Y54655000D01*
X21495000Y54655000D01*
X21470496Y54656204D01*
X21446227Y54659804D01*
X21422429Y54665765D01*
X21399329Y54674030D01*
X21377151Y54684520D01*
X21356107Y54697133D01*
X21336402Y54711747D01*
X21318223Y54728223D01*
X21301747Y54746402D01*
X21287133Y54766107D01*
X21274520Y54787151D01*
X21264030Y54809329D01*
X21255765Y54832429D01*
X21249804Y54856227D01*
X21246204Y54880496D01*
X21245000Y54905000D01*
X21245000Y56755000D01*
X21246204Y56779504D01*
X21249804Y56803773D01*
X21255765Y56827571D01*
X21264030Y56850671D01*
X21274520Y56872849D01*
X21287133Y56893893D01*
X21301747Y56913598D01*
X21318223Y56931777D01*
X21336402Y56948253D01*
X21356107Y56962867D01*
X21377151Y56975480D01*
X21399329Y56985970D01*
X21422429Y56994235D01*
X21446227Y57000196D01*
X21470496Y57003796D01*
X21495000Y57005000D01*
X23070000Y57005000D01*
X23094504Y57003796D01*
G37*
G36*
X18169504Y57003796D02*
G01*
X18193773Y57000196D01*
X18217571Y56994235D01*
X18240671Y56985970D01*
X18262849Y56975480D01*
X18283893Y56962867D01*
X18303598Y56948253D01*
X18321777Y56931777D01*
X18338253Y56913598D01*
X18352867Y56893893D01*
X18365480Y56872849D01*
X18375970Y56850671D01*
X18384235Y56827571D01*
X18390196Y56803773D01*
X18393796Y56779504D01*
X18395000Y56755000D01*
X18395000Y54905000D01*
X18393796Y54880496D01*
X18390196Y54856227D01*
X18384235Y54832429D01*
X18375970Y54809329D01*
X18365480Y54787151D01*
X18352867Y54766107D01*
X18338253Y54746402D01*
X18321777Y54728223D01*
X18303598Y54711747D01*
X18283893Y54697133D01*
X18262849Y54684520D01*
X18240671Y54674030D01*
X18217571Y54665765D01*
X18193773Y54659804D01*
X18169504Y54656204D01*
X18145000Y54655000D01*
X16570000Y54655000D01*
X16545496Y54656204D01*
X16521227Y54659804D01*
X16497429Y54665765D01*
X16474329Y54674030D01*
X16452151Y54684520D01*
X16431107Y54697133D01*
X16411402Y54711747D01*
X16393223Y54728223D01*
X16376747Y54746402D01*
X16362133Y54766107D01*
X16349520Y54787151D01*
X16339030Y54809329D01*
X16330765Y54832429D01*
X16324804Y54856227D01*
X16321204Y54880496D01*
X16320000Y54905000D01*
X16320000Y56755000D01*
X16321204Y56779504D01*
X16324804Y56803773D01*
X16330765Y56827571D01*
X16339030Y56850671D01*
X16349520Y56872849D01*
X16362133Y56893893D01*
X16376747Y56913598D01*
X16393223Y56931777D01*
X16411402Y56948253D01*
X16431107Y56962867D01*
X16452151Y56975480D01*
X16474329Y56985970D01*
X16497429Y56994235D01*
X16521227Y57000196D01*
X16545496Y57003796D01*
X16570000Y57005000D01*
X18145000Y57005000D01*
X18169504Y57003796D01*
G37*
%TD*%
%TO.C,C6*%
G36*
X25949505Y36848796D02*
G01*
X25973773Y36845196D01*
X25997572Y36839235D01*
X26020671Y36830970D01*
X26042850Y36820480D01*
X26063893Y36807868D01*
X26083599Y36793253D01*
X26101777Y36776777D01*
X26118253Y36758599D01*
X26132868Y36738893D01*
X26145480Y36717850D01*
X26155970Y36695671D01*
X26164235Y36672572D01*
X26170196Y36648773D01*
X26173796Y36624505D01*
X26175000Y36600001D01*
X26175000Y36049999D01*
X26173796Y36025495D01*
X26170196Y36001227D01*
X26164235Y35977428D01*
X26155970Y35954329D01*
X26145480Y35932150D01*
X26132868Y35911107D01*
X26118253Y35891401D01*
X26101777Y35873223D01*
X26083599Y35856747D01*
X26063893Y35842132D01*
X26042850Y35829520D01*
X26020671Y35819030D01*
X25997572Y35810765D01*
X25973773Y35804804D01*
X25949505Y35801204D01*
X25925001Y35800000D01*
X25299999Y35800000D01*
X25275495Y35801204D01*
X25251227Y35804804D01*
X25227428Y35810765D01*
X25204329Y35819030D01*
X25182150Y35829520D01*
X25161107Y35842132D01*
X25141401Y35856747D01*
X25123223Y35873223D01*
X25106747Y35891401D01*
X25092132Y35911107D01*
X25079520Y35932150D01*
X25069030Y35954329D01*
X25060765Y35977428D01*
X25054804Y36001227D01*
X25051204Y36025495D01*
X25050000Y36049999D01*
X25050000Y36600001D01*
X25051204Y36624505D01*
X25054804Y36648773D01*
X25060765Y36672572D01*
X25069030Y36695671D01*
X25079520Y36717850D01*
X25092132Y36738893D01*
X25106747Y36758599D01*
X25123223Y36776777D01*
X25141401Y36793253D01*
X25161107Y36807868D01*
X25182150Y36820480D01*
X25204329Y36830970D01*
X25227428Y36839235D01*
X25251227Y36845196D01*
X25275495Y36848796D01*
X25299999Y36850000D01*
X25925001Y36850000D01*
X25949505Y36848796D01*
G37*
G36*
X27724505Y36848796D02*
G01*
X27748773Y36845196D01*
X27772572Y36839235D01*
X27795671Y36830970D01*
X27817850Y36820480D01*
X27838893Y36807868D01*
X27858599Y36793253D01*
X27876777Y36776777D01*
X27893253Y36758599D01*
X27907868Y36738893D01*
X27920480Y36717850D01*
X27930970Y36695671D01*
X27939235Y36672572D01*
X27945196Y36648773D01*
X27948796Y36624505D01*
X27950000Y36600001D01*
X27950000Y36049999D01*
X27948796Y36025495D01*
X27945196Y36001227D01*
X27939235Y35977428D01*
X27930970Y35954329D01*
X27920480Y35932150D01*
X27907868Y35911107D01*
X27893253Y35891401D01*
X27876777Y35873223D01*
X27858599Y35856747D01*
X27838893Y35842132D01*
X27817850Y35829520D01*
X27795671Y35819030D01*
X27772572Y35810765D01*
X27748773Y35804804D01*
X27724505Y35801204D01*
X27700001Y35800000D01*
X27074999Y35800000D01*
X27050495Y35801204D01*
X27026227Y35804804D01*
X27002428Y35810765D01*
X26979329Y35819030D01*
X26957150Y35829520D01*
X26936107Y35842132D01*
X26916401Y35856747D01*
X26898223Y35873223D01*
X26881747Y35891401D01*
X26867132Y35911107D01*
X26854520Y35932150D01*
X26844030Y35954329D01*
X26835765Y35977428D01*
X26829804Y36001227D01*
X26826204Y36025495D01*
X26825000Y36049999D01*
X26825000Y36600001D01*
X26826204Y36624505D01*
X26829804Y36648773D01*
X26835765Y36672572D01*
X26844030Y36695671D01*
X26854520Y36717850D01*
X26867132Y36738893D01*
X26881747Y36758599D01*
X26898223Y36776777D01*
X26916401Y36793253D01*
X26936107Y36807868D01*
X26957150Y36820480D01*
X26979329Y36830970D01*
X27002428Y36839235D01*
X27026227Y36845196D01*
X27050495Y36848796D01*
X27074999Y36850000D01*
X27700001Y36850000D01*
X27724505Y36848796D01*
G37*
%TD*%
%TO.C,C7*%
G36*
X12799505Y52198796D02*
G01*
X12823773Y52195196D01*
X12847572Y52189235D01*
X12870671Y52180970D01*
X12892850Y52170480D01*
X12913893Y52157868D01*
X12933599Y52143253D01*
X12951777Y52126777D01*
X12968253Y52108599D01*
X12982868Y52088893D01*
X12995480Y52067850D01*
X13005970Y52045671D01*
X13014235Y52022572D01*
X13020196Y51998773D01*
X13023796Y51974505D01*
X13025000Y51950001D01*
X13025000Y51324999D01*
X13023796Y51300495D01*
X13020196Y51276227D01*
X13014235Y51252428D01*
X13005970Y51229329D01*
X12995480Y51207150D01*
X12982868Y51186107D01*
X12968253Y51166401D01*
X12951777Y51148223D01*
X12933599Y51131747D01*
X12913893Y51117132D01*
X12892850Y51104520D01*
X12870671Y51094030D01*
X12847572Y51085765D01*
X12823773Y51079804D01*
X12799505Y51076204D01*
X12775001Y51075000D01*
X12224999Y51075000D01*
X12200495Y51076204D01*
X12176227Y51079804D01*
X12152428Y51085765D01*
X12129329Y51094030D01*
X12107150Y51104520D01*
X12086107Y51117132D01*
X12066401Y51131747D01*
X12048223Y51148223D01*
X12031747Y51166401D01*
X12017132Y51186107D01*
X12004520Y51207150D01*
X11994030Y51229329D01*
X11985765Y51252428D01*
X11979804Y51276227D01*
X11976204Y51300495D01*
X11975000Y51324999D01*
X11975000Y51950001D01*
X11976204Y51974505D01*
X11979804Y51998773D01*
X11985765Y52022572D01*
X11994030Y52045671D01*
X12004520Y52067850D01*
X12017132Y52088893D01*
X12031747Y52108599D01*
X12048223Y52126777D01*
X12066401Y52143253D01*
X12086107Y52157868D01*
X12107150Y52170480D01*
X12129329Y52180970D01*
X12152428Y52189235D01*
X12176227Y52195196D01*
X12200495Y52198796D01*
X12224999Y52200000D01*
X12775001Y52200000D01*
X12799505Y52198796D01*
G37*
G36*
X12799505Y50423796D02*
G01*
X12823773Y50420196D01*
X12847572Y50414235D01*
X12870671Y50405970D01*
X12892850Y50395480D01*
X12913893Y50382868D01*
X12933599Y50368253D01*
X12951777Y50351777D01*
X12968253Y50333599D01*
X12982868Y50313893D01*
X12995480Y50292850D01*
X13005970Y50270671D01*
X13014235Y50247572D01*
X13020196Y50223773D01*
X13023796Y50199505D01*
X13025000Y50175001D01*
X13025000Y49549999D01*
X13023796Y49525495D01*
X13020196Y49501227D01*
X13014235Y49477428D01*
X13005970Y49454329D01*
X12995480Y49432150D01*
X12982868Y49411107D01*
X12968253Y49391401D01*
X12951777Y49373223D01*
X12933599Y49356747D01*
X12913893Y49342132D01*
X12892850Y49329520D01*
X12870671Y49319030D01*
X12847572Y49310765D01*
X12823773Y49304804D01*
X12799505Y49301204D01*
X12775001Y49300000D01*
X12224999Y49300000D01*
X12200495Y49301204D01*
X12176227Y49304804D01*
X12152428Y49310765D01*
X12129329Y49319030D01*
X12107150Y49329520D01*
X12086107Y49342132D01*
X12066401Y49356747D01*
X12048223Y49373223D01*
X12031747Y49391401D01*
X12017132Y49411107D01*
X12004520Y49432150D01*
X11994030Y49454329D01*
X11985765Y49477428D01*
X11979804Y49501227D01*
X11976204Y49525495D01*
X11975000Y49549999D01*
X11975000Y50175001D01*
X11976204Y50199505D01*
X11979804Y50223773D01*
X11985765Y50247572D01*
X11994030Y50270671D01*
X12004520Y50292850D01*
X12017132Y50313893D01*
X12031747Y50333599D01*
X12048223Y50351777D01*
X12066401Y50368253D01*
X12086107Y50382868D01*
X12107150Y50395480D01*
X12129329Y50405970D01*
X12152428Y50414235D01*
X12176227Y50420196D01*
X12200495Y50423796D01*
X12224999Y50425000D01*
X12775001Y50425000D01*
X12799505Y50423796D01*
G37*
%TD*%
%TO.C,C8*%
G36*
X17699505Y49348796D02*
G01*
X17723773Y49345196D01*
X17747572Y49339235D01*
X17770671Y49330970D01*
X17792850Y49320480D01*
X17813893Y49307868D01*
X17833599Y49293253D01*
X17851777Y49276777D01*
X17868253Y49258599D01*
X17882868Y49238893D01*
X17895480Y49217850D01*
X17905970Y49195671D01*
X17914235Y49172572D01*
X17920196Y49148773D01*
X17923796Y49124505D01*
X17925000Y49100001D01*
X17925000Y48199999D01*
X17923796Y48175495D01*
X17920196Y48151227D01*
X17914235Y48127428D01*
X17905970Y48104329D01*
X17895480Y48082150D01*
X17882868Y48061107D01*
X17868253Y48041401D01*
X17851777Y48023223D01*
X17833599Y48006747D01*
X17813893Y47992132D01*
X17792850Y47979520D01*
X17770671Y47969030D01*
X17747572Y47960765D01*
X17723773Y47954804D01*
X17699505Y47951204D01*
X17675001Y47950000D01*
X16824999Y47950000D01*
X16800495Y47951204D01*
X16776227Y47954804D01*
X16752428Y47960765D01*
X16729329Y47969030D01*
X16707150Y47979520D01*
X16686107Y47992132D01*
X16666401Y48006747D01*
X16648223Y48023223D01*
X16631747Y48041401D01*
X16617132Y48061107D01*
X16604520Y48082150D01*
X16594030Y48104329D01*
X16585765Y48127428D01*
X16579804Y48151227D01*
X16576204Y48175495D01*
X16575000Y48199999D01*
X16575000Y49100001D01*
X16576204Y49124505D01*
X16579804Y49148773D01*
X16585765Y49172572D01*
X16594030Y49195671D01*
X16604520Y49217850D01*
X16617132Y49238893D01*
X16631747Y49258599D01*
X16648223Y49276777D01*
X16666401Y49293253D01*
X16686107Y49307868D01*
X16707150Y49320480D01*
X16729329Y49330970D01*
X16752428Y49339235D01*
X16776227Y49345196D01*
X16800495Y49348796D01*
X16824999Y49350000D01*
X17675001Y49350000D01*
X17699505Y49348796D01*
G37*
G36*
X17699505Y52048796D02*
G01*
X17723773Y52045196D01*
X17747572Y52039235D01*
X17770671Y52030970D01*
X17792850Y52020480D01*
X17813893Y52007868D01*
X17833599Y51993253D01*
X17851777Y51976777D01*
X17868253Y51958599D01*
X17882868Y51938893D01*
X17895480Y51917850D01*
X17905970Y51895671D01*
X17914235Y51872572D01*
X17920196Y51848773D01*
X17923796Y51824505D01*
X17925000Y51800001D01*
X17925000Y50899999D01*
X17923796Y50875495D01*
X17920196Y50851227D01*
X17914235Y50827428D01*
X17905970Y50804329D01*
X17895480Y50782150D01*
X17882868Y50761107D01*
X17868253Y50741401D01*
X17851777Y50723223D01*
X17833599Y50706747D01*
X17813893Y50692132D01*
X17792850Y50679520D01*
X17770671Y50669030D01*
X17747572Y50660765D01*
X17723773Y50654804D01*
X17699505Y50651204D01*
X17675001Y50650000D01*
X16824999Y50650000D01*
X16800495Y50651204D01*
X16776227Y50654804D01*
X16752428Y50660765D01*
X16729329Y50669030D01*
X16707150Y50679520D01*
X16686107Y50692132D01*
X16666401Y50706747D01*
X16648223Y50723223D01*
X16631747Y50741401D01*
X16617132Y50761107D01*
X16604520Y50782150D01*
X16594030Y50804329D01*
X16585765Y50827428D01*
X16579804Y50851227D01*
X16576204Y50875495D01*
X16575000Y50899999D01*
X16575000Y51800001D01*
X16576204Y51824505D01*
X16579804Y51848773D01*
X16585765Y51872572D01*
X16594030Y51895671D01*
X16604520Y51917850D01*
X16617132Y51938893D01*
X16631747Y51958599D01*
X16648223Y51976777D01*
X16666401Y51993253D01*
X16686107Y52007868D01*
X16707150Y52020480D01*
X16729329Y52030970D01*
X16752428Y52039235D01*
X16776227Y52045196D01*
X16800495Y52048796D01*
X16824999Y52050000D01*
X17675001Y52050000D01*
X17699505Y52048796D01*
G37*
%TD*%
M02*
